# Blender v2.90.1 OBJ File: 'NaturePack_AllModels.blend'
# www.blender.org
mtllib arch1.mtl
o BG_Cube_Cube.004
v -31.260582 -1.941210 22.096029
v -31.260582 -0.031506 22.096029
v -31.260582 -1.941210 -22.727152
v -31.260582 -0.031506 -22.727152
v 31.735401 -1.941210 22.096029
v 31.735401 -0.031506 22.096029
v 31.735401 -1.941210 -22.727152
v 31.735401 -0.031506 -22.727152
vt 0.375000 0.000000
vt 0.625000 0.000000
vt 0.625000 0.250000
vt 0.375000 0.250000
vt 0.625000 0.500000
vt 0.375000 0.500000
vt 0.625000 0.750000
vt 0.375000 0.750000
vt 0.625000 1.000000
vt 0.375000 1.000000
vt 0.125000 0.500000
vt 0.125000 0.750000
vt 0.875000 0.500000
vt 0.875000 0.750000
vn -1.0000 0.0000 0.0000
vn 0.0000 0.0000 -1.0000
vn 1.0000 0.0000 0.0000
vn 0.0000 0.0000 1.0000
vn 0.0000 -1.0000 0.0000
vn 0.0000 1.0000 0.0000
usemtl BG2
s off
f 1/1/1 2/2/1 4/3/1 3/4/1
f 3/4/2 4/3/2 8/5/2 7/6/2
f 7/6/3 8/5/3 6/7/3 5/8/3
f 5/8/4 6/7/4 2/9/4 1/10/4
f 3/11/5 7/6/5 5/8/5 1/12/5
f 8/5/6 4/13/6 2/14/6 6/7/6
o Ruins5_Cube.026
v 14.740264 2.242758 8.708201
v 13.803482 2.379934 8.745450
v 14.566441 1.467303 9.830112
v 14.575487 1.461700 8.736176
v 14.160975 1.925989 9.853768
v 14.797804 2.262085 9.835646
v 15.337868 1.879898 9.807268
v 14.851460 1.573469 9.373898
v 14.123524 2.569886 9.032050
v 14.236118 2.652116 9.487293
v 14.564067 2.793904 8.734416
v 15.117465 3.082026 9.803084
v 15.339114 1.880067 8.762190
v 13.787326 2.392775 9.847404
v 15.118361 3.076617 8.768469
vt 0.000000 0.000000
vt 0.000000 0.000000
vt 0.000000 0.000000
vt 0.000000 0.000000
vt 0.000000 0.000000
vt 0.000000 0.000000
vt 0.000000 0.000000
vt 0.000000 0.000000
vt 0.000000 0.000000
vt 0.000000 0.000000
vt 0.000000 0.000000
vt 0.000000 0.000000
vt 0.821477 0.610734
vt 0.678589 0.610721
vt 0.739736 0.591697
vt 0.717514 0.657585
vt 0.774064 0.660289
vt 0.679147 0.667886
vt 0.821476 0.667871
vt 0.678598 0.639305
vt 0.821476 0.639295
vt 0.678617 0.582290
vt 0.821382 0.582170
vt 0.821476 0.651273
vn 0.9836 0.1803 0.0012
vn 0.9834 0.1814 -0.0001
vn 0.0319 0.0577 -0.9978
vn 0.1045 0.0245 -0.9942
vn 0.0379 -0.0180 0.9991
vn -0.5497 -0.4497 -0.7040
vn -0.0344 0.0365 -0.9987
vn -0.0436 -0.0266 -0.9987
vn -0.7650 -0.6440 -0.0030
vn -0.7654 -0.6435 -0.0037
vn 0.0605 -0.0485 -0.9970
vn 0.5327 -0.8463 0.0005
vn 0.0394 -0.0184 0.9991
vn 0.0160 0.0335 0.9993
vn 0.0631 0.0150 0.9979
vn 0.0149 0.0256 0.9996
vn -0.5163 0.8560 -0.0269
vn -0.4987 0.8666 -0.0174
vn -0.4549 0.8905 -0.0051
vn -0.4203 0.9054 -0.0596
vn 0.3599 -0.9329 0.0078
vn 0.4812 -0.8749 -0.0549
vn -0.4572 0.8867 0.0688
vn 0.4718 -0.8770 0.0906
vn -0.4780 0.8771 -0.0475
vn -0.4543 0.8909 -0.0019
usemtl Ruins1_1
s off
f 20/15/7 15/16/7 21/17/7
f 20/15/8 21/17/8 23/18/8
f 9/19/9 19/20/9 23/18/9
f 21/17/10 9/19/10 23/18/10
f 11/21/11 14/22/11 13/23/11
f 22/24/12 11/21/12 13/23/12
f 9/19/13 10/25/13 19/20/13
f 12/26/14 10/25/14 9/19/14
f 11/21/15 22/24/15 12/26/15
f 12/26/16 22/24/16 10/25/16
f 12/26/17 9/19/17 21/17/17
f 21/27/18 15/28/18 16/29/18
f 14/22/19 11/21/19 15/16/19
f 14/22/20 20/15/20 22/24/20
f 15/16/21 20/15/21 14/22/21
f 14/22/22 22/24/22 13/23/22
f 18/30/23 17/31/23 22/32/23
f 22/32/24 17/31/24 10/33/24
f 17/31/25 20/34/25 23/35/25
f 18/30/26 20/34/26 17/31/26
f 16/29/27 11/36/27 12/37/27
f 21/27/28 16/29/28 12/37/28
f 20/34/29 18/30/29 22/32/29
f 16/29/30 15/28/30 11/36/30
f 17/31/31 19/38/31 10/33/31
f 17/31/32 23/35/32 19/38/32
o Ruins4_Cube.027
v 12.885439 0.987492 8.587418
v 14.185027 1.236377 8.621115
v 13.351421 0.586507 9.886276
v 13.757054 1.727153 8.612890
v 13.578029 1.192729 9.864620
v 12.758505 0.587497 8.614478
v 14.075772 0.964764 9.489624
v 13.034772 1.335117 9.169781
v 13.385884 2.218126 9.863806
v 13.887674 0.586253 9.862044
v 13.046298 1.354530 9.817002
v 14.162192 1.241896 9.857396
v 13.139178 1.550412 8.623841
v 13.388803 2.228755 8.593965
v 13.887486 0.586723 8.617783
v 12.763390 0.586725 9.862052
vt 0.000000 0.000000
vt 0.000000 0.000000
vt 0.000000 0.000000
vt 0.000000 0.000000
vt 0.000000 0.000000
vt 0.000000 0.000000
vt 0.000000 0.000000
vt 0.000000 0.000000
vt 0.000000 0.000000
vt 0.000000 0.000000
vt 0.000000 0.000000
vt 0.000000 0.000000
vt 0.000000 0.000000
vt 0.000000 0.000000
vt 0.678729 0.696472
vt 0.762060 0.683340
vt 0.821455 0.689328
vt 0.724355 0.571680
vt 0.678628 0.582085
vt 0.678522 0.553520
vt 0.680872 0.682349
vt 0.821476 0.679080
vt 0.821217 0.581771
vt 0.678874 0.668007
vt 0.821004 0.667885
vt 0.821474 0.696476
vt 0.821428 0.553536
vn 0.0029 -0.0684 -0.9977
vn 0.0273 -0.0074 -0.9996
vn 0.0148 0.0579 -0.9982
vn 0.0451 0.0188 0.9988
vn -0.0005 -1.0000 -0.0004
vn 0.7535 0.6573 0.0110
vn -0.0943 -0.0169 0.9954
vn -0.0007 -1.0000 -0.0006
vn 0.7826 0.6224 -0.0121
vn -0.0410 0.0736 0.9964
vn -0.0103 -0.0258 -0.9996
vn 0.8060 0.5919 0.0068
vn -0.0004 -1.0000 -0.0003
vn -0.9325 0.3604 0.0240
vn 0.0121 0.0031 0.9999
vn -0.0703 0.0619 0.9956
vn 0.0122 0.0020 0.9999
vn -0.0057 -0.0419 -0.9991
vn 0.9201 -0.3847 0.0737
vn -0.9382 0.3461 0.0063
vn -0.9113 0.4115 -0.0120
vn 0.9471 -0.3204 0.0189
vn -0.9295 0.3688 0.0010
vn -0.9531 0.3027 0.0039
vn 0.8954 -0.4453 -0.0003
vn -0.9307 0.3657 0.0056
vn 0.9091 -0.4163 -0.0158
vn -0.9382 0.3433 -0.0440
usemtl Ruins1_2
s off
f 24/39/33 38/40/33 29/41/33
f 25/42/34 38/40/34 24/39/34
f 36/43/35 25/42/35 24/39/35
f 33/44/36 28/45/36 26/46/36
f 33/44/37 26/46/37 38/40/37
f 25/42/38 27/47/38 35/48/38
f 34/49/39 28/45/39 32/50/39
f 38/40/40 39/51/40 29/41/40
f 27/47/41 32/50/41 35/48/41
f 39/51/42 26/46/42 34/49/42
f 36/43/43 27/47/43 25/42/43
f 27/47/44 37/52/44 32/50/44
f 39/51/45 38/40/45 26/46/45
f 39/53/46 31/54/46 24/55/46
f 35/48/47 32/50/47 28/45/47
f 28/45/48 34/49/48 26/46/48
f 28/45/49 33/44/49 35/48/49
f 37/52/50 27/47/50 36/43/50
f 30/56/51 35/57/51 33/58/51
f 34/59/52 31/54/52 39/53/52
f 24/55/53 31/54/53 36/60/53
f 25/61/54 35/57/54 30/56/54
f 32/62/55 37/63/55 31/54/55
f 39/53/56 24/55/56 29/64/56
f 38/65/57 30/56/57 33/58/57
f 32/62/58 31/54/58 34/59/58
f 25/61/59 30/56/59 38/65/59
f 31/54/60 37/63/60 36/60/60
o Ruins8_Cube.028
v 19.045803 0.875943 8.600348
v 18.755299 1.645753 8.575773
v 18.987997 1.032440 9.873095
v 19.216307 0.472765 9.878854
v 19.193329 0.439520 9.480771
v 19.220184 0.459778 8.611749
v 19.203182 0.436875 9.018110
v 19.211399 0.461074 9.719892
v 18.722002 1.614173 8.826088
v 18.748581 1.614041 9.076344
v 18.764917 1.588831 9.370022
v 18.765240 1.584298 9.874964
v 18.412701 0.890303 8.967300
v 18.369255 0.884211 9.567470
v 19.374628 1.598664 9.275652
v 19.164328 2.087147 9.884029
v 18.313662 1.145412 9.896958
v 18.482351 0.700620 9.210835
v 19.614311 0.901200 8.625021
v 19.635780 0.892348 9.569298
v 18.640574 0.473250 9.548068
v 19.649754 0.897351 9.262067
v 19.559320 0.859491 9.856406
v 18.495445 0.765004 9.881135
v 19.786991 0.469569 9.209814
v 18.328478 1.128324 8.938150
v 19.476221 1.262531 8.943994
v 19.163748 2.088758 8.910663
v 19.706327 0.502395 9.578893
v 18.272213 1.145415 9.578372
v 18.629982 0.466938 9.131729
v 19.162241 2.057624 9.258634
v 18.286369 1.123169 9.243172
v 19.419027 1.423275 8.624505
v 19.474470 1.246158 9.872847
v 18.496084 0.843009 8.641035
v 18.374691 1.135966 8.643749
v 19.163443 2.094132 8.625067
v 19.447042 0.578178 9.766265
v 19.782671 0.475294 8.635047
v 18.656843 0.475578 8.634729
v 18.648596 0.475412 9.879652
vt 0.000000 0.000000
vt 0.000000 0.000000
vt 0.000000 0.000000
vt 0.000000 0.000000
vt 0.000000 0.000000
vt 0.000000 0.000000
vt 0.000000 0.000000
vt 0.000000 0.000000
vt 0.000000 0.000000
vt 0.000000 0.000000
vt 0.000000 0.000000
vt 0.000000 0.000000
vt 0.000000 0.000000
vt 0.000000 0.000000
vt 0.000000 0.000000
vt 0.000000 0.000000
vt 0.000000 0.000000
vt 0.000000 0.000000
vt 0.000000 0.000000
vt 0.000000 0.000000
vt 0.000000 0.000000
vt 0.000000 0.000000
vt 0.000000 0.000000
vt 0.000000 0.000000
vt 0.000000 0.000000
vt 0.000000 0.000000
vt 0.000000 0.000000
vt 0.000000 0.000000
vt 0.000000 0.000000
vt 0.000000 0.000000
vt 0.000000 0.000000
vt 0.000000 0.000000
vt 0.000000 0.000000
vt 0.000000 0.000000
vt 0.678534 0.567820
vt 0.678524 0.560973
vt 0.714262 0.560973
vt 0.821476 0.680486
vt 0.821476 0.696526
vt 0.757001 0.685388
vt 0.785738 0.667885
vt 0.785738 0.677921
vt 0.750000 0.667975
vt 0.678524 0.668021
vt 0.714262 0.667885
vt 0.714262 0.678690
vt 0.785738 0.582169
vt 0.750000 0.582115
vt 0.750000 0.573635
vt 0.821476 0.667885
vt 0.000000 0.000000
vt 0.785738 0.567819
vt 0.750000 0.560973
vt 0.678524 0.684117
vt 0.714262 0.696456
vt 0.821476 0.570633
vt 0.821412 0.560973
vt 0.714262 0.553524
vt 0.755395 0.553524
vt 0.678650 0.582145
vt 0.763807 0.696476
vt 0.678524 0.553524
vt 0.821476 0.582115
vt 0.821476 0.553524
vt 0.678524 0.696476
vn 0.0055 -0.0113 0.9999
vn 0.0280 -0.9996 -0.0102
vn 0.0438 -0.0090 -0.9990
vn -0.7833 0.6216 0.0061
vn 0.1002 -0.9889 0.1098
vn -0.1218 -0.0413 -0.9917
vn 0.0716 -0.0048 -0.9974
vn -0.7846 0.6107 -0.1073
vn 0.0841 0.0329 -0.9959
vn -0.8029 0.5952 -0.0317
vn 0.0015 0.0109 0.9999
vn -0.0729 -0.0148 -0.9972
vn 0.0148 0.0027 0.9999
vn -0.0420 -0.0449 -0.9981
vn -0.6848 0.7247 -0.0770
vn 0.5487 -0.4457 0.7073
vn -0.0045 -0.9973 0.0735
vn 0.1059 -0.9910 0.0813
vn 0.0537 -0.9985 0.0069
vn -0.7552 0.6532 0.0552
vn -0.0515 -0.9987 0.0046
vn -0.7658 0.6425 -0.0278
vn -0.0639 -0.9962 -0.0588
vn -0.0589 -0.9981 0.0166
vn -0.7331 0.6800 0.0136
vn -0.0702 -0.0583 -0.9958
vn -0.7387 0.6739 -0.0132
vn 0.4361 -0.8984 0.0526
vn -0.7367 0.6717 0.0786
vn -0.0235 -0.9997 0.0071
vn 0.0416 -0.0071 -0.9991
vn 0.0732 -0.9959 -0.0531
vn -0.0493 -0.9944 0.0934
vn -0.7652 0.6386 0.0816
vn -0.7318 0.6744 0.0986
vn -0.7074 0.6998 0.0994
vn -0.0288 -0.9994 -0.0189
vn 0.2415 -0.7363 0.6320
vn 0.9420 0.1951 0.2732
vn -0.9102 -0.3962 -0.1209
vn -0.9289 -0.3451 -0.1341
vn -0.9289 -0.3501 0.1208
vn 0.9062 0.4209 0.0416
vn -0.9096 -0.3753 -0.1781
vn 0.0427 0.0150 -0.9990
vn 0.0368 0.0253 0.9990
vn 0.0373 0.0117 0.9992
vn 0.0309 -0.0268 0.9992
vn 0.0175 -0.0386 0.9991
vn -0.6673 0.7448 0.0071
vn -0.7403 0.6661 -0.0909
vn -0.6919 0.7164 0.0900
vn -0.0122 -0.0083 0.9999
vn 0.9269 0.3653 -0.0863
vn -0.8255 -0.5508 0.1228
vn 0.9238 0.3798 0.0482
vn 0.9366 0.3503 0.0086
vn 0.9351 0.3541 0.0108
vn 0.9643 0.1792 0.1948
vn 0.9374 0.3451 0.0470
vn -0.8405 -0.5410 0.0296
vn 0.9491 0.3107 -0.0509
vn -0.9068 -0.4149 -0.0740
vn 0.4433 -0.4291 0.7870
vn -0.9253 -0.3463 -0.1542
vn -0.9375 -0.3476 -0.0165
vn 0.9076 0.4192 -0.0228
vn 0.9345 0.3560 0.0057
vn -0.8535 -0.5004 -0.1456
vn 0.9179 0.3938 -0.0487
vn -0.8340 -0.5515 0.0194
vn 0.9297 0.3636 0.0592
vn -0.9072 -0.4158 -0.0644
vn 0.9300 0.3676 -0.0033
vn 0.9528 0.2998 0.0482
vn -0.8824 -0.4297 0.1917
vn -0.8837 -0.4675 0.0244
vn 0.9340 0.3505 -0.0691
vn 0.9457 0.1778 0.2722
vn -0.8525 -0.5199 -0.0551
usemtl Ruins1_2
s off
f 42/66/61 74/67/61 55/68/61
f 64/69/62 45/70/62 79/71/62
f 40/72/63 58/73/63 45/70/63
f 55/68/64 50/74/64 51/75/64
f 68/76/65 44/77/65 64/69/65
f 41/78/66 75/79/66 76/80/66
f 41/78/67 73/81/67 40/72/67
f 65/82/68 48/83/68 76/80/68
f 41/78/69 77/84/69 73/81/69
f 41/78/70 76/80/70 48/83/70
f 42/66/71 81/85/71 43/86/71
f 40/72/72 80/87/72 75/79/72
f 42/66/73 63/88/73 81/85/73
f 80/87/74 40/72/74 45/70/74
f 69/89/75 50/74/75 72/90/75
f 43/86/76 78/91/76 62/92/76
f 43/86/77 81/85/77 47/93/77
f 44/77/78 68/76/78 47/93/78
f 46/94/79 64/69/79 44/77/79
f 50/74/80 71/95/80 67/96/80
f 70/97/81 46/94/81 44/77/81
f 50/74/82 55/68/82 71/95/82
f 46/94/83 70/97/83 45/70/83
f 70/97/84 44/77/84 60/98/84
f 77/84/85 48/83/85 67/96/85
f 75/79/86 41/78/86 40/72/86
f 77/84/87 41/78/87 48/83/87
f 78/91/88 43/86/88 47/93/88
f 67/96/89 48/83/89 49/99/89
f 60/98/90 47/93/90 81/85/90
f 79/71/91 45/70/91 58/73/91
f 64/69/92 46/94/92 45/70/92
f 60/98/93 44/77/93 47/93/93
f 48/83/94 65/82/94 49/99/94
f 67/96/95 49/99/95 50/74/95
f 49/99/96 72/90/96 50/74/96
f 80/87/97 45/70/97 70/97/97
f 78/91/98 47/93/98 68/76/98
f 74/100/99 62/101/99 59/102/99
f 75/103/100 80/104/100 57/105/100
f 65/106/101 52/107/101 72/108/101
f 56/109/102 69/110/102 53/111/102
f 67/112/103 71/113/103 54/114/103
f 76/115/104 75/103/104 52/107/104
f 58/73/105 40/72/105 73/81/105
f 62/92/106 42/66/106 43/86/106
f 51/75/107 56/116/107 42/66/107
f 42/66/108 56/116/108 63/88/108
f 74/67/109 42/66/109 62/92/109
f 50/74/110 69/89/110 51/75/110
f 72/90/111 49/99/111 65/82/111
f 56/116/112 51/75/112 69/89/112
f 55/68/113 51/75/113 42/66/113
f 66/117/114 54/114/114 61/118/114
f 63/119/115 53/111/115 60/120/115
f 74/100/116 59/102/116 61/118/116
f 73/121/117 66/117/117 58/122/117
f 73/121/118 67/112/118 66/117/118
f 59/102/119 68/123/119 64/124/119
f 55/125/120 74/100/120 54/114/120
f 60/120/121 57/105/121 70/126/121
f 58/122/122 61/118/122 64/124/122
f 53/111/123 72/108/123 57/105/123
f 62/101/124 78/127/124 68/123/124
f 76/115/125 52/107/125 65/106/125
f 69/110/126 72/108/126 53/111/126
f 55/125/127 54/114/127 71/113/127
f 77/128/128 67/112/128 73/121/128
f 75/103/129 57/105/129 52/107/129
f 66/117/130 61/118/130 58/122/130
f 53/111/131 57/105/131 60/120/131
f 74/100/132 61/118/132 54/114/132
f 52/107/133 57/105/133 72/108/133
f 58/122/134 64/124/134 79/129/134
f 59/102/135 64/124/135 61/118/135
f 56/109/136 53/111/136 63/119/136
f 63/119/137 60/120/137 81/130/137
f 67/112/138 54/114/138 66/117/138
f 62/101/139 68/123/139 59/102/139
f 80/104/140 70/126/140 57/105/140
o Ruins7_Cube.029
v 17.280766 1.814585 8.762516
v 17.593399 1.601779 9.337865
v 18.054461 1.417485 9.840627
v 18.812014 2.316348 8.737104
v 18.451015 2.563488 9.320154
v 18.821043 2.321416 9.834452
v 17.506195 3.019896 9.806838
v 17.511332 3.038684 8.749065
v 17.283388 1.819151 9.811049
v 18.036812 1.420861 8.715134
vt 0.000000 0.000000
vt 0.000000 0.000000
vt 0.000000 0.000000
vt 0.000000 0.000000
vt 0.000000 0.000000
vt 0.000000 0.000000
vt 0.000000 0.000000
vt 0.000000 0.000000
vt 0.821459 0.582221
vt 0.747029 0.590530
vt 0.678786 0.582163
vt 0.821459 0.639295
vt 0.821415 0.666724
vt 0.740297 0.651435
vt 0.678535 0.610719
vt 0.678619 0.667890
vt 0.678544 0.639295
vt 0.821436 0.610765
vn 0.7627 -0.6468 -0.0033
vn -0.0343 0.0542 -0.9979
vn -0.0138 -0.0084 -0.9999
vn -0.9832 0.1824 -0.0015
vn -0.9827 0.1851 0.0017
vn -0.0333 0.0097 0.9994
vn -0.0120 0.0170 0.9998
vn 0.7562 -0.6542 -0.0138
vn 0.5556 0.8314 -0.0084
vn -0.4643 -0.8826 -0.0742
vn 0.4664 0.8810 0.0791
vn -0.3741 -0.9274 0.0031
vn -0.5690 -0.8223 0.0050
vn 0.4424 0.8966 0.0181
vn -0.4627 -0.8807 0.1015
vn 0.4838 0.8723 -0.0702
usemtl Ruins1_1
s off
f 84/131/141 85/132/141 87/133/141
f 85/132/142 91/134/142 82/135/142
f 82/135/143 89/136/143 85/132/143
f 89/136/144 90/137/144 88/138/144
f 89/136/145 82/135/145 90/137/145
f 90/137/146 84/131/146 88/138/146
f 88/138/147 84/131/147 87/133/147
f 91/134/148 85/132/148 84/131/148
f 85/139/149 86/140/149 87/141/149
f 82/142/150 91/143/150 83/144/150
f 88/145/151 87/141/151 86/140/151
f 91/143/152 84/146/152 83/144/152
f 82/142/153 83/144/153 90/147/153
f 88/145/154 86/140/154 89/148/154
f 90/147/155 83/144/155 84/146/155
f 89/148/156 86/140/156 85/139/156
o Ruins6_Cube.030
v 15.479374 2.966085 9.644119
v 15.592510 2.603338 9.201463
v 17.013460 2.504634 8.972006
v 17.169216 3.296819 8.505054
v 15.925469 2.675807 9.921958
v 17.042171 2.582906 9.652669
v 15.546500 2.614273 8.512912
v 15.881587 2.659685 8.486558
v 15.418287 3.299536 9.922087
v 16.467201 2.588949 8.498476
v 16.902546 1.838307 9.077332
v 16.210257 1.801089 9.387650
v 17.192574 3.300409 9.017122
v 15.449687 3.284202 8.519567
v 17.192545 3.292352 9.599776
v 16.341101 3.327474 9.364972
v 15.463614 3.328963 9.314779
v 16.929888 1.830473 9.624480
v 16.735962 3.292514 8.518725
v 16.917196 1.835909 9.918878
v 16.915716 1.831195 8.510644
v 15.902477 3.291777 9.902979
v 15.720518 1.860999 9.898036
v 16.657852 3.289763 9.903529
v 15.980206 3.284815 8.505237
v 17.164021 3.286514 9.929037
v 15.721589 1.864730 8.541283
vt 0.000000 0.000000
vt 0.000000 0.000000
vt 0.000000 0.000000
vt 0.000000 0.000000
vt 0.000000 0.000000
vt 0.000000 0.000000
vt 0.000000 0.000000
vt 0.000000 0.000000
vt 0.000000 0.000000
vt 0.000000 0.000000
vt 0.000000 0.000000
vt 0.000000 0.000000
vt 0.000000 0.000000
vt 0.000000 0.000000
vt 0.000000 0.000000
vt 0.000000 0.000000
vt 0.000000 0.000000
vt 0.000000 0.000000
vt 0.000000 0.000000
vt 0.000000 0.000000
vt 0.000000 0.000000
vt 0.000000 0.000000
vt 0.000000 0.000000
vt 0.000000 0.000000
vt 0.000000 0.000000
vt 0.821476 0.630359
vt 0.821258 0.639295
vt 0.760539 0.610689
vt 0.678524 0.639275
vt 0.737348 0.624015
vt 0.714262 0.639295
vt 0.738963 0.639287
vt 0.736813 0.623733
vt 0.678635 0.610730
vt 0.821388 0.610729
vt 0.821476 0.639279
vt 0.678524 0.618981
vt 0.678524 0.610705
vt 0.714262 0.610721
vt 0.821476 0.610705
vt 0.821476 0.617852
vt 0.678619 0.632148
vt 0.767087 0.639248
vt 0.678524 0.639295
vn -0.9853 -0.1711 -0.0012
vn 0.0117 -0.0710 -0.9974
vn 0.9889 -0.1466 -0.0249
vn 0.9779 -0.2085 -0.0173
vn 0.9752 -0.2171 -0.0430
vn 0.9858 -0.1532 0.0689
vn 0.9838 -0.1719 -0.0516
vn -0.0270 0.0341 -0.9991
vn -0.9876 -0.1434 0.0637
vn -0.9902 -0.1151 -0.0795
vn -0.9802 -0.1548 -0.1237
vn -0.9835 -0.1790 0.0273
vn -0.0316 0.0016 -0.9995
vn -0.0179 -0.0248 0.9995
vn -0.0782 -0.0014 -0.9969
vn 0.9848 -0.1679 0.0456
vn -0.0710 -0.0543 -0.9960
vn 0.9763 -0.2009 0.0810
vn 0.9756 -0.2194 -0.0030
vn 0.9872 -0.1448 -0.0665
vn -0.9725 -0.2248 0.0614
vn 0.0235 0.0262 -0.9994
vn 0.9851 -0.1703 0.0250
vn 0.0460 0.0112 -0.9989
vn -0.0265 -0.0317 -0.9991
vn 0.0176 0.0220 -0.9996
vn 0.0399 0.0323 0.9987
vn -0.0503 0.0016 0.9987
vn -0.0019 0.9997 -0.0260
vn -0.9720 -0.2265 -0.0628
vn 0.0342 -0.9992 0.0199
vn 0.0049 0.9984 -0.0563
vn -0.1243 -0.9922 -0.0028
vn -0.0295 -0.9979 -0.0580
vn -0.0274 -0.0225 0.9994
vn -0.0006 0.0308 0.9995
vn 0.0142 0.0131 0.9998
vn -0.9780 -0.2060 0.0322
vn 0.0055 0.9998 0.0182
vn 0.0374 0.9992 0.0138
vn -0.0101 0.9999 -0.0065
vn -0.0020 0.9979 0.0646
vn -0.0225 -0.9952 0.0952
vn 0.0462 -0.9988 -0.0166
vn -0.0101 0.9999 -0.0066
vn 0.0076 0.9982 -0.0591
vn 0.0599 -0.9981 0.0139
vn 0.0261 0.9982 0.0545
vn 0.0180 0.9986 0.0497
vn 0.0026 0.9977 0.0683
usemtl Ruins1_2
s off
f 93/149/157 118/150/157 114/151/157
f 118/150/158 99/152/158 101/153/158
f 94/154/159 97/155/159 109/156/159
f 106/157/160 97/155/160 94/154/160
f 95/158/161 104/159/161 94/154/161
f 102/160/162 95/158/162 94/154/162
f 102/160/163 94/154/163 109/156/163
f 116/161/164 99/152/164 105/162/164
f 93/149/165 105/162/165 98/163/165
f 108/164/166 92/165/166 100/166/166
f 92/165/167 108/164/167 93/149/167
f 93/149/168 108/164/168 105/162/168
f 95/158/169 112/167/169 110/168/169
f 114/151/170 111/169/170 96/170/170
f 99/152/171 98/163/171 105/162/171
f 109/156/172 117/171/172 111/169/172
f 99/152/173 118/150/173 98/163/173
f 97/155/174 106/157/174 117/171/174
f 104/159/175 106/157/175 94/154/175
f 117/171/176 109/156/176 97/155/176
f 98/163/177 118/150/177 93/149/177
f 99/152/178 116/161/178 101/153/178
f 95/158/179 102/160/179 112/167/179
f 110/168/180 112/167/180 101/153/180
f 101/153/181 112/167/181 118/150/181
f 110/168/182 101/153/182 116/161/182
f 113/172/183 100/166/183 96/170/183
f 117/171/184 115/173/184 111/169/184
f 116/174/185 105/175/185 104/176/185
f 114/151/186 92/165/186 93/149/186
f 111/177/187 103/178/187 109/179/187
f 105/175/188 108/180/188 107/181/188
f 114/182/189 118/183/189 103/178/189
f 103/178/190 118/183/190 112/184/190
f 114/151/191 96/170/191 100/166/191
f 113/172/192 96/170/192 115/173/192
f 115/173/193 96/170/193 111/169/193
f 114/151/194 100/166/194 92/165/194
f 115/185/195 117/186/195 106/187/195
f 106/187/196 104/176/196 107/181/196
f 104/176/197 95/188/197 110/189/197
f 113/190/198 107/181/198 108/180/198
f 114/182/199 103/178/199 111/177/199
f 103/178/200 102/191/200 109/179/200
f 116/174/201 104/176/201 110/189/201
f 105/175/202 107/181/202 104/176/202
f 103/178/203 112/184/203 102/191/203
f 115/185/204 106/187/204 107/181/204
f 100/192/205 113/190/205 108/180/205
f 113/190/206 115/185/206 107/181/206
