# Blender v2.90.1 OBJ File: 'NaturePack_AllModels.blend'
# www.blender.org
mtllib ball_tree1.mtl
o Tree1_5_Cube.022
v -26.562571 -0.086998 2.561723
v -26.229477 -0.087764 1.979282
v -26.106047 -0.087764 2.444505
v -26.739777 0.830440 2.518436
v -25.932236 1.902497 2.188518
v -25.967037 1.986846 2.197818
v -25.990715 1.986846 2.109208
v -27.285557 2.341012 2.513924
v -27.332682 2.298985 2.433149
v -27.267435 2.360832 2.414978
v -26.432858 1.667658 2.201822
v -26.396444 1.667657 2.338093
v -26.559235 1.765472 2.388280
v -26.601524 1.766017 2.240367
v -25.955914 1.902498 2.099909
v -27.106844 2.074323 2.524073
v -26.816099 0.825991 2.228750
v -26.528273 0.868049 2.154289
v -26.451609 0.873891 2.439939
v -26.670607 1.643809 2.421627
v -26.709059 1.636065 2.267718
v -26.536682 1.496503 2.208709
v -26.489502 1.498044 2.387174
v -26.683569 -0.087398 2.103531
v -27.128859 2.066140 2.417075
v -27.056696 2.145671 2.395965
v -27.031086 2.150269 2.502409
v -26.748817 4.091991 3.192651
v -26.440386 2.670534 3.550712
v -25.857641 2.276464 2.780826
v -25.673790 1.905441 2.436213
v -25.253958 2.961681 2.603729
v -25.356150 1.978633 2.075787
v -25.464748 1.978298 1.833089
v -25.391548 3.211752 1.901893
v -25.937063 2.976168 3.591439
v -27.386488 3.079356 3.442275
v -25.760061 3.729182 3.153831
v -26.101379 1.977227 1.839725
v -26.212469 4.135773 2.436854
v -26.640652 4.361716 2.701530
v -26.980577 3.624914 1.556166
v -27.910503 2.328193 2.915211
v -26.046059 2.934403 1.236461
v -25.243599 2.849854 2.202336
v -27.278959 3.569900 3.157087
v -25.846159 3.512682 3.463888
v -25.907894 1.838809 2.232597
v -26.384768 2.093037 2.850555
v -25.418064 3.406403 2.447455
v -25.751114 3.611703 1.980876
v -27.800970 2.307339 2.542210
v -26.431036 4.146330 3.119540
v -27.095905 4.231572 2.489774
v -26.745424 4.019351 1.885058
v -27.225922 4.023073 2.934036
v -27.496597 3.526543 2.838487
v -27.307770 4.036334 2.548637
v -27.086975 2.452401 3.269480
v -26.776751 2.083972 1.860086
v -27.899395 2.972381 2.565327
v -27.603682 2.778262 3.289951
v -27.844595 3.024276 3.005138
v -26.347670 3.212044 3.625543
v -25.730339 3.220635 1.380797
v -27.446150 2.984209 1.764275
v -25.421926 3.062896 3.121777
v -25.481234 2.919877 1.434414
v -26.744789 2.968405 1.276617
v -26.439892 1.899671 2.273718
v -25.706501 2.650380 3.249216
v -26.432941 2.419140 1.387234
v -25.311314 2.289802 1.920417
v -26.515301 4.209953 2.143266
v -26.335814 3.552723 1.412522
v -27.505667 3.419014 2.106617
v -27.033596 2.515606 1.543915
v -25.454634 2.484945 2.582375
v -25.793978 2.293875 1.471102
vt 0.937775 0.978591
vt 0.899961 0.978591
vt 0.937775 0.940778
vt 0.937775 0.937775
vt 0.859145 0.937775
vt 0.937775 0.899961
vt 0.998999 0.529611
vt 0.981594 0.529611
vt 0.998999 0.491798
vt 0.898960 0.977590
vt 0.898960 0.939777
vt 0.936773 0.939777
vt 0.896958 0.940778
vt 0.859145 0.978591
vt 0.896958 0.978591
vt 0.019407 0.981594
vt 0.002002 0.998999
vt 0.019407 0.998999
vt 0.652060 0.899961
vt 0.573431 0.978591
vt 0.652060 0.978591
vt 0.736696 0.978591
vt 0.815326 0.961186
vt 0.815326 0.978591
vt 0.937775 0.655063
vt 0.899961 0.815326
vt 0.937775 0.815326
vt 0.981594 0.325530
vt 0.998999 0.165267
vt 0.998999 0.325530
vt 0.858144 0.936773
vt 0.936773 0.898960
vt 0.858144 0.898960
vt 0.815326 0.940778
vt 0.655063 0.958183
vt 0.815326 0.958183
vt 0.165267 0.937775
vt 0.325530 0.899961
vt 0.325530 0.937775
vt 0.898960 0.814325
vt 0.936773 0.654062
vt 0.898960 0.654062
vt 0.981594 0.162264
vt 0.998999 0.002002
vt 0.998999 0.162264
vt 0.815326 0.899961
vt 0.655063 0.937775
vt 0.815326 0.937775
vt 0.491798 0.733693
vt 0.652060 0.733693
vt 0.652060 0.655063
vt 0.325530 0.940778
vt 0.165267 0.978591
vt 0.325530 0.978591
vt 0.655063 0.652060
vt 0.733693 0.491798
vt 0.733693 0.652060
vt 0.654062 0.936773
vt 0.814325 0.898960
vt 0.654062 0.898960
vt 0.815326 0.165267
vt 0.815326 0.325530
vt 0.736696 0.325530
vt 0.736696 0.488795
vt 0.815326 0.328533
vt 0.815326 0.488795
vt 0.652060 0.736696
vt 0.491798 0.815326
vt 0.652060 0.815326
vt 0.818329 0.978591
vt 0.856142 0.899961
vt 0.856142 0.978591
vt 0.981594 0.488795
vt 0.998999 0.410165
vt 0.998999 0.488795
vt 0.655063 0.978591
vt 0.733693 0.961186
vt 0.733693 0.978591
vt 0.998999 0.328533
vt 0.981594 0.407162
vt 0.998999 0.407162
vt 0.980593 0.490797
vt 0.997998 0.490797
vt 0.980593 0.528610
vt 0.018406 0.980593
vt 0.001001 0.980593
vt 0.001001 0.997998
vt 0.858144 0.977590
vt 0.858144 0.939777
vt 0.895957 0.939777
vt 0.651059 0.898960
vt 0.572430 0.898960
vt 0.572430 0.977590
vt 0.735695 0.977590
vt 0.735695 0.960185
vt 0.814325 0.960185
vt 0.997998 0.164266
vt 0.980593 0.164266
vt 0.980593 0.324529
vt 0.324529 0.939777
vt 0.164266 0.939777
vt 0.164266 0.977590
vt 0.978591 0.899961
vt 0.978591 0.978591
vt 0.940778 0.978591
vt 0.978591 0.655063
vt 0.978591 0.815326
vt 0.940778 0.815326
vt 0.997998 0.001001
vt 0.980593 0.001001
vt 0.980593 0.161263
vt 0.654062 0.957182
vt 0.654062 0.939777
vt 0.814325 0.939777
vt 0.939777 0.814325
vt 0.939777 0.654062
vt 0.977590 0.654062
vt 0.896958 0.002002
vt 0.896958 0.162264
vt 0.818329 0.162264
vt 0.815326 0.655063
vt 0.815326 0.733693
vt 0.655063 0.733693
vt 0.896958 0.655063
vt 0.896958 0.815326
vt 0.818329 0.815326
vt 0.651059 0.654062
vt 0.490797 0.732692
vt 0.490797 0.654062
vt 0.735695 0.324529
vt 0.814325 0.164266
vt 0.735695 0.164266
vt 0.733693 0.165267
vt 0.733693 0.325530
vt 0.655063 0.325530
vt 0.652060 0.002002
vt 0.652060 0.162264
vt 0.491798 0.162264
vt 0.490797 0.814325
vt 0.490797 0.735695
vt 0.651059 0.735695
vt 0.980593 0.487794
vt 0.980593 0.409164
vt 0.997998 0.409164
vt 0.732692 0.960185
vt 0.654062 0.960185
vt 0.654062 0.977590
vt 0.997998 0.327532
vt 0.980593 0.327532
vt 0.980593 0.406161
vt 0.815326 0.896958
vt 0.815326 0.818329
vt 0.655063 0.896958
vt 0.978591 0.246900
vt 0.899961 0.325530
vt 0.978591 0.325530
vt 0.652060 0.818329
vt 0.652060 0.896958
vt 0.491798 0.896958
vt 0.652060 0.652060
vt 0.652060 0.491798
vt 0.491798 0.652060
vt 0.814325 0.654062
vt 0.654062 0.654062
vt 0.654062 0.732692
vt 0.896958 0.818329
vt 0.818329 0.896958
vt 0.896958 0.896958
vt 0.978591 0.491798
vt 0.978591 0.570428
vt 0.899961 0.570428
vt 0.165267 0.896958
vt 0.325530 0.896958
vt 0.325530 0.818329
vt 0.488795 0.899961
vt 0.488795 0.978591
vt 0.410165 0.978591
vt 0.978591 0.573431
vt 0.899961 0.652060
vt 0.978591 0.652060
vt 0.162264 0.652060
vt 0.002002 0.652060
vt 0.162264 0.491798
vt 0.896958 0.652060
vt 0.896958 0.491798
vt 0.818329 0.652060
vt 0.325530 0.162264
vt 0.165267 0.162264
vt 0.325530 0.002002
vt 0.652060 0.328533
vt 0.652060 0.488795
vt 0.491798 0.488795
vt 0.002002 0.325530
vt 0.162264 0.165267
vt 0.162264 0.325530
vt 0.002002 0.896958
vt 0.162264 0.818329
vt 0.162264 0.896958
vt 0.977590 0.490797
vt 0.898960 0.569427
vt 0.898960 0.490797
vt 0.162264 0.328533
vt 0.002002 0.488795
vt 0.162264 0.488795
vt 0.978591 0.243897
vt 0.978591 0.165267
vt 0.899961 0.243897
vt 0.899961 0.488795
vt 0.978591 0.488795
vt 0.978591 0.410165
vt 0.328533 0.978591
vt 0.407162 0.899961
vt 0.407162 0.978591
vt 0.735695 0.487794
vt 0.735695 0.327532
vt 0.814325 0.327532
vt 0.161263 0.817328
vt 0.001001 0.817328
vt 0.001001 0.895957
vt 0.978591 0.407162
vt 0.899961 0.407162
vt 0.978591 0.328533
vt 0.895957 0.001001
vt 0.817328 0.001001
vt 0.817328 0.161263
vt 0.164266 0.895957
vt 0.164266 0.817328
vt 0.324529 0.817328
vt 0.002002 0.162264
vt 0.162264 0.162264
vt 0.162264 0.002002
vt 0.162264 0.899961
vt 0.002002 0.978591
vt 0.162264 0.978591
vt 0.898960 0.327532
vt 0.898960 0.406161
vt 0.977590 0.327532
vt 0.651059 0.490797
vt 0.490797 0.651059
vt 0.490797 0.490797
vt 0.978591 0.002002
vt 0.899961 0.162264
vt 0.978591 0.162264
vt 0.818329 0.488795
vt 0.896958 0.328533
vt 0.896958 0.488795
vt 0.488795 0.655063
vt 0.488795 0.733693
vt 0.328533 0.733693
vt 0.002002 0.815326
vt 0.162264 0.655063
vt 0.162264 0.815326
vt 0.817328 0.651059
vt 0.817328 0.490797
vt 0.895957 0.490797
vt 0.654062 0.895957
vt 0.814325 0.817328
vt 0.654062 0.817328
vt 0.491798 0.978591
vt 0.570428 0.978591
vt 0.570428 0.899961
vt 0.488795 0.736696
vt 0.328533 0.815326
vt 0.488795 0.815326
vt 0.939777 0.977590
vt 0.977590 0.898960
vt 0.939777 0.898960
vt 0.001001 0.898960
vt 0.161263 0.898960
vt 0.001001 0.977590
vt 0.328533 0.325530
vt 0.488795 0.325530
vt 0.488795 0.165267
vt 0.325530 0.325530
vt 0.165267 0.325530
vt 0.325530 0.165267
vt 0.328533 0.488795
vt 0.488795 0.488795
vt 0.488795 0.328533
vt 0.977590 0.001001
vt 0.898960 0.161263
vt 0.898960 0.001001
vt 0.899961 0.896958
vt 0.978591 0.818329
vt 0.978591 0.896958
vt 0.324529 0.898960
vt 0.164266 0.936773
vt 0.164266 0.898960
vt 0.817328 0.654062
vt 0.817328 0.814325
vt 0.895957 0.654062
vt 0.898960 0.164266
vt 0.977590 0.164266
vt 0.898960 0.242896
vt 0.896958 0.165267
vt 0.818329 0.325530
vt 0.896958 0.325530
vt 0.815326 0.736696
vt 0.655063 0.815326
vt 0.815326 0.815326
vt 0.977590 0.245899
vt 0.898960 0.245899
vt 0.898960 0.324529
vt 0.491798 0.325530
vt 0.652060 0.325530
vt 0.652060 0.165267
vt 0.651059 0.817328
vt 0.490797 0.817328
vt 0.490797 0.895957
vt 0.324529 0.001001
vt 0.164266 0.161263
vt 0.164266 0.001001
vt 0.817328 0.164266
vt 0.895957 0.164266
vt 0.817328 0.324529
vt 0.327532 0.898960
vt 0.406161 0.898960
vt 0.327532 0.977590
vt 0.409164 0.977590
vt 0.409164 0.898960
vt 0.487794 0.898960
vt 0.977590 0.409164
vt 0.898960 0.409164
vt 0.898960 0.487794
vt 0.164266 0.324529
vt 0.164266 0.164266
vt 0.324529 0.164266
vt 0.325530 0.491798
vt 0.165267 0.652060
vt 0.325530 0.652060
vt 0.654062 0.735695
vt 0.814325 0.735695
vt 0.654062 0.814325
vt 0.569427 0.898960
vt 0.490797 0.898960
vt 0.490797 0.977590
vt 0.977590 0.572430
vt 0.898960 0.572430
vt 0.898960 0.651059
vt 0.736696 0.652060
vt 0.815326 0.491798
vt 0.815326 0.652060
vt 0.165267 0.815326
vt 0.325530 0.736696
vt 0.325530 0.815326
vt 0.855141 0.898960
vt 0.817328 0.977590
vt 0.817328 0.898960
vt 0.165267 0.733693
vt 0.325530 0.733693
vt 0.325530 0.655063
vt 0.327532 0.735695
vt 0.487794 0.735695
vt 0.327532 0.814325
vt 0.325530 0.328533
vt 0.325530 0.488795
vt 0.165267 0.488795
vt 0.895957 0.817328
vt 0.817328 0.895957
vt 0.817328 0.817328
vt 0.001001 0.327532
vt 0.001001 0.487794
vt 0.161263 0.327532
vt 0.732692 0.490797
vt 0.654062 0.490797
vt 0.654062 0.651059
vt 0.164266 0.487794
vt 0.324529 0.327532
vt 0.164266 0.327532
vt 0.490797 0.161263
vt 0.651059 0.001001
vt 0.490797 0.001001
vt 0.655063 0.162264
vt 0.815326 0.002002
vt 0.815326 0.162264
vt 0.651059 0.327532
vt 0.490797 0.487794
vt 0.490797 0.327532
vt 0.488795 0.652060
vt 0.328533 0.652060
vt 0.488795 0.491798
vt 0.001001 0.161263
vt 0.001001 0.001001
vt 0.161263 0.001001
vt 0.488795 0.818329
vt 0.328533 0.896958
vt 0.488795 0.896958
vt 0.814325 0.001001
vt 0.654062 0.001001
vt 0.654062 0.161263
vt 0.324529 0.654062
vt 0.164266 0.732692
vt 0.164266 0.654062
vt 0.001001 0.814325
vt 0.001001 0.654062
vt 0.161263 0.654062
vt 0.654062 0.324529
vt 0.654062 0.164266
vt 0.732692 0.164266
vt 0.487794 0.654062
vt 0.327532 0.654062
vt 0.327532 0.732692
vt 0.487794 0.490797
vt 0.327532 0.651059
vt 0.327532 0.490797
vt 0.655063 0.488795
vt 0.733693 0.328533
vt 0.733693 0.488795
vt 0.490797 0.324529
vt 0.490797 0.164266
vt 0.651059 0.164266
vt 0.164266 0.490797
vt 0.324529 0.490797
vt 0.164266 0.651059
vt 0.488795 0.162264
vt 0.488795 0.002002
vt 0.328533 0.162264
vt 0.732692 0.327532
vt 0.654062 0.487794
vt 0.654062 0.327532
vt 0.001001 0.490797
vt 0.001001 0.651059
vt 0.161263 0.490797
vt 0.487794 0.327532
vt 0.327532 0.327532
vt 0.327532 0.487794
vt 0.898960 0.817328
vt 0.977590 0.817328
vt 0.898960 0.895957
vt 0.487794 0.164266
vt 0.327532 0.164266
vt 0.327532 0.324529
vt 0.327532 0.001001
vt 0.327532 0.161263
vt 0.487794 0.001001
vt 0.164266 0.735695
vt 0.164266 0.814325
vt 0.324529 0.735695
vt 0.735695 0.651059
vt 0.814325 0.490797
vt 0.735695 0.490797
vt 0.327532 0.817328
vt 0.487794 0.817328
vt 0.327532 0.895957
vt 0.161263 0.164266
vt 0.001001 0.164266
vt 0.001001 0.324529
vt 0.817328 0.327532
vt 0.895957 0.327532
vt 0.817328 0.487794
vn 0.3397 0.0847 0.9367
vn -0.1825 0.0713 -0.9806
vn 0.8297 -0.5123 -0.2217
vn 0.8288 -0.5167 -0.2148
vn 0.8296 -0.5127 -0.2210
vn 0.8288 -0.5168 -0.2146
vn 0.2298 0.0559 0.9716
vn 0.8885 0.3927 -0.2374
vn 0.8885 0.3928 -0.2374
vn -0.0011 -1.0000 0.0007
vn -0.0014 -1.0000 0.0012
vn 0.4196 -0.9008 -0.1121
vn 0.3008 0.0136 0.9536
vn 0.3002 0.0170 0.9537
vn 0.3012 0.0120 0.9535
vn -0.3213 0.9424 0.0930
vn -0.3232 0.9421 0.0889
vn -0.3243 0.9420 0.0866
vn -0.2155 0.0147 -0.9764
vn -0.2160 0.0172 -0.9762
vn -0.2163 0.0184 -0.9762
vn -0.6651 -0.7195 0.1999
vn -0.6658 -0.7203 0.1948
vn -0.6661 -0.7207 0.1922
vn -0.2952 0.0434 -0.9545
vn -0.2933 0.0417 -0.9551
vn -0.2942 0.0425 -0.9548
vn 0.5967 0.7842 -0.1701
vn 0.5962 0.7836 -0.1748
vn 0.5970 0.7845 -0.1678
vn 0.2557 0.0285 0.9663
vn 0.2539 0.0251 0.9669
vn 0.2531 0.0235 0.9672
vn -0.9656 0.1102 0.2357
vn -0.2611 0.0806 -0.9619
vn -0.2635 0.0799 -0.9613
vn -0.2607 0.0807 -0.9620
vn 0.9652 0.0363 -0.2590
vn 0.9659 0.0354 -0.2566
vn 0.9661 0.0351 -0.2557
vn 0.2499 0.0940 0.9637
vn 0.2551 0.0955 0.9622
vn 0.2608 0.0970 0.9605
vn 0.9128 0.3277 -0.2438
vn 0.9107 0.3296 -0.2490
vn 0.9099 0.3304 -0.2510
vn 0.2484 0.0935 0.9641
vn 0.2478 0.0936 0.9643
vn -0.9522 -0.1725 0.2520
vn -0.9520 -0.1721 0.2530
vn -0.9520 -0.1719 0.2534
vn -0.2623 0.0937 -0.9604
vn -0.2626 0.0937 -0.9603
vn -0.2622 0.0936 -0.9605
vn -0.6683 -0.4246 0.6108
vn -0.1835 -0.0933 -0.9786
vn -0.1840 -0.0935 -0.9785
vn -0.1839 -0.0935 -0.9785
vn 0.6918 0.6949 -0.1964
vn 0.1453 0.1347 0.9802
vn -0.6848 0.7284 0.0205
vn -0.2933 0.0416 -0.9551
vn -0.0008 -1.0000 0.0002
vn 0.2998 0.0186 0.9538
vn -0.3203 0.9425 0.0951
vn -0.2153 0.0135 -0.9765
vn -0.6648 -0.7191 0.2023
vn -0.3052 0.0243 -0.9520
vn 0.5959 0.7833 -0.1772
vn 0.2565 0.0300 0.9661
vn -0.9610 0.1149 0.2514
vn -0.2645 0.0797 -0.9611
vn 0.9650 0.0366 -0.2597
vn 0.2485 0.0935 0.9641
vn -0.2627 0.0937 -0.9603
vn 0.9134 0.3271 -0.2423
vn -0.9523 -0.1727 0.2516
vn -0.7303 -0.6531 0.2002
vn 0.5865 0.7667 0.2610
vn -0.4772 0.4324 0.7651
vn -0.3375 0.8545 0.3949
vn -0.1368 0.9477 -0.2884
vn -0.6670 0.5844 -0.4622
vn -0.2289 0.8695 -0.4378
vn -0.0414 0.8796 0.4740
vn -0.3874 0.8730 0.2963
vn -0.4677 0.7137 -0.5215
vn -0.8758 0.4387 0.2011
vn -0.7977 0.3389 0.4988
vn 0.5288 0.8370 0.1410
vn 0.2943 -0.5853 0.7555
vn -0.0431 0.2549 -0.9660
vn 0.4475 0.7168 -0.5348
vn -0.5446 0.5075 0.6677
vn 0.8805 0.4091 0.2394
vn 0.6749 -0.2512 0.6938
vn 0.6665 0.0637 0.7428
vn 0.9115 -0.3896 0.1321
vn 0.5623 -0.3958 0.7261
vn 0.8174 -0.4546 0.3538
vn 0.0987 0.5439 0.8333
vn 0.8777 0.4358 0.1994
vn 0.3802 0.9106 -0.1622
vn 0.4015 0.6948 0.5967
vn 0.5133 0.8401 0.1755
vn -0.0160 -0.7720 0.6355
vn 0.1067 0.7522 -0.6503
vn -0.1301 -0.9535 -0.2719
vn -0.0611 -0.8890 0.4538
vn 0.6390 0.6543 -0.4043
vn -0.0895 0.6688 -0.7380
vn 0.7900 0.3777 0.4831
vn 0.0192 0.4484 0.8936
vn 0.8351 -0.3698 0.4072
vn 0.5678 -0.7228 0.3938
vn 0.0033 -0.1374 0.9905
vn -0.3339 -0.9317 -0.1432
vn -0.3228 -0.7250 0.6084
vn 0.5297 0.7720 -0.3513
vn 0.6690 0.7263 -0.1579
vn -0.9437 0.3287 -0.0366
vn -0.5687 -0.1179 -0.8141
vn -0.0551 -0.7342 -0.6767
vn 0.3313 0.1073 -0.9374
vn 0.2187 -0.9710 -0.0965
vn 0.6751 -0.1289 -0.7264
vn 0.9434 0.3249 -0.0662
vn 0.9434 0.3250 -0.0664
vn 0.9434 0.3249 -0.0663
vn -0.0055 -0.7563 -0.6543
vn -0.0828 -0.9425 0.3238
vn -0.1579 -0.9434 -0.2917
vn 0.0608 -0.3221 -0.9447
vn -0.0019 -0.9435 -0.3315
vn -0.1390 -0.7575 -0.6379
vn 0.7069 0.6764 -0.2070
vn 0.9476 0.1557 -0.2790
vn 0.7221 0.5160 -0.4607
vn 0.9425 0.3266 -0.0707
vn 0.9556 0.0319 -0.2928
vn 0.6348 -0.3573 -0.6851
vn 0.3416 -0.7852 0.5166
vn 0.1924 0.1960 0.9615
vn -0.6439 0.7477 0.1625
vn 0.7232 -0.4131 0.5535
vn 0.9217 -0.1697 0.3488
vn 0.8656 -0.3179 -0.3869
vn 0.3364 -0.7508 0.5685
vn -0.2193 -0.9756 -0.0099
vn -0.2883 -0.3437 -0.8937
vn 0.2525 -0.9672 0.0262
vn 0.3183 -0.2131 -0.9237
vn 0.9911 -0.1314 0.0229
vn -0.2862 -0.6712 -0.6838
vn 0.2382 -0.7399 0.6292
vn -0.7115 -0.3362 -0.6170
vn -0.2062 0.3547 0.9120
vn 0.6763 0.7365 -0.0091
vn -0.5627 0.1445 -0.8139
vn -0.9531 -0.1316 -0.2725
vn -0.5013 -0.6853 -0.5283
vn -0.7396 0.3509 -0.5743
vn -0.1593 -0.1083 0.9813
vn -0.2350 -0.2985 0.9250
vn -0.9903 0.0790 0.1141
vn -0.6968 0.5516 -0.4584
vn 0.1307 0.3277 -0.9357
vn -0.0671 -0.2335 -0.9700
vn 0.3990 0.7745 -0.4909
vn -0.1692 0.3341 -0.9272
vn -0.7677 -0.0101 0.6407
vn -0.2671 -0.9057 0.3291
vn -0.2794 -0.4947 0.8229
vn -0.6923 0.1414 0.7077
vn -0.8643 -0.1109 -0.4907
vn -0.7871 0.6116 -0.0801
vn -0.8427 0.2571 -0.4730
vn -0.8163 0.5767 0.0337
vn -0.6915 0.6084 0.3896
vn -0.2352 -0.4278 0.8727
vn -0.6325 0.4882 0.6013
usemtl Tree1_2.001
s 1
f 12/1/1 13/2/1 23/3/1
f 11/4/2 22/5/2 14/6/2
f 11/7/3 12/8/4 22/9/5
f 12/10/4 23/11/6 22/12/5
f 23/13/7 13/14/7 20/15/7
f 6/16/8 15/17/8 7/18/9
f 24/19/10 3/20/10 1/21/11
f 15/22/12 12/23/12 11/24/12
f 5/25/13 13/26/14 12/27/15
f 7/28/16 13/29/17 6/30/18
f 15/31/19 14/32/20 7/33/21
f 25/34/22 20/35/23 16/36/24
f 25/37/25 14/38/26 21/39/27
f 26/40/28 13/41/29 14/42/30
f 16/43/31 13/44/32 27/45/33
f 21/46/34 4/47/34 20/48/34
f 21/49/35 18/50/36 17/51/37
f 23/52/38 18/53/39 22/54/40
f 20/55/41 19/56/42 23/57/43
f 19/58/44 2/59/45 18/60/46
f 19/61/42 1/62/47 3/63/48
f 17/64/49 1/65/50 4/66/51
f 18/67/52 24/68/53 17/69/54
f 9/70/55 16/71/55 8/72/55
f 10/73/56 25/74/57 9/75/58
f 10/76/59 27/77/59 26/78/59
f 8/79/60 16/80/60 27/81/60
f 10/82/61 9/83/61 8/84/61
f 6/85/8 5/86/8 15/87/8
f 22/88/62 21/89/27 14/90/26
f 24/91/10 2/92/63 3/93/10
f 15/94/12 5/95/12 12/96/12
f 5/97/13 6/98/64 13/99/14
f 7/100/16 14/101/65 13/102/17
f 15/103/19 11/104/66 14/105/20
f 25/106/22 21/107/67 20/108/23
f 25/109/68 26/110/68 14/111/68
f 26/112/28 27/113/69 13/114/29
f 16/115/31 20/116/70 13/117/32
f 21/118/71 17/119/71 4/120/71
f 21/121/35 22/122/72 18/123/36
f 23/124/38 19/125/73 18/126/39
f 20/127/41 4/128/74 19/129/42
f 18/130/52 2/131/75 24/132/53
f 19/133/44 3/134/76 2/135/45
f 17/136/49 24/137/77 1/138/50
f 19/139/42 4/140/74 1/141/47
f 9/142/78 25/143/78 16/144/78
f 10/145/56 26/146/56 25/147/57
f 10/148/79 8/149/79 27/150/79
usemtl Tree1
f 56/151/80 46/152/80 28/153/80
f 41/154/81 56/155/81 28/156/81
f 54/157/82 41/158/82 74/159/82
f 54/160/83 42/161/83 58/162/83
f 54/163/84 74/164/84 55/165/84
f 41/166/85 28/167/85 53/168/85
f 41/169/86 54/170/86 56/171/86
f 54/172/87 55/173/87 42/174/87
f 57/175/88 56/176/88 58/177/88
f 56/178/89 57/179/89 46/180/89
f 40/181/90 41/182/90 38/183/90
f 36/184/91 29/185/91 71/186/91
f 44/187/92 69/188/92 75/189/92
f 74/190/93 51/191/93 75/192/93
f 37/193/94 28/194/94 46/195/94
f 38/196/95 32/197/95 50/198/95
f 67/199/96 36/200/96 71/201/96
f 67/202/97 47/203/97 36/204/97
f 32/205/98 78/206/98 45/207/98
f 78/208/99 30/209/99 31/210/99
f 71/211/100 32/212/100 67/213/100
f 47/214/101 53/215/101 28/216/101
f 38/217/102 67/218/102 32/219/102
f 40/220/103 74/221/103 41/222/103
f 47/223/104 38/224/104 53/225/104
f 41/226/105 53/227/105 38/228/105
f 29/229/106 59/230/106 49/231/106
f 74/232/107 75/233/107 55/234/107
f 48/235/108 70/236/108 39/237/108
f 43/238/109 70/239/109 59/240/109
f 65/241/110 51/242/110 35/243/110
f 55/244/111 75/245/111 42/246/111
f 38/247/112 47/248/112 67/249/112
f 47/250/113 28/251/113 64/252/113
f 71/253/114 78/254/114 32/255/114
f 78/256/115 71/257/115 30/258/115
f 36/259/116 64/260/116 29/261/116
f 70/262/117 43/263/117 60/264/117
f 30/265/118 48/266/118 31/267/118
f 40/268/119 51/269/119 74/270/119
f 50/271/120 51/272/120 40/273/120
f 57/274/121 58/275/121 76/276/121
f 69/277/122 77/278/122 66/279/122
f 39/280/123 72/281/123 79/282/123
f 68/283/124 44/284/124 65/285/124
f 48/286/125 34/287/125 33/288/125
f 34/289/126 79/290/126 73/291/126
f 32/292/127 45/293/128 50/294/129
f 34/295/130 39/296/130 79/297/130
f 48/298/131 49/299/131 70/300/131
f 39/301/132 70/302/132 60/303/132
f 79/304/133 72/305/133 44/306/133
f 34/307/134 48/308/134 39/309/134
f 72/310/135 39/311/135 60/312/135
f 35/313/136 51/314/136 50/315/136
f 35/316/137 45/317/137 68/318/137
f 35/319/138 68/320/138 65/321/138
f 45/322/128 35/323/139 50/324/129
f 68/325/140 45/326/140 73/327/140
f 68/328/141 73/329/141 79/330/141
f 30/331/142 71/332/142 49/333/142
f 64/334/143 36/335/143 47/336/143
f 54/337/144 58/338/144 56/339/144
f 33/340/145 78/341/145 31/342/145
f 33/343/146 45/344/146 78/345/146
f 34/346/147 73/347/147 33/348/147
f 48/349/148 30/350/148 49/351/148
f 52/352/149 60/353/149 43/354/149
f 72/355/150 77/356/150 69/357/150
f 48/358/151 33/359/151 31/360/151
f 68/361/152 79/362/152 44/363/152
f 33/364/153 73/365/153 45/366/153
f 72/367/154 60/368/154 77/369/154
f 49/370/155 71/371/155 29/372/155
f 77/373/156 52/374/156 66/375/156
f 28/376/157 37/377/157 64/378/157
f 38/379/158 50/380/158 40/381/158
f 66/382/159 42/383/159 69/384/159
f 43/385/160 61/386/160 52/387/160
f 77/388/161 60/389/161 52/390/161
f 42/391/162 66/392/162 76/393/162
f 37/394/163 29/395/163 64/396/163
f 29/397/164 37/398/164 62/399/164
f 43/400/165 63/401/165 61/402/165
f 58/403/166 42/404/166 76/405/166
f 44/406/167 75/407/167 65/408/167
f 44/409/168 72/410/168 69/411/168
f 65/412/169 75/413/169 51/414/169
f 75/415/170 69/416/170 42/417/170
f 63/418/171 43/419/171 62/420/171
f 49/421/172 59/422/172 70/423/172
f 59/424/173 62/425/173 43/426/173
f 62/427/174 37/428/174 63/429/174
f 52/430/175 61/431/175 66/432/175
f 57/433/176 76/434/176 61/435/176
f 76/436/177 66/437/177 61/438/177
f 57/439/178 61/440/178 63/441/178
f 57/442/179 63/443/179 46/444/179
f 62/445/180 59/446/180 29/447/180
f 37/448/181 46/449/181 63/450/181
