# Blender v2.90.1 OBJ File: 'NaturePack_AllModels.blend'
# www.blender.org
mtllib brown_tree2.mtl
o Tree3_1_Cylinder.021
v 27.796719 -0.057840 6.456647
v 27.981037 -0.057840 6.590562
v 27.782759 7.197482 6.598318
v 27.910633 -0.057840 6.807241
v 27.682804 -0.057840 6.807241
v 27.809034 7.196935 6.714856
v 27.612400 -0.057840 6.590562
v 27.720255 1.883213 6.481713
v 27.850046 1.494424 6.598894
v 27.789118 5.644856 6.621171
v 27.883461 3.569608 6.610032
v 27.789442 1.494379 6.785429
v 27.835947 3.569591 6.756269
v 27.593311 1.494283 6.785430
v 27.643301 5.644746 6.727108
v 27.725239 5.043073 6.739115
v 27.532701 1.494269 6.598893
v 27.653009 5.837002 6.582585
v 27.634668 3.569517 6.610032
v 27.055878 13.451558 6.579513
v 26.431076 13.176726 6.633842
v 25.837254 11.121069 6.494253
v 26.179176 12.157395 4.912663
v 28.175877 10.500288 5.697359
v 25.880739 11.620477 4.968800
v 28.132469 12.673344 6.798136
v 25.957399 10.402847 6.410067
v 26.176582 8.442853 7.924318
v 27.231443 11.403337 8.631291
v 27.717018 10.607787 8.844011
v 27.321123 8.694151 9.097172
v 28.921305 10.622718 8.349885
v 28.238260 11.706697 8.782305
v 28.265522 12.618472 8.331890
v 29.361763 11.705724 6.769690
v 29.142323 12.404037 7.203256
v 26.982639 12.129599 4.915722
v 26.661095 13.284905 7.244450
v 27.190128 12.499763 5.738313
v 28.414745 9.854424 8.659548
v 29.700533 11.617987 7.977926
v 24.809931 9.159371 6.744353
v 24.859951 9.113523 7.708742
v 26.499390 9.232225 8.358938
v 27.478323 9.584020 9.069674
v 26.187233 12.136170 7.395119
v 25.333979 8.074568 6.374381
v 26.610144 12.597794 5.756592
v 28.073589 13.022356 7.605061
v 25.941603 12.120521 6.050453
v 25.444435 10.958813 7.861829
v 25.746952 11.591554 7.087954
v 27.087971 11.298087 4.563106
v 26.532309 9.963211 4.886580
v 29.838383 11.399741 7.051055
v 26.570862 8.779435 5.173611
v 26.468739 7.542267 7.890574
v 27.988861 11.506009 5.951222
v 26.094513 8.526477 5.985419
v 29.498266 12.207906 7.728943
v 27.251352 13.450288 7.296439
v 25.750107 6.693058 6.529244
v 25.344110 7.796523 7.248739
v 27.121532 8.446372 4.695303
v 27.356256 9.694043 4.708065
v 28.571161 8.712363 4.831020
v 27.982384 5.950503 6.489494
v 26.592285 7.580334 4.761147
v 28.869507 6.192048 7.318979
v 29.373880 7.589176 4.979885
v 29.675785 6.763746 5.435169
v 30.086861 7.892415 7.633038
v 29.317549 6.874248 8.070531
v 29.754932 6.608379 6.807246
v 29.138756 7.632355 8.730262
v 28.391304 6.823325 8.591190
v 30.182377 7.580690 5.944221
v 27.810804 6.166280 5.621159
v 29.028204 6.111739 5.903404
v 26.294165 6.713217 7.393468
v 28.136194 8.050324 9.195604
v 27.683176 7.829179 9.136961
v 26.297977 6.753829 5.349747
v 26.708284 6.116385 6.521898
v 27.486530 6.276294 7.559693
v 27.243414 7.062601 8.369261
v 27.483107 6.860177 4.939930
v 27.653669 9.988439 4.937187
v 25.142054 7.857285 6.842920
v 24.645658 8.789340 7.153422
v 30.159588 8.823377 6.884887
v 25.713802 10.424241 8.161553
v 26.426994 11.267639 4.424184
v 26.553156 10.850747 8.429129
v 29.632977 9.326469 8.027464
v 29.423853 9.667425 6.107288
v 29.998474 10.130435 7.499868
v 24.780645 9.899918 7.349531
v 26.047813 9.713984 6.275354
v 28.365032 7.731856 4.739014
v 29.687111 9.198859 6.129182
v 25.201853 10.592509 7.157095
v 26.593239 12.190263 4.735127
v 25.515635 7.500605 5.988927
v 29.611950 8.780490 5.512441
v 28.769444 6.642689 5.016749
v 28.722839 8.635644 8.894741
v 29.330481 3.955235 6.647367
v 27.748367 2.392457 6.679765
v 27.816122 2.327908 6.619264
v 27.812288 2.338911 6.697831
v 28.966740 3.625455 6.675871
v 28.554760 3.219392 6.617333
v 26.585918 5.243790 7.244898
v 27.768303 3.925763 6.625897
v 27.468426 4.265463 6.852087
v 27.739882 3.871323 6.697039
v 27.713253 3.880603 6.636277
v 26.849848 4.965658 7.086687
v 27.433224 4.341578 6.834726
v 26.835073 5.016361 7.138167
v 26.279650 6.187392 7.008776
v 26.159708 5.750038 7.090605
v 26.024887 5.752045 7.962115
v 26.034832 5.408547 7.701758
v 26.418453 5.885214 8.094947
v 26.060684 5.443438 6.839705
v 26.226929 5.131050 7.204247
v 26.586128 5.187596 6.715497
v 26.068174 6.250797 7.501052
v 25.872705 6.220118 7.580373
v 25.902817 5.535053 7.154197
v 26.462559 6.283427 7.085678
v 26.792803 5.655902 6.932597
v 26.787439 5.858261 7.178093
v 27.279612 5.484526 7.375098
v 26.950138 4.822853 6.950459
v 26.955645 5.265615 6.701477
v 27.108326 4.808938 7.551085
v 27.376038 5.204866 7.501523
v 27.365757 5.089315 7.164761
v 26.359070 4.828356 7.551580
v 26.754419 4.674653 7.451181
v 26.638636 4.866033 6.800951
v 26.106922 5.241993 6.793388
v 26.897282 5.075518 7.853771
v 27.012024 5.477425 7.738781
v 26.618610 4.854476 7.752926
vt 0.200000 0.500000
vt 0.000000 0.633808
vt 0.000000 0.500000
vt 0.600000 0.606982
vt 0.400000 0.500000
vt 0.600000 0.500000
vt 0.400000 0.606976
vt 1.000000 0.500000
vt 0.800000 0.606986
vt 0.800000 0.500000
vt 0.978254 0.324164
vt 0.608932 0.055836
vt 0.521746 0.324164
vt 0.400000 0.893035
vt 0.091248 1.000000
vt 0.094862 0.893036
vt 0.556416 0.851543
vt 0.530906 1.000000
vt 0.800000 0.893043
vt 0.899954 1.000000
vt 1.000000 0.893039
vt 0.175110 0.750009
vt 0.200000 0.606975
vt 0.615383 0.750009
vt 0.800000 0.750009
vt 0.984891 0.633808
vt 0.750000 0.490000
vt 0.891068 0.055836
vt 0.344666 0.500599
vt 0.104272 0.754125
vt 0.000000 0.500000
vt 0.413325 0.889500
vt 0.290567 0.999824
vt 0.600055 0.501709
vt 0.899769 0.500547
vt 0.863805 0.407316
vt 0.891068 0.055836
vt 0.584810 0.130075
vt 0.994753 0.803004
vt 0.344666 0.500599
vt 0.000000 0.633808
vt 0.000000 0.500000
vt 0.413325 0.889500
vt 0.290567 0.999824
vt 0.094862 0.893036
vt 0.192012 0.652877
vt 0.600055 0.501709
vt 0.899769 0.500547
vt 0.984891 0.633808
vt 1.000000 0.893039
vt 0.863805 0.407316
vt 0.891068 0.055836
vt 0.584810 0.130075
vt 0.000000 0.000000
vt 0.000000 0.000000
vt 0.000000 0.000000
vt 0.000000 0.000000
vt 0.000000 0.000000
vt 0.000000 0.000000
vt 0.000000 0.000000
vt 0.000000 0.000000
vt 0.000000 0.000000
vt 0.000000 0.000000
vt 0.000000 0.000000
vt 0.000000 0.000000
vt 0.000000 0.000000
vt 0.000000 0.000000
vt 0.000000 0.000000
vt 0.000000 0.000000
vt 0.000000 0.000000
vt 0.000000 0.000000
vt 0.000000 0.000000
vt 0.000000 0.000000
vt 0.000000 0.000000
vt 0.000000 0.000000
vt 0.000000 0.000000
vt 0.000000 0.000000
vt 0.000000 0.000000
vt 0.000000 0.000000
vt 0.000000 0.000000
vt 0.000000 0.000000
vt 0.000000 0.000000
vt 0.000000 0.000000
vt 0.000000 0.000000
vt 0.000000 0.000000
vt 0.000000 0.000000
vt 0.000000 0.000000
vt 0.000000 0.000000
vt 0.000000 0.000000
vt 0.000000 0.000000
vt 0.000000 0.000000
vt 0.000000 0.000000
vt 0.000000 0.000000
vt 0.000000 0.000000
vt 0.000000 0.000000
vt 0.000000 0.000000
vt 0.000000 0.000000
vt 0.000000 0.000000
vt 0.000000 0.000000
vt 0.000000 0.000000
vt 0.000000 0.000000
vt 0.000000 0.000000
vt 0.000000 0.000000
vt 0.000000 0.000000
vt 0.000000 0.000000
vt 0.000000 0.000000
vt 0.000000 0.000000
vt 0.000000 0.000000
vt 0.000000 0.000000
vt 0.000000 0.000000
vt 0.000000 0.000000
vt 0.000000 0.000000
vt 0.000000 0.000000
vt 0.000000 0.000000
vt 0.000000 0.000000
vt 0.000000 0.000000
vt 0.000000 0.000000
vt 0.000000 0.000000
vt 0.000000 0.000000
vt 0.000000 0.000000
vt 0.000000 0.000000
vt 0.000000 0.000000
vt 0.000000 0.000000
vt 0.000000 0.000000
vt 0.000000 0.000000
vt 0.000000 0.000000
vt 0.000000 0.000000
vt 0.000000 0.000000
vt 0.000000 0.000000
vt 0.000000 0.000000
vt 0.000000 0.000000
vt 0.000000 0.000000
vt 0.000000 0.000000
vt 0.000000 0.000000
vt 0.000000 0.000000
vt 0.000000 0.000000
vt 0.000000 0.000000
vt 0.000000 0.000000
vt 0.000000 0.000000
vt 0.000000 0.000000
vt 0.000000 0.000000
vt 0.000000 0.000000
vt 0.000000 0.000000
vt 0.000000 0.000000
vt 0.000000 0.000000
vt 0.000000 0.000000
vt 0.000000 0.000000
vt 0.000000 0.000000
vt 0.000000 0.000000
vt 0.000000 0.000000
vt 0.000000 0.000000
vt 0.000000 0.000000
vt 0.000000 0.000000
vt 0.000000 0.000000
vt 0.000000 0.000000
vt 0.000000 0.000000
vt 0.000000 0.000000
vt 0.000000 0.000000
vt 0.000000 0.000000
vt 0.000000 0.000000
vt 0.000000 0.000000
vt 0.000000 0.000000
vt 0.000000 0.000000
vt 0.000000 0.000000
vt 0.000000 0.000000
vt 0.000000 0.000000
vt 0.000000 0.000000
vt 0.000000 0.000000
vn -0.5877 -0.0127 -0.8090
vn 0.0000 0.0141 0.9999
vn -0.9498 -0.0504 0.3086
vn 0.5869 0.0539 -0.8078
vn 0.0000 -1.0000 -0.0000
vn 0.9481 0.0784 0.3081
vn -0.9938 0.0941 0.0584
vn -0.0496 0.0132 0.9987
vn 0.9392 -0.0327 0.3419
vn 0.2554 -0.0132 -0.9667
vn -0.5776 0.0328 -0.8157
vn -0.4774 -0.0475 0.8774
vn -0.9714 0.0392 0.2344
vn 0.0247 0.0135 0.9996
vn 0.9502 0.0415 0.3087
vn 0.9509 -0.0170 0.3090
vn 0.3110 0.0295 -0.9500
vn -0.4982 -0.0209 -0.8668
vn 0.7293 0.0376 -0.6832
vn -0.9700 0.1053 0.2192
vn 0.9755 0.0008 -0.2199
vn -0.8319 0.0000 -0.5550
vn -0.9983 0.0074 -0.0572
vn -0.9501 0.0450 0.3087
vn 0.0000 0.0130 0.9999
vn 0.7117 0.0616 0.6998
vn 0.9509 -0.0170 0.3089
vn 0.4451 0.0250 -0.8951
vn 0.6592 -0.0066 -0.7520
vn -0.4197 0.3459 -0.8391
vn -0.6606 0.7067 -0.2533
vn -0.7054 0.6974 0.1266
vn 0.7247 -0.6767 0.1301
vn -0.6526 -0.7541 0.0738
vn -0.1497 0.1510 0.9771
vn 0.3085 -0.2612 0.9147
vn 0.1849 -0.1553 -0.9704
vn 0.7729 0.3158 0.5504
vn 0.3965 0.7084 -0.5839
vn 0.4538 0.6641 -0.5941
vn -0.7068 -0.6767 0.2064
vn 0.3296 -0.0804 0.9407
vn 0.8044 0.4583 0.3782
vn 0.5513 -0.7541 -0.3568
vn 0.7543 0.4565 0.4718
vn 0.5028 0.6836 -0.5290
vn -0.3014 0.1510 -0.9415
vn -0.6837 -0.2612 -0.6814
vn 0.0358 -0.3444 0.9381
vn 0.0894 0.6666 -0.7400
vn -0.2410 0.6276 0.7403
vn -0.9139 0.4044 0.0347
vn 0.1436 0.9184 -0.3688
vn 0.5495 0.5955 -0.5861
vn -0.6368 0.5774 -0.5110
vn 0.4966 0.8576 -0.1339
vn -0.8516 0.5237 0.0209
vn -0.8143 0.4548 0.3608
vn -0.3733 0.7374 -0.5629
vn 0.2103 -0.1835 -0.9603
vn -0.8084 0.5693 0.1494
vn 0.4363 0.3976 -0.8072
vn -0.5603 -0.2118 0.8008
vn -0.2753 0.9583 0.0768
vn 0.2832 0.1985 0.9383
vn 0.3396 0.8227 -0.4559
vn -0.5967 0.2520 -0.7618
vn 0.3699 0.1169 0.9217
vn 0.6281 0.1347 0.7664
vn 0.7493 0.5124 -0.4196
vn -0.9943 0.1067 0.0066
vn -0.2253 0.9062 -0.3578
vn 0.7644 0.1511 -0.6268
vn -0.8692 0.4657 -0.1664
vn -0.5837 -0.0158 0.8118
vn -0.9849 0.0269 -0.1711
vn -0.9068 -0.3445 -0.2428
vn -0.0842 0.0456 0.9954
vn -0.7903 -0.5257 0.3148
vn 0.5438 0.4739 -0.6926
vn -0.7130 -0.4499 0.5378
vn -0.6131 0.1324 0.7789
vn -0.6051 0.3687 -0.7056
vn -0.4239 0.1991 -0.8835
vn -0.3515 -0.4212 0.8361
vn -0.2888 -0.0319 0.9569
vn -0.6067 0.3442 0.7165
vn -0.5193 -0.1996 0.8309
vn -0.5226 -0.3548 0.7752
vn -0.6653 -0.2460 0.7049
vn 0.4792 -0.0477 0.8764
vn -0.1892 0.1443 0.9713
vn -0.9315 -0.1141 -0.3454
vn 0.3842 0.5107 -0.7691
vn 0.3689 0.8626 -0.3462
vn 0.6560 0.3887 -0.6470
vn -0.3414 0.4884 0.8031
vn 0.7616 0.5736 -0.3017
vn 0.4323 0.5698 -0.6989
vn 0.2996 0.8654 0.4018
vn 0.2099 -0.0447 0.9767
vn 0.9923 0.1239 -0.0034
vn 0.4712 0.2972 -0.8305
vn 0.7528 -0.3221 0.5741
vn 0.4314 0.0310 0.9016
vn 0.4743 0.0417 0.8794
vn -0.2601 0.4339 0.8626
vn -0.7071 -0.0355 -0.7062
vn -0.5428 -0.2237 0.8095
vn -0.2435 -0.1712 0.9547
vn -0.8330 -0.2858 -0.4738
vn -0.6120 0.1291 0.7803
vn 0.5092 0.4770 0.7164
vn -0.4013 0.1628 0.9014
vn -0.9847 -0.1555 -0.0790
vn -0.7995 0.4056 -0.4430
vn -0.8040 0.3568 -0.4756
vn 0.9366 0.3456 0.0579
vn -0.9420 0.0561 0.3308
vn 0.1847 0.2838 -0.9409
vn -0.1642 -0.7295 -0.6640
vn -0.4000 0.1251 -0.9079
vn -0.8706 0.0841 -0.4847
vn 0.3243 0.2576 0.9102
vn 0.5365 0.2887 0.7930
vn 0.8307 -0.0125 0.5565
vn 0.8383 0.4571 -0.2970
vn -0.8218 -0.2174 -0.5267
vn -0.9575 0.1589 -0.2408
vn -0.4842 0.0637 -0.8727
vn 0.4632 0.3814 0.8000
vn -0.3461 0.5263 0.7767
vn -0.3919 0.3565 -0.8481
vn -0.0541 0.2270 0.9724
vn -0.5556 0.4193 0.7179
vn 0.6570 0.5358 -0.5304
vn 0.4435 0.8280 0.3430
vn 0.7840 0.2850 -0.5515
vn 0.7686 0.3298 -0.5482
vn -0.9394 -0.0572 -0.3380
vn -0.4164 0.2759 0.8663
vn 0.5281 -0.0060 0.8491
vn 0.5082 0.1470 -0.8486
vn 0.4971 0.8676 -0.0129
vn 0.9809 0.1618 0.1078
vn 0.6097 0.2617 -0.7482
vn 0.4234 0.0071 0.9059
vn 0.7895 0.1370 -0.5983
vn 0.4593 0.2872 -0.8406
vn -0.8752 0.4811 0.0512
vn -0.3039 -0.3400 -0.8900
vn -0.6071 0.7881 -0.1012
vn 0.5991 0.7499 -0.2806
vn -0.4034 0.9150 -0.0102
vn -0.7617 -0.2703 -0.5889
vn -0.8798 0.3972 0.2611
vn -0.7756 0.1959 0.6001
vn 0.0077 -0.2320 -0.9727
vn -0.5758 0.3223 -0.7514
vn -0.7065 -0.1884 -0.6822
vn -0.8878 -0.4046 -0.2194
vn -0.2414 -0.5044 -0.8290
vn -0.7292 -0.2052 -0.6528
vn -0.7822 -0.4870 -0.3884
vn 0.5167 0.2612 -0.8153
vn -0.4975 -0.8232 -0.2735
vn 0.7639 -0.0742 -0.6411
vn 0.1941 -0.9779 0.0772
vn 0.0243 -0.8919 0.4517
vn -0.0799 -0.7173 -0.6922
vn 0.2062 -0.1692 -0.9638
vn 0.4323 -0.3091 -0.8471
vn 0.0851 -0.8437 -0.5301
vn 0.3525 0.3264 -0.8770
vn 0.8730 -0.4764 -0.1043
vn 0.6590 -0.7422 -0.1221
vn 0.3564 -0.7521 -0.5544
vn 0.4259 0.5645 -0.7070
vn -0.0063 -0.0720 -0.9974
vn 0.0130 -0.9698 -0.2436
vn 0.5474 0.4522 -0.7041
vn -0.5353 0.2662 -0.8016
vn -0.7186 -0.1736 0.6734
vn -0.8004 -0.5050 0.3229
vn -0.6286 -0.2983 0.7183
vn 0.8855 0.2906 -0.3624
vn 0.0172 -0.2411 -0.9704
vn -0.6993 -0.5528 0.4532
vn -0.0083 -0.9577 0.2877
vn 0.4712 -0.8761 0.1025
vn -0.1315 -0.9678 -0.2145
vn -0.2737 -0.8819 -0.3838
vn -0.4859 -0.8114 0.3248
vn -0.3639 -0.8401 0.4023
vn 0.2516 -0.3851 0.8879
vn 0.3338 -0.7884 0.5167
vn 0.4377 -0.5293 0.7268
vn -0.2706 -0.5993 0.7534
vn 0.9424 -0.3153 0.1115
vn 0.9866 0.0482 0.1559
vn -0.3480 -0.7226 0.5973
vn -0.6361 -0.3324 0.6963
vn -0.2733 -0.7298 0.6267
vn 0.2375 0.0411 -0.9705
vn -0.1194 -0.9639 0.2381
vn 0.8099 -0.4507 0.3753
vn 0.5569 -0.7527 0.3512
vn 0.0908 -0.4248 0.9007
vn 0.7601 0.1325 -0.6361
vn 0.7684 0.0682 0.6363
vn -0.1251 -0.0067 0.9921
vn 0.1493 0.0612 -0.9869
vn -0.7423 0.2060 -0.6376
vn -0.1968 0.0470 -0.9793
vn 0.8089 0.4360 -0.3944
vn -0.9202 -0.0291 -0.3904
vn -0.8203 0.4617 -0.3375
vn 0.0370 0.0033 -0.9993
vn 0.8595 0.3681 -0.3545
vn 0.7490 0.0554 0.6603
vn 0.9977 -0.0284 0.0617
vn -0.7642 0.3161 -0.5622
vn -0.2394 0.9446 -0.2245
vn -0.5105 -0.4714 0.7192
vn 0.5745 0.5673 0.5900
vn -0.3569 0.8947 -0.2685
vn -0.1159 -0.1519 -0.9816
vn -0.2560 -0.1095 -0.9605
vn -0.8787 -0.4713 -0.0764
vn 0.1101 0.6079 -0.7863
vn -0.7819 -0.6217 0.0449
vn -0.9670 -0.1640 0.1952
vn -0.5761 -0.8158 -0.0520
vn -0.0638 -0.6040 0.7944
vn 0.5349 0.8230 0.1911
vn 0.0649 0.8664 0.4951
vn -0.9691 -0.1663 0.1824
vn 0.2418 -0.6383 0.7308
vn -0.7822 -0.6200 0.0611
vn -0.6274 0.6044 -0.4910
vn -0.1476 0.4689 -0.8708
vn -0.2280 -0.1514 0.9618
vn -0.1361 0.1922 -0.9719
vn -0.4227 0.4863 0.7648
vn -0.3174 -0.4382 0.8410
vn 0.6428 0.7284 0.2373
vn 0.7690 0.5014 -0.3965
vn 0.2104 0.3348 -0.9185
vn -0.9008 -0.1102 -0.4201
vn 0.7509 0.4303 -0.5010
vn -0.1849 -0.2805 -0.9419
vn 0.0170 -0.2542 -0.9670
vn 0.3296 -0.4659 -0.8212
vn 0.5936 -0.7856 -0.1746
vn 0.9540 0.2734 -0.1229
vn 0.8269 -0.5391 0.1597
vn 0.6539 0.5685 -0.4992
vn 0.4684 0.8067 0.3604
vn 0.7022 0.4799 0.5260
vn 0.3820 -0.9161 -0.1218
vn 0.6082 -0.3948 -0.6886
vn 0.0028 -0.9592 -0.2828
vn -0.2353 -0.8778 0.4172
vn 0.1531 -0.8171 0.5558
vn -0.3978 -0.8969 -0.1932
vn 0.6158 -0.3266 0.7170
vn 0.5525 0.0796 0.8297
vn -0.7044 -0.6457 -0.2948
vn -0.1312 0.4640 -0.8760
vn 0.6445 0.5968 -0.4779
vn 0.5795 0.0669 0.8122
usemtl Tree3_1
s off
f 7/1/1 8/2/1 1/3/1
f 12/4/2 5/5/2 4/6/2
f 14/7/3 7/1/3 5/5/3
f 1/8/4 9/9/4 2/10/4
f 2/11/5 5/12/5 7/13/5
f 9/9/6 4/6/6 2/10/6
f 15/14/7 3/15/7 18/16/7
f 16/17/8 6/18/8 15/14/8
f 10/19/9 6/18/9 16/17/9
f 3/20/10 10/19/10 18/21/10
f 19/22/11 8/2/11 17/23/11
f 15/14/12 19/22/12 16/17/12
f 19/22/13 14/7/13 16/17/13
f 16/17/14 12/4/14 13/24/14
f 10/19/15 13/24/15 11/25/15
f 13/24/16 9/9/16 11/25/16
f 10/19/17 8/26/17 18/21/17
f 7/1/18 17/23/18 8/2/18
f 12/4/2 14/7/2 5/5/2
f 14/7/3 17/23/3 7/1/3
f 1/8/19 8/26/19 9/9/19
f 7/13/5 1/27/5 2/11/5
f 2/11/5 4/28/5 5/12/5
f 9/9/6 12/4/6 4/6/6
f 15/14/20 6/18/20 3/15/20
f 10/19/21 3/20/21 6/18/21
f 18/16/22 8/2/22 19/22/22
f 15/14/23 18/16/23 19/22/23
f 19/22/24 17/23/24 14/7/24
f 16/17/25 14/7/25 12/4/25
f 10/19/26 16/17/26 13/24/26
f 13/24/27 12/4/27 9/9/27
f 10/19/28 11/25/28 8/26/28
f 8/26/29 11/25/29 9/9/29
f 109/29/30 113/30/30 110/31/30
f 112/32/31 108/33/31 113/30/31
f 113/30/32 109/29/32 112/32/32
f 111/34/33 110/35/33 108/33/33
f 110/36/34 111/37/34 109/38/34
f 112/32/35 109/29/35 111/34/35
f 108/33/36 112/32/36 111/34/36
f 113/39/37 108/33/37 110/35/37
f 115/40/38 116/41/38 117/42/38
f 119/43/39 114/44/39 121/45/39
f 120/46/40 115/40/40 119/43/40
f 118/47/41 117/48/41 114/44/41
f 114/44/42 116/49/42 121/50/42
f 115/40/43 120/46/43 116/41/43
f 117/51/44 118/52/44 115/53/44
f 121/45/45 116/41/45 120/46/45
f 119/43/46 121/45/46 120/46/46
f 119/43/47 115/40/47 118/47/47
f 114/44/48 119/43/48 118/47/48
f 116/49/49 114/44/49 117/48/49
usemtl Tree3_2
f 20/54/50 39/55/50 48/56/50
f 34/57/51 61/58/51 38/59/51
f 50/60/52 52/61/52 21/62/52
f 103/63/53 48/56/53 39/55/53
f 26/64/54 39/55/54 20/54/54
f 50/60/55 21/62/55 48/56/55
f 49/65/56 20/54/56 61/58/56
f 102/66/57 98/67/57 51/68/57
f 21/62/58 52/61/58 46/69/58
f 20/54/59 48/56/59 21/62/59
f 53/70/60 88/71/60 93/72/60
f 51/68/61 46/69/61 52/61/61
f 53/70/62 103/63/62 37/73/62
f 57/74/63 44/75/63 28/76/63
f 20/54/64 38/59/64 61/58/64
f 107/77/65 45/78/65 81/79/65
f 103/63/66 39/55/66 37/73/66
f 93/72/67 25/80/67 23/81/67
f 30/82/68 45/78/68 40/83/68
f 95/84/69 107/77/69 75/85/69
f 58/86/70 37/73/70 39/55/70
f 22/87/71 50/60/71 25/80/71
f 48/56/72 103/63/72 23/81/72
f 88/71/73 53/70/73 24/88/73
f 25/80/74 50/60/74 23/81/74
f 44/75/75 45/78/75 94/89/75
f 22/87/76 52/61/76 50/60/76
f 27/90/77 25/80/77 54/91/77
f 81/79/78 45/78/78 31/92/78
f 63/93/79 90/94/79 89/95/79
f 96/96/80 88/71/80 24/88/80
f 63/93/81 43/97/81 90/94/81
f 31/92/82 45/78/82 44/75/82
f 102/66/83 27/90/83 42/98/83
f 59/99/84 42/98/84 99/100/84
f 63/93/85 28/76/85 43/97/85
f 94/89/86 92/101/86 44/75/86
f 38/59/87 46/69/87 29/102/87
f 63/93/88 57/74/88 28/76/88
f 57/74/89 63/93/89 80/103/89
f 57/74/90 82/104/90 31/92/90
f 32/105/91 41/106/91 33/107/91
f 33/107/92 29/102/92 30/82/92
f 54/91/93 56/108/93 99/100/93
f 58/86/94 26/64/94 35/109/94
f 36/110/95 26/64/95 49/65/95
f 39/55/96 26/64/96 58/86/96
f 29/102/97 34/57/97 38/59/97
f 55/111/98 36/110/98 60/112/98
f 36/110/99 35/109/99 26/64/99
f 49/65/100 61/58/100 34/57/100
f 40/83/101 33/107/101 30/82/101
f 97/113/102 91/114/102 55/111/102
f 58/86/103 96/96/103 24/88/103
f 73/115/104 72/116/104 75/85/104
f 81/79/105 75/85/105 107/77/105
f 95/84/106 32/105/106 40/83/106
f 33/107/107 34/57/107 29/102/107
f 102/66/108 22/87/108 27/90/108
f 44/75/109 92/101/109 28/76/109
f 43/97/110 28/76/110 92/101/110
f 89/95/111 90/94/111 47/117/111
f 92/101/112 51/68/112 43/97/112
f 41/106/113 60/112/113 34/57/113
f 94/89/114 45/78/114 29/102/114
f 25/80/115 27/90/115 22/87/115
f 22/87/116 102/66/116 52/61/116
f 102/66/117 42/98/117 98/67/117
f 55/111/118 60/112/118 41/106/118
f 43/97/119 98/67/119 90/94/119
f 103/63/120 53/70/120 93/72/120
f 87/118/121 78/119/121 83/120/121
f 99/100/122 42/98/122 27/90/122
f 59/99/123 99/100/123 56/108/123
f 45/78/124 107/77/124 40/83/124
f 95/84/125 40/83/125 107/77/125
f 41/106/126 95/84/126 97/113/126
f 91/114/127 101/121/127 96/96/127
f 90/94/128 42/98/128 47/117/128
f 98/67/129 42/98/129 90/94/129
f 42/98/130 59/99/130 47/117/130
f 41/106/131 34/57/131 33/107/131
f 94/89/132 46/69/132 51/68/132
f 23/81/133 103/63/133 93/72/133
f 30/82/134 29/102/134 45/78/134
f 94/89/135 29/102/135 46/69/135
f 35/109/136 36/110/136 55/111/136
f 60/112/137 49/65/137 34/57/137
f 58/86/138 24/88/138 53/70/138
f 53/70/139 37/73/139 58/86/139
f 99/100/140 27/90/140 54/91/140
f 92/101/141 94/89/141 51/68/141
f 32/105/142 33/107/142 40/83/142
f 65/122/143 93/72/143 88/71/143
f 49/65/144 60/112/144 36/110/144
f 41/106/145 97/113/145 55/111/145
f 55/111/146 96/96/146 35/109/146
f 41/106/147 32/105/147 95/84/147
f 96/96/148 55/111/148 91/114/148
f 96/96/149 58/86/149 35/109/149
f 51/68/150 52/61/150 102/66/150
f 54/91/151 93/72/151 65/122/151
f 50/60/152 48/56/152 23/81/152
f 20/54/153 49/65/153 26/64/153
f 21/62/154 38/59/154 20/54/154
f 54/91/155 25/80/155 93/72/155
f 46/69/156 38/59/156 21/62/156
f 43/97/157 51/68/157 98/67/157
f 87/118/158 68/123/158 100/124/158
f 47/117/159 59/99/159 104/125/159
f 56/108/160 54/91/160 64/126/160
f 104/125/161 62/127/161 89/95/161
f 87/118/162 83/120/162 68/123/162
f 83/120/163 104/125/163 68/123/163
f 104/125/164 83/120/164 62/127/164
f 70/128/165 66/129/165 105/130/165
f 62/127/166 83/120/166 84/131/166
f 71/132/167 70/128/167 77/133/167
f 69/134/168 67/135/168 79/136/168
f 76/137/169 85/138/169 69/134/169
f 87/118/170 106/139/170 78/119/170
f 70/128/171 106/139/171 100/124/171
f 106/139/172 70/128/172 71/132/172
f 106/139/173 79/136/173 78/119/173
f 66/129/174 65/122/174 88/71/174
f 71/132/175 77/133/175 74/140/175
f 71/132/176 74/140/176 79/136/176
f 106/139/177 71/132/177 79/136/177
f 96/96/178 105/130/178 66/129/178
f 100/124/179 68/123/179 64/126/179
f 79/136/180 67/135/180 78/119/180
f 88/71/181 96/96/181 66/129/181
f 56/108/182 64/126/182 68/123/182
f 31/92/183 44/75/183 57/74/183
f 89/95/184 62/127/184 63/93/184
f 80/103/185 86/141/185 57/74/185
f 91/114/186 77/133/186 105/130/186
f 106/139/187 87/118/187 100/124/187
f 62/127/188 80/103/188 63/93/188
f 85/138/189 67/135/189 69/134/189
f 69/134/190 79/136/190 74/140/190
f 67/135/191 84/131/191 78/119/191
f 83/120/192 78/119/192 84/131/192
f 84/131/193 80/103/193 62/127/193
f 80/103/194 84/131/194 85/138/194
f 81/79/195 76/137/195 75/85/195
f 76/137/196 69/134/196 73/115/196
f 76/137/197 73/115/197 75/85/197
f 82/104/198 86/141/198 76/137/198
f 72/116/199 74/140/199 77/133/199
f 72/116/200 91/114/200 97/113/200
f 86/141/201 80/103/201 85/138/201
f 86/141/202 82/104/202 57/74/202
f 86/141/203 85/138/203 76/137/203
f 70/128/204 100/124/204 66/129/204
f 84/131/205 67/135/205 85/138/205
f 72/116/206 73/115/206 74/140/206
f 69/134/207 74/140/207 73/115/207
f 81/79/208 82/104/208 76/137/208
f 77/133/209 70/128/209 105/130/209
f 95/84/210 72/116/210 97/113/210
f 82/104/211 81/79/211 31/92/211
f 65/122/212 66/129/212 100/124/212
f 104/125/213 56/108/213 68/123/213
f 54/91/214 65/122/214 64/126/214
f 101/121/215 105/130/215 96/96/215
f 47/117/216 104/125/216 89/95/216
f 56/108/217 104/125/217 59/99/217
f 64/126/218 65/122/218 100/124/218
f 91/114/219 105/130/219 101/121/219
f 75/85/220 72/116/220 95/84/220
f 77/133/221 91/114/221 72/116/221
f 122/142/222 132/143/222 131/144/222
f 122/142/223 131/144/223 130/145/223
f 148/146/224 125/147/224 142/148/224
f 135/149/225 133/150/225 130/145/225
f 130/145/226 133/150/226 122/142/226
f 123/151/227 132/143/227 122/142/227
f 123/151/228 122/142/228 134/152/228
f 142/148/229 125/147/229 128/153/229
f 129/154/230 127/155/230 123/151/230
f 125/147/231 132/143/231 128/153/231
f 131/144/232 132/143/232 125/147/232
f 128/153/233 145/156/233 144/157/233
f 125/147/234 126/158/234 124/159/234
f 135/149/235 130/145/235 126/158/235
f 126/158/236 130/145/236 131/144/236
f 125/147/237 124/159/237 131/144/237
f 139/160/238 146/161/238 148/146/238
f 145/156/239 128/153/239 132/143/239
f 123/151/240 127/155/240 132/143/240
f 129/154/241 123/151/241 134/152/241
f 146/161/242 125/147/242 148/146/242
f 145/156/243 127/155/243 129/154/243
f 126/158/244 131/144/244 124/159/244
f 126/158/245 125/147/245 146/161/245
f 147/162/246 135/149/246 126/158/246
f 134/152/247 133/150/247 135/149/247
f 134/152/248 122/142/248 133/150/248
f 145/156/249 132/143/249 127/155/249
f 141/163/250 138/164/250 136/165/250
f 129/154/251 144/157/251 145/156/251
f 129/154/252 138/164/252 144/157/252
f 144/157/253 138/164/253 137/166/253
f 139/160/254 137/166/254 141/163/254
f 141/163/255 136/165/255 140/167/255
f 140/167/256 139/160/256 141/163/256
f 136/165/257 138/164/257 134/152/257
f 135/149/258 147/162/258 136/165/258
f 147/162/259 140/167/259 136/165/259
f 143/168/260 137/166/260 139/160/260
f 138/164/261 141/163/261 137/166/261
f 144/157/262 137/166/262 143/168/262
f 142/148/263 143/168/263 148/146/263
f 143/168/264 139/160/264 148/146/264
f 142/148/265 144/157/265 143/168/265
f 146/161/266 139/160/266 140/167/266
f 146/161/267 147/162/267 126/158/267
f 144/157/268 142/148/268 128/153/268
f 129/154/269 134/152/269 138/164/269
f 134/152/270 135/149/270 136/165/270
f 140/167/271 147/162/271 146/161/271
