# Blender v2.90.1 OBJ File: 'NaturePack_AllModels.blend'
# www.blender.org
mtllib brown_tree1.mtl
o Tree3_2_Cylinder.026
v 27.967194 9.397351 12.594559
v 27.891640 9.204997 12.162163
v 27.953175 7.766247 11.739676
v 29.076624 8.491570 11.882744
v 29.019487 8.115782 11.678030
v 27.879656 8.852681 13.358442
v 28.017223 7.223048 11.823740
v 27.035381 5.612897 12.081600
v 26.547081 7.963806 12.840682
v 26.227633 6.067654 12.931303
v 26.502481 8.176126 13.551835
v 26.818197 8.814276 13.543689
v 27.658052 8.664194 14.087032
v 29.227867 8.510493 12.264618
v 27.479734 9.280711 12.359367
v 28.561852 8.731192 12.637455
v 26.602163 6.938422 13.648382
v 27.151531 8.114039 14.522975
v 27.716843 6.393260 11.038408
v 27.047394 6.361172 11.131430
v 26.692858 6.444251 12.313804
v 26.317818 6.981957 13.006875
v 27.346104 8.476714 12.038029
v 28.006418 5.634009 11.381518
v 28.514139 8.799804 12.234137
v 27.405188 9.361311 12.865088
v 28.268925 8.465761 11.785683
v 26.975885 7.652685 11.548218
v 27.533745 8.095539 11.712504
v 29.375160 7.890142 12.495367
v 29.116102 6.955865 12.127409
v 27.847492 8.048672 14.519618
v 28.918282 6.127344 12.171597
v 28.505558 7.790633 13.296350
v 28.323492 5.950299 11.888386
v 27.312952 8.526922 14.366924
v 27.923521 4.667094 11.681020
v 29.285004 5.894234 12.526739
v 29.290257 6.767476 12.691182
v 29.277765 6.080401 13.545743
v 28.085821 4.147382 13.235180
v 29.207182 5.288096 12.161668
v 27.560911 4.316439 13.903776
v 29.222359 5.294285 14.114450
v 28.923094 4.716569 14.352417
v 27.415312 5.506521 14.771566
v 27.063869 4.793909 14.261505
v 27.971121 4.607828 14.490328
v 26.593061 5.324506 14.176609
v 26.644972 4.758268 13.647029
v 28.598677 5.288346 14.736351
v 28.680964 4.298404 13.063187
v 28.557552 4.260231 13.929090
v 26.208136 5.617042 13.505583
v 26.221716 5.462263 13.186159
v 28.779011 4.709628 11.991936
v 27.986412 4.263483 12.348709
v 27.309681 4.375402 12.953945
v 27.211206 4.650715 12.323710
v 29.136225 4.784061 12.793612
v 29.148420 6.973523 12.912379
v 27.461287 5.685343 11.193933
v 27.421696 6.134277 10.948524
v 27.941380 6.158099 14.777173
v 26.783129 7.278539 11.754116
v 29.432178 7.868832 12.026096
v 26.647156 7.577050 12.355527
v 27.112917 6.510212 14.478855
v 28.434340 6.743064 14.230234
v 27.502842 7.072905 14.701905
v 27.289257 7.047843 11.110348
v 29.329494 5.394146 13.396463
v 28.286144 5.232295 11.484947
v 28.865364 6.128082 14.312562
v 29.160213 4.631841 13.695201
v 26.453295 6.026705 13.896509
v 28.102819 -0.052931 12.858345
v 28.107567 4.693369 12.988491
v 27.997097 -0.057841 12.955003
v 28.211296 -0.052940 12.951364
v 28.178217 -0.050459 13.105936
v 28.181301 2.808249 13.006137
v 28.002888 -0.052201 13.105134
v 28.046667 3.970728 13.057401
v 27.974411 1.494165 12.951087
v 28.025518 4.067944 12.949419
vt 0.978254 0.324164
vt 0.608932 0.055836
vt 0.521746 0.324164
vt 0.387823 0.896265
vt 0.356053 1.000000
vt 0.094862 0.893036
vt 0.192012 0.652877
vt 0.400000 0.500802
vt 0.600000 0.500934
vt 0.735949 0.750009
vt 0.720597 0.962472
vt 0.999936 0.500569
vt 1.000000 0.893039
vt 0.200000 0.500000
vt 0.000000 0.500569
vt 0.750000 0.490000
vt 0.891068 0.055836
vt 0.800000 0.500839
vt 0.000000 0.000000
vt 0.000000 0.000000
vt 0.000000 0.000000
vt 0.000000 0.000000
vt 0.000000 0.000000
vt 0.000000 0.000000
vt 0.000000 0.000000
vt 0.000000 0.000000
vt 0.000000 0.000000
vt 0.000000 0.000000
vt 0.000000 0.000000
vt 0.000000 0.000000
vt 0.000000 0.000000
vt 0.000000 0.000000
vt 0.000000 0.000000
vt 0.000000 0.000000
vt 0.000000 0.000000
vt 0.000000 0.000000
vt 0.000000 0.000000
vt 0.000000 0.000000
vt 0.000000 0.000000
vt 0.000000 0.000000
vt 0.000000 0.000000
vt 0.000000 0.000000
vt 0.000000 0.000000
vt 0.000000 0.000000
vt 0.000000 0.000000
vt 0.000000 0.000000
vt 0.000000 0.000000
vt 0.000000 0.000000
vt 0.000000 0.000000
vt 0.000000 0.000000
vt 0.000000 0.000000
vt 0.000000 0.000000
vt 0.000000 0.000000
vt 0.000000 0.000000
vt 0.000000 0.000000
vt 0.000000 0.000000
vt 0.000000 0.000000
vt 0.000000 0.000000
vt 0.000000 0.000000
vt 0.000000 0.000000
vt 0.000000 0.000000
vt 0.000000 0.000000
vt 0.000000 0.000000
vt 0.000000 0.000000
vt 0.000000 0.000000
vt 0.000000 0.000000
vt 0.000000 0.000000
vt 0.000000 0.000000
vt 0.000000 0.000000
vt 0.000000 0.000000
vt 0.000000 0.000000
vt 0.000000 0.000000
vt 0.000000 0.000000
vt 0.000000 0.000000
vt 0.000000 0.000000
vt 0.000000 0.000000
vt 0.000000 0.000000
vt 0.000000 0.000000
vt 0.000000 0.000000
vt 0.000000 0.000000
vt 0.000000 0.000000
vt 0.000000 0.000000
vt 0.000000 0.000000
vt 0.000000 0.000000
vt 0.000000 0.000000
vt 0.000000 0.000000
vt 0.000000 0.000000
vt 0.000000 0.000000
vt 0.000000 0.000000
vt 0.000000 0.000000
vt 0.000000 0.000000
vt 0.000000 0.000000
vt 0.000000 0.000000
vt 0.000000 0.000000
vn 0.0235 -0.9991 0.0366
vn -0.9530 0.1073 0.2833
vn -0.9484 0.0141 0.3166
vn 0.5598 0.0283 0.8282
vn 0.2599 0.0262 -0.9653
vn -0.6744 -0.0117 -0.7383
vn -0.9991 -0.0145 0.0391
vn 0.0224 -0.9994 -0.0262
vn 0.0098 -0.9998 0.0182
vn -0.5076 0.0095 -0.8616
vn -0.9777 0.0195 0.2091
vn -0.0047 0.0119 0.9999
vn 0.5715 0.0300 0.8200
vn 0.9779 0.0062 0.2092
vn 0.6757 0.0195 -0.7369
vn 0.6508 0.0214 -0.7589
vn 0.7450 0.6666 0.0253
vn -0.7849 0.5834 -0.2087
vn -0.1133 0.4044 -0.9075
vn 0.3691 0.9225 0.1133
vn 0.6312 0.5955 0.4969
vn 0.4543 0.5774 -0.6785
vn -0.4296 0.4548 -0.7801
vn 0.5286 0.7374 -0.4204
vn 0.9748 -0.1835 0.1268
vn -0.2185 0.5693 -0.7926
vn -0.1475 0.9731 -0.1768
vn -0.9113 0.2039 0.3578
vn 0.7076 0.2520 -0.6601
vn -0.7095 0.1347 0.6917
vn 0.5449 0.4590 0.7017
vn -0.0922 0.1067 -0.9900
vn 0.3756 0.9063 -0.1937
vn 0.6567 0.1716 0.7343
vn 0.0909 0.4657 -0.8803
vn -0.8853 -0.0186 -0.4646
vn 0.0856 0.0269 -0.9960
vn 0.1717 -0.3434 -0.9234
vn -0.9947 0.0948 0.0406
vn 0.7818 0.3844 0.4909
vn -0.5924 -0.4260 -0.6838
vn -0.8279 0.1268 -0.5464
vn 0.5687 0.4474 -0.6902
vn 0.8424 0.1769 -0.5091
vn -0.7618 -0.5042 -0.4067
vn -0.9782 -0.0319 -0.2053
vn -0.7661 0.3442 -0.5427
vn -0.8603 -0.2666 -0.4345
vn -0.7647 -0.2437 -0.5965
vn -0.8319 -0.0237 0.5545
vn -0.9709 0.2060 -0.1224
vn 0.2401 -0.1088 -0.9646
vn 0.8180 0.4621 0.3426
vn 0.4870 0.7982 0.3546
vn 0.7032 0.3792 0.6014
vn -0.8295 0.4884 -0.2710
vn 0.3396 0.6085 0.7172
vn 0.7841 0.4998 0.3678
vn -0.9145 -0.0423 0.4025
vn 0.1233 0.1400 0.9824
vn -0.5071 -0.3221 0.7994
vn -0.8611 0.0310 0.5075
vn -0.8818 0.4339 -0.1848
vn 0.7030 -0.0271 -0.7107
vn -0.8553 -0.2216 -0.4683
vn -0.9724 -0.1771 -0.1518
vn 0.2532 -0.4467 -0.8581
vn -0.8301 0.1291 -0.5425
vn -0.6698 0.4770 0.5690
vn -0.9324 0.1632 -0.3224
vn -0.0067 -0.1537 -0.9881
vn 0.3668 0.3978 -0.8410
vn 0.0365 0.3408 0.9394
vn -0.3835 0.1069 -0.9173
vn 0.9582 0.2663 0.1043
vn 0.6474 -0.7294 -0.2208
vn 0.4161 0.0540 -0.9077
vn -0.8778 0.2539 0.4063
vn -0.7434 0.2859 0.6046
vn -0.4829 -0.0125 0.8756
vn 0.4539 -0.2174 -0.8641
vn 0.1287 0.1910 -0.9731
vn 0.8277 0.0637 -0.5575
vn -0.7571 0.3813 0.5304
vn -0.8036 0.5263 -0.2779
vn 0.8448 0.4008 -0.3545
vn -0.7631 0.4193 -0.4917
vn -0.2649 0.8497 0.4558
vn 0.5956 0.4004 0.6964
vn -0.8990 0.2759 -0.3402
vn 0.8892 0.1470 0.4332
vn 0.0485 0.8719 0.4874
vn 0.0213 0.1763 0.9841
vn -0.8504 0.0060 0.5261
vn 0.6610 0.1334 0.7384
vn 0.8651 0.2997 0.4022
vn -0.1663 0.5203 -0.8377
vn 0.8605 -0.3400 -0.3794
vn 0.0486 0.7881 -0.6136
vn 0.2303 0.7797 0.5823
vn -0.0246 0.9150 -0.4027
vn 0.5211 -0.2702 -0.8096
vn -0.3359 0.3972 -0.8541
vn -0.6414 0.2032 -0.7398
vn 0.9697 -0.2320 -0.0761
vn 0.6990 0.3223 -0.6384
vn 0.6188 -0.1884 -0.7626
vn 0.1098 -0.3879 -0.9151
vn 0.8051 -0.5044 -0.3119
vn 0.5875 -0.2052 -0.7827
vn 0.3196 -0.4870 -0.8128
vn 0.8568 0.2612 0.4446
vn 0.2296 -0.8232 -0.5192
vn 0.7045 -0.0742 0.7058
vn -0.0602 -0.9779 0.2000
vn -0.4479 -0.8919 0.0631
vn 0.6827 -0.7173 -0.1393
vn 0.9780 -0.1692 0.1224
vn 0.8812 -0.3091 0.3578
vn 0.5354 -0.8437 0.0391
vn 0.9041 0.3264 0.2757
vn 0.1791 -0.4764 0.8608
vn 0.1784 -0.7422 0.6460
vn 0.5830 -0.7521 0.3073
vn 0.7397 0.5670 0.3626
vn 0.9931 -0.0720 -0.0922
vn 0.2438 -0.9698 -0.0080
vn 0.7487 0.4522 0.4848
vn 0.7525 0.2662 -0.6024
vn -0.7524 -0.1296 -0.6459
vn 0.4374 0.2906 0.8510
vn 0.9682 -0.2411 -0.0665
vn -0.5523 -0.5503 -0.6262
vn -0.2874 -0.9577 0.0166
vn -0.0616 -0.8761 0.4783
vn 0.2024 -0.9678 -0.1495
vn 0.3588 -0.8819 -0.3057
vn -0.3874 -0.8047 -0.4499
vn -0.4171 -0.8550 -0.3083
vn -0.8630 -0.3851 0.3271
vn -0.4860 -0.7884 0.3771
vn -0.6864 -0.5293 0.4987
vn -0.7393 -0.6186 -0.2660
vn -0.0299 -0.3153 0.9485
vn -0.0704 0.0482 0.9964
vn -0.7522 -0.2867 -0.5932
vn -0.6476 -0.7302 -0.2178
vn 0.9874 0.0411 0.1531
vn -0.2475 -0.9639 -0.0985
vn -0.3041 -0.4507 0.8393
vn -0.3019 -0.7527 0.5851
vn -0.8895 -0.4248 0.1680
vn 0.6992 0.1325 0.7025
vn -0.5677 0.0682 0.8204
vn -0.9992 -0.0067 -0.0392
vn 0.9961 0.0612 0.0638
vn 0.5713 0.2060 -0.7945
vn 0.9587 0.0470 -0.2804
vn 0.3238 -0.0181 -0.9460
vn 0.2655 0.4617 -0.8463
vn 0.9988 0.0033 -0.0492
vn 0.4214 0.4040 0.8119
vn -0.5933 0.0554 0.8030
vn 0.0245 -0.0284 0.9993
usemtl Tree3_1
s off
f 80/1/1 83/2/1 79/3/1
f 84/4/2 78/5/2 86/6/2
f 85/7/3 83/8/3 84/4/3
f 84/4/4 81/9/4 82/10/4
f 78/11/5 77/12/5 86/13/5
f 79/14/6 85/7/6 77/15/6
f 83/8/7 85/7/7 79/14/7
f 79/3/8 77/16/8 80/1/8
f 80/1/9 81/17/9 83/2/9
f 86/6/10 77/15/10 85/7/10
f 84/4/11 86/6/11 85/7/11
f 84/4/12 83/8/12 81/9/12
f 78/11/13 84/4/13 82/10/13
f 82/10/14 81/9/14 80/18/14
f 78/11/15 82/10/15 77/12/15
f 77/12/16 82/10/16 80/18/16
usemtl Tree3_2
f 1/19/17 16/20/17 25/21/17
f 12/22/18 26/23/18 15/24/18
f 27/25/19 29/26/19 2/27/19
f 14/28/20 25/21/20 16/20/20
f 6/29/21 16/20/21 1/19/21
f 27/25/22 2/27/22 25/21/22
f 2/27/23 29/26/23 23/30/23
f 1/19/24 25/21/24 2/27/24
f 30/31/25 61/32/25 66/33/25
f 28/34/26 23/30/26 29/26/26
f 1/19/27 15/24/27 26/23/27
f 76/35/28 22/36/28 54/37/28
f 66/33/29 5/38/29 4/39/29
f 68/40/30 76/35/30 49/41/30
f 34/42/31 14/28/31 16/20/31
f 3/43/32 27/25/32 5/38/32
f 25/21/33 14/28/33 4/39/33
f 61/32/34 30/31/34 34/42/34
f 5/38/35 27/25/35 4/39/35
f 21/44/36 22/36/36 67/45/36
f 3/43/37 29/26/37 27/25/37
f 7/46/38 5/38/38 31/47/38
f 54/37/39 22/36/39 10/48/39
f 69/49/40 61/32/40 34/42/40
f 62/50/41 20/51/41 63/52/41
f 10/48/42 22/36/42 21/44/42
f 71/53/43 7/46/43 19/54/43
f 35/55/44 19/54/44 7/46/44
f 62/50/45 8/56/45 20/51/45
f 67/45/46 65/57/46 21/44/46
f 15/24/47 23/30/47 9/58/47
f 8/56/48 62/50/48 59/59/48
f 8/56/49 55/60/49 10/48/49
f 17/61/50 18/62/50 11/63/50
f 11/63/51 9/58/51 22/36/51
f 31/47/52 33/64/52 7/46/52
f 34/42/53 6/29/53 32/65/53
f 13/66/54 6/29/54 26/23/54
f 16/20/55 6/29/55 34/42/55
f 9/58/56 12/22/56 15/24/56
f 32/65/57 13/66/57 36/67/57
f 13/66/58 32/65/58 6/29/58
f 17/61/59 11/63/59 22/36/59
f 70/68/60 64/69/60 32/65/60
f 47/70/61 46/71/61 49/41/61
f 54/37/62 49/41/62 76/35/62
f 11/63/63 12/22/63 9/58/63
f 71/53/64 3/43/64 7/46/64
f 21/44/65 65/57/65 8/56/65
f 20/51/66 8/56/66 65/57/66
f 62/50/67 63/52/67 24/72/67
f 65/57/68 28/34/68 20/51/68
f 18/62/69 36/67/69 12/22/69
f 67/45/70 22/36/70 9/58/70
f 5/38/71 7/46/71 3/43/71
f 3/43/72 71/53/72 29/26/72
f 32/65/73 36/67/73 18/62/73
f 20/51/74 71/53/74 63/52/74
f 14/28/75 30/31/75 66/33/75
f 60/73/76 52/74/76 56/75/76
f 35/55/77 7/46/77 33/64/77
f 22/36/78 76/35/78 17/61/78
f 68/40/79 17/61/79 76/35/79
f 18/62/80 68/40/80 70/68/80
f 63/52/81 19/54/81 24/72/81
f 71/53/82 19/54/82 63/52/82
f 19/54/83 35/55/83 24/72/83
f 18/62/84 12/22/84 11/63/84
f 67/45/85 23/30/85 28/34/85
f 4/39/86 14/28/86 66/33/86
f 67/45/87 9/58/87 23/30/87
f 36/67/88 26/23/88 12/22/88
f 30/31/89 14/28/89 34/42/89
f 65/57/90 67/45/90 28/34/90
f 39/76/91 66/33/91 61/32/91
f 26/23/92 36/67/92 13/66/92
f 18/62/93 70/68/93 32/65/93
f 18/62/94 17/61/94 68/40/94
f 69/49/95 32/65/95 64/69/95
f 69/49/96 34/42/96 32/65/96
f 28/34/97 29/26/97 71/53/97
f 31/47/98 66/33/98 39/76/98
f 27/25/99 25/21/99 4/39/99
f 1/19/100 26/23/100 6/29/100
f 2/27/101 15/24/101 1/19/101
f 31/47/102 5/38/102 66/33/102
f 23/30/103 15/24/103 2/27/103
f 20/51/104 28/34/104 71/53/104
f 60/73/105 42/77/105 72/78/105
f 24/72/106 35/55/106 73/79/106
f 33/64/107 31/47/107 38/80/107
f 73/79/108 37/81/108 62/50/108
f 60/73/109 56/75/109 42/77/109
f 56/75/110 73/79/110 42/77/110
f 73/79/111 56/75/111 37/81/111
f 44/82/112 40/83/112 74/84/112
f 37/81/113 56/75/113 57/85/113
f 45/86/114 44/82/114 51/87/114
f 43/88/115 41/89/115 53/90/115
f 50/91/116 58/92/116 43/88/116
f 60/73/117 75/93/117 52/74/117
f 44/82/118 75/93/118 72/78/118
f 75/93/119 44/82/119 45/86/119
f 75/93/120 53/90/120 52/74/120
f 40/83/121 39/76/121 61/32/121
f 45/86/122 51/87/122 48/94/122
f 45/86/123 48/94/123 53/90/123
f 75/93/124 45/86/124 53/90/124
f 69/49/125 74/84/125 40/83/125
f 72/78/126 42/77/126 38/80/126
f 53/90/127 41/89/127 52/74/127
f 61/32/128 69/49/128 40/83/128
f 33/64/129 38/80/129 42/77/129
f 10/48/130 21/44/130 8/56/130
f 64/69/131 51/87/131 74/84/131
f 75/93/132 60/73/132 72/78/132
f 37/81/133 59/59/133 62/50/133
f 58/92/134 41/89/134 43/88/134
f 43/88/135 53/90/135 48/94/135
f 41/89/136 57/85/136 52/74/136
f 56/75/137 52/74/137 57/85/137
f 57/85/138 59/59/138 37/81/138
f 59/59/139 57/85/139 58/92/139
f 54/37/140 50/91/140 49/41/140
f 50/91/141 43/88/141 47/70/141
f 50/91/142 47/70/142 49/41/142
f 55/60/143 59/59/143 50/91/143
f 46/71/144 48/94/144 51/87/144
f 46/71/145 64/69/145 70/68/145
f 59/59/146 55/60/146 8/56/146
f 59/59/147 58/92/147 50/91/147
f 44/82/148 72/78/148 40/83/148
f 57/85/149 41/89/149 58/92/149
f 46/71/150 47/70/150 48/94/150
f 43/88/151 48/94/151 47/70/151
f 54/37/152 55/60/152 50/91/152
f 51/87/153 44/82/153 74/84/153
f 68/40/154 46/71/154 70/68/154
f 55/60/155 54/37/155 10/48/155
f 39/76/156 40/83/156 72/78/156
f 73/79/157 33/64/157 42/77/157
f 31/47/158 39/76/158 38/80/158
f 24/72/159 73/79/159 62/50/159
f 33/64/160 73/79/160 35/55/160
f 38/80/161 39/76/161 72/78/161
f 64/69/162 74/84/162 69/49/162
f 49/41/163 46/71/163 68/40/163
f 51/87/164 64/69/164 46/71/164
