# Blender v2.90.1 OBJ File: 'NaturePack_AllModels.blend'
# www.blender.org
mtllib bush1.mtl
o Bush1_2_Icosphere.084
v 23.493073 -0.050142 20.021500
v 24.070168 -0.004455 20.440779
v 23.253029 0.042988 20.693399
v 22.779745 -0.004453 20.021500
v 23.272646 -0.004456 19.343086
v 24.070168 0.029578 19.589375
v 23.635424 0.870978 20.673986
v 22.837904 0.870978 20.414852
v 22.915977 0.682167 19.602221
v 23.713499 0.817608 19.291962
v 24.206400 0.817606 19.970375
v 23.480137 1.181784 20.006832
v 23.359531 -0.094616 20.418938
v 23.832279 -0.104240 20.267944
v 23.699104 -0.034607 20.665506
v 24.171486 -0.037075 20.019135
v 23.832279 -0.097336 19.772449
v 23.073790 -0.104241 20.021500
v 22.940611 -0.034605 20.419060
v 23.363510 -0.104240 19.622742
v 22.944225 -0.043343 19.622740
v 23.702717 -0.037076 19.373926
v 24.251566 0.348253 20.259356
v 24.251566 0.441193 19.731384
v 23.426382 0.486779 20.796877
v 23.948730 0.357217 20.662355
v 22.721464 0.357218 20.263590
v 22.957607 0.486781 20.644564
v 23.024300 0.325498 19.376289
v 22.734581 0.325498 19.775055
v 23.961847 0.441193 19.332619
v 23.493073 0.348252 19.215385
v 24.029182 0.798348 20.407440
v 23.150974 1.065108 20.622721
v 22.801542 0.776508 20.017143
v 23.283428 0.767541 19.367704
v 24.041922 0.974566 19.536007
v 23.556215 1.166439 20.397486
v 23.912355 1.119612 19.977829
v 23.087175 1.165202 20.245796
v 23.152822 1.008337 19.773993
v 23.622635 1.119612 19.579071
vt 0.818181 0.000000
vt 0.772726 0.078731
vt 0.863635 0.078731
vt 0.727272 0.157461
vt 0.681818 0.078731
vt 0.636363 0.157461
vt 0.090909 0.000000
vt 0.045454 0.078731
vt 0.136363 0.078731
vt 0.272727 0.000000
vt 0.227273 0.078731
vt 0.318182 0.078731
vt 0.454545 0.000000
vt 0.409090 0.078731
vt 0.500000 0.078731
vt 0.681818 0.236191
vt 0.909090 0.157461
vt 0.818181 0.157461
vt 0.863635 0.236191
vt 0.181818 0.157461
vt 0.090909 0.157461
vt 0.136363 0.236191
vt 0.363636 0.157461
vt 0.272727 0.157461
vt 0.318182 0.236191
vt 0.545454 0.157461
vt 0.454545 0.157461
vt 0.500000 0.236191
vt 0.772726 0.236191
vt 0.954545 0.236191
vt 0.227273 0.236191
vt 0.409090 0.236191
vt 0.590909 0.236191
vt 0.818181 0.314921
vt 0.727272 0.314921
vt 0.772726 0.393651
vt 1.000000 0.314921
vt 0.909091 0.314921
vt 0.954545 0.393651
vt 0.272727 0.314921
vt 0.181818 0.314921
vt 0.227273 0.393651
vt 0.454545 0.314921
vt 0.363636 0.314921
vt 0.409090 0.393651
vt 0.636363 0.314921
vt 0.545454 0.314921
vt 0.590909 0.393651
vt 0.500000 0.393651
vt 0.545454 0.472382
vt 0.318182 0.393651
vt 0.363636 0.472382
vt 0.136363 0.393651
vt 0.181818 0.472382
vt 0.090909 0.314921
vt 0.863635 0.393651
vt 0.909090 0.472382
vt 0.681818 0.393651
vt 0.727272 0.472382
vt 0.045454 0.236191
vt 0.000000 0.157461
vt 0.590909 0.078731
vt 0.636363 0.000000
vn -0.0622 -0.9894 -0.1316
vn 0.2924 -0.9455 0.1434
vn 0.1277 -0.9895 -0.0678
vn 0.1274 -0.9875 0.0926
vn -0.0316 -0.9890 0.1444
vn 0.9077 -0.3411 0.2445
vn 0.0200 -0.2344 0.9719
vn -0.8742 -0.3594 0.3265
vn -0.5790 -0.3623 -0.7304
vn 0.5203 -0.3492 -0.7793
vn 0.7943 -0.1003 0.5991
vn -0.3075 -0.1005 0.9462
vn -0.9888 -0.1480 -0.0169
vn -0.3151 -0.1428 -0.9383
vn 0.7996 -0.1520 -0.5810
vn 0.5012 0.6591 0.5607
vn -0.6377 0.7108 0.2967
vn -0.6695 0.6628 -0.3354
vn -0.2049 0.6413 -0.7394
vn 0.7161 0.6977 -0.0190
vn 0.1352 0.9859 -0.0983
vn 0.2991 0.9291 -0.2173
vn 0.1735 0.7055 -0.6872
vn -0.3165 0.9180 -0.2389
vn -0.4035 0.7244 -0.5590
vn -0.5071 0.6601 -0.5542
vn -0.2429 0.9099 -0.3363
vn -0.6655 0.6756 -0.3172
vn -0.7818 0.6189 -0.0755
vn -0.0164 0.9990 0.0424
vn -0.0898 0.9587 0.2698
vn 0.2069 0.6975 0.6861
vn 0.1431 0.9896 0.0110
vn 0.5595 0.7295 0.3934
vn 0.6856 0.6600 0.3071
vn 0.9283 0.2721 -0.2532
vn 0.8048 0.1021 -0.5847
vn 0.5018 0.2414 -0.8306
vn -0.1959 0.2468 -0.9491
vn -0.3272 0.1738 -0.9288
vn -0.5615 0.3143 -0.7654
vn -0.8986 0.3035 -0.3168
vn -0.9854 0.1663 -0.0373
vn -0.9769 0.2098 0.0395
vn -0.6359 0.2403 0.7334
vn -0.3061 0.1379 0.9420
vn 0.0175 0.2959 0.9550
vn 0.5701 0.3306 0.7521
vn 0.7861 0.1955 0.5864
vn 0.8758 0.3114 0.3688
vn 0.2332 0.0489 -0.9712
vn 0.2790 -0.2316 -0.9319
vn 0.0393 -0.3618 -0.9314
vn -0.8026 0.1256 -0.5831
vn -0.7906 -0.2122 -0.5744
vn -0.8736 -0.3623 -0.3250
vn -0.8555 0.0420 0.5160
vn -0.7941 -0.2193 0.5668
vn -0.5841 -0.3061 0.7517
vn 0.2813 0.1501 0.9478
vn 0.2168 -0.1304 0.9675
vn 0.5099 -0.3184 0.7992
vn 0.9940 0.1073 0.0189
vn 0.9824 -0.1840 -0.0324
vn 0.9130 -0.3114 -0.2635
vn 0.3073 -0.9211 -0.2392
vn 0.0691 -0.9828 -0.1711
vn -0.0487 -0.9456 -0.3216
vn -0.1374 -0.9462 -0.2930
vn -0.1430 -0.9843 -0.1039
vn -0.3211 -0.9462 -0.0402
vn -0.3208 -0.9454 0.0581
vn -0.1407 -0.9821 0.1249
vn -0.1296 -0.9056 0.4038
vn 0.3228 -0.9208 -0.2189
vn 0.1845 -0.9827 -0.0137
vn -0.1477 -0.9889 -0.0138
vn -0.1324 -0.9057 0.4027
vn 0.0391 -0.9819 0.1851
vn 0.2221 -0.9450 0.2399
usemtl Bush1_1
s off
f 1/1/1 14/2/1 13/3/1
f 2/4/2 14/5/2 16/6/2
f 1/7/3 13/8/3 18/9/3
f 1/10/4 18/11/4 20/12/4
f 1/13/5 20/14/5 17/15/5
f 2/4/6 16/6/6 23/16/6
f 3/17/7 15/18/7 25/19/7
f 4/20/8 19/21/8 27/22/8
f 5/23/9 21/24/9 29/25/9
f 6/26/10 22/27/10 31/28/10
f 2/4/11 23/16/11 26/29/11
f 3/17/12 25/19/12 28/30/12
f 4/20/13 27/22/13 30/31/13
f 5/23/14 29/25/14 32/32/14
f 6/26/15 31/28/15 24/33/15
f 7/34/16 33/35/16 38/36/16
f 8/37/17 34/38/17 40/39/17
f 9/40/18 35/41/18 41/42/18
f 10/43/19 36/44/19 42/45/19
f 11/46/20 37/47/20 39/48/20
f 39/48/21 42/49/21 12/50/21
f 39/48/22 37/47/22 42/49/22
f 37/47/23 10/43/23 42/49/23
f 42/45/24 41/51/24 12/52/24
f 42/45/25 36/44/25 41/51/25
f 36/44/26 9/40/26 41/51/26
f 41/42/27 40/53/27 12/54/27
f 41/42/28 35/41/28 40/53/28
f 35/41/29 8/55/29 40/53/29
f 40/39/30 38/56/30 12/57/30
f 40/39/31 34/38/31 38/56/31
f 34/38/32 7/34/32 38/56/32
f 38/36/33 39/58/33 12/59/33
f 38/36/34 33/35/34 39/58/34
f 33/35/35 11/46/35 39/58/35
f 24/33/36 37/47/36 11/46/36
f 24/33/37 31/28/37 37/47/37
f 31/28/38 10/43/38 37/47/38
f 32/32/39 36/44/39 10/43/39
f 32/32/40 29/25/40 36/44/40
f 29/25/41 9/40/41 36/44/41
f 30/31/42 35/41/42 9/40/42
f 30/31/43 27/22/43 35/41/43
f 27/22/44 8/55/44 35/41/44
f 28/30/45 34/38/45 8/37/45
f 28/30/46 25/19/46 34/38/46
f 25/19/47 7/34/47 34/38/47
f 26/29/48 33/35/48 7/34/48
f 26/29/49 23/16/49 33/35/49
f 23/16/50 11/46/50 33/35/50
f 31/28/51 32/32/51 10/43/51
f 31/28/52 22/27/52 32/32/52
f 22/27/53 5/23/53 32/32/53
f 29/25/54 30/31/54 9/40/54
f 29/25/55 21/24/55 30/31/55
f 21/24/56 4/20/56 30/31/56
f 27/22/57 28/60/57 8/55/57
f 27/22/58 19/21/58 28/60/58
f 19/21/59 3/61/59 28/60/59
f 25/19/60 26/29/60 7/34/60
f 25/19/61 15/18/61 26/29/61
f 15/18/62 2/4/62 26/29/62
f 23/16/63 24/33/63 11/46/63
f 23/16/64 16/6/64 24/33/64
f 16/6/65 6/26/65 24/33/65
f 17/15/66 22/27/66 6/26/66
f 17/15/67 20/14/67 22/27/67
f 20/14/68 5/23/68 22/27/68
f 20/12/69 21/24/69 5/23/69
f 20/12/70 18/11/70 21/24/70
f 18/11/71 4/20/71 21/24/71
f 18/9/72 19/21/72 4/20/72
f 18/9/73 13/8/73 19/21/73
f 13/8/74 3/61/74 19/21/74
f 16/6/75 17/62/75 6/26/75
f 16/6/76 14/5/76 17/62/76
f 14/5/77 1/63/77 17/62/77
f 13/3/78 15/18/78 3/17/78
f 13/3/79 14/2/79 15/18/79
f 14/2/80 2/4/80 15/18/80
