# Blender v2.90.1 OBJ File: 'NaturePack_AllModels.blend'
# www.blender.org
mtllib bush2.mtl
o Bush1_1_Icosphere.083
v 26.408226 -0.048898 20.050034
v 27.038906 0.001031 20.482826
v 26.145891 0.052880 20.787226
v 25.608736 -0.007018 20.041172
v 26.147408 -0.007020 19.299765
v 27.038906 -0.101505 19.273834
v 26.563795 1.027213 20.766010
v 25.673695 0.986966 20.471876
v 25.477531 0.654366 19.417585
v 26.636391 0.866845 19.199789
v 27.187790 0.867577 19.697008
v 26.394087 1.774052 20.036907
v 26.262283 -0.097501 20.487278
v 26.778929 -0.108020 20.299820
v 26.633389 -0.031920 20.756744
v 27.149633 -0.065463 19.823082
v 26.778929 -0.121477 19.649979
v 25.946182 -0.109567 20.050676
v 25.804464 -0.031919 20.487413
v 26.262806 -0.109566 19.614891
v 25.763441 -0.059640 19.590595
v 26.637337 -0.075584 19.295645
v 27.237148 0.368223 20.061806
v 27.237148 0.234727 19.162960
v 26.335342 0.537880 20.900312
v 26.906193 0.396287 20.753193
v 25.527573 0.381177 20.295425
v 25.823038 0.537882 20.733856
v 25.727308 0.293490 19.248257
v 25.410686 0.293490 19.684050
v 26.920527 0.297348 19.011620
v 26.373556 0.347352 19.149910
v 26.994116 0.933609 20.429756
v 26.034359 1.264072 20.709984
v 25.480366 0.835401 19.946550
v 26.008547 0.828030 19.237720
v 27.008038 1.068633 19.372118
v 26.477230 1.588040 20.463835
v 26.866440 1.509171 20.005209
v 25.964169 1.542647 20.297785
v 25.946886 1.351473 19.729607
v 26.549326 1.496457 19.569134
vt 0.818181 0.000000
vt 0.772726 0.078731
vt 0.863635 0.078731
vt 0.727272 0.157461
vt 0.681818 0.078731
vt 0.636363 0.157461
vt 0.090909 0.000000
vt 0.045454 0.078731
vt 0.136363 0.078731
vt 0.272727 0.000000
vt 0.227273 0.078731
vt 0.318182 0.078731
vt 0.454545 0.000000
vt 0.409090 0.078731
vt 0.500000 0.078731
vt 0.681818 0.236191
vt 0.909090 0.157461
vt 0.818181 0.157461
vt 0.863635 0.236191
vt 0.181818 0.157461
vt 0.090909 0.157461
vt 0.136363 0.236191
vt 0.363636 0.157461
vt 0.272727 0.157461
vt 0.318182 0.236191
vt 0.545454 0.157461
vt 0.454545 0.157461
vt 0.500000 0.236191
vt 0.772726 0.236191
vt 0.954545 0.236191
vt 0.227273 0.236191
vt 0.409090 0.236191
vt 0.590909 0.236191
vt 0.818181 0.314921
vt 0.727272 0.314921
vt 0.772726 0.393651
vt 1.000000 0.314921
vt 0.909091 0.314921
vt 0.954545 0.393651
vt 0.272727 0.314921
vt 0.181818 0.314921
vt 0.227273 0.393651
vt 0.454545 0.314921
vt 0.363636 0.314921
vt 0.409090 0.393651
vt 0.636363 0.314921
vt 0.545454 0.314921
vt 0.590909 0.393651
vt 0.500000 0.393651
vt 0.545454 0.472382
vt 0.318182 0.393651
vt 0.363636 0.472382
vt 0.136363 0.393651
vt 0.181818 0.472382
vt 0.090909 0.314921
vt 0.863635 0.393651
vt 0.909090 0.472382
vt 0.681818 0.393651
vt 0.727272 0.472382
vt 0.045454 0.236191
vt 0.000000 0.157461
vt 0.590909 0.078731
vt 0.636363 0.000000
vn -0.0683 -0.9888 -0.1327
vn 0.2944 -0.9447 0.1446
vn 0.1298 -0.9893 -0.0666
vn 0.1297 -0.9871 0.0943
vn -0.0329 -0.9883 0.1488
vn 0.9379 -0.2921 0.1869
vn 0.0200 -0.2344 0.9719
vn -0.8455 -0.4049 0.3482
vn -0.3939 -0.6602 -0.6395
vn -0.0811 -0.5642 -0.8216
vn 0.9021 0.0077 0.4315
vn -0.3074 -0.1005 0.9462
vn -0.9145 -0.3374 0.2232
vn -0.1160 -0.3231 -0.9392
vn 0.3084 -0.4570 -0.8343
vn 0.6091 0.4470 0.6551
vn -0.7115 0.5200 0.4726
vn -0.7673 0.6079 -0.2040
vn -0.0829 0.4957 -0.8645
vn 0.8499 0.5023 -0.1594
vn 0.4413 0.8283 -0.3451
vn 0.5252 0.7491 -0.4038
vn 0.1148 0.5144 -0.8498
vn -0.3319 0.7588 -0.5604
vn -0.3379 0.6231 -0.7054
vn -0.4255 0.5926 -0.6840
vn -0.5709 0.7832 -0.2462
vn -0.7664 0.6155 -0.1838
vn -0.8506 0.4977 0.1694
vn -0.2153 0.8792 0.4250
vn -0.2539 0.7808 0.5709
vn 0.1257 0.4855 0.8651
vn 0.4848 0.8325 0.2683
vn 0.6928 0.5212 0.4983
vn 0.9109 0.3560 0.2087
vn 0.8987 0.3217 -0.2981
vn 0.4595 0.3328 -0.8235
vn 0.2004 0.3961 -0.8961
vn -0.0678 0.1293 -0.9893
vn -0.1552 0.0622 -0.9859
vn -0.3667 0.1749 -0.9137
vn -0.9878 0.1492 -0.0458
vn -0.9825 0.0380 0.1824
vn -0.9417 0.1378 0.3068
vn -0.6467 0.2123 0.7326
vn -0.3068 0.1203 0.9441
vn 0.0136 0.2588 0.9658
vn 0.6252 0.3249 0.7096
vn 0.8983 0.1092 0.4256
vn 0.9397 0.2574 0.2252
vn -0.2224 0.2041 -0.9534
vn -0.2572 -0.4543 -0.8529
vn -0.0578 -0.3573 -0.9322
vn -0.7782 -0.2733 -0.5654
vn -0.6775 -0.5465 -0.4922
vn -0.7193 -0.6740 -0.1683
vn -0.8354 0.0419 0.5480
vn -0.7653 -0.2343 0.5995
vn -0.5841 -0.3061 0.7518
vn 0.2778 0.1315 0.9516
vn 0.2170 -0.1302 0.9674
vn 0.5451 -0.3409 0.7659
vn 0.9960 0.0888 -0.0132
vn 0.9762 -0.2145 0.0319
vn 0.8340 -0.5356 -0.1330
vn -0.0695 -0.9925 -0.1008
vn -0.0146 -0.9923 -0.1227
vn -0.1359 -0.9557 -0.2612
vn -0.0819 -0.9562 -0.2812
vn -0.0959 -0.9930 -0.0697
vn -0.2910 -0.9566 0.0118
vn -0.2919 -0.9535 0.0748
vn -0.1406 -0.9816 0.1289
vn -0.1296 -0.9056 0.4038
vn 0.1317 -0.9905 0.0384
vn 0.1400 -0.9899 0.0205
vn -0.1709 -0.9851 0.0204
vn -0.1324 -0.9057 0.4027
vn 0.0445 -0.9830 0.1779
vn 0.2332 -0.9445 0.2316
usemtl Bush1_1
s off
f 1/1/1 14/2/1 13/3/1
f 2/4/2 14/5/2 16/6/2
f 1/7/3 13/8/3 18/9/3
f 1/10/4 18/11/4 20/12/4
f 1/13/5 20/14/5 17/15/5
f 2/4/6 16/6/6 23/16/6
f 3/17/7 15/18/7 25/19/7
f 4/20/8 19/21/8 27/22/8
f 5/23/9 21/24/9 29/25/9
f 6/26/10 22/27/10 31/28/10
f 2/4/11 23/16/11 26/29/11
f 3/17/12 25/19/12 28/30/12
f 4/20/13 27/22/13 30/31/13
f 5/23/14 29/25/14 32/32/14
f 6/26/15 31/28/15 24/33/15
f 7/34/16 33/35/16 38/36/16
f 8/37/17 34/38/17 40/39/17
f 9/40/18 35/41/18 41/42/18
f 10/43/19 36/44/19 42/45/19
f 11/46/20 37/47/20 39/48/20
f 39/48/21 42/49/21 12/50/21
f 39/48/22 37/47/22 42/49/22
f 37/47/23 10/43/23 42/49/23
f 42/45/24 41/51/24 12/52/24
f 42/45/25 36/44/25 41/51/25
f 36/44/26 9/40/26 41/51/26
f 41/42/27 40/53/27 12/54/27
f 41/42/28 35/41/28 40/53/28
f 35/41/29 8/55/29 40/53/29
f 40/39/30 38/56/30 12/57/30
f 40/39/31 34/38/31 38/56/31
f 34/38/32 7/34/32 38/56/32
f 38/36/33 39/58/33 12/59/33
f 38/36/34 33/35/34 39/58/34
f 33/35/35 11/46/35 39/58/35
f 24/33/36 37/47/36 11/46/36
f 24/33/37 31/28/37 37/47/37
f 31/28/38 10/43/38 37/47/38
f 32/32/39 36/44/39 10/43/39
f 32/32/40 29/25/40 36/44/40
f 29/25/41 9/40/41 36/44/41
f 30/31/42 35/41/42 9/40/42
f 30/31/43 27/22/43 35/41/43
f 27/22/44 8/55/44 35/41/44
f 28/30/45 34/38/45 8/37/45
f 28/30/46 25/19/46 34/38/46
f 25/19/47 7/34/47 34/38/47
f 26/29/48 33/35/48 7/34/48
f 26/29/49 23/16/49 33/35/49
f 23/16/50 11/46/50 33/35/50
f 31/28/51 32/32/51 10/43/51
f 31/28/52 22/27/52 32/32/52
f 22/27/53 5/23/53 32/32/53
f 29/25/54 30/31/54 9/40/54
f 29/25/55 21/24/55 30/31/55
f 21/24/56 4/20/56 30/31/56
f 27/22/57 28/60/57 8/55/57
f 27/22/58 19/21/58 28/60/58
f 19/21/59 3/61/59 28/60/59
f 25/19/60 26/29/60 7/34/60
f 25/19/61 15/18/61 26/29/61
f 15/18/62 2/4/62 26/29/62
f 23/16/63 24/33/63 11/46/63
f 23/16/64 16/6/64 24/33/64
f 16/6/65 6/26/65 24/33/65
f 17/15/66 22/27/66 6/26/66
f 17/15/67 20/14/67 22/27/67
f 20/14/68 5/23/68 22/27/68
f 20/12/69 21/24/69 5/23/69
f 20/12/70 18/11/70 21/24/70
f 18/11/71 4/20/71 21/24/71
f 18/9/72 19/21/72 4/20/72
f 18/9/73 13/8/73 19/21/73
f 13/8/74 3/61/74 19/21/74
f 16/6/75 17/62/75 6/26/75
f 16/6/76 14/5/76 17/62/76
f 14/5/77 1/63/77 17/62/77
f 13/3/78 15/18/78 3/17/78
f 13/3/79 14/2/79 15/18/79
f 14/2/80 2/4/80 15/18/80
