# Blender v2.90.1 OBJ File: 'NaturePack_AllModels.blend'
# www.blender.org
mtllib bush4.mtl
o Hedge_Icosphere.020
v -8.984041 -0.218800 8.313850
v -8.334760 -0.386077 9.154590
v -7.569934 -0.042213 8.585743
v -7.602643 0.445406 8.546090
v -8.960145 0.117825 9.519460
v -8.711455 0.517594 9.513749
v -9.126868 -0.090237 9.434727
v -7.841343 -0.217326 8.338517
v -9.036025 -0.110831 8.186119
v -8.935480 0.827083 8.861354
v -9.533146 -0.114537 8.870486
v -8.238985 -0.144338 9.492155
v -9.376537 0.541386 9.213236
v -9.127140 -0.329011 9.038666
v -8.825704 -0.459421 8.875261
v -8.207454 0.879533 9.029756
v -9.401041 0.282515 8.275885
v -9.548293 0.567072 8.381485
v -7.741935 0.735985 8.984569
v -8.753243 0.609095 8.317761
v -7.867808 0.535429 9.179017
v -8.156401 0.678158 9.324260
v -8.203786 0.735170 8.267999
v -7.928086 0.045251 8.158657
v -7.760694 0.445535 8.228766
v -7.864068 0.761864 8.500462
v -8.799813 0.815187 9.078825
v -7.806197 -0.298066 9.095613
v -8.229637 0.291115 8.108418
v -8.114046 -0.400008 8.558778
v -9.411070 0.406912 9.245234
vt 0.398999 0.602002
vt 0.398999 0.798999
vt 0.202002 0.798999
vt 0.398999 0.998999
vt 0.398999 0.902002
vt 0.202002 0.998999
vt 0.397998 0.901001
vt 0.201001 0.901001
vt 0.201001 0.997998
vt 0.002002 0.998999
vt 0.198999 0.902002
vt 0.198999 0.998999
vt 0.902002 0.198999
vt 0.998999 0.002002
vt 0.998999 0.198999
vt 0.802002 0.898999
vt 0.898999 0.802002
vt 0.898999 0.898999
vt 0.901001 0.197998
vt 0.901001 0.001001
vt 0.997998 0.001001
vt 0.898999 0.002002
vt 0.898999 0.198999
vt 0.802002 0.198999
vt 0.802002 0.398999
vt 0.898999 0.398999
vt 0.898999 0.202002
vt 0.998999 0.202002
vt 0.902002 0.398999
vt 0.998999 0.398999
vt 0.001001 0.997998
vt 0.197998 0.901001
vt 0.001001 0.901001
vt 0.598999 0.002002
vt 0.402002 0.198999
vt 0.598999 0.198999
vt 0.997998 0.201001
vt 0.901001 0.397998
vt 0.901001 0.201001
vt 0.398999 0.898999
vt 0.202002 0.898999
vt 0.398999 0.802002
vt 0.002002 0.198999
vt 0.198999 0.198999
vt 0.198999 0.002002
vt 0.798999 0.802002
vt 0.798999 0.898999
vt 0.602002 0.898999
vt 0.002002 0.598999
vt 0.198999 0.402002
vt 0.198999 0.598999
vt 0.797998 0.801001
vt 0.601001 0.801001
vt 0.601001 0.897998
vt 0.798999 0.602002
vt 0.602002 0.798999
vt 0.798999 0.798999
vt 0.398999 0.398999
vt 0.202002 0.398999
vt 0.398999 0.202002
vt 0.202002 0.198999
vt 0.398999 0.198999
vt 0.398999 0.002002
vt 0.897998 0.801001
vt 0.801001 0.897998
vt 0.801001 0.801001
vt 0.002002 0.798999
vt 0.198999 0.602002
vt 0.198999 0.798999
vt 0.201001 0.001001
vt 0.397998 0.001001
vt 0.201001 0.197998
vt 0.198999 0.202002
vt 0.198999 0.398999
vt 0.002002 0.398999
vt 0.201001 0.397998
vt 0.201001 0.201001
vt 0.397998 0.201001
vt 0.197998 0.401001
vt 0.001001 0.597998
vt 0.001001 0.401001
vt 0.602002 0.598999
vt 0.798999 0.402002
vt 0.798999 0.598999
vt 0.602002 0.198999
vt 0.798999 0.002002
vt 0.798999 0.198999
vt 0.801001 0.201001
vt 0.897998 0.201001
vt 0.801001 0.397998
vt 0.397998 0.801001
vt 0.201001 0.897998
vt 0.201001 0.801001
vt 0.402002 0.398999
vt 0.598999 0.398999
vt 0.598999 0.202002
vt 0.798999 0.398999
vt 0.602002 0.398999
vt 0.798999 0.202002
vt 0.898999 0.402002
vt 0.802002 0.598999
vt 0.898999 0.598999
vt 0.598999 0.602002
vt 0.402002 0.798999
vt 0.598999 0.798999
vt 0.898999 0.602002
vt 0.802002 0.798999
vt 0.898999 0.798999
vt 0.598999 0.898999
vt 0.598999 0.802002
vt 0.402002 0.898999
vt 0.401001 0.201001
vt 0.401001 0.397998
vt 0.597998 0.201001
vt 0.398999 0.598999
vt 0.202002 0.598999
vt 0.398999 0.402002
vt 0.401001 0.601001
vt 0.597998 0.601001
vt 0.401001 0.797998
vt 0.797998 0.601001
vt 0.601001 0.797998
vt 0.601001 0.601001
vt 0.598999 0.598999
vt 0.598999 0.402002
vt 0.402002 0.598999
vt 0.601001 0.401001
vt 0.601001 0.597998
vt 0.797998 0.401001
vt 0.897998 0.001001
vt 0.801001 0.197998
vt 0.801001 0.001001
vt 0.601001 0.201001
vt 0.601001 0.397998
vt 0.797998 0.201001
vt 0.201001 0.797998
vt 0.201001 0.601001
vt 0.397998 0.601001
vt 0.601001 0.001001
vt 0.601001 0.197998
vt 0.797998 0.001001
vt 0.002002 0.898999
vt 0.198999 0.802002
vt 0.198999 0.898999
vt 0.001001 0.601001
vt 0.001001 0.797998
vt 0.197998 0.601001
vt 0.401001 0.401001
vt 0.401001 0.597998
vt 0.597998 0.401001
vt 0.397998 0.401001
vt 0.201001 0.401001
vt 0.201001 0.597998
vt 0.001001 0.897998
vt 0.197998 0.801001
vt 0.001001 0.801001
vt 0.401001 0.197998
vt 0.401001 0.001001
vt 0.597998 0.001001
vt 0.801001 0.597998
vt 0.897998 0.401001
vt 0.801001 0.401001
vt 0.401001 0.897998
vt 0.401001 0.801001
vt 0.597998 0.801001
vt 0.897998 0.601001
vt 0.801001 0.797998
vt 0.801001 0.601001
vt 0.001001 0.201001
vt 0.001001 0.397998
vt 0.197998 0.201001
vt 0.001001 0.001001
vt 0.001001 0.197998
vt 0.197998 0.001001
vn -0.1623 0.3421 -0.9256
vn 0.0882 -0.7428 -0.6637
vn -0.0872 -0.7981 0.5962
vn -0.1306 -0.8782 0.4601
vn 0.4871 -0.8657 -0.1149
vn 0.5573 0.3706 0.7430
vn -0.3829 0.3058 0.8717
vn 0.0186 -0.5608 -0.8277
vn 0.0146 -0.7784 -0.6276
vn -0.4974 0.0458 0.8663
vn 0.8990 -0.1749 0.4015
vn 0.6088 -0.7854 -0.1120
vn 0.7419 0.5596 -0.3693
vn -0.7314 -0.6377 -0.2414
vn -0.2346 0.7794 0.5810
vn 0.0351 -0.0076 0.9994
vn -0.3812 0.2498 0.8901
vn -0.0806 -0.3199 0.9440
vn 0.9230 0.0923 0.3736
vn -0.1416 0.0935 -0.9855
vn -0.2387 0.8710 -0.4293
vn 0.7284 -0.2068 -0.6532
vn 0.2242 0.0764 -0.9715
vn 0.1115 -0.9917 0.0645
vn 0.6706 -0.0246 0.7414
vn -0.0947 0.4339 -0.8960
vn -0.5545 -0.7125 0.4299
vn -0.9791 0.1036 0.1748
vn 0.9025 0.0237 0.4301
vn 0.0033 -0.1963 -0.9805
vn -0.9359 0.2884 0.2022
vn -0.1359 -0.8484 0.5116
vn -0.0880 -0.9243 -0.3714
vn -0.3598 0.8921 0.2733
vn -0.7851 -0.2296 0.5752
vn -0.8676 -0.3025 -0.3947
vn -0.4869 -0.8441 -0.2245
vn -0.3612 -0.8934 -0.2672
vn 0.7323 -0.1918 -0.6534
vn 0.1731 -0.9811 0.0870
vn -0.6879 -0.5237 -0.5025
vn 0.2926 0.9560 -0.0227
vn -0.0277 0.9821 -0.1863
vn -0.1378 0.2811 -0.9497
vn -0.0800 0.9156 -0.3940
vn 0.1319 0.3284 -0.9353
vn -0.4681 0.8750 0.1237
vn 0.7721 0.6145 -0.1619
vn 0.3822 0.6708 -0.6356
vn 0.8949 0.0238 -0.4457
vn 0.1965 -0.8227 0.5334
vn 0.2989 0.8111 0.5028
vn 0.0500 0.9813 -0.1857
vn -0.0978 0.9885 0.1151
vn -0.0424 0.8209 0.5694
vn -0.0421 0.8213 0.5689
vn -0.0422 0.8212 0.5690
vn 0.4949 0.1258 0.8598
vn 0.2754 0.1657 0.9470
vn -0.0427 0.8205 0.5701
usemtl Hedge
s 1
f 20/1/1 23/2/1 29/3/1
f 1/4/2 9/5/2 24/6/2
f 7/7/3 2/8/3 12/9/3
f 2/10/4 14/11/4 15/12/4
f 8/13/5 28/14/5 30/15/5
f 19/16/6 22/17/6 21/18/6
f 6/19/7 13/20/7 31/21/7
f 1/22/8 24/23/8 8/24/8
f 8/25/9 30/26/9 1/27/9
f 31/28/10 7/29/10 5/30/10
f 21/31/11 4/32/11 19/33/11
f 28/34/12 8/35/12 3/36/12
f 25/37/13 26/38/13 4/39/13
f 1/40/14 14/41/14 9/42/14
f 6/43/15 27/44/15 13/45/15
f 6/46/16 5/47/16 12/48/16
f 6/49/17 31/50/17 5/51/17
f 12/52/18 5/53/18 7/54/18
f 21/55/19 3/56/19 4/57/19
f 9/58/20 17/59/20 29/60/20
f 23/61/21 20/62/21 10/63/21
f 24/64/22 3/65/22 8/66/22
f 29/67/23 25/68/23 24/69/23
f 2/70/24 15/71/24 30/72/24
f 21/73/25 12/74/25 28/75/25
f 18/76/26 20/77/26 29/78/26
f 7/79/27 11/80/27 14/81/27
f 31/82/28 18/83/28 11/84/28
f 3/85/29 21/86/29 28/87/29
f 29/88/30 24/89/30 9/90/30
f 18/91/31 31/92/31 13/93/31
f 7/94/32 14/95/32 2/96/32
f 15/97/33 1/98/33 30/99/33
f 13/100/34 27/101/34 10/102/34
f 11/103/35 7/104/35 31/105/35
f 11/106/36 18/107/36 17/108/36
f 15/109/37 14/110/37 1/111/37
f 11/112/38 9/113/38 14/114/38
f 24/115/39 25/116/39 3/117/39
f 28/118/40 2/119/40 30/120/40
f 9/121/41 11/122/41 17/123/41
f 19/124/42 26/125/42 16/126/42
f 16/127/43 23/128/43 10/129/43
f 18/130/44 29/131/44 17/132/44
f 20/133/45 18/134/45 10/135/45
f 25/136/46 29/137/46 23/138/46
f 10/139/47 18/140/47 13/141/47
f 19/142/48 4/143/48 26/144/48
f 26/145/49 25/146/49 23/147/49
f 4/148/50 3/149/50 25/150/50
f 12/151/51 2/152/51 28/153/51
f 22/154/52 19/155/52 16/156/52
f 16/157/53 26/158/53 23/159/53
f 16/160/54 10/161/54 27/162/54
f 22/163/55 16/164/56 27/165/57
f 22/166/58 12/167/58 21/168/58
f 6/169/59 12/170/59 22/171/59
f 6/172/60 22/173/55 27/174/57
