# Blender v2.90.1 OBJ File: 'NaturePack_AllModels.blend'
# www.blender.org
mtllib dead_tall_pine_tree2.mtl
o Tree5_1.001_Cube.039
v 11.186958 4.564936 -3.944192
v 11.211818 4.665737 -3.972436
v 11.267725 4.564936 -3.873105
v 11.292584 4.665737 -3.901350
v 10.250586 5.131457 -2.842260
v 10.263828 5.185157 -2.857307
v 10.293612 5.131457 -2.804390
v 10.306855 5.185157 -2.819437
v 11.276866 11.977165 -4.389739
v 11.279710 11.930315 -4.350521
v 11.229094 11.950986 -4.417550
v 11.231936 11.904136 -4.378331
v 10.716730 12.383480 -3.841458
v 10.718245 12.358521 -3.820565
v 10.691279 12.369533 -3.856273
v 10.692795 12.344574 -3.835381
v 10.888694 -0.087699 -3.889075
v 11.004099 4.560526 -3.891073
v 11.068597 -0.087699 -4.203802
v 11.126755 4.560526 -4.105651
v 11.431109 -0.087698 -4.205367
v 11.373913 4.560527 -4.106717
v 11.696262 -0.087699 -3.892558
v 11.498414 4.560526 -3.893205
v 11.433818 -0.087698 -3.577475
v 11.375759 4.560526 -3.678627
v 10.986911 -0.085263 -3.519746
v 11.128601 4.560527 -3.677561
v 11.179030 12.462215 -4.589083
v 11.110329 12.462216 -4.468893
v 11.317468 12.462216 -4.589680
v 11.387204 12.462216 -4.470087
v 11.318502 12.462216 -4.349899
v 11.180064 12.462216 -4.349301
v 11.218326 13.401039 -4.521693
v 11.188336 13.401041 -4.469229
v 11.278755 13.401039 -4.521953
v 11.309196 13.401039 -4.469750
v 11.279207 13.401041 -4.417286
v 11.218778 13.401041 -4.417026
v 10.965469 1.245640 -3.890907
v 11.107295 1.245640 -4.139023
v 11.393085 1.245639 -4.140256
v 11.537045 1.245640 -3.893372
v 11.395219 1.245640 -3.645256
v 11.109430 1.245640 -3.644023
v 11.304391 4.965402 -4.046009
v 11.304554 5.066203 -4.008383
v 11.196797 4.965402 -4.045545
v 11.196959 5.066202 -4.007919
v 11.273017 5.531922 -5.491714
v 11.273104 5.585623 -5.471669
v 11.215699 5.531923 -5.491467
v 11.215785 5.585622 -5.471422
v 11.291150 8.773229 -4.150301
v 11.291274 8.850063 -4.121621
v 11.209138 8.773229 -4.149948
v 11.209261 8.850063 -4.121267
v 11.267236 9.205057 -5.252285
v 11.267302 9.245990 -5.237006
v 11.223545 9.205057 -5.252097
v 11.223611 9.245990 -5.236818
v 11.326941 7.011570 -4.004234
v 11.353928 7.112371 -3.978014
v 11.251966 7.011569 -3.927062
v 11.278953 7.112371 -3.900843
v 10.272420 7.578091 -4.993695
v 10.286797 7.631790 -4.979727
v 10.232479 7.578091 -4.952583
v 10.246856 7.631790 -4.938616
v 11.209527 8.104032 -4.170160
v 11.259277 8.178831 -4.198784
v 11.279234 8.080183 -4.111325
v 11.328984 8.154983 -4.139948
v 10.668344 8.869328 -3.183474
v 10.694847 8.909175 -3.198722
v 10.705479 8.856623 -3.152130
v 10.731982 8.896470 -3.167379
v 11.230185 6.131991 -3.942431
v 11.216467 6.232793 -3.977467
v 11.330375 6.131991 -3.981657
v 11.316656 6.232793 -4.016694
v 11.780704 6.698512 -2.605278
v 11.773396 6.752212 -2.623943
v 11.834079 6.698512 -2.626175
v 11.826771 6.752212 -2.644840
v 11.191083 10.396936 -4.285881
v 11.169814 10.464186 -4.244031
v 11.170137 10.433951 -4.356006
v 11.148869 10.501201 -4.314156
v 12.283546 10.837959 -4.401808
v 12.272215 10.873784 -4.379514
v 12.272388 10.857677 -4.439166
v 12.261057 10.893503 -4.416871
v 11.227298 6.517326 -4.051151
v 11.196137 6.615852 -3.989838
v 11.196611 6.571556 -4.153889
v 11.165451 6.670081 -4.092576
v 12.827837 7.163456 -4.220993
v 12.811236 7.215944 -4.188329
v 12.811489 7.192346 -4.275724
v 12.794889 7.244833 -4.243060
v 11.222660 9.597674 -4.273602
v 11.249960 9.640298 -4.209072
v 11.233566 9.527803 -4.232064
v 11.260867 9.570427 -4.167534
v 10.126730 9.667005 -3.831396
v 10.141273 9.689711 -3.797019
v 10.132540 9.629782 -3.809268
v 10.147083 9.652489 -3.774891
v 11.279393 11.443267 -4.341755
v 11.244509 11.418396 -4.385409
v 11.319942 11.397952 -4.348341
v 11.285058 11.373081 -4.391994
v 11.708779 11.898693 -4.964388
v 11.690195 11.885443 -4.987643
v 11.730381 11.874552 -4.967896
v 11.711797 11.861303 -4.991151
vt 0.092022 0.652164
vt 0.070768 0.652164
vt 0.070768 0.673418
vt 0.092022 0.673418
vt 0.929232 0.766441
vt 0.929232 0.745187
vt 0.559141 0.745187
vt 0.559141 0.766441
vt 0.080394 0.675420
vt 0.070768 0.675420
vt 0.070768 0.685046
vt 0.080394 0.685046
vt 0.836208 0.187048
vt 0.814954 0.187048
vt 0.814954 0.557139
vt 0.836208 0.557139
vt 0.559141 0.719929
vt 0.929232 0.719929
vt 0.929232 0.698675
vt 0.559141 0.698675
vt 0.812952 0.557139
vt 0.812952 0.187048
vt 0.791699 0.187048
vt 0.791699 0.557139
vt 0.045511 0.582396
vt 0.024257 0.582396
vt 0.024257 0.603650
vt 0.045511 0.603650
vt 0.650162 0.987371
vt 0.650162 0.977745
vt 0.466117 0.977745
vt 0.466117 0.987371
vt 0.092022 0.675420
vt 0.082396 0.675420
vt 0.082396 0.685046
vt 0.092022 0.685046
vt 0.022255 0.652164
vt 0.012629 0.652164
vt 0.012629 0.836208
vt 0.022255 0.836208
vt 0.652164 0.987371
vt 0.836208 0.987371
vt 0.836208 0.977745
vt 0.652164 0.977745
vt 0.010627 0.836208
vt 0.010627 0.652164
vt 0.001001 0.652164
vt 0.001001 0.836208
vt 0.559141 0.092022
vt 0.929232 0.092022
vt 0.929232 0.001001
vt 0.559141 0.001001
vt 0.185046 0.557139
vt 0.185046 0.187048
vt 0.094024 0.187048
vt 0.094024 0.557139
vt 0.187048 0.836208
vt 0.557139 0.836208
vt 0.557139 0.745187
vt 0.187048 0.745187
vt 0.557139 0.371092
vt 0.557139 0.001001
vt 0.466117 0.001001
vt 0.466117 0.371092
vt 0.929232 0.185046
vt 0.929232 0.140536
vt 0.559141 0.140536
vt 0.559141 0.185046
vt 0.092022 0.557139
vt 0.092022 0.187048
vt 0.001001 0.187048
vt 0.001001 0.557139
vt 0.187048 0.743185
vt 0.557139 0.743185
vt 0.557139 0.652164
vt 0.187048 0.652164
vt 0.080654 0.185046
vt 0.001001 0.134808
vt 0.013371 0.052192
vt 0.108210 0.001001
vt 0.185045 0.070050
vt 0.185046 0.173542
vt 0.719929 0.187048
vt 0.698675 0.187048
vt 0.698675 0.557139
vt 0.719929 0.557139
vt 0.557139 0.929232
vt 0.557139 0.884722
vt 0.187048 0.884722
vt 0.187048 0.929232
vt 0.603650 0.187048
vt 0.559141 0.187048
vt 0.559141 0.557139
vt 0.603650 0.557139
vt 0.929232 0.138534
vt 0.929232 0.094024
vt 0.559141 0.094024
vt 0.559141 0.138534
vt 0.650162 0.187048
vt 0.605652 0.187048
vt 0.605652 0.557139
vt 0.650162 0.557139
vt 0.557139 0.882720
vt 0.557139 0.838210
vt 0.187048 0.838210
vt 0.187048 0.882720
vt 0.068766 0.663291
vt 0.068766 0.685546
vt 0.058140 0.696673
vt 0.047513 0.685546
vt 0.047513 0.663291
vt 0.058140 0.652164
vt 0.929232 0.650162
vt 0.929232 0.628908
vt 0.559141 0.628908
vt 0.559141 0.650162
vt 0.766441 0.187048
vt 0.745187 0.187048
vt 0.745187 0.557139
vt 0.766441 0.557139
vt 0.929232 0.673418
vt 0.929232 0.652164
vt 0.559141 0.652164
vt 0.559141 0.673418
vt 0.789697 0.187048
vt 0.768443 0.187048
vt 0.768443 0.557139
vt 0.789697 0.557139
vt 0.929232 0.696673
vt 0.929232 0.675420
vt 0.559141 0.675420
vt 0.559141 0.696673
vt 0.464115 0.371092
vt 0.464115 0.001001
vt 0.373094 0.001001
vt 0.373094 0.371092
vt 0.187048 0.557139
vt 0.557139 0.557139
vt 0.557139 0.466117
vt 0.187048 0.466117
vt 0.371092 0.371092
vt 0.371092 0.001001
vt 0.280071 0.001001
vt 0.280071 0.371092
vt 0.187048 0.464115
vt 0.557139 0.464115
vt 0.557139 0.373094
vt 0.187048 0.373094
vt 0.278069 0.371092
vt 0.278069 0.001001
vt 0.187048 0.001001
vt 0.187048 0.371092
vt 0.187048 0.650162
vt 0.557139 0.650162
vt 0.557139 0.559141
vt 0.187048 0.559141
vt 0.022255 0.582396
vt 0.001001 0.582396
vt 0.001001 0.603650
vt 0.022255 0.603650
vt 0.859464 0.187048
vt 0.838210 0.187048
vt 0.838210 0.557139
vt 0.859464 0.557139
vt 0.022255 0.570768
vt 0.012629 0.570768
vt 0.012629 0.580394
vt 0.022255 0.580394
vt 0.929232 0.789697
vt 0.929232 0.768443
vt 0.559141 0.768443
vt 0.559141 0.789697
vt 0.882720 0.557139
vt 0.882720 0.187048
vt 0.861466 0.187048
vt 0.861466 0.557139
vt 0.559141 0.812952
vt 0.929232 0.812952
vt 0.929232 0.791699
vt 0.559141 0.791699
vt 0.092022 0.582396
vt 0.070768 0.582396
vt 0.070768 0.603650
vt 0.092022 0.603650
vt 0.905976 0.187048
vt 0.884722 0.187048
vt 0.884722 0.557139
vt 0.905976 0.557139
vt 0.010627 0.570768
vt 0.001001 0.570768
vt 0.001001 0.580394
vt 0.010627 0.580394
vt 0.929232 0.836208
vt 0.929232 0.814954
vt 0.559141 0.814954
vt 0.559141 0.836208
vt 0.115278 0.929232
vt 0.115278 0.559141
vt 0.094024 0.559141
vt 0.094024 0.929232
vt 0.559141 0.859464
vt 0.929232 0.859464
vt 0.929232 0.838210
vt 0.559141 0.838210
vt 0.068766 0.582396
vt 0.047513 0.582396
vt 0.047513 0.603650
vt 0.068766 0.603650
vt 0.138534 0.559141
vt 0.117280 0.559141
vt 0.117280 0.929232
vt 0.138534 0.929232
vt 0.022255 0.559141
vt 0.012629 0.559141
vt 0.012629 0.568766
vt 0.022255 0.568766
vt 0.929232 0.882720
vt 0.929232 0.861466
vt 0.559141 0.861466
vt 0.559141 0.882720
vt 0.161790 0.929232
vt 0.161790 0.559141
vt 0.140536 0.559141
vt 0.140536 0.929232
vt 0.559141 0.905976
vt 0.929232 0.905976
vt 0.929232 0.884722
vt 0.559141 0.884722
vt 0.092022 0.559141
vt 0.070768 0.559141
vt 0.070768 0.580394
vt 0.092022 0.580394
vt 0.185046 0.559141
vt 0.163792 0.559141
vt 0.163792 0.929232
vt 0.185046 0.929232
vt 0.010627 0.559141
vt 0.001001 0.559141
vt 0.001001 0.568766
vt 0.010627 0.568766
vt 0.929232 0.929232
vt 0.929232 0.907978
vt 0.559141 0.907978
vt 0.559141 0.929232
vt 0.929232 0.557139
vt 0.929232 0.187048
vt 0.907978 0.187048
vt 0.907978 0.557139
vt 0.094024 0.952487
vt 0.464115 0.952487
vt 0.464115 0.931234
vt 0.094024 0.931234
vt 0.068766 0.559141
vt 0.047513 0.559141
vt 0.047513 0.580394
vt 0.068766 0.580394
vt 0.952487 0.001001
vt 0.931234 0.001001
vt 0.931234 0.371092
vt 0.952487 0.371092
vt 0.045511 0.570768
vt 0.035885 0.570768
vt 0.035885 0.580394
vt 0.045511 0.580394
vt 0.836208 0.952487
vt 0.836208 0.931234
vt 0.466117 0.931234
vt 0.466117 0.952487
vt 0.952487 0.743185
vt 0.952487 0.373094
vt 0.931234 0.373094
vt 0.931234 0.743185
vt 0.094024 0.975743
vt 0.464115 0.975743
vt 0.464115 0.954489
vt 0.094024 0.954489
vt 0.045511 0.628908
vt 0.024257 0.628908
vt 0.024257 0.650162
vt 0.045511 0.650162
vt 0.975743 0.001001
vt 0.954489 0.001001
vt 0.954489 0.371092
vt 0.975743 0.371092
vt 0.033883 0.570768
vt 0.024257 0.570768
vt 0.024257 0.580394
vt 0.033883 0.580394
vt 0.836208 0.975743
vt 0.836208 0.954489
vt 0.466117 0.954489
vt 0.466117 0.975743
vt 0.975743 0.743185
vt 0.975743 0.373094
vt 0.954489 0.373094
vt 0.954489 0.743185
vt 0.094024 0.998999
vt 0.464115 0.998999
vt 0.464115 0.977745
vt 0.094024 0.977745
vt 0.092022 0.605652
vt 0.047513 0.605652
vt 0.047513 0.650162
vt 0.092022 0.650162
vt 0.998999 0.001001
vt 0.977745 0.001001
vt 0.977745 0.371092
vt 0.998999 0.371092
vt 0.022255 0.628908
vt 0.001001 0.628908
vt 0.001001 0.650162
vt 0.022255 0.650162
vt 0.929232 0.626906
vt 0.929232 0.605652
vt 0.559141 0.605652
vt 0.559141 0.626906
vt 0.743185 0.557139
vt 0.743185 0.187048
vt 0.721931 0.187048
vt 0.721931 0.557139
vt 0.559141 0.603650
vt 0.929232 0.603650
vt 0.929232 0.582396
vt 0.559141 0.582396
vt 0.045511 0.605652
vt 0.024257 0.605652
vt 0.024257 0.626906
vt 0.045511 0.626906
vt 0.673418 0.187048
vt 0.652164 0.187048
vt 0.652164 0.557139
vt 0.673418 0.557139
vt 0.045511 0.559141
vt 0.035885 0.559141
vt 0.035885 0.568766
vt 0.045511 0.568766
vt 0.929232 0.580394
vt 0.929232 0.559141
vt 0.559141 0.559141
vt 0.559141 0.580394
vt 0.696673 0.557139
vt 0.696673 0.187048
vt 0.675420 0.187048
vt 0.675420 0.557139
vt 0.559141 0.743185
vt 0.929232 0.743185
vt 0.929232 0.721931
vt 0.559141 0.721931
vt 0.022255 0.605652
vt 0.001001 0.605652
vt 0.001001 0.626906
vt 0.022255 0.626906
vt 0.045511 0.652164
vt 0.035885 0.652164
vt 0.035885 0.836208
vt 0.045511 0.836208
vt 0.033883 0.559141
vt 0.024257 0.559141
vt 0.024257 0.568766
vt 0.033883 0.568766
vt 0.836208 0.998999
vt 0.836208 0.989373
vt 0.652164 0.989373
vt 0.652164 0.998999
vt 0.033883 0.836208
vt 0.033883 0.652164
vt 0.024257 0.652164
vt 0.024257 0.836208
vt 0.466117 0.998999
vt 0.650162 0.998999
vt 0.650162 0.989373
vt 0.466117 0.989373
vn 0.6190 -0.3497 -0.7033
vn 0.7405 0.0057 0.6720
vn -0.6190 0.3497 0.7033
vn -0.7606 0.0057 -0.6492
vn -0.2410 -0.9311 0.2739
vn 0.2210 0.9424 -0.2511
vn 0.6227 -0.4797 -0.6182
vn -0.7910 -0.4202 -0.4446
vn -0.6227 0.4796 0.6182
vn 0.7709 0.4357 0.4646
vn -0.0566 0.7736 -0.6311
vn 0.0364 -0.7581 0.6511
vn -0.8681 0.0101 -0.4962
vn -0.0043 0.0101 -0.9999
vn 0.8638 0.0101 -0.5037
vn 0.8681 0.0101 0.4962
vn 0.8672 0.0484 0.4957
vn 0.0043 0.0101 0.9999
vn -0.8638 0.0101 0.5037
vn -0.0010 -1.0000 0.0017
vn 0.0043 0.0783 0.9969
vn 0.0043 0.0718 0.9974
vn -0.0043 -0.0610 -0.9981
vn 0.0043 0.0847 0.9964
vn -0.8679 -0.0246 -0.4961
vn 0.8636 -0.0246 -0.5036
vn -0.8628 0.0484 0.5031
vn 0.0000 1.0000 -0.0000
vn 0.8616 0.0718 -0.5024
vn -0.8659 0.0718 -0.4950
vn -0.8616 0.0718 0.5024
vn 0.8659 0.0718 0.4950
vn -0.0043 0.0718 -0.9974
vn -0.9273 0.0866 0.3641
vn 0.0802 0.0692 0.9944
vn 0.8101 0.0751 0.5815
vn 0.8051 0.0737 -0.5885
vn -0.0043 0.0487 -0.9988
vn -0.8671 0.0492 -0.4957
vn 0.0040 -0.3497 0.9369
vn -0.9999 0.0057 -0.0109
vn -0.0040 0.3497 -0.9369
vn 0.9998 0.0057 -0.0195
vn -0.0016 -0.9311 -0.3648
vn 0.0014 0.9424 0.3345
vn -0.0040 0.3497 -0.9368
vn 0.6720 -0.3497 0.6528
vn -0.7076 0.0057 0.7066
vn -0.6720 0.3497 -0.6528
vn 0.6859 0.0057 -0.7277
vn -0.2617 -0.9311 -0.2542
vn 0.2399 0.9424 0.2331
vn 0.4183 -0.5537 -0.7200
vn 0.7325 -0.2439 0.6356
vn -0.4183 0.5537 0.7200
vn -0.7460 0.2619 -0.6123
vn -0.5344 -0.7843 0.3152
vn 0.5208 0.8022 -0.2919
vn -0.3416 -0.3497 -0.8724
vn 0.9366 0.0057 -0.3504
vn 0.3416 0.3497 0.8724
vn -0.9255 0.0057 0.3787
vn 0.1330 -0.9311 0.3397
vn -0.1220 0.9424 -0.3115
vn -0.9314 -0.3521 0.0924
vn -0.2403 0.4570 -0.8564
vn 0.9314 0.3521 -0.0924
vn 0.2704 -0.4456 0.8534
vn 0.2744 -0.8142 -0.5117
vn -0.2442 0.8256 0.5087
vn 0.9335 -0.0640 -0.3527
vn 0.1179 -0.8508 0.5121
vn -0.9335 0.0640 0.3527
vn -0.1481 0.8529 -0.5007
vn -0.3479 -0.5186 -0.7810
vn 0.3177 0.5207 0.7924
vn -0.4850 -0.5346 0.6921
vn 0.6707 -0.7321 -0.1189
vn 0.4850 0.5345 -0.6921
vn -0.6550 0.7494 0.0964
vn 0.5781 0.4152 0.7024
vn -0.5624 -0.3979 -0.7248
usemtl Tree5_1.001
s 1
f 1/1/1 2/2/1 4/3/1 3/4/1
f 3/5/2 4/6/2 8/7/2 7/8/2
f 7/9/3 8/10/3 6/11/3 5/12/3
f 5/13/4 6/14/4 2/15/4 1/16/4
f 3/17/5 7/18/5 5/19/5 1/20/5
f 8/21/6 4/22/6 2/23/6 6/24/6
f 9/25/7 10/26/7 12/27/7 11/28/7
f 11/29/8 12/30/8 16/31/8 15/32/8
f 15/33/9 16/34/9 14/35/9 13/36/9
f 13/37/10 14/38/10 10/39/10 9/40/10
f 11/41/11 15/42/11 13/43/11 9/44/11
f 16/45/12 12/46/12 10/47/12 14/48/12
f 41/49/13 18/50/13 20/51/13 42/52/13
f 42/53/14 20/54/14 22/55/14 43/56/14
f 43/57/15 22/58/15 24/59/15 44/60/15
f 44/61/16 24/62/16 26/63/16 45/64/16
f 26/65/17 24/66/17 32/67/17 33/68/17
f 45/69/18 26/70/18 28/71/18 46/72/18
f 46/73/19 28/74/19 18/75/19 41/76/19
f 17/77/20 19/78/20 21/79/20 23/80/20 25/81/20 27/82/20
f 34/83/21 33/84/21 39/85/22 40/86/22
f 22/87/23 20/88/23 29/89/23 31/90/23
f 28/91/24 26/92/24 33/93/21 34/94/21
f 20/95/25 18/96/25 30/97/25 29/98/25
f 24/99/26 22/100/26 31/101/26 32/102/26
f 18/103/27 28/104/27 34/105/27 30/106/27
f 35/107/28 36/108/28 40/109/28 39/110/28 38/111/28 37/112/28
f 32/113/29 31/114/29 37/115/29 38/116/29
f 29/117/30 30/118/30 36/119/30 35/120/30
f 30/121/31 34/122/31 40/123/31 36/124/31
f 33/125/32 32/126/32 38/127/32 39/128/32
f 31/129/33 29/130/33 35/131/33 37/132/33
f 27/133/34 46/134/34 41/135/34 17/136/34
f 25/137/35 45/138/35 46/139/35 27/140/35
f 23/141/36 44/142/36 45/143/36 25/144/36
f 21/145/37 43/146/37 44/147/37 23/148/37
f 19/149/38 42/150/38 43/151/38 21/152/38
f 17/153/39 41/154/39 42/155/39 19/156/39
f 47/157/40 48/158/40 50/159/40 49/160/40
f 49/161/41 50/162/41 54/163/41 53/164/41
f 53/165/42 54/166/42 52/167/42 51/168/42
f 51/169/43 52/170/43 48/171/43 47/172/43
f 49/173/44 53/174/44 51/175/44 47/176/44
f 54/177/45 50/178/45 48/179/45 52/180/45
f 55/181/40 56/182/40 58/183/40 57/184/40
f 57/185/41 58/186/41 62/187/41 61/188/41
f 61/189/46 62/190/46 60/191/46 59/192/46
f 59/193/43 60/194/43 56/195/43 55/196/43
f 57/197/44 61/198/44 59/199/44 55/200/44
f 62/201/45 58/202/45 56/203/45 60/204/45
f 63/205/47 64/206/47 66/207/47 65/208/47
f 65/209/48 66/210/48 70/211/48 69/212/48
f 69/213/49 70/214/49 68/215/49 67/216/49
f 67/217/50 68/218/50 64/219/50 63/220/50
f 65/221/51 69/222/51 67/223/51 63/224/51
f 70/225/52 66/226/52 64/227/52 68/228/52
f 71/229/53 72/230/53 74/231/53 73/232/53
f 73/233/54 74/234/54 78/235/54 77/236/54
f 77/237/55 78/238/55 76/239/55 75/240/55
f 75/241/56 76/242/56 72/243/56 71/244/56
f 73/245/57 77/246/57 75/247/57 71/248/57
f 78/249/58 74/250/58 72/251/58 76/252/58
f 79/253/59 80/254/59 82/255/59 81/256/59
f 81/257/60 82/258/60 86/259/60 85/260/60
f 85/261/61 86/262/61 84/263/61 83/264/61
f 83/265/62 84/266/62 80/267/62 79/268/62
f 81/269/63 85/270/63 83/271/63 79/272/63
f 86/273/64 82/274/64 80/275/64 84/276/64
f 87/277/65 88/278/65 90/279/65 89/280/65
f 89/281/66 90/282/66 94/283/66 93/284/66
f 93/285/67 94/286/67 92/287/67 91/288/67
f 91/289/68 92/290/68 88/291/68 87/292/68
f 89/293/69 93/294/69 91/295/69 87/296/69
f 94/297/70 90/298/70 88/299/70 92/300/70
f 95/301/65 96/302/65 98/303/65 97/304/65
f 97/305/66 98/306/66 102/307/66 101/308/66
f 101/309/67 102/310/67 100/311/67 99/312/67
f 99/313/68 100/314/68 96/315/68 95/316/68
f 97/317/69 101/318/69 99/319/69 95/320/69
f 102/321/70 98/322/70 96/323/70 100/324/70
f 103/325/71 104/326/71 106/327/71 105/328/71
f 105/329/72 106/330/72 110/331/72 109/332/72
f 109/333/73 110/334/73 108/335/73 107/336/73
f 107/337/74 108/338/74 104/339/74 103/340/74
f 105/341/75 109/342/75 107/343/75 103/344/75
f 110/345/76 106/346/76 104/347/76 108/348/76
f 111/349/77 112/350/77 114/351/77 113/352/77
f 113/353/78 114/354/78 118/355/78 117/356/78
f 117/357/79 118/358/79 116/359/79 115/360/79
f 115/361/80 116/362/80 112/363/80 111/364/80
f 113/365/81 117/366/81 115/367/81 111/368/81
f 118/369/82 114/370/82 112/371/82 116/372/82
