# Blender v2.90.1 OBJ File: 'NaturePack_AllModels.blend'
# www.blender.org
mtllib dead_tree2.mtl
o Tree2_3_Cube.036
v 22.969704 -0.071494 0.203274
v 22.419285 7.204078 -1.461897
v 22.367832 7.217158 -1.448336
v 21.977648 7.098242 0.633694
v 21.991875 7.114125 0.583220
v 22.039984 7.132009 0.602408
v 21.789513 5.069142 1.104976
v 21.810917 5.069386 1.054537
v 21.855434 5.095057 1.073554
v 24.133968 6.563928 0.431952
v 24.098734 6.580562 0.415819
v 24.118887 6.588063 0.379542
v 23.219337 5.912496 1.755720
v 23.239388 5.947810 1.699487
v 22.895691 3.600665 -0.149846
v 23.033150 3.623647 0.053104
v 22.828760 3.493690 0.028326
v 22.922491 4.378023 -0.474241
v 23.006807 4.529435 -0.484832
v 22.523487 5.284299 -0.420084
v 23.035120 3.489814 -0.070975
v 23.024601 3.755976 -0.028322
v 22.875061 3.733808 -0.028263
v 22.912365 4.435818 -0.347191
v 22.927519 1.221755 0.626368
v 22.625771 1.232808 0.457164
v 22.793831 1.229813 0.156373
v 22.973881 2.319258 0.259814
v 22.652088 2.302573 0.380428
v 22.755945 2.437640 0.137922
v 22.756376 -0.071545 0.581847
v 22.377663 -0.071413 0.370917
v 22.592661 -0.071518 -0.009922
v 23.095329 1.211534 0.325229
v 22.664673 5.272627 -0.310034
v 22.655142 5.373014 -0.379666
v 22.533562 5.308521 -0.292843
v 22.573120 5.774326 0.090753
v 22.303501 5.795700 -0.994003
v 22.643314 5.270434 -0.441204
v 22.537603 5.393867 -0.369386
v 22.873688 2.398929 0.496645
v 22.720587 3.234326 1.140276
v 22.687160 2.627743 0.321288
v 22.896055 2.649243 0.389520
v 22.417898 5.794728 -1.034319
v 22.247267 6.613509 -1.294740
v 22.451693 5.867347 -0.940564
v 22.338224 5.867922 -0.900178
v 22.334990 6.626455 -1.252740
v 22.313082 6.603419 -1.314132
v 22.269045 6.634680 -1.232762
v 22.377018 7.198200 -1.505895
v 22.476089 5.767976 0.069553
v 22.488546 5.830524 -0.006500
v 22.585619 5.836846 0.014549
v 22.366539 6.364035 0.520083
v 22.302744 6.348178 0.497102
v 22.025755 7.116125 0.652882
v 22.379330 6.395763 0.458593
v 22.314909 6.381285 0.436051
v 22.585665 3.210527 1.095759
v 22.608398 3.285723 0.974648
v 22.745491 3.302455 1.015440
v 22.298248 4.164815 1.330928
v 22.229641 4.132107 1.301553
v 22.254417 4.146630 1.224204
v 22.324301 4.176888 1.253770
v 21.834028 5.094813 1.123992
v 23.059616 4.378870 -0.458093
v 23.045303 4.412012 -0.329060
v 23.003677 4.562567 -0.354395
v 23.759140 5.059335 -0.187058
v 23.700825 5.048307 -0.071796
v 23.602343 5.125244 -0.111372
v 23.658779 5.134199 -0.226815
v 24.154121 6.571430 0.395675
v 22.904297 3.650805 0.106002
v 23.293484 4.778611 1.263497
v 23.148012 4.775266 1.289940
v 23.280123 5.915302 1.745261
v 23.124065 4.863358 1.171245
v 23.268440 4.865520 1.144016
vt 0.863864 0.434434
vt 0.758759 0.539540
vt 0.863864 0.539540
vt 0.757758 0.433433
vt 0.862863 0.433433
vt 0.757758 0.538539
vt 0.215215 0.647648
vt 0.215215 0.542543
vt 0.002002 0.647648
vt 0.214214 0.541542
vt 0.001001 0.646647
vt 0.001001 0.541542
vt 0.758759 0.593594
vt 0.863864 0.593594
vt 0.863864 0.542543
vt 0.812813 0.647648
vt 0.863864 0.647648
vt 0.863864 0.596597
vt 0.647648 0.218218
vt 0.647648 0.431431
vt 0.542543 0.431431
vt 0.647648 0.002002
vt 0.542543 0.215215
vt 0.647648 0.215215
vt 0.893894 0.931431
vt 0.904404 0.920921
vt 0.904404 0.931431
vt 0.809810 0.647648
vt 0.809810 0.596597
vt 0.758759 0.647648
vt 0.920921 0.890891
vt 0.944945 0.866867
vt 0.944945 0.890891
vt 0.944945 0.893894
vt 0.920921 0.917918
vt 0.944945 0.917918
vt 0.890891 0.944945
vt 0.890891 0.920921
vt 0.866867 0.944945
vt 0.215215 0.002002
vt 0.002002 0.215215
vt 0.215215 0.215215
vt 0.917918 0.917918
vt 0.866867 0.917918
vt 0.917918 0.866867
vt 0.808809 0.595596
vt 0.757758 0.595596
vt 0.757758 0.646647
vt 0.218218 0.701702
vt 0.431431 0.650651
vt 0.431431 0.701702
vt 0.215215 0.971972
vt 0.215215 0.920921
vt 0.002002 0.971972
vt 0.434434 0.701702
vt 0.647648 0.650651
vt 0.647648 0.701702
vt 0.542543 0.647648
vt 0.593594 0.434434
vt 0.593594 0.647648
vt 0.434434 0.431431
vt 0.539540 0.218218
vt 0.539540 0.431431
vt 0.433433 0.430430
vt 0.433433 0.217217
vt 0.538539 0.217217
vt 0.650651 0.917918
vt 0.863864 0.866867
vt 0.863864 0.917918
vt 0.917918 0.431431
vt 0.866867 0.431431
vt 0.917918 0.218218
vt 0.539540 0.002002
vt 0.434434 0.215215
vt 0.539540 0.215215
vt 0.431431 0.647648
vt 0.218218 0.647648
vt 0.431431 0.542543
vt 0.218218 0.431431
vt 0.323323 0.218218
vt 0.323323 0.431431
vt 0.218218 0.539540
vt 0.431431 0.434434
vt 0.431431 0.539540
vt 0.215215 0.650651
vt 0.002002 0.755756
vt 0.215215 0.755756
vt 0.001001 0.754755
vt 0.214214 0.649650
vt 0.001001 0.649650
vt 0.434434 0.647648
vt 0.539540 0.434434
vt 0.539540 0.647648
vt 0.538539 0.433433
vt 0.433433 0.646647
vt 0.433433 0.433433
vt 0.650651 0.863864
vt 0.863864 0.812813
vt 0.863864 0.863864
vt 0.431431 0.920921
vt 0.218218 0.944945
vt 0.431431 0.944945
vt 0.646647 0.649650
vt 0.433433 0.649650
vt 0.433433 0.700701
vt 0.890891 0.863864
vt 0.866867 0.863864
vt 0.890891 0.650651
vt 0.541542 0.433433
vt 0.592593 0.433433
vt 0.541542 0.646647
vt 0.431431 0.704705
vt 0.431431 0.755756
vt 0.218218 0.755756
vt 0.217217 0.754755
vt 0.217217 0.703704
vt 0.430430 0.703704
vt 0.650651 0.215215
vt 0.701702 0.002002
vt 0.701702 0.215215
vt 0.215215 0.809810
vt 0.002002 0.809810
vt 0.215215 0.758759
vt 0.541542 0.217217
vt 0.646647 0.217217
vt 0.541542 0.430430
vt 0.917918 0.002002
vt 0.917918 0.215215
vt 0.866867 0.215215
vt 0.704705 0.431431
vt 0.755756 0.218218
vt 0.755756 0.431431
vt 0.647648 0.998999
vt 0.434434 0.998999
vt 0.647648 0.974975
vt 0.809810 0.218218
vt 0.809810 0.431431
vt 0.758759 0.431431
vt 0.974975 0.215215
vt 0.998999 0.002002
vt 0.998999 0.215215
vt 0.433433 0.973974
vt 0.433433 0.997998
vt 0.646647 0.973974
vt 0.893894 0.863864
vt 0.917918 0.863864
vt 0.917918 0.650651
vt 0.944945 0.863864
vt 0.944945 0.650651
vt 0.920921 0.863864
vt 0.434434 0.944945
vt 0.647648 0.920921
vt 0.647648 0.944945
vt 0.215215 0.998999
vt 0.002002 0.998999
vt 0.215215 0.974975
vt 0.650651 0.809810
vt 0.863864 0.758759
vt 0.863864 0.809810
vt 0.649650 0.214214
vt 0.700701 0.001001
vt 0.649650 0.001001
vt 0.001001 0.997998
vt 0.214214 0.973974
vt 0.001001 0.973974
vt 0.973974 0.214214
vt 0.973974 0.001001
vt 0.997998 0.001001
vt 0.431431 0.998999
vt 0.431431 0.974975
vt 0.218218 0.998999
vt 0.863864 0.947948
vt 0.650651 0.971972
vt 0.863864 0.971972
vt 0.971972 0.215215
vt 0.947948 0.215215
vt 0.971972 0.002002
vt 0.002002 0.863864
vt 0.215215 0.863864
vt 0.215215 0.812813
vt 0.701702 0.218218
vt 0.650651 0.431431
vt 0.701702 0.431431
vt 0.647648 0.704705
vt 0.647648 0.755756
vt 0.434434 0.755756
vt 0.863864 0.920921
vt 0.863864 0.944945
vt 0.650651 0.944945
vt 0.214214 0.757758
vt 0.001001 0.757758
vt 0.001001 0.808809
vt 0.947948 0.431431
vt 0.971972 0.218218
vt 0.971972 0.431431
vt 0.431431 0.947948
vt 0.218218 0.971972
vt 0.431431 0.971972
vt 0.944945 0.218218
vt 0.920921 0.431431
vt 0.944945 0.431431
vt 0.701702 0.647648
vt 0.701702 0.434434
vt 0.650651 0.647648
vt 0.434434 0.863864
vt 0.647648 0.863864
vt 0.647648 0.812813
vt 0.647648 0.434434
vt 0.596597 0.647648
vt 0.647648 0.647648
vt 0.916917 0.001001
vt 0.865866 0.214214
vt 0.865866 0.001001
vt 0.863864 0.974975
vt 0.650651 0.985485
vt 0.863864 0.985485
vt 0.434434 0.809810
vt 0.647648 0.809810
vt 0.647648 0.758759
vt 0.646647 0.757758
vt 0.433433 0.808809
vt 0.433433 0.757758
vt 0.974975 0.647648
vt 0.985485 0.434434
vt 0.985485 0.647648
vt 0.863864 0.755756
vt 0.863864 0.704705
vt 0.650651 0.755756
vt 0.218218 0.917918
vt 0.431431 0.917918
vt 0.431431 0.866867
vt 0.812813 0.215215
vt 0.863864 0.215215
vt 0.863864 0.002002
vt 0.704705 0.647648
vt 0.755756 0.434434
vt 0.755756 0.647648
vt 0.970971 0.217217
vt 0.946947 0.430430
vt 0.946947 0.217217
vt 0.434434 0.917918
vt 0.647648 0.917918
vt 0.647648 0.866867
vt 0.863864 0.218218
vt 0.812813 0.431431
vt 0.863864 0.431431
vt 0.998999 0.431431
vt 0.998999 0.218218
vt 0.974975 0.431431
vt 0.215215 0.434434
vt 0.215215 0.539540
vt 0.002002 0.539540
vt 0.916917 0.865866
vt 0.865866 0.916917
vt 0.865866 0.865866
vt 0.001001 0.862863
vt 0.214214 0.811812
vt 0.001001 0.811812
vt 0.431431 0.218218
vt 0.326326 0.431431
vt 0.431431 0.431431
vt 0.646647 0.001001
vt 0.541542 0.001001
vt 0.541542 0.214214
vt 0.865866 0.943944
vt 0.889890 0.919920
vt 0.865866 0.919920
vt 0.892893 0.930430
vt 0.892893 0.919920
vt 0.903403 0.919920
vt 0.943944 0.865866
vt 0.919920 0.865866
vt 0.919920 0.889890
vt 0.862863 0.541542
vt 0.757758 0.592593
vt 0.757758 0.541542
vt 0.919920 0.916917
vt 0.919920 0.892893
vt 0.943944 0.892893
vt 0.214214 0.001001
vt 0.001001 0.001001
vt 0.001001 0.214214
vt 0.811812 0.646647
vt 0.862863 0.595596
vt 0.811812 0.595596
vt 0.700701 0.433433
vt 0.649650 0.433433
vt 0.649650 0.646647
vt 0.917918 0.434434
vt 0.917918 0.647648
vt 0.866867 0.647648
vt 0.433433 0.811812
vt 0.433433 0.862863
vt 0.646647 0.811812
vt 0.757758 0.217217
vt 0.757758 0.430430
vt 0.808809 0.217217
vt 0.214214 0.919920
vt 0.001001 0.970971
vt 0.001001 0.919920
vt 0.865866 0.646647
vt 0.916917 0.433433
vt 0.865866 0.433433
vt 0.649650 0.865866
vt 0.862863 0.865866
vt 0.649650 0.916917
vt 0.916917 0.217217
vt 0.865866 0.430430
vt 0.865866 0.217217
vt 0.217217 0.541542
vt 0.217217 0.646647
vt 0.430430 0.541542
vt 0.433433 0.214214
vt 0.433433 0.001001
vt 0.538539 0.001001
vt 0.430430 0.433433
vt 0.217217 0.433433
vt 0.217217 0.538539
vt 0.322322 0.217217
vt 0.217217 0.217217
vt 0.217217 0.430430
vt 0.431431 0.002002
vt 0.431431 0.215215
vt 0.218218 0.215215
vt 0.215215 0.218218
vt 0.002002 0.431431
vt 0.215215 0.431431
vt 0.001001 0.430430
vt 0.001001 0.217217
vt 0.214214 0.217217
vt 0.217217 0.214214
vt 0.217217 0.001001
vt 0.430430 0.001001
vt 0.215215 0.917918
vt 0.002002 0.917918
vt 0.215215 0.866867
vt 0.214214 0.865866
vt 0.001001 0.865866
vt 0.001001 0.916917
vt 0.889890 0.649650
vt 0.865866 0.649650
vt 0.865866 0.862863
vt 0.649650 0.811812
vt 0.862863 0.811812
vt 0.649650 0.862863
vt 0.809810 0.002002
vt 0.809810 0.215215
vt 0.758759 0.215215
vt 0.757758 0.214214
vt 0.808809 0.001001
vt 0.757758 0.001001
vt 0.704705 0.215215
vt 0.755756 0.215215
vt 0.755756 0.002002
vt 0.649650 0.757758
vt 0.862863 0.757758
vt 0.649650 0.808809
vt 0.325325 0.430430
vt 0.430430 0.217217
vt 0.325325 0.217217
vt 0.001001 0.433433
vt 0.214214 0.433433
vt 0.001001 0.538539
vt 0.754755 0.217217
vt 0.703704 0.217217
vt 0.703704 0.430430
vt 0.431431 0.809810
vt 0.431431 0.758759
vt 0.218218 0.809810
vt 0.650651 0.701702
vt 0.863864 0.701702
vt 0.863864 0.650651
vt 0.862863 0.649650
vt 0.649650 0.700701
vt 0.649650 0.649650
vt 0.947948 0.863864
vt 0.971972 0.863864
vt 0.971972 0.650651
vt 0.703704 0.214214
vt 0.703704 0.001001
vt 0.754755 0.001001
vt 0.430430 0.919920
vt 0.217217 0.919920
vt 0.217217 0.943944
vt 0.892893 0.862863
vt 0.892893 0.649650
vt 0.916917 0.649650
vt 0.433433 0.943944
vt 0.433433 0.919920
vt 0.646647 0.919920
vt 0.919920 0.649650
vt 0.943944 0.649650
vt 0.919920 0.862863
vt 0.971972 0.434434
vt 0.971972 0.647648
vt 0.947948 0.647648
vt 0.647648 0.947948
vt 0.647648 0.971972
vt 0.434434 0.971972
vt 0.433433 0.946947
vt 0.433433 0.970971
vt 0.646647 0.946947
vt 0.946947 0.646647
vt 0.946947 0.433433
vt 0.970971 0.433433
vt 0.649650 0.970971
vt 0.649650 0.946947
vt 0.862863 0.946947
vt 0.946947 0.649650
vt 0.946947 0.862863
vt 0.970971 0.649650
vt 0.217217 0.973974
vt 0.430430 0.973974
vt 0.217217 0.997998
vt 0.970971 0.001001
vt 0.946947 0.001001
vt 0.946947 0.214214
vt 0.646647 0.703704
vt 0.433433 0.703704
vt 0.433433 0.754755
vt 0.920921 0.647648
vt 0.944945 0.647648
vt 0.944945 0.434434
vt 0.919920 0.433433
vt 0.943944 0.433433
vt 0.919920 0.646647
vt 0.217217 0.970971
vt 0.430430 0.946947
vt 0.217217 0.946947
vt 0.920921 0.215215
vt 0.944945 0.215215
vt 0.944945 0.002002
vt 0.919920 0.430430
vt 0.919920 0.217217
vt 0.943944 0.217217
vt 0.862863 0.919920
vt 0.649650 0.943944
vt 0.649650 0.919920
vt 0.943944 0.001001
vt 0.919920 0.001001
vt 0.919920 0.214214
vt 0.430430 0.649650
vt 0.217217 0.649650
vt 0.217217 0.700701
vt 0.646647 0.433433
vt 0.595596 0.433433
vt 0.595596 0.646647
vt 0.217217 0.757758
vt 0.217217 0.808809
vt 0.430430 0.757758
vt 0.649650 0.430430
vt 0.700701 0.217217
vt 0.649650 0.217217
vt 0.218218 0.863864
vt 0.431431 0.863864
vt 0.431431 0.812813
vt 0.649650 0.984484
vt 0.649650 0.973974
vt 0.862863 0.973974
vt 0.984484 0.433433
vt 0.973974 0.433433
vt 0.973974 0.646647
vt 0.430430 0.811812
vt 0.217217 0.862863
vt 0.217217 0.811812
vt 0.703704 0.433433
vt 0.703704 0.646647
vt 0.754755 0.433433
vt 0.649650 0.754755
vt 0.649650 0.703704
vt 0.862863 0.703704
vt 0.811812 0.001001
vt 0.811812 0.214214
vt 0.862863 0.001001
vt 0.430430 0.865866
vt 0.217217 0.916917
vt 0.217217 0.865866
vt 0.811812 0.430430
vt 0.811812 0.217217
vt 0.862863 0.217217
vt 0.646647 0.865866
vt 0.433433 0.916917
vt 0.433433 0.865866
vt 0.973974 0.217217
vt 0.997998 0.217217
vt 0.973974 0.430430
vn -0.9249 0.0308 -0.3789
vn 0.9275 0.0824 0.3646
vn 0.9272 0.0754 0.3669
vn 0.9272 0.0743 0.3672
vn -0.9435 0.0431 -0.3285
vn -0.3245 0.3494 0.8790
vn -0.3276 0.3501 0.8775
vn -0.3232 0.3491 0.8796
vn -0.8990 0.2569 0.3546
vn -0.9932 0.1004 0.0595
vn 0.9180 0.0626 0.3915
vn 0.3573 -0.2646 -0.8957
vn 0.2713 0.9015 0.3371
vn 0.2712 0.9015 0.3371
vn 0.9985 0.0446 -0.0323
vn -0.4328 0.8835 -0.1794
vn -0.4328 0.8834 -0.1794
vn -0.4021 0.8997 0.1697
vn -0.4022 0.8997 0.1697
vn 0.1650 0.9443 -0.2847
vn -0.0001 -1.0000 -0.0000
vn 0.0001 -1.0000 -0.0001
vn -0.1101 0.1353 0.9847
vn 0.2293 -0.5177 0.8243
vn -0.9092 -0.4015 0.1102
vn -0.1290 0.0025 -0.9916
vn 0.0991 -0.0148 0.9950
vn 0.8839 0.4425 -0.1513
vn 0.1102 -0.3860 -0.9159
vn 0.9937 0.0203 0.1104
vn 0.9940 0.0183 0.1075
vn 0.9935 0.0213 0.1119
vn -0.0585 0.4169 0.9071
vn -0.0525 0.4159 0.9079
vn -0.0615 0.4175 0.9066
vn -0.9962 0.0140 -0.0858
vn 0.8686 0.1236 0.4798
vn -0.4862 0.0742 0.8707
vn -0.4875 0.0737 0.8700
vn -0.4881 0.0735 0.8697
vn -0.9180 -0.0058 -0.3964
vn 0.4889 0.0021 -0.8723
vn 0.4890 0.0021 -0.8723
vn 0.4887 0.0020 -0.8724
vn 0.8640 -0.1309 0.4861
vn 0.8640 -0.1309 0.4862
vn 0.8641 -0.1308 0.4860
vn -0.4868 0.0347 0.8728
vn -0.4874 0.0346 0.8725
vn -0.4878 0.0345 0.8722
vn -0.8546 0.1939 -0.4818
vn -0.8552 0.1943 -0.4805
vn -0.8555 0.1945 -0.4799
vn 0.4915 0.0347 -0.8702
vn 0.4905 0.0353 -0.8707
vn 0.4900 0.0356 -0.8710
vn 0.9923 0.1187 0.0353
vn -0.1255 -0.6331 0.7638
vn -0.9938 -0.0441 -0.1017
vn 0.1219 0.6436 -0.7556
vn 0.1201 0.6441 -0.7555
vn 0.1222 0.6424 -0.7565
vn 0.1899 0.7697 0.6095
vn -0.1963 -0.7682 -0.6093
vn 0.9389 0.0074 -0.3441
vn 0.9407 0.0060 -0.3391
vn 0.9379 0.0111 -0.3467
vn -0.9370 -0.0031 0.3492
vn -0.1385 -0.6195 0.7727
vn -0.1425 -0.6201 0.7715
vn -0.1449 -0.6204 0.7708
vn -0.9804 0.0725 -0.1830
vn 0.1534 0.7055 -0.6919
vn 0.9776 0.0252 0.2088
vn -0.3140 -0.3466 -0.8839
vn -0.3139 -0.3466 -0.8839
vn -0.3136 -0.3467 -0.8840
vn 0.9402 0.0042 -0.3407
vn 0.3093 0.4018 0.8619
vn 0.3104 0.4019 0.8615
vn 0.3111 0.4020 0.8612
vn -0.9476 0.0513 0.3154
vn -0.9483 0.0502 0.3134
vn -0.9478 0.0509 0.3147
vn 0.3108 0.2831 0.9074
vn 0.3103 0.2833 0.9075
vn 0.3107 0.2831 0.9074
vn 0.7101 -0.2841 -0.6442
vn -0.9371 0.2493 0.2441
vn -0.1296 -0.6129 0.7794
vn -0.1290 -0.6128 0.7796
vn -0.1286 -0.6127 0.7798
vn -0.9633 -0.1060 -0.2464
vn -0.9632 -0.1048 -0.2476
vn -0.9635 -0.1068 -0.2457
vn 0.1211 0.6446 -0.7549
vn 0.9531 0.1377 0.2694
vn 0.9531 0.1378 0.2694
vn -0.2627 -0.2819 0.9228
vn -0.2624 -0.2819 0.9229
vn -0.8815 -0.3186 -0.3484
vn -0.8815 -0.3185 -0.3487
vn 0.8740 0.3337 0.3532
vn 0.8742 0.3341 0.3523
vn 0.8744 0.3343 0.3517
vn 0.2562 0.2976 -0.9197
vn 0.2554 0.2974 -0.9200
vn 0.2560 0.2975 -0.9197
vn -0.9007 -0.2723 -0.3386
vn -0.9006 -0.2720 -0.3391
vn -0.9008 -0.2725 -0.3382
vn 0.2270 0.3562 -0.9064
vn 0.2279 0.3566 -0.9060
vn 0.2264 0.3559 -0.9067
vn 0.8781 0.3271 0.3493
vn 0.8769 0.3262 0.3530
vn 0.8774 0.3265 0.3516
vn -0.2500 -0.3020 0.9200
vn -0.2502 -0.3021 0.9199
vn -0.3961 0.0066 0.9182
vn -0.3962 0.0065 0.9181
vn -0.8182 -0.4574 -0.3485
vn -0.8180 -0.4574 -0.3489
vn -0.8178 -0.4574 -0.3493
vn 0.3845 0.0151 -0.9230
vn 0.3849 0.0153 -0.9228
vn 0.3852 0.0155 -0.9227
vn 0.8061 0.4796 0.3466
vn 0.8066 0.4796 0.3455
vn 0.8059 0.4797 0.3472
vn 0.6254 -0.7407 0.2455
vn -0.4010 0.0431 0.9151
vn -0.6243 0.7534 -0.2064
vn 0.3682 -0.0002 -0.9298
vn 0.8424 -0.3708 0.3909
vn 0.8425 -0.3707 0.3908
vn 0.8423 -0.3709 0.3912
vn -0.4701 -0.1545 0.8690
vn -0.4704 -0.1543 0.8689
vn -0.4700 -0.1545 0.8691
vn -0.8284 0.4177 -0.3731
vn -0.8283 0.4178 -0.3733
vn -0.8286 0.4177 -0.3727
vn 0.4860 0.2009 -0.8505
vn 0.4853 0.2013 -0.8508
vn 0.4848 0.2015 -0.8511
vn -0.1092 0.7349 -0.6693
vn 0.1216 -0.7310 0.6714
vn -0.9799 0.0024 0.1995
vn -0.9785 -0.0040 0.2064
vn -0.9794 -0.0000 0.2021
vn 0.9789 0.0009 -0.2045
vn 0.1738 -0.3826 0.9074
vn -0.9822 -0.0150 0.1870
vn -0.1723 0.4461 -0.8782
vn 0.8077 0.2862 -0.5155
vn -0.3291 0.3505 0.8768
vn 0.1167 -0.1338 -0.9841
vn 0.9879 -0.0973 0.1207
vn -0.9290 0.0202 -0.3695
vn 0.2992 -0.2739 -0.9140
vn 0.0552 0.8366 0.5450
vn -0.9507 0.1155 -0.2878
vn -0.4021 0.8997 0.1698
vn -0.0004 -1.0000 0.0001
vn 0.9869 -0.0176 -0.1604
vn -0.9017 -0.4059 0.1487
vn 0.8967 0.4337 -0.0886
vn 0.1284 -0.0060 0.9917
vn -0.1767 -0.0288 -0.9838
vn 0.1928 -0.3962 -0.8977
vn -0.9897 -0.0247 -0.1409
vn 0.9942 0.0172 0.1059
vn -0.0495 0.4153 0.9083
vn 0.9275 0.0826 0.3646
vn -0.4857 0.0744 0.8710
vn -0.8726 -0.0348 -0.4872
vn 0.8637 -0.1310 0.4867
vn -0.4863 0.0348 0.8731
vn -0.8543 0.1937 -0.4823
vn 0.4919 0.0345 -0.8700
vn 0.0493 0.6511 -0.7574
vn -0.0684 -0.6231 0.7791
vn -0.9885 0.0139 -0.1504
vn 0.9821 0.0305 0.1861
vn 0.9549 0.0639 -0.2900
vn -0.9426 -0.0324 0.3324
vn -0.2176 -0.7708 -0.5987
vn 0.2185 0.7672 0.6031
vn -0.1363 -0.6192 0.7733
vn 0.9751 0.0078 0.2218
vn -0.9863 0.0407 -0.1599
vn 0.1233 0.7013 -0.7022
vn -0.3144 -0.3465 -0.8838
vn -0.9485 0.0498 0.3127
vn 0.9411 0.0057 -0.3380
vn 0.3089 0.4018 0.8621
vn 0.9410 -0.2279 -0.2503
vn -0.3095 -0.2615 -0.9142
vn 0.3111 0.2830 0.9073
vn -0.9691 0.1423 -0.2015
vn -0.1301 -0.6131 0.7792
vn -0.9631 -0.1041 -0.2483
vn 0.1195 0.6443 -0.7554
vn -0.2631 -0.2821 0.9226
vn 0.8738 0.3335 0.3538
vn 0.2551 0.2973 -0.9201
vn -0.9005 -0.2718 -0.3395
vn 0.2286 0.3570 -0.9057
vn 0.8785 0.3275 0.3479
vn -0.3960 0.0066 0.9182
vn -0.8184 -0.4573 -0.3480
vn 0.3841 0.0149 -0.9232
vn 0.8070 0.4795 0.3448
vn 0.6184 -0.7419 0.2591
vn -0.3744 -0.0022 0.9273
vn -0.6080 0.7572 -0.2385
vn 0.3853 -0.0287 -0.9224
vn -0.4706 -0.1542 0.8688
vn -0.8281 0.4179 -0.3736
vn 0.4865 0.2006 -0.8503
vn -0.9779 -0.0064 0.2090
vn 0.1381 -0.7322 0.6670
vn -0.1366 0.7335 -0.6658
vn 0.9843 -0.0420 -0.1716
vn 0.1737 -0.3826 0.9074
vn 0.9856 0.0758 -0.1515
vn -0.9555 0.2049 -0.2120
usemtl Tree2_1.001
s 1
f 29/1/1 44/2/1 30/3/1
f 42/4/2 28/5/3 45/6/4
f 17/7/5 15/8/5 44/9/5
f 16/10/6 44/11/7 45/12/8
f 17/13/9 78/14/9 23/15/9
f 37/16/10 41/17/10 20/18/10
f 21/19/11 45/20/11 28/21/11
f 15/22/12 28/23/12 30/24/12
f 12/25/13 10/26/13 77/27/14
f 16/28/15 21/29/15 22/30/15
f 9/31/16 7/32/16 69/33/17
f 6/34/18 4/35/18 59/36/19
f 2/37/20 53/38/20 3/39/20
f 31/40/21 33/41/21 1/42/22
f 24/43/23 71/44/23 72/45/23
f 16/46/24 78/47/24 17/48/24
f 37/49/25 18/50/25 24/51/25
f 19/52/26 18/53/26 20/54/26
f 35/55/27 24/56/27 72/57/27
f 35/58/28 19/59/28 40/60/28
f 70/61/29 15/62/29 18/63/29
f 70/64/30 22/65/31 21/66/32
f 71/67/33 23/68/34 22/69/35
f 24/70/36 18/71/36 23/72/36
f 28/73/37 25/74/37 34/75/37
f 29/76/38 25/77/39 42/78/40
f 30/79/41 26/80/41 29/81/41
f 30/82/42 34/83/43 27/84/44
f 25/85/45 1/86/46 34/87/47
f 26/88/48 31/89/49 25/90/50
f 27/91/51 32/92/52 26/93/53
f 34/94/54 33/95/55 27/96/56
f 56/97/57 35/98/57 36/99/57
f 54/100/58 35/101/58 38/102/58
f 54/103/59 41/104/59 37/105/59
f 55/106/60 56/107/61 41/108/62
f 41/109/63 36/110/63 48/111/63
f 40/112/64 20/113/64 39/114/64
f 46/115/65 48/116/66 40/117/67
f 39/118/68 41/119/68 49/120/68
f 62/121/69 42/122/70 43/123/71
f 44/124/72 29/125/72 62/126/72
f 63/127/73 45/128/73 44/129/73
f 43/130/74 45/131/74 64/132/74
f 51/133/75 39/134/76 47/135/77
f 51/136/78 48/137/66 46/138/65
f 52/139/79 48/140/80 50/141/81
f 52/142/82 47/143/83 49/144/84
f 52/145/85 50/146/86 2/147/87
f 2/148/88 51/149/88 53/150/88
f 3/151/89 47/152/89 52/153/89
f 58/154/90 38/155/91 57/156/92
f 58/157/93 55/158/94 54/159/95
f 61/160/96 56/161/61 55/162/60
f 57/163/97 56/164/98 60/165/97
f 59/166/99 58/167/99 57/168/100
f 61/169/101 58/170/101 4/171/102
f 59/172/103 60/173/104 6/174/105
f 5/175/106 6/176/107 61/177/108
f 66/178/109 63/179/110 62/180/111
f 67/181/112 64/182/113 63/183/114
f 43/184/115 64/185/116 68/186/117
f 65/187/118 66/188/118 43/189/119
f 69/190/120 66/191/121 65/192/121
f 8/193/122 66/194/123 7/195/124
f 9/196/125 67/197/126 8/198/127
f 9/199/128 65/200/129 68/201/130
f 74/202/131 70/203/131 73/204/131
f 74/205/132 72/206/132 71/207/132
f 75/208/133 19/209/133 72/210/133
f 73/211/134 19/212/134 76/213/134
f 10/214/135 73/215/136 77/216/137
f 10/217/138 75/218/139 74/219/140
f 11/220/141 76/221/142 75/222/143
f 77/223/144 76/224/145 12/225/146
f 22/226/147 23/227/147 82/228/147
f 79/229/148 78/230/148 16/231/148
f 80/232/149 82/233/150 78/234/151
f 79/235/152 22/236/152 83/237/152
f 13/238/153 79/239/153 81/240/153
f 13/241/154 82/242/154 80/243/154
f 14/244/155 83/245/155 82/246/155
f 81/247/156 83/248/156 14/249/156
f 16/250/6 17/251/157 44/252/7
f 18/253/158 19/254/158 70/255/158
f 16/256/159 45/257/159 21/258/159
f 15/259/160 30/260/160 44/261/160
f 15/262/161 21/263/161 28/264/161
f 14/265/162 13/266/162 81/267/162
f 12/268/13 11/269/13 10/270/13
f 9/271/16 8/272/16 7/273/16
f 17/274/163 23/275/163 15/276/163
f 6/277/18 5/278/164 4/279/18
f 31/280/21 32/281/165 33/282/21
f 35/283/166 40/284/166 36/285/166
f 37/286/167 20/287/167 18/288/167
f 35/289/168 72/290/168 19/291/168
f 35/292/169 37/293/169 24/294/169
f 40/295/170 19/296/170 20/297/170
f 70/298/171 21/299/171 15/300/171
f 18/301/172 15/302/172 23/303/172
f 71/304/173 22/305/31 70/306/30
f 24/307/174 23/308/34 71/309/33
f 28/310/3 42/311/2 25/312/175
f 29/313/38 26/314/176 25/315/39
f 30/316/177 27/317/177 26/318/177
f 30/319/42 28/320/43 34/321/43
f 25/322/45 31/323/178 1/324/46
f 26/325/48 32/326/179 31/327/49
f 27/328/51 33/329/180 32/330/52
f 34/331/54 1/332/181 33/333/55
f 41/334/182 56/335/182 36/336/182
f 54/337/183 37/338/183 35/339/183
f 54/340/184 55/341/184 41/342/184
f 38/343/185 35/344/185 56/345/185
f 48/346/186 36/347/186 40/348/186
f 39/349/187 20/350/187 41/351/187
f 39/352/188 46/353/188 40/354/188
f 49/355/189 41/356/189 48/357/189
f 62/358/69 29/359/190 42/360/70
f 45/361/191 43/362/191 42/363/191
f 62/364/192 63/365/192 44/366/192
f 63/367/193 64/368/193 45/369/193
f 51/370/75 46/371/194 39/372/76
f 47/373/83 39/374/195 49/375/84
f 51/376/78 50/377/196 48/378/66
f 52/379/79 49/380/197 48/381/80
f 2/382/198 50/383/198 51/384/198
f 53/385/199 51/386/199 47/387/199
f 2/388/87 3/389/200 52/390/85
f 3/391/201 53/392/201 47/393/201
f 58/394/90 54/395/202 38/396/91
f 58/397/93 61/398/203 55/399/94
f 61/400/96 60/401/204 56/402/61
f 57/403/97 38/404/98 56/405/98
f 59/406/99 4/407/205 58/408/99
f 60/409/104 59/410/103 57/411/206
f 61/412/108 6/413/107 60/414/207
f 4/415/102 5/416/102 61/417/101
f 66/418/118 62/419/119 43/420/119
f 66/421/109 67/422/208 63/423/110
f 67/424/112 68/425/209 64/426/113
f 65/427/210 43/428/115 68/429/117
f 69/430/120 7/431/211 66/432/121
f 8/433/122 67/434/212 66/435/123
f 9/436/125 68/437/213 67/438/126
f 9/439/128 69/440/214 65/441/129
f 74/442/215 71/443/215 70/444/215
f 74/445/216 75/446/216 72/447/216
f 75/448/217 76/449/217 19/450/217
f 73/451/218 70/452/218 19/453/218
f 10/454/135 74/455/136 73/456/136
f 10/457/138 11/458/219 75/459/139
f 11/460/141 12/461/220 76/462/142
f 77/463/144 73/464/221 76/465/145
f 78/466/151 82/467/150 23/468/222
f 79/469/223 80/470/223 78/471/223
f 83/472/224 22/473/224 82/474/224
f 79/475/225 16/476/225 22/477/225
f 13/478/153 80/479/226 79/480/153
f 81/481/227 79/482/227 83/483/227
f 13/484/228 14/485/228 82/486/228
