# Blender v2.90.1 OBJ File: 'NaturePack_AllModels.blend'
# www.blender.org
mtllib fence2.mtl
o Fence1.001_Cube.052
v -12.393116 -0.087764 5.737645
v -12.393116 1.866776 5.737645
v -12.681852 -0.087764 5.738890
v -12.681853 1.866776 5.738890
v -12.393581 -0.087764 5.629648
v -12.393581 1.866776 5.629648
v -12.682319 -0.087764 5.630893
v -12.682319 1.866776 5.630893
v -15.894306 0.728613 5.857998
v -12.114392 0.500398 5.841696
v -15.873590 1.071729 5.857909
v -12.093677 0.843514 5.841607
v -15.894772 0.728613 5.750002
v -12.114858 0.500398 5.733699
v -15.874056 1.071729 5.749912
v -12.094143 0.843514 5.733610
v -15.357370 -0.087765 5.750429
v -15.357371 1.866775 5.750429
v -15.646108 -0.087765 5.751675
v -15.646109 1.866775 5.751675
v -15.357837 -0.087765 5.642433
v -15.357837 1.866775 5.642433
v -15.646574 -0.087765 5.643678
v -15.646574 1.866775 5.643678
v -15.883948 1.206454 5.857954
v -12.097152 1.206455 5.841621
v -15.883948 1.550195 5.857954
v -12.097152 1.550195 5.841621
v -15.884414 1.206454 5.749957
v -12.097617 1.206455 5.733625
v -15.884414 1.550195 5.749957
v -12.097617 1.550195 5.733625
vt 0.110110 0.498999
vt 0.110110 0.001001
vt 0.001001 0.001001
vt 0.001001 0.498999
vt 0.001001 0.623999
vt 0.443443 0.623999
vt 0.443443 0.501001
vt 0.001001 0.501001
vt 0.221221 0.498999
vt 0.221221 0.001001
vt 0.112112 0.001001
vt 0.112112 0.498999
vt 0.001001 0.748999
vt 0.443443 0.748999
vt 0.443443 0.626001
vt 0.001001 0.626001
vt 0.443443 0.251001
vt 0.334334 0.251001
vt 0.334334 0.373999
vt 0.443443 0.373999
vt 0.332332 0.376001
vt 0.223223 0.376001
vt 0.223223 0.498999
vt 0.332332 0.498999
vt 0.665666 0.623999
vt 0.665666 0.126001
vt 0.556557 0.126001
vt 0.556557 0.623999
vt 0.001001 0.873999
vt 0.443443 0.873999
vt 0.443443 0.751001
vt 0.001001 0.751001
vt 0.554555 0.623999
vt 0.554555 0.126001
vt 0.445445 0.126001
vt 0.445445 0.623999
vt 0.001001 0.998999
vt 0.443443 0.998999
vt 0.443443 0.876001
vt 0.001001 0.876001
vt 0.443443 0.126001
vt 0.334334 0.126001
vt 0.334334 0.248999
vt 0.443443 0.248999
vt 0.332332 0.251001
vt 0.223223 0.251001
vt 0.223223 0.373999
vt 0.332332 0.373999
vt 0.998999 0.498999
vt 0.998999 0.001001
vt 0.889890 0.001001
vt 0.889890 0.498999
vt 0.445445 0.873999
vt 0.887888 0.873999
vt 0.887888 0.751001
vt 0.445445 0.751001
vt 0.998999 0.998999
vt 0.998999 0.501001
vt 0.889890 0.501001
vt 0.889890 0.998999
vt 0.445445 0.998999
vt 0.887888 0.998999
vt 0.887888 0.876001
vt 0.445445 0.876001
vt 0.887888 0.501001
vt 0.778779 0.501001
vt 0.778779 0.623999
vt 0.887888 0.623999
vt 0.332332 0.126001
vt 0.223223 0.126001
vt 0.223223 0.248999
vt 0.332332 0.248999
vt 0.887888 0.498999
vt 0.887888 0.001001
vt 0.778779 0.001001
vt 0.778779 0.498999
vt 0.445445 0.748999
vt 0.887888 0.748999
vt 0.887888 0.626001
vt 0.445445 0.626001
vt 0.776777 0.498999
vt 0.776777 0.001001
vt 0.667668 0.001001
vt 0.667668 0.498999
vt 0.223223 0.123999
vt 0.665666 0.123999
vt 0.665666 0.001001
vt 0.223223 0.001001
vt 0.443443 0.376001
vt 0.334334 0.376001
vt 0.334334 0.498999
vt 0.443443 0.498999
vt 0.776777 0.501001
vt 0.667668 0.501001
vt 0.667668 0.623999
vt 0.776777 0.623999
vn 0.0043 0.0000 1.0000
vn -1.0000 -0.0000 0.0043
vn -0.0043 0.0000 -1.0000
vn 1.0000 0.0000 -0.0043
vn 0.0000 -1.0000 0.0000
vn 0.0000 1.0000 -0.0000
vn 0.0603 0.9982 -0.0003
vn -0.0603 -0.9982 0.0003
vn -0.9982 0.0603 0.0043
vn 0.9982 -0.0603 -0.0043
usemtl Fence1_1.001
s 1
f 1/1/1 2/2/1 4/3/1 3/4/1
f 3/5/2 4/6/2 8/7/2 7/8/2
f 7/9/3 8/10/3 6/11/3 5/12/3
f 5/13/4 6/14/4 2/15/4 1/16/4
f 3/17/5 7/18/5 5/19/5 1/20/5
f 8/21/6 4/22/6 2/23/6 6/24/6
f 9/25/1 10/26/1 12/27/1 11/28/1
f 11/29/7 12/30/7 16/31/7 15/32/7
f 15/33/3 16/34/3 14/35/3 13/36/3
f 13/37/8 14/38/8 10/39/8 9/40/8
f 11/41/9 15/42/9 13/43/9 9/44/9
f 16/45/10 12/46/10 10/47/10 14/48/10
f 17/49/1 18/50/1 20/51/1 19/52/1
f 19/53/2 20/54/2 24/55/2 23/56/2
f 23/57/3 24/58/3 22/59/3 21/60/3
f 21/61/4 22/62/4 18/63/4 17/64/4
f 19/65/5 23/66/5 21/67/5 17/68/5
f 24/69/6 20/70/6 18/71/6 22/72/6
f 25/73/1 26/74/1 28/75/1 27/76/1
f 27/77/6 28/78/6 32/79/6 31/80/6
f 31/81/3 32/82/3 30/83/3 29/84/3
f 29/85/5 30/86/5 26/87/5 25/88/5
f 27/89/2 31/90/2 29/91/2 25/92/2
f 32/93/4 28/94/4 26/95/4 30/96/4
