# Blender v2.90.1 OBJ File: 'NaturePack_AllModels.blend'
# www.blender.org
mtllib flower3.mtl
o Flower2_Cylinder.060
v -12.358659 0.636882 16.960100
v -12.294810 0.795883 16.959826
v -12.347454 0.629148 16.926897
v -12.274815 0.782081 16.900572
v -12.320116 0.610476 16.913046
v -12.226029 0.748760 16.875854
v -12.292660 0.591804 16.926661
v -12.177033 0.715439 16.900150
v -12.281169 0.584069 16.959766
v -12.156528 0.701637 16.959229
v -12.292375 0.591804 16.992970
v -12.176523 0.715439 17.018480
v -12.319712 0.610476 17.006821
v -12.225307 0.748760 17.043200
v -12.347168 0.629148 16.993206
v -12.274304 0.782081 17.018904
v -12.437584 -0.089629 16.982073
v -12.432778 0.253226 16.974236
v -12.480848 -0.089629 16.982260
v -12.459604 0.263295 16.974352
v -12.437770 -0.089629 16.938808
v -12.432898 0.253226 16.946604
v -12.481035 -0.089629 16.938995
v -12.459723 0.263295 16.946720
v -12.391241 0.473400 16.973177
v -12.415199 0.488226 16.973280
v -12.415311 0.488226 16.947409
v -12.391353 0.473400 16.947306
v -12.300399 0.617886 16.968874
v -12.317114 0.628230 16.968946
v -12.317192 0.628230 16.950897
v -12.300476 0.617886 16.950825
v -12.412911 -0.102394 16.922329
v -12.413375 0.104272 16.814758
v -12.645895 -0.102394 16.923334
v -12.646358 0.104272 16.815763
v -12.412982 -0.110872 16.906042
v -12.413445 0.095794 16.798471
v -12.645966 -0.110872 16.907045
v -12.646429 0.095794 16.799477
v -12.459972 0.257529 16.626301
v -12.601389 0.257529 16.626911
v -12.601431 0.252383 16.617025
v -12.460015 0.252383 16.616415
v -12.504617 0.252828 16.439646
v -12.558356 0.252828 16.439878
v -12.558373 0.250873 16.436121
v -12.504633 0.250873 16.435888
v -12.452011 -0.084052 17.026667
v -12.335845 0.140011 17.037018
v -12.440322 -0.084052 16.895458
v -12.324155 0.140011 16.905807
v -12.434455 -0.093227 17.028233
v -12.318288 0.130837 17.038582
v -12.422765 -0.093227 16.897022
v -12.306599 0.130837 16.907372
v -12.129986 0.306258 17.029369
v -12.122890 0.306258 16.949728
v -12.112234 0.300689 16.950678
v -12.119329 0.300689 17.030319
v -11.926304 0.301315 17.022633
v -11.923608 0.301315 16.992367
v -11.919558 0.299199 16.992727
v -11.922255 0.299199 17.022993
v -12.610861 -0.102394 16.941622
v -12.665688 0.104272 17.034172
v -12.410409 -0.102394 17.060371
v -12.465236 0.104272 17.152922
v -12.619162 -0.110872 16.955635
v -12.673989 0.095794 17.048185
v -12.418710 -0.110872 17.074385
v -12.473537 0.095794 17.166935
v -12.722452 0.257529 17.219820
v -12.600782 0.257529 17.291899
v -12.605821 0.252383 17.300404
v -12.727490 0.252383 17.228327
v -12.779968 0.252828 17.402920
v -12.733731 0.252828 17.430311
v -12.735646 0.250873 17.433542
v -12.781883 0.250873 17.406153
v -12.570126 -0.134788 16.934406
v -12.574954 0.206721 16.965744
v -12.531279 -0.133111 16.915432
v -12.550983 0.217808 16.954632
v -12.551085 -0.137087 16.973188
v -12.562793 0.205253 16.990513
v -12.512238 -0.135410 16.954214
v -12.538822 0.216340 16.979403
v -12.614384 0.424761 16.999014
v -12.593042 0.440484 16.989468
v -12.581656 0.439109 17.012657
v -12.602999 0.423386 17.022203
v -12.695898 0.565204 17.051725
v -12.681007 0.576174 17.045065
v -12.673064 0.575215 17.061243
v -12.687954 0.564244 17.067904
v -12.639868 0.585937 17.035513
v -12.699016 0.742118 17.073812
v -12.635377 0.576017 17.069708
v -12.691002 0.724416 17.134834
v -12.653718 0.555593 17.092823
v -12.723733 0.687970 17.176085
v -12.684148 0.536630 17.091318
v -12.778035 0.654128 17.173399
v -12.708840 0.530234 17.066074
v -12.822100 0.642715 17.128351
v -12.713331 0.540154 17.031879
v -12.830113 0.660417 17.067329
v -12.694989 0.560577 17.008764
v -12.797382 0.696863 17.026079
v -12.664560 0.579541 17.010269
v -12.743080 0.730705 17.028765
v -12.598692 -0.084052 16.870413
v -12.715195 0.140011 16.865034
v -12.604767 -0.084052 17.002001
v -12.721270 0.140011 16.996622
v -12.616300 -0.093227 16.869598
v -12.732802 0.130837 16.864220
v -12.622375 -0.093227 17.001188
v -12.738877 0.130837 16.995810
v -12.920539 0.306258 16.881466
v -12.924227 0.306258 16.961338
v -12.934914 0.300689 16.960844
v -12.931227 0.300689 16.880974
v -13.123747 0.301316 16.896898
v -13.125149 0.301315 16.927250
v -13.129210 0.299199 16.927063
v -13.127809 0.299199 16.896709
vt 0.211527 0.946367
vt 0.420052 0.946367
vt 0.420052 0.922054
vt 0.211527 0.922054
vt 0.946367 0.209525
vt 0.946367 0.001001
vt 0.922054 0.001001
vt 0.922054 0.209525
vt 0.632580 0.920052
vt 0.841104 0.920052
vt 0.841104 0.895738
vt 0.632580 0.895738
vt 0.920052 0.420052
vt 0.920052 0.211527
vt 0.895738 0.211527
vt 0.895738 0.420052
vt 0.998999 0.343106
vt 0.974685 0.343106
vt 0.974685 0.367420
vt 0.998999 0.367420
vt 0.209525 0.920052
vt 0.209525 0.895738
vt 0.001001 0.895738
vt 0.001001 0.920052
vt 0.972683 0.737843
vt 0.948369 0.737843
vt 0.948369 0.841104
vt 0.972683 0.841104
vt 0.630578 0.893736
vt 0.630578 0.869422
vt 0.422054 0.869422
vt 0.422054 0.893736
vt 0.867420 0.422054
vt 0.843106 0.422054
vt 0.843106 0.630578
vt 0.867420 0.630578
vt 0.630578 0.867420
vt 0.630578 0.843106
vt 0.422054 0.843106
vt 0.422054 0.867420
vt 0.985841 0.395738
vt 0.974685 0.395738
vt 0.974685 0.406894
vt 0.985841 0.406894
vt 0.972683 0.843106
vt 0.948369 0.843106
vt 0.948369 0.946367
vt 0.972683 0.946367
vt 0.104262 0.998999
vt 0.104262 0.974685
vt 0.001001 0.974685
vt 0.001001 0.998999
vt 0.985841 0.422054
vt 0.961527 0.422054
vt 0.961527 0.525315
vt 0.985841 0.525315
vt 0.420052 0.422054
vt 0.211527 0.422054
vt 0.211527 0.630578
vt 0.420052 0.630578
vt 0.737843 0.985841
vt 0.946367 0.985841
vt 0.946367 0.974685
vt 0.737843 0.974685
vt 0.209525 0.001001
vt 0.001001 0.001001
vt 0.001001 0.209525
vt 0.209525 0.209525
vt 0.985841 0.209525
vt 0.985841 0.001001
vt 0.974685 0.001001
vt 0.974685 0.209525
vt 0.735841 0.985841
vt 0.735841 0.974685
vt 0.527317 0.974685
vt 0.527317 0.985841
vt 0.209525 0.211527
vt 0.001001 0.211527
vt 0.001001 0.420052
vt 0.209525 0.420052
vt 0.735841 0.211527
vt 0.632580 0.211527
vt 0.632580 0.420052
vt 0.735841 0.420052
vt 0.420052 0.001001
vt 0.211527 0.001001
vt 0.211527 0.209525
vt 0.420052 0.209525
vt 0.946367 0.972683
vt 0.946367 0.961527
vt 0.737843 0.961527
vt 0.737843 0.972683
vt 0.972683 0.211527
vt 0.961527 0.211527
vt 0.961527 0.420052
vt 0.972683 0.420052
vt 0.998999 0.972683
vt 0.998999 0.961527
vt 0.948369 0.961527
vt 0.948369 0.972683
vt 0.209525 0.841104
vt 0.209525 0.737843
vt 0.001001 0.737843
vt 0.001001 0.841104
vt 0.972683 0.001001
vt 0.961527 0.001001
vt 0.961527 0.209525
vt 0.972683 0.209525
vt 0.420052 0.972683
vt 0.420052 0.961527
vt 0.211527 0.961527
vt 0.211527 0.972683
vt 0.630578 0.735841
vt 0.630578 0.527317
vt 0.527317 0.527317
vt 0.527317 0.735841
vt 0.001001 0.972683
vt 0.209525 0.972683
vt 0.209525 0.961527
vt 0.001001 0.961527
vt 0.841104 0.209525
vt 0.841104 0.001001
vt 0.737843 0.001001
vt 0.737843 0.209525
vt 0.737843 0.959525
vt 0.946367 0.959525
vt 0.946367 0.948369
vt 0.737843 0.948369
vt 0.972683 0.527317
vt 0.961527 0.527317
vt 0.961527 0.630578
vt 0.972683 0.630578
vt 0.420052 0.841104
vt 0.420052 0.737843
vt 0.211527 0.737843
vt 0.211527 0.841104
vt 0.788473 0.527317
vt 0.737843 0.527317
vt 0.737843 0.735841
vt 0.788473 0.735841
vt 0.420052 0.735841
vt 0.420052 0.632580
vt 0.211527 0.632580
vt 0.211527 0.735841
vt 0.959525 0.001001
vt 0.948369 0.001001
vt 0.948369 0.209525
vt 0.959525 0.209525
vt 0.630578 0.959525
vt 0.630578 0.948369
vt 0.422054 0.948369
vt 0.422054 0.959525
vt 0.998999 0.369422
vt 0.987843 0.369422
vt 0.987843 0.393736
vt 0.998999 0.393736
vt 0.841104 0.527317
vt 0.790475 0.527317
vt 0.790475 0.735841
vt 0.841104 0.735841
vt 0.420052 0.959525
vt 0.420052 0.948369
vt 0.211527 0.948369
vt 0.211527 0.959525
vt 0.946367 0.632580
vt 0.935212 0.632580
vt 0.935212 0.841104
vt 0.946367 0.841104
vt 0.420052 0.211527
vt 0.211527 0.211527
vt 0.211527 0.420052
vt 0.420052 0.420052
vt 0.632580 0.946367
vt 0.841104 0.946367
vt 0.841104 0.935212
vt 0.632580 0.935212
vt 0.209525 0.422054
vt 0.001001 0.422054
vt 0.001001 0.630578
vt 0.209525 0.630578
vt 0.946367 0.630578
vt 0.946367 0.422054
vt 0.935212 0.422054
vt 0.935212 0.630578
vt 0.630578 0.946367
vt 0.630578 0.935212
vt 0.422054 0.935212
vt 0.422054 0.946367
vt 0.630578 0.001001
vt 0.422054 0.001001
vt 0.422054 0.209525
vt 0.630578 0.209525
vt 0.735841 0.001001
vt 0.632580 0.001001
vt 0.632580 0.209525
vt 0.735841 0.209525
vt 0.630578 0.211527
vt 0.422054 0.211527
vt 0.422054 0.420052
vt 0.630578 0.420052
vt 0.630578 0.933210
vt 0.630578 0.922054
vt 0.422054 0.922054
vt 0.422054 0.933210
vt 0.933210 0.422054
vt 0.922054 0.422054
vt 0.922054 0.630578
vt 0.933210 0.630578
vt 0.998999 0.959525
vt 0.998999 0.948369
vt 0.948369 0.948369
vt 0.948369 0.959525
vt 0.630578 0.841104
vt 0.630578 0.737843
vt 0.422054 0.737843
vt 0.422054 0.841104
vt 0.933210 0.632580
vt 0.922054 0.632580
vt 0.922054 0.841104
vt 0.933210 0.841104
vt 0.841104 0.933210
vt 0.841104 0.922054
vt 0.632580 0.922054
vt 0.632580 0.933210
vt 0.946367 0.420052
vt 0.946367 0.211527
vt 0.922054 0.211527
vt 0.922054 0.420052
vt 0.001001 0.946367
vt 0.209525 0.946367
vt 0.209525 0.922054
vt 0.001001 0.922054
vt 0.920052 0.841104
vt 0.920052 0.632580
vt 0.895738 0.632580
vt 0.895738 0.841104
vt 0.422054 0.920052
vt 0.630578 0.920052
vt 0.630578 0.895738
vt 0.422054 0.895738
vt 0.998999 0.316790
vt 0.974685 0.316790
vt 0.974685 0.341104
vt 0.998999 0.341104
vt 0.920052 0.422054
vt 0.895738 0.422054
vt 0.895738 0.630578
vt 0.920052 0.630578
vt 0.946367 0.920052
vt 0.946367 0.895738
vt 0.843106 0.895738
vt 0.843106 0.920052
vt 0.920052 0.001001
vt 0.895738 0.001001
vt 0.895738 0.209525
vt 0.920052 0.209525
vt 0.420052 0.920052
vt 0.420052 0.895738
vt 0.211527 0.895738
vt 0.211527 0.920052
vt 0.893736 0.422054
vt 0.869422 0.422054
vt 0.869422 0.630578
vt 0.893736 0.630578
vt 0.985841 0.408896
vt 0.974685 0.408896
vt 0.974685 0.420052
vt 0.985841 0.420052
vt 0.946367 0.946367
vt 0.946367 0.922054
vt 0.843106 0.922054
vt 0.843106 0.946367
vt 0.972683 0.632580
vt 0.948369 0.632580
vt 0.948369 0.735841
vt 0.972683 0.735841
vt 0.735841 0.972683
vt 0.735841 0.948369
vt 0.632580 0.948369
vt 0.632580 0.972683
vt 0.525315 0.735841
vt 0.525315 0.527317
vt 0.422054 0.527317
vt 0.422054 0.735841
vt 0.106264 0.985841
vt 0.314788 0.985841
vt 0.314788 0.974685
vt 0.106264 0.974685
vt 0.735841 0.630578
vt 0.735841 0.422054
vt 0.632580 0.422054
vt 0.632580 0.630578
vt 0.316790 0.985841
vt 0.525315 0.985841
vt 0.525315 0.974685
vt 0.316790 0.974685
vt 0.985841 0.211527
vt 0.974685 0.211527
vt 0.974685 0.314788
vt 0.985841 0.314788
vt 0.630578 0.525315
vt 0.630578 0.422054
vt 0.422054 0.422054
vt 0.422054 0.525315
vt 0.788473 0.211527
vt 0.737843 0.211527
vt 0.737843 0.420052
vt 0.788473 0.420052
vt 0.209525 0.735841
vt 0.209525 0.632580
vt 0.001001 0.632580
vt 0.001001 0.735841
vt 0.959525 0.422054
vt 0.948369 0.422054
vt 0.948369 0.630578
vt 0.959525 0.630578
vt 0.209525 0.959525
vt 0.209525 0.948369
vt 0.001001 0.948369
vt 0.001001 0.959525
vt 0.985841 0.369422
vt 0.974685 0.369422
vt 0.974685 0.393736
vt 0.985841 0.393736
vt 0.841104 0.211527
vt 0.790475 0.211527
vt 0.790475 0.420052
vt 0.841104 0.420052
vt 0.630578 0.972683
vt 0.630578 0.961527
vt 0.422054 0.961527
vt 0.422054 0.972683
vt 0.959525 0.211527
vt 0.948369 0.211527
vt 0.948369 0.420052
vt 0.959525 0.420052
vt 0.737843 0.893736
vt 0.841104 0.893736
vt 0.841104 0.843106
vt 0.737843 0.843106
vt 0.788473 0.841104
vt 0.788473 0.737843
vt 0.737843 0.737843
vt 0.737843 0.841104
vt 0.632580 0.841104
vt 0.735841 0.841104
vt 0.735841 0.790475
vt 0.632580 0.790475
vt 0.841104 0.841104
vt 0.841104 0.737843
vt 0.790475 0.737843
vt 0.790475 0.841104
vt 0.001001 0.893736
vt 0.104262 0.893736
vt 0.104262 0.843106
vt 0.001001 0.843106
vt 0.893736 0.209525
vt 0.893736 0.106264
vt 0.843106 0.106264
vt 0.843106 0.209525
vt 0.737843 0.452298
vt 0.768088 0.422054
vt 0.810860 0.422054
vt 0.841104 0.452298
vt 0.841104 0.495070
vt 0.810860 0.525315
vt 0.768088 0.525315
vt 0.737843 0.495070
vt 0.632580 0.788473
vt 0.735841 0.788473
vt 0.735841 0.737843
vt 0.632580 0.737843
vt 0.893736 0.841104
vt 0.893736 0.737843
vt 0.843106 0.737843
vt 0.843106 0.841104
vt 0.857935 0.893736
vt 0.843106 0.878907
vt 0.843106 0.857935
vt 0.857935 0.843106
vt 0.878907 0.843106
vt 0.893736 0.857935
vt 0.893736 0.878907
vt 0.878907 0.893736
vt 0.893736 0.735841
vt 0.893736 0.632580
vt 0.843106 0.632580
vt 0.843106 0.735841
vt 0.632580 0.893736
vt 0.735841 0.893736
vt 0.735841 0.843106
vt 0.632580 0.843106
vt 0.893736 0.420052
vt 0.893736 0.316790
vt 0.843106 0.316790
vt 0.843106 0.420052
vt 0.316790 0.893736
vt 0.420052 0.893736
vt 0.420052 0.843106
vt 0.316790 0.843106
vt 0.893736 0.314788
vt 0.893736 0.211527
vt 0.843106 0.211527
vt 0.843106 0.314788
vt 0.211527 0.893736
vt 0.314788 0.893736
vt 0.314788 0.843106
vt 0.211527 0.843106
vt 0.735841 0.705597
vt 0.705597 0.735841
vt 0.662824 0.735841
vt 0.632580 0.705597
vt 0.632580 0.662824
vt 0.662824 0.632580
vt 0.705597 0.632580
vt 0.735841 0.662824
vt 0.893736 0.104262
vt 0.893736 0.001001
vt 0.843106 0.001001
vt 0.843106 0.104262
vt 0.106264 0.893736
vt 0.209525 0.893736
vt 0.209525 0.843106
vt 0.106264 0.843106
vt 0.895738 0.878907
vt 0.895738 0.857935
vt 0.910567 0.843106
vt 0.931538 0.843106
vt 0.946367 0.857935
vt 0.946367 0.878907
vt 0.931538 0.893736
vt 0.910567 0.893736
vn 0.0076 0.0223 0.9997
vn -0.9982 0.0602 0.0043
vn -0.0011 0.0223 -0.9997
vn 0.9999 -0.0141 -0.0043
vn -0.0000 -1.0000 0.0000
vn 0.0061 0.0036 1.0000
vn 0.8465 -0.5323 -0.0036
vn 0.9827 -0.1854 -0.0042
vn -0.9811 0.1937 0.0042
vn -0.0025 0.0036 -1.0000
vn 0.5263 0.8503 -0.0023
vn -0.8189 0.5739 0.0035
vn 0.0078 0.0195 -0.9998
vn 0.0163 0.0195 0.9997
vn 0.0038 0.4617 0.8870
vn -1.0000 0.0000 0.0043
vn -0.0038 -0.4617 -0.8870
vn 1.0000 0.0000 -0.0043
vn 0.0020 -0.8870 0.4617
vn -0.0028 -0.7585 -0.6517
vn 0.0000 -1.0000 0.0084
vn 0.0027 0.7762 0.6305
vn 0.9792 0.1784 -0.0971
vn -0.9800 0.1783 -0.0886
vn -0.0020 0.8871 -0.4616
vn -0.0001 0.9997 -0.0251
vn 0.8812 0.4177 -0.2213
vn -0.8828 0.4183 -0.2136
vn -0.8835 0.4617 -0.0787
vn 0.0888 0.0000 -0.9961
vn 0.8835 -0.4617 0.0787
vn -0.0888 0.0000 0.9960
vn -0.4599 -0.8870 -0.0410
vn 0.6496 -0.7581 0.0579
vn -0.0076 -1.0000 -0.0007
vn -0.6285 0.7758 -0.0560
vn -0.0393 0.0944 0.9948
vn 0.1371 0.0944 -0.9861
vn 0.4599 0.8870 0.0410
vn 0.0243 0.9997 0.0022
vn 0.0379 0.2380 0.9705
vn 0.2089 0.2379 -0.9486
vn 0.4521 0.4617 -0.7632
vn 0.8603 0.0000 0.5097
vn -0.4521 -0.4617 0.7632
vn -0.8604 0.0000 -0.5096
vn 0.2353 -0.8870 -0.3972
vn -0.3321 -0.7585 0.5607
vn 0.0043 -1.0000 -0.0072
vn 0.3214 0.7762 -0.5425
vn -0.8901 0.1783 -0.4194
vn 0.7955 0.1784 0.5792
vn -0.2353 0.8870 0.3972
vn -0.0128 0.9997 0.0216
vn -0.8699 0.4176 -0.2625
vn 0.6481 0.4177 0.6367
vn -0.4431 0.0753 -0.8933
vn 0.8956 0.0988 -0.4338
vn 0.4368 -0.0310 0.8990
vn -0.8976 -0.0528 0.4376
vn 0.0114 -0.9978 -0.0648
vn -0.4418 0.0567 -0.8953
vn -0.7540 -0.5640 0.3368
vn -0.8802 -0.2231 0.4189
vn 0.8787 0.2313 -0.4177
vn 0.4385 -0.0496 0.8974
vn -0.4823 0.8281 0.2859
vn 0.7287 0.6044 -0.3220
vn 0.4290 -0.0342 0.9027
vn -0.4511 0.0721 -0.8896
vn 0.8861 0.4617 0.0409
vn -0.0460 0.0000 0.9989
vn -0.8861 -0.4617 -0.0409
vn 0.0462 0.0000 -0.9989
vn 0.4612 -0.8870 0.0213
vn -0.6515 -0.7581 -0.0301
vn 0.0076 -1.0000 0.0004
vn 0.6304 0.7757 0.0291
vn -0.0033 0.0944 -0.9955
vn -0.0951 0.0944 0.9910
vn -0.4612 0.8870 -0.0213
vn -0.0244 0.9997 -0.0011
vn -0.0793 0.2380 -0.9680
vn -0.1681 0.2379 0.9566
vn -0.8619 0.3454 -0.3713
vn -0.4258 0.0467 -0.9036
vn 0.1939 -0.3757 -0.9062
vn 0.6344 -0.6744 -0.3778
vn 0.6377 -0.6743 0.3723
vn 0.2017 -0.3757 0.9045
vn 0.5632 0.8263 -0.0024
vn -0.4181 0.0468 0.9072
vn -0.8586 0.3454 0.3787
vn -0.5632 -0.8263 0.0024
vn 0.9335 0.3581 -0.0187
vn 0.7768 0.0149 0.6296
vn 0.2252 -0.4306 0.8740
vn -0.3983 -0.7175 0.5714
vn -0.7285 -0.6776 -0.1009
vn -0.5718 -0.3344 -0.7492
vn -0.5151 0.8027 0.3005
vn -0.0201 0.1111 -0.9936
vn 0.6034 0.3980 -0.6910
vn 0.5151 -0.8027 -0.3005
usemtl Flower1_1.001
s 1
f 17/1/1 18/2/1 20/3/1 19/4/1
f 19/5/2 20/6/2 24/7/2 23/8/2
f 23/9/3 24/10/3 22/11/3 21/12/3
f 21/13/4 22/14/4 18/15/4 17/16/4
f 19/17/5 23/18/5 21/19/5 17/20/5
f 20/21/6 18/22/6 25/23/6 26/24/6
f 25/25/7 28/26/7 32/27/7 29/28/7
f 18/29/8 22/30/8 28/31/8 25/32/8
f 24/33/9 20/34/9 26/35/9 27/36/9
f 22/37/10 24/38/10 27/39/10 28/40/10
f 31/41/11 30/42/11 29/43/11 32/44/11
f 27/45/12 26/46/12 30/47/12 31/48/12
f 28/49/13 27/50/13 31/51/13 32/52/13
f 26/53/14 25/54/14 29/55/14 30/56/14
f 33/57/15 34/58/15 36/59/15 35/60/15
f 35/61/16 36/62/16 40/63/16 39/64/16
f 39/65/17 40/66/17 38/67/17 37/68/17
f 37/69/18 38/70/18 34/71/18 33/72/18
f 35/73/19 39/74/19 37/75/19 33/76/19
f 38/77/20 40/78/20 43/79/20 44/80/20
f 44/81/21 43/82/21 47/83/21 48/84/21
f 36/85/22 34/86/22 41/87/22 42/88/22
f 34/89/23 38/90/23 44/91/23 41/92/23
f 40/93/24 36/94/24 42/95/24 43/96/24
f 47/97/25 46/98/25 45/99/25 48/100/25
f 42/101/26 41/102/26 45/103/26 46/104/26
f 41/105/27 44/106/27 48/107/27 45/108/27
f 43/109/28 42/110/28 46/111/28 47/112/28
f 49/113/29 50/114/29 52/115/29 51/116/29
f 51/117/30 52/118/30 56/119/30 55/120/30
f 55/121/31 56/122/31 54/123/31 53/124/31
f 53/125/32 54/126/32 50/127/32 49/128/32
f 51/129/33 55/130/33 53/131/33 49/132/33
f 54/133/34 56/134/34 59/135/34 60/136/34
f 60/137/35 59/138/35 63/139/35 64/140/35
f 52/141/36 50/142/36 57/143/36 58/144/36
f 50/145/37 54/146/37 60/147/37 57/148/37
f 56/149/38 52/150/38 58/151/38 59/152/38
f 63/153/39 62/154/39 61/155/39 64/156/39
f 58/157/40 57/158/40 61/159/40 62/160/40
f 57/161/41 60/162/41 64/163/41 61/164/41
f 59/165/42 58/166/42 62/167/42 63/168/42
f 65/169/43 66/170/43 68/171/43 67/172/43
f 67/173/44 68/174/44 72/175/44 71/176/44
f 71/177/45 72/178/45 70/179/45 69/180/45
f 69/181/46 70/182/46 66/183/46 65/184/46
f 67/185/47 71/186/47 69/187/47 65/188/47
f 70/189/48 72/190/48 75/191/48 76/192/48
f 76/193/49 75/194/49 79/195/49 80/196/49
f 68/197/50 66/198/50 73/199/50 74/200/50
f 66/201/51 70/202/51 76/203/51 73/204/51
f 72/205/52 68/206/52 74/207/52 75/208/52
f 79/209/53 78/210/53 77/211/53 80/212/53
f 74/213/54 73/214/54 77/215/54 78/216/54
f 73/217/55 76/218/55 80/219/55 77/220/55
f 75/221/56 74/222/56 78/223/56 79/224/56
f 81/225/57 82/226/57 84/227/57 83/228/57
f 83/229/58 84/230/58 88/231/58 87/232/58
f 87/233/59 88/234/59 86/235/59 85/236/59
f 85/237/60 86/238/60 82/239/60 81/240/60
f 83/241/61 87/242/61 85/243/61 81/244/61
f 84/245/62 82/246/62 89/247/62 90/248/62
f 89/249/63 92/250/63 96/251/63 93/252/63
f 82/253/64 86/254/64 92/255/64 89/256/64
f 88/257/65 84/258/65 90/259/65 91/260/65
f 86/261/66 88/262/66 91/263/66 92/264/66
f 95/265/67 94/266/67 93/267/67 96/268/67
f 91/269/68 90/270/68 94/271/68 95/272/68
f 92/273/69 91/274/69 95/275/69 96/276/69
f 90/277/70 89/278/70 93/279/70 94/280/70
f 113/281/71 114/282/71 116/283/71 115/284/71
f 115/285/72 116/286/72 120/287/72 119/288/72
f 119/289/73 120/290/73 118/291/73 117/292/73
f 117/293/74 118/294/74 114/295/74 113/296/74
f 115/297/75 119/298/75 117/299/75 113/300/75
f 118/301/76 120/302/76 123/303/76 124/304/76
f 124/305/77 123/306/77 127/307/77 128/308/77
f 116/309/78 114/310/78 121/311/78 122/312/78
f 114/313/79 118/314/79 124/315/79 121/316/79
f 120/317/80 116/318/80 122/319/80 123/320/80
f 127/321/81 126/322/81 125/323/81 128/324/81
f 122/325/82 121/326/82 125/327/82 126/328/82
f 121/329/83 124/330/83 128/331/83 125/332/83
f 123/333/84 122/334/84 126/335/84 127/336/84
usemtl Flower1_3.001
f 1/337/85 2/338/85 4/339/85 3/340/85
f 3/341/86 4/342/86 6/343/86 5/344/86
f 5/345/87 6/346/87 8/347/87 7/348/87
f 7/349/88 8/350/88 10/351/88 9/352/88
f 9/353/89 10/354/89 12/355/89 11/356/89
f 11/357/90 12/358/90 14/359/90 13/360/90
f 4/361/91 2/362/91 16/363/91 14/364/91 12/365/91 10/366/91 8/367/91 6/368/91
f 13/369/92 14/370/92 16/371/92 15/372/92
f 15/373/93 16/374/93 2/375/93 1/376/93
f 1/377/94 3/378/94 5/379/94 7/380/94 9/381/94 11/382/94 13/383/94 15/384/94
f 97/385/95 98/386/95 100/387/95 99/388/95
f 99/389/96 100/390/96 102/391/96 101/392/96
f 101/393/97 102/394/97 104/395/97 103/396/97
f 103/397/98 104/398/98 106/399/98 105/400/98
f 105/401/99 106/402/99 108/403/99 107/404/99
f 107/405/100 108/406/100 110/407/100 109/408/100
f 100/409/101 98/410/101 112/411/101 110/412/101 108/413/101 106/414/101 104/415/101 102/416/101
f 109/417/102 110/418/102 112/419/102 111/420/102
f 111/421/103 112/422/103 98/423/103 97/424/103
f 97/425/104 99/426/104 101/427/104 103/428/104 105/429/104 107/430/104 109/431/104 111/432/104
