# Blender v2.90.1 OBJ File: 'NaturePack_AllModels.blend'
# www.blender.org
mtllib flower7.mtl
o Flower3_1_Cube.007
v 10.009973 -0.033947 20.009733
v 10.012069 0.290330 20.011829
v 10.052464 -0.033947 20.009733
v 10.050368 0.290330 20.011829
v 10.009973 -0.033947 20.052225
v 10.012069 0.290330 20.050129
v 10.052464 -0.033947 20.052225
v 10.050368 0.290330 20.050129
v 10.017155 0.510836 20.063198
v 10.045282 0.510836 20.063198
v 10.045282 0.497104 20.089169
v 10.017155 0.497104 20.089169
v 9.999581 0.482089 20.111048
v 10.099499 0.486830 20.109503
v 10.116673 0.480041 20.187336
v 10.071318 0.507270 20.146887
v 10.060643 0.470590 20.152773
v 10.023084 0.475457 20.190413
v 10.109583 0.502568 20.109476
v 10.094322 0.487920 20.204590
v 10.027193 0.506211 20.080545
v 10.024069 0.492613 20.179350
v 10.069599 0.511787 20.065229
v 10.048317 0.528523 20.086847
v 10.004422 0.500280 20.095882
v 10.052722 0.531252 20.047318
v 10.062324 0.509471 20.026522
v 10.122308 0.489613 20.108538
v 10.129564 0.512387 20.119024
v 10.069581 0.532245 20.037006
v 10.052007 0.490225 20.078123
v 10.039732 0.493058 20.111677
v 10.025350 0.511502 20.055246
v 10.152156 0.528800 20.033867
v 10.166538 0.510356 20.090298
v 10.139881 0.531633 20.067421
v 10.027008 0.527340 19.972626
v 10.093757 0.533875 20.035069
v 10.033508 0.545778 20.003359
v 10.040448 0.501749 20.040134
v 10.087257 0.515437 20.004335
v 10.006331 0.507659 20.040667
v 10.058713 0.505706 20.069855
v 9.994805 0.527040 20.013483
v 10.062053 0.555509 19.937840
v 10.125960 0.534174 19.994213
v 10.114434 0.553556 19.967028
v 10.080317 0.559466 19.967560
v 10.002934 0.493980 20.059040
v 9.955967 0.513043 20.022585
v 9.945601 0.491142 20.090015
v 9.912345 0.534493 20.039747
v 10.023574 0.511318 20.047119
v 10.004305 0.485228 20.113283
v 9.893076 0.508403 20.105913
v 9.971049 0.528579 20.063017
v 9.960683 0.506678 20.130447
v 9.913716 0.525740 20.093990
v 10.020896 0.473184 20.180880
v 9.947890 0.482553 20.197803
v 9.957225 0.509016 20.103569
v 9.974411 0.507064 20.164249
v 10.003711 0.475136 20.120199
v 9.946087 0.486571 20.115627
v 9.926671 0.502638 20.160784
v 10.003377 0.491299 20.075701
v 10.051450 0.479562 20.123665
v 9.974745 0.490901 20.208746
v 10.030231 0.499647 20.086645
v 10.032034 0.495630 20.168821
v 9.936107 0.515647 20.036629
v 10.031184 0.543559 19.969130
v 9.948317 0.541138 20.019239
v 10.018974 0.518068 19.986519
v 9.981785 0.503484 20.038506
v 10.029014 0.505136 20.046225
v 10.046787 0.526161 20.025524
v 9.992127 0.511781 20.066883
v 9.920504 0.533046 19.980234
v 9.975163 0.547426 19.938877
v 9.938277 0.554070 19.959534
v 9.985506 0.555723 19.967253
v 10.018538 0.500560 20.058275
v 10.056795 0.498326 20.083071
v 10.012878 0.531091 20.067751
v 10.010044 0.524604 20.039570
v 10.030452 0.514426 20.110151
v 10.042421 0.509308 20.044142
vt 0.375000 0.000000
vt 0.625000 0.000000
vt 0.625000 0.250000
vt 0.375000 0.250000
vt 0.625000 0.500000
vt 0.375000 0.500000
vt 0.625000 0.750000
vt 0.375000 0.750000
vt 0.625000 1.000000
vt 0.375000 1.000000
vt 0.125000 0.500000
vt 0.125000 0.750000
vt 0.625000 0.750000
vt 0.625000 1.000000
vt 0.625000 0.500000
vt 0.875000 0.500000
vt 0.875000 0.750000
vt 0.625000 0.250000
vt 0.625000 0.000000
vt 0.805543 0.170843
vt 0.636363 0.078730
vt 0.614193 0.197264
vt 0.090909 0.000000
vt 0.023035 0.117562
vt 0.180132 0.141007
vt 0.388152 0.194294
vt 0.441398 0.286600
vt 0.641124 0.332435
vt 0.522419 0.432483
vt 0.203213 0.273757
vt 0.354839 0.414435
vt 0.068683 0.276424
vt 0.181818 0.393651
vt 0.795146 0.354819
vt 0.727272 0.472382
vt 0.911367 0.294245
vt 0.227631 0.124552
vt 0.463342 0.057947
vt 0.295762 0.039899
vt 0.747248 0.234886
vt 0.681818 0.078731
vt 0.603449 0.117206
vt 0.090909 0.000000
vt 0.045454 0.078731
vt 0.084662 0.142071
vt 0.909090 0.157461
vt 0.811454 0.118713
vt 0.897305 0.259209
vt 0.148904 0.355176
vt 0.292703 0.237496
vt 0.227273 0.393651
vt 0.539207 0.330311
vt 0.500000 0.393651
vt 0.545454 0.472382
vt 0.954765 0.377279
vt 0.749140 0.434505
vt 0.556977 0.330311
vt 0.506375 0.105765
vt 0.442760 0.213173
vt 0.356909 0.353669
vt 0.045454 0.236191
vt 0.294595 0.037877
vt 0.204170 0.118746
vt 0.748660 0.229418
vt 0.681818 0.078731
vt 0.622851 0.075970
vt 0.090909 0.000000
vt 0.045454 0.078731
vt 0.159119 0.118145
vt 0.026041 0.157461
vt 0.077541 0.257994
vt 0.294115 0.242964
vt 0.168306 0.396412
vt 0.227273 0.393651
vt 0.613664 0.354237
vt 0.500000 0.393651
vt 0.545454 0.472382
vt 0.442766 0.273274
vt 0.966287 0.293233
vt 0.930414 0.409943
vt 0.747230 0.437814
vt 0.659062 0.354237
vt 0.521491 0.196036
vt 0.360899 0.343383
vt 0.885045 0.199108
vt 0.815444 0.128999
vt 0.475869 0.062439
vt 0.292685 0.034568
vt 0.204517 0.118145
vt 0.920903 0.177921
vt 0.825833 0.126586
vt 0.805960 0.261619
vt 0.648870 0.145008
vt 0.351415 0.210763
vt 0.519079 0.298220
vt 0.569369 0.430959
vt 0.500000 0.393651
vt 0.227273 0.393651
vt 0.194324 0.327374
vt 0.181818 0.472382
vt 0.979994 0.349572
vt 0.888002 0.435856
vt 0.713350 0.413651
vt 0.371288 0.345796
vt 0.064534 0.174162
vt 0.525449 0.122810
vt 0.433457 0.036526
vt 0.258805 0.058731
vt 0.114824 0.041423
vt 0.045454 0.078731
vt 0.681818 0.078731
vt 0.636363 0.000000
vt 0.272727 0.000000
vt 0.230507 0.138280
vt 0.395986 0.181391
vt 0.454545 0.000000
vt 0.409209 0.181391
vt 0.525011 0.122052
vt 0.923755 0.182862
vt 0.797080 0.194009
vt 0.863754 0.290991
vt 0.342535 0.278373
vt 0.631817 0.140887
vt 0.501292 0.289680
vt 0.685052 0.334102
vt 0.386703 0.406363
vt 0.613036 0.355325
vt 0.514863 0.419396
vt 0.177272 0.331495
vt 0.979557 0.350330
vt 0.909090 0.472382
vt 0.799112 0.347950
vt 0.727272 0.472382
vt 0.158491 0.117057
vt 0.046747 0.182702
vt 0.060318 0.052986
vt 0.841248 0.066018
vt 0.272727 0.000000
vt 0.227273 0.078731
vt 0.330513 0.182848
vt 0.750472 0.091123
vt 0.647606 0.266539
vt 0.803524 0.289534
vt 0.409090 0.393651
vt 0.404590 0.300637
vt 0.295927 0.381259
vt 0.928999 0.437899
vt 0.955916 0.269450
vt 0.798720 0.348629
vt 0.681818 0.393651
vt 0.727272 0.472382
vt 0.501370 0.202932
vt 0.530845 0.366497
vt 0.213862 0.371794
vt 0.193061 0.205843
vt 0.064656 0.269450
vt 0.859135 0.171745
vt 0.076300 0.105885
vt 0.000000 0.157461
vt 0.474454 0.034483
vt 0.383097 0.123753
vt 0.863635 0.078731
vt 0.730792 0.173537
vt 0.667167 0.322387
vt 0.772726 0.393652
vt 0.256258 0.320505
vt 0.136363 0.393651
vt 0.181818 0.472382
vt 0.103606 0.256190
vt 0.481224 0.114122
vt 0.600062 0.345331
vt 0.318182 0.078731
vt 0.249632 0.117459
vt 0.381861 0.189028
vt 0.136363 0.078731
vt 0.071625 0.047858
vt 0.636363 -0.000000
vt 0.576502 0.103683
vt 0.399211 0.424969
vt 0.983855 0.286956
vt 0.920678 0.379858
vt 0.727272 0.472382
vt 0.845811 0.047858
vt 0.272727 0.000000
vn 0.0000 0.0065 -1.0000
vn 1.0000 0.0065 0.0000
vn 0.0000 0.0065 1.0000
vn -1.0000 0.0065 0.0000
vn 0.0000 -1.0000 0.0000
vn -0.9997 0.0228 0.0049
vn 0.0000 0.8840 0.4674
vn 0.9997 0.0228 0.0049
vn 0.0000 -0.1855 0.9826
vn 0.0000 0.2269 -0.9739
vn -0.1622 -0.9862 -0.0344
vn 0.0400 -0.9468 -0.3194
vn 0.0586 -0.8772 0.4765
vn -0.0588 0.9392 0.3384
vn 0.3028 0.9335 0.1923
vn 0.0648 0.9962 -0.0590
vn -0.2136 0.9687 0.1266
vn -0.2539 0.5344 0.8062
vn 0.4635 0.8616 0.2070
vn -0.5963 0.7976 0.0909
vn -0.9245 0.2428 0.2940
vn 0.8198 -0.5258 -0.2267
vn 0.3162 -0.2043 -0.9264
vn 0.0285 -0.7964 -0.6041
vn 0.0540 -0.9820 0.1809
vn 0.2470 -0.9591 -0.1382
vn -0.0389 -0.9968 0.0699
vn 0.1317 -0.9371 -0.3232
vn -0.3482 -0.8534 -0.3879
vn -0.0169 0.4225 -0.9062
vn 0.0389 0.9968 -0.0699
vn -0.1317 0.9371 0.3232
vn -0.2699 0.8928 0.3606
vn -0.2242 0.8969 0.3811
vn 0.5185 -0.4884 0.7019
vn 0.3483 0.8534 0.3879
vn 0.5476 0.8265 0.1306
vn -0.5185 0.4884 -0.7019
vn -0.5476 -0.8265 -0.1306
vn 0.0168 -0.4226 0.9062
vn 0.2700 -0.8928 -0.3606
vn 0.2242 -0.8969 -0.3811
vn 0.2589 -0.9654 -0.0306
vn 0.0021 -0.9349 -0.3548
vn -0.4666 -0.8017 -0.3736
vn -0.7686 0.2100 -0.6042
vn -0.2589 0.9654 0.0306
vn -0.0020 0.9349 0.3548
vn 0.1665 0.9326 0.3203
vn -0.2348 0.7906 0.5655
vn -0.1238 0.8285 0.5462
vn 0.4666 0.8016 0.3737
vn 0.1627 0.9600 -0.2278
vn -0.4481 0.8918 -0.0628
vn -0.3287 0.6975 0.6367
vn 0.3288 -0.6975 -0.6367
vn -0.1627 -0.9600 0.2278
vn 0.7686 -0.2100 0.6043
vn 0.4481 -0.8918 0.0628
vn 0.2348 -0.7906 -0.5655
vn 0.1238 -0.8285 -0.5462
vn -0.1665 -0.9325 -0.3204
vn 0.5867 -0.7970 -0.1434
vn -0.5297 -0.7251 -0.4401
vn 0.0367 0.9867 0.1583
vn 0.1287 0.9372 0.3242
vn 0.3846 0.8589 0.3381
vn 0.2136 0.9288 -0.3028
vn -0.5866 0.7971 0.1434
vn -0.2213 0.7176 0.6604
vn -0.2075 -0.8328 0.5133
vn 0.5297 0.7250 0.4402
vn 0.2213 -0.7176 -0.6604
vn 0.2075 0.8327 -0.5133
vn -0.3846 -0.8589 -0.3381
vn -0.2136 -0.9288 0.3028
vn -0.0367 -0.9867 -0.1583
vn -0.1288 -0.9372 -0.3242
vn -0.1264 -0.9920 0.0039
vn -0.1911 -0.9806 -0.0437
vn 0.4513 -0.6501 -0.6113
vn 0.0255 -0.8240 0.5661
vn -0.6670 -0.7448 -0.0218
vn -0.5551 -0.1627 -0.8157
vn -0.1112 0.9338 0.3400
vn -0.0964 0.9936 0.0593
vn 0.1576 0.9286 0.3361
vn 0.1911 0.9806 0.0437
vn 0.1264 0.9920 -0.0039
vn -0.4512 0.6501 0.6113
vn 0.8741 -0.1947 0.4451
vn 0.6670 0.7448 0.0218
vn -0.0254 0.8240 -0.5660
vn 0.5550 0.1628 0.8157
vn -0.8741 0.1947 -0.4451
vn 0.0964 -0.9936 -0.0593
vn 0.1113 -0.9338 -0.3400
vn -0.1576 -0.9286 -0.3361
vn -0.1194 -0.9304 -0.3465
vn 0.7063 -0.5975 -0.3797
vn -0.0704 0.9724 0.2225
vn 0.1063 0.8872 0.4490
vn 0.1194 0.9304 0.3465
vn 0.2421 0.9440 0.2242
vn 0.2541 0.8994 -0.3556
vn 0.0130 0.9584 -0.2850
vn -0.5924 0.7610 0.2644
vn -0.3327 0.6350 0.6972
vn 0.5049 0.3500 0.7890
vn -0.5049 -0.3501 -0.7890
vn -0.7064 0.5974 0.3797
vn -0.2541 -0.8994 0.3556
vn -0.0130 -0.9584 0.2850
vn 0.5923 -0.7611 -0.2644
vn 0.3327 -0.6350 -0.6972
vn -0.1063 -0.8872 -0.4490
vn -0.2422 -0.9440 -0.2242
vn 0.0704 -0.9724 -0.2224
vn -0.6085 0.6197 0.4958
vn 0.0331 0.9968 0.0725
vn -0.1127 0.9707 -0.2121
vn 0.1137 -0.8015 0.5871
vn 0.3693 -0.8498 -0.3761
vn -0.2005 -0.6447 -0.7377
vn -0.0430 -0.9988 -0.0236
vn 0.1688 0.0631 -0.9836
vn 0.7555 0.1319 0.6417
vn -0.9567 0.2896 0.0296
vn 0.6892 0.7135 0.1261
vn 0.7480 0.1285 0.6512
vn -0.1604 0.8942 0.4180
vn -0.7991 -0.5187 -0.3038
vn 0.6134 -0.1766 -0.7698
vn 0.1530 -0.9349 -0.3202
usemtl Flower3_3
s off
f 1/1/1 2/2/1 4/3/1 3/4/1
f 3/4/2 4/3/2 8/5/2 7/6/2
f 7/6/3 8/5/3 6/7/3 5/8/3
f 5/8/4 6/7/4 2/9/4 1/10/4
f 3/11/5 7/6/5 5/8/5 1/12/5
f 2/9/6 6/7/6 12/13/6 9/14/6
f 11/15/7 10/16/7 9/17/7 12/13/7
f 8/5/8 4/3/8 10/18/8 11/15/8
f 6/7/9 8/5/9 11/15/9 12/13/9
f 4/3/10 2/2/10 9/19/10 10/18/10
usemtl Flower3_1
f 13/20/11 17/21/11 18/22/11
f 17/23/12 13/24/12 14/25/12
f 18/22/13 15/26/13 20/27/13
f 22/28/14 20/27/14 16/29/14
f 20/27/15 19/30/15 16/31/15
f 19/30/16 21/32/16 16/33/16
f 21/34/17 22/28/17 16/35/17
f 18/22/18 20/27/18 22/28/18
f 15/26/19 19/30/19 20/27/19
f 13/20/20 22/28/20 21/36/20
f 13/20/21 18/22/21 22/28/21
f 15/26/22 14/37/22 19/30/22
f 19/30/23 14/25/23 21/32/23
f 14/25/24 13/24/24 21/32/24
f 17/38/25 15/26/25 18/22/25
f 17/39/26 14/37/26 15/26/26
f 32/40/27 31/41/27 28/42/27
f 28/43/28 31/44/28 27/45/28
f 27/46/29 31/47/29 33/48/29
f 27/45/30 30/49/30 34/50/30
f 34/50/31 30/49/31 36/51/31
f 29/52/32 36/53/32 30/54/32
f 33/48/33 32/40/33 30/55/33
f 30/56/34 32/40/34 29/57/34
f 28/58/35 35/59/35 29/57/35
f 35/59/36 36/60/36 29/57/36
f 35/59/37 34/50/37 36/60/37
f 30/49/38 27/45/38 33/61/38
f 33/48/39 31/47/39 32/40/39
f 32/40/40 28/58/40 29/57/40
f 28/58/41 34/50/41 35/59/41
f 28/62/42 27/63/42 34/50/42
f 43/64/43 40/65/43 41/66/43
f 41/67/44 40/68/44 37/69/44
f 37/69/45 42/70/45 44/71/45
f 37/69/46 44/71/46 45/72/46
f 45/72/47 39/73/47 48/74/47
f 38/75/48 48/76/48 39/77/48
f 38/75/49 47/78/49 48/76/49
f 44/79/50 43/64/50 39/80/50
f 39/81/51 43/64/51 38/82/51
f 46/83/52 47/78/52 38/82/52
f 47/78/53 45/72/53 48/84/53
f 45/72/54 44/71/54 39/73/54
f 42/85/55 43/64/55 44/79/55
f 46/83/56 45/72/56 47/78/56
f 42/85/57 40/86/57 43/64/57
f 43/64/58 46/83/58 38/82/58
f 43/64/59 41/66/59 46/83/59
f 41/87/60 45/72/60 46/83/60
f 41/88/61 37/89/61 45/72/61
f 37/69/62 40/68/62 42/70/62
f 54/90/63 49/91/63 53/92/63
f 50/93/64 55/94/64 52/95/64
f 56/96/65 52/95/65 58/97/65
f 58/98/66 57/99/66 56/100/66
f 57/101/67 53/92/67 56/102/67
f 53/92/68 52/95/68 56/103/68
f 55/94/69 58/104/69 52/95/69
f 55/94/70 57/99/70 58/104/70
f 55/94/71 54/105/71 57/99/71
f 54/90/72 53/92/72 57/101/72
f 49/91/73 50/93/73 53/92/73
f 53/92/74 50/93/74 52/95/74
f 50/106/75 51/107/75 55/94/75
f 51/108/76 54/105/76 55/94/76
f 51/109/77 49/110/77 54/105/77
f 49/111/78 51/112/78 50/93/78
f 63/113/79 59/114/79 60/115/79
f 63/116/80 60/117/80 64/118/80
f 67/119/81 66/120/81 69/121/81
f 60/115/82 59/114/82 68/122/82
f 64/123/83 60/117/83 65/124/83
f 64/123/84 61/125/84 66/120/84
f 65/124/85 68/122/85 62/126/85
f 61/127/86 65/124/86 62/128/86
f 68/122/87 70/129/87 62/126/87
f 70/130/88 69/121/88 62/131/88
f 69/132/89 61/125/89 62/133/89
f 60/117/90 68/122/90 65/124/90
f 59/134/91 67/135/91 70/129/91
f 67/119/92 69/121/92 70/130/92
f 66/120/93 61/125/93 69/121/93
f 68/122/94 59/134/94 70/129/94
f 61/125/95 64/123/95 65/124/95
f 59/134/96 63/136/96 67/135/96
f 63/137/97 66/120/97 67/119/97
f 63/137/98 64/123/98 66/120/98
f 74/138/99 75/139/99 79/140/99
f 74/141/100 72/142/100 77/143/100
f 82/144/101 81/145/101 73/146/101
f 73/147/102 78/148/102 77/143/102
f 77/149/103 82/150/103 73/151/103
f 77/149/104 72/142/104 82/150/104
f 72/142/105 80/152/105 82/153/105
f 80/152/106 81/145/106 82/153/106
f 79/140/107 73/154/107 81/145/107
f 71/155/108 78/156/108 73/154/108
f 76/157/109 77/143/109 78/148/109
f 80/152/110 79/140/110 81/145/110
f 79/140/111 71/155/111 73/154/111
f 71/155/112 75/158/112 78/156/112
f 75/158/113 76/159/113 78/156/113
f 76/157/114 74/141/114 77/143/114
f 74/141/115 80/152/115 72/142/115
f 74/160/116 79/161/116 80/152/116
f 79/140/117 75/139/117 71/155/117
f 75/162/118 74/141/118 76/157/118
usemtl Flower3_2
f 25/163/119 87/164/119 85/165/119
f 26/166/120 85/167/120 24/168/120
f 26/166/121 86/169/121 85/167/121
f 25/163/122 84/170/122 87/171/122
f 84/172/123 88/173/123 23/174/123
f 88/175/124 83/176/124 86/169/124
f 25/163/125 83/177/125 84/178/125
f 88/173/126 86/169/126 26/166/126
f 24/179/127 84/170/127 23/174/127
f 86/180/128 25/163/128 85/181/128
f 23/174/129 26/166/129 24/179/129
f 87/171/130 84/170/130 24/179/130
f 85/165/131 87/164/131 24/182/131
f 83/183/132 25/163/132 86/180/132
f 23/174/133 88/173/133 26/166/133
f 83/184/134 88/173/134 84/172/134
