# Blender v2.90.1 OBJ File: 'NaturePack_AllModels.blend'
# www.blender.org
mtllib grass9.mtl
o Grass4_Cone.004
v 16.043612 0.285947 20.083607
v 16.064222 0.295870 20.056124
v 16.099779 0.293095 20.081787
v 16.079168 0.283172 20.109270
v 16.040285 0.367386 20.144112
v 16.053886 -0.044927 20.012871
v 16.091511 -0.022260 19.945978
v 16.161554 -0.024483 19.984619
v 16.123930 -0.047150 20.051512
v 16.150511 0.247823 20.180237
v 16.141184 0.258705 20.163855
v 16.177359 0.265883 20.140381
v 16.186684 0.255001 20.156763
v 16.203531 0.375179 20.316750
v 16.079996 -0.044773 20.027100
v 16.072237 -0.020381 19.986444
v 16.150341 -0.023968 19.969389
v 16.158100 -0.048360 20.010044
v 16.253714 0.348485 20.116274
v 16.233727 0.358749 20.082376
v 16.276920 0.359501 20.058527
v 16.296907 0.349237 20.092424
v 16.302086 0.574426 20.179209
v 16.198328 -0.041511 20.039799
v 16.179926 -0.024288 19.975677
v 16.246361 -0.027552 19.957710
v 16.264763 -0.044775 20.021833
vt 0.250000 0.490000
vt 0.250000 0.250000
vt 0.490000 0.250000
vt 0.250000 0.010000
vt 0.010000 0.250000
vt 0.490000 0.250000
vt 0.250000 0.490000
vt 0.750000 0.490000
vt 0.990000 0.250000
vt 0.750000 0.010000
vt 0.510000 0.250000
vt 0.010000 0.250000
vt 0.250000 0.010000
vt 0.250000 0.490000
vt 0.250000 0.250000
vt 0.490000 0.250000
vt 0.250000 0.010000
vt 0.010000 0.250000
vt 0.490000 0.250000
vt 0.250000 0.490000
vt 0.750000 0.490000
vt 0.990000 0.250000
vt 0.750000 0.010000
vt 0.510000 0.250000
vt 0.010000 0.250000
vt 0.250000 0.010000
vt 0.250000 0.490000
vt 0.250000 0.250000
vt 0.490000 0.250000
vt 0.250000 0.010000
vt 0.010000 0.250000
vt 0.490000 0.250000
vt 0.250000 0.490000
vt 0.750000 0.490000
vt 0.990000 0.250000
vt 0.750000 0.010000
vt 0.510000 0.250000
vt 0.010000 0.250000
vt 0.250000 0.010000
vn -0.8087 0.3292 -0.4875
vn 0.4204 0.7567 -0.5006
vn 0.7777 0.1025 0.6202
vn -0.5259 -0.5210 0.6723
vn -0.8611 0.0896 -0.5004
vn 0.1136 -0.9586 -0.2610
vn -0.5162 -0.2046 0.8317
vn 0.8489 0.0132 0.5284
vn 0.5022 0.3309 -0.7989
vn -0.8920 -0.1011 0.4407
vn -0.4345 0.7931 -0.4270
vn 0.9013 0.2953 -0.3168
vn 0.4683 -0.7294 0.4986
vn -0.9480 0.0494 0.3145
vn -0.1461 -0.8604 -0.4883
vn 0.3084 -0.4680 0.8282
vn 0.9647 0.0483 -0.2590
vn -0.2973 0.5346 -0.7911
vn -0.8555 0.0393 0.5163
vn -0.4304 0.4797 -0.7646
vn 0.8708 0.1592 -0.4652
vn 0.4609 -0.3283 0.8245
vn -0.9262 0.0421 0.3746
vn -0.1093 -0.9674 -0.2285
vn 0.3442 -0.2101 0.9151
vn 0.9316 0.0050 -0.3635
vn -0.3367 0.2792 -0.8993
usemtl Grass1_1
s off
f 1/1/1 5/2/1 2/3/1
f 2/3/2 5/2/2 3/4/2
f 3/4/3 5/2/3 4/5/3
f 4/5/4 5/2/4 1/1/4
f 1/1/5 2/3/5 7/6/5 6/7/5
f 6/8/6 7/9/6 8/10/6 9/11/6
f 4/5/7 1/1/7 6/7/7 9/12/7
f 3/4/8 4/5/8 9/12/8 8/13/8
f 2/3/9 3/4/9 8/13/9 7/6/9
f 10/14/10 14/15/10 11/16/10
f 11/16/11 14/15/11 12/17/11
f 12/17/12 14/15/12 13/18/12
f 13/18/13 14/15/13 10/14/13
f 10/14/14 11/16/14 16/19/14 15/20/14
f 15/21/15 16/22/15 17/23/15 18/24/15
f 13/18/16 10/14/16 15/20/16 18/25/16
f 12/17/17 13/18/17 18/25/17 17/26/17
f 11/16/18 12/17/18 17/26/18 16/19/18
f 19/27/19 23/28/19 20/29/19
f 20/29/20 23/28/20 21/30/20
f 21/30/21 23/28/21 22/31/21
f 22/31/22 23/28/22 19/27/22
f 19/27/23 20/29/23 25/32/23 24/33/23
f 24/34/24 25/35/24 26/36/24 27/37/24
f 22/31/25 19/27/25 24/33/25 27/38/25
f 21/30/26 22/31/26 27/38/26 26/39/26
f 20/29/27 21/30/27 26/39/27 25/32/27
