# Blender v2.90.1 OBJ File: 'NaturePack_AllModels.blend'
# www.blender.org
mtllib grass5.mtl
o Grass1.001_Cube.048
v 1.964955 -0.084814 16.988476
v 1.941957 0.659702 17.105494
v 1.809754 -0.084814 16.989143
v 1.833761 0.659702 17.105961
v 1.964286 -0.084814 16.833275
v 1.941490 0.659702 16.997297
v 1.809085 -0.084814 16.833942
v 1.833295 0.659702 16.997765
v 1.919816 1.274321 16.970366
v 1.854735 1.274321 16.970648
v 1.854454 1.274321 16.905565
v 1.919536 1.274321 16.905285
v 1.804671 1.863622 16.982916
v 1.817228 -0.084814 16.757904
v 1.777535 0.575683 16.728872
v 1.700367 -0.084814 16.758408
v 1.691266 0.575683 16.729244
v 1.816724 -0.084814 16.641043
v 1.777163 0.575683 16.642605
v 1.699863 -0.084814 16.641546
v 1.690894 0.575683 16.642977
v 1.754163 1.254808 16.705702
v 1.714437 1.254808 16.705873
v 1.714266 1.254808 16.666147
v 1.753991 1.254808 16.665976
v 1.733799 1.763769 16.589615
v 1.702129 -0.084814 16.942726
v 1.553560 0.564776 17.005951
v 1.642481 -0.084814 16.844137
v 1.510972 0.564776 16.935562
v 1.800717 -0.084814 16.883078
v 1.620697 0.589491 16.965330
v 1.741068 -0.084814 16.784489
v 1.578110 0.589491 16.894941
v 1.326453 0.943433 17.120258
v 1.304327 0.943433 17.083687
v 1.326356 0.977551 17.070358
v 1.348483 0.977551 17.106930
v 1.058015 1.078274 17.257692
v 2.025132 -0.084814 16.801422
v 1.990420 0.438183 16.781618
v 1.932599 -0.084814 16.801821
v 1.925392 0.438183 16.778728
v 2.024733 -0.084814 16.708887
v 1.967152 0.438183 16.735600
v 1.932200 -0.084814 16.709288
v 1.921816 0.438183 16.713604
v 1.961683 0.975931 16.747578
v 1.934196 0.975931 16.751387
v 1.936995 0.975931 16.722649
v 1.965516 0.975931 16.719795
v 1.958832 1.292597 16.612816
v 2.177272 -0.084814 16.859058
v 2.294297 0.472186 16.933039
v 2.136806 -0.084814 16.949196
v 2.265405 0.472186 16.997395
v 2.087135 -0.084814 16.818592
v 2.232914 0.493378 16.905481
v 2.046669 -0.084814 16.908730
v 2.204022 0.493378 16.969837
v 2.485642 0.796870 17.037518
v 2.470631 0.796870 17.070953
v 2.450490 0.826126 17.061913
v 2.465501 0.826126 17.028475
v 2.713450 0.912492 17.159878
v 1.869031 -0.084814 17.137571
v 1.805589 0.319236 17.215427
v 1.807629 -0.084814 17.100601
v 1.761750 0.319236 17.189032
v 1.906001 -0.084814 17.076170
v 1.830766 0.334609 17.173613
v 1.844600 -0.084814 17.039200
v 1.786927 0.334609 17.147217
v 1.713729 0.554763 17.344158
v 1.690952 0.554763 17.330444
v 1.699213 0.575985 17.316725
v 1.721990 0.575985 17.330439
v 1.605824 0.638635 17.497599
v 2.150390 -0.084814 16.773804
v 2.139848 0.289032 16.758352
v 2.076314 -0.084814 16.774122
v 2.086722 0.289032 16.758581
v 2.150137 -0.084814 16.715229
v 2.139667 0.289032 16.716343
v 2.076062 -0.084814 16.715548
v 2.086541 0.289032 16.716572
v 2.129998 0.626978 16.706987
v 2.096129 0.626978 16.707134
v 2.096030 0.612551 16.684179
v 2.129899 0.612551 16.684032
v 2.123828 0.795093 16.680031
v 2.102066 0.795093 16.680126
v 2.101997 0.769210 16.664185
v 2.123760 0.769210 16.664091
v 2.112949 0.965825 16.680473
v 1.964683 -0.084814 16.548431
v 2.043502 0.391012 16.460251
v 2.034930 -0.084814 16.595224
v 2.093656 0.391012 16.493660
v 1.917890 -0.084814 16.618677
v 2.011636 0.409116 16.508087
v 1.988136 -0.084814 16.665470
v 2.061790 0.409116 16.541496
v 2.158487 0.668379 16.313745
v 2.184545 0.668379 16.331104
v 2.174089 0.693371 16.346802
v 2.148031 0.693371 16.329443
v 2.293676 0.767151 16.139038
vt 0.001001 0.469587
vt 0.234293 0.469587
vt 0.234293 0.353942
vt 0.001001 0.353942
vt 0.116646 0.234293
vt 0.116646 0.001001
vt 0.001001 0.001001
vt 0.001001 0.234293
vt 0.001001 0.351940
vt 0.234293 0.351940
vt 0.234293 0.236295
vt 0.001001 0.236295
vt 0.234293 0.234293
vt 0.234293 0.001001
vt 0.118648 0.001001
vt 0.118648 0.234293
vt 0.351940 0.001001
vt 0.236295 0.001001
vt 0.236295 0.116646
vt 0.351940 0.116646
vt 0.469587 0.175470
vt 0.469587 0.118648
vt 0.236295 0.118648
vt 0.236295 0.175470
vt 0.587234 0.002002
vt 0.587234 0.057823
vt 0.354943 0.057823
vt 0.293117 0.177472
vt 0.236295 0.177472
vt 0.236295 0.410764
vt 0.293117 0.410764
vt 0.469587 0.469587
vt 0.469587 0.412766
vt 0.236295 0.412766
vt 0.236295 0.469587
vt 0.351940 0.177472
vt 0.295119 0.177472
vt 0.295119 0.410764
vt 0.351940 0.410764
vt 0.646058 0.234293
vt 0.590237 0.234293
vt 0.646058 0.002002
vt 0.353942 0.001001
vt 0.353942 0.056822
vt 0.586233 0.001001
vt 0.645057 0.001001
vt 0.589236 0.001001
vt 0.589236 0.233292
vt 0.001001 0.528411
vt 0.234293 0.528411
vt 0.234293 0.471589
vt 0.001001 0.471589
vt 0.410764 0.410764
vt 0.410764 0.177472
vt 0.353942 0.177472
vt 0.353942 0.410764
vt 0.236295 0.528411
vt 0.469587 0.528411
vt 0.469587 0.471589
vt 0.236295 0.471589
vt 0.469587 0.410764
vt 0.469587 0.177472
vt 0.412766 0.177472
vt 0.412766 0.410764
vt 0.998999 0.353942
vt 0.942177 0.353942
vt 0.942177 0.410764
vt 0.998999 0.410764
vt 0.234293 0.587234
vt 0.234293 0.530413
vt 0.001001 0.530413
vt 0.001001 0.587234
vt 0.234293 0.884355
vt 0.234293 0.910764
vt 0.002002 0.910764
vt 0.528411 0.118648
vt 0.471589 0.118648
vt 0.471589 0.351940
vt 0.528411 0.351940
vt 0.587234 0.116646
vt 0.587234 0.059825
vt 0.353942 0.059825
vt 0.353942 0.116646
vt 0.587234 0.118648
vt 0.530413 0.118648
vt 0.530413 0.351940
vt 0.587234 0.351940
vt 0.001001 0.909763
vt 0.001001 0.883354
vt 0.233292 0.883354
vt 0.884355 0.704881
vt 0.910764 0.704881
vt 0.910764 0.472590
vt 0.883354 0.471589
vt 0.909763 0.471589
vt 0.883354 0.703880
vt 0.236295 0.587234
vt 0.469587 0.587234
vt 0.469587 0.530413
vt 0.236295 0.530413
vt 0.528411 0.587234
vt 0.528411 0.353942
vt 0.471589 0.353942
vt 0.471589 0.587234
vt 0.001001 0.646058
vt 0.234293 0.646058
vt 0.234293 0.589236
vt 0.001001 0.589236
vt 0.587234 0.587234
vt 0.587234 0.353942
vt 0.530413 0.353942
vt 0.530413 0.587234
vt 0.998999 0.412766
vt 0.942177 0.412766
vt 0.942177 0.469587
vt 0.998999 0.469587
vt 0.469587 0.646058
vt 0.469587 0.589236
vt 0.236295 0.589236
vt 0.236295 0.646058
vt 0.234293 0.913767
vt 0.234293 0.940175
vt 0.002002 0.940175
vt 0.646058 0.236295
vt 0.589236 0.236295
vt 0.589236 0.469587
vt 0.646058 0.469587
vt 0.234293 0.704881
vt 0.234293 0.648060
vt 0.001001 0.648060
vt 0.001001 0.704881
vt 0.704881 0.001001
vt 0.648060 0.001001
vt 0.648060 0.234293
vt 0.704881 0.234293
vt 0.940175 0.704881
vt 0.913767 0.704881
vt 0.940175 0.472590
vt 0.704881 0.910764
vt 0.704881 0.884355
vt 0.472590 0.910764
vt 0.471589 0.909763
vt 0.471589 0.883354
vt 0.703880 0.883354
vt 0.236295 0.704881
vt 0.469587 0.704881
vt 0.469587 0.648060
vt 0.236295 0.648060
vt 0.704881 0.469587
vt 0.704881 0.236295
vt 0.648060 0.236295
vt 0.648060 0.469587
vt 0.471589 0.646058
vt 0.704881 0.646058
vt 0.704881 0.589236
vt 0.471589 0.589236
vt 0.763705 0.234293
vt 0.763705 0.001001
vt 0.706883 0.001001
vt 0.706883 0.234293
vt 0.704881 0.530413
vt 0.648060 0.530413
vt 0.648060 0.587234
vt 0.704881 0.587234
vt 0.704881 0.940175
vt 0.704881 0.912766
vt 0.471589 0.912766
vt 0.471589 0.940175
vt 0.912766 0.471589
vt 0.939174 0.471589
vt 0.912766 0.703880
vt 0.763705 0.706883
vt 0.736295 0.706883
vt 0.736295 0.940175
vt 0.763705 0.940175
vt 0.469587 0.940175
vt 0.469587 0.912766
vt 0.236295 0.912766
vt 0.236295 0.940175
vt 0.734293 0.706883
vt 0.706883 0.706883
vt 0.706883 0.940175
vt 0.734293 0.940175
vt 0.001001 0.939174
vt 0.001001 0.912766
vt 0.233292 0.912766
vt 0.854943 0.940175
vt 0.881352 0.940175
vt 0.881352 0.707884
vt 0.853942 0.706883
vt 0.880351 0.706883
vt 0.853942 0.939174
vt 0.236295 0.763705
vt 0.469587 0.763705
vt 0.469587 0.706883
vt 0.236295 0.706883
vt 0.822528 0.234293
vt 0.822528 0.001001
vt 0.765707 0.001001
vt 0.765707 0.234293
vt 0.471589 0.763705
vt 0.704881 0.763705
vt 0.704881 0.706883
vt 0.471589 0.706883
vt 0.822528 0.469587
vt 0.822528 0.236295
vt 0.765707 0.236295
vt 0.765707 0.469587
vt 0.646058 0.530413
vt 0.589236 0.530413
vt 0.589236 0.587234
vt 0.646058 0.587234
vt 0.704881 0.881352
vt 0.704881 0.853942
vt 0.471589 0.853942
vt 0.471589 0.881352
vt 0.940175 0.943178
vt 0.940175 0.969587
vt 0.707884 0.969587
vt 0.881352 0.236295
vt 0.853942 0.236295
vt 0.853942 0.469587
vt 0.881352 0.469587
vt 0.469587 0.851940
vt 0.469587 0.824530
vt 0.236295 0.824530
vt 0.236295 0.851940
vt 0.940175 0.706883
vt 0.912766 0.706883
vt 0.912766 0.940175
vt 0.940175 0.940175
vt 0.706883 0.942177
vt 0.706883 0.968586
vt 0.939174 0.942177
vt 0.910764 0.940175
vt 0.884355 0.940175
vt 0.910764 0.707884
vt 0.909763 0.706883
vt 0.883354 0.706883
vt 0.883354 0.939174
vt 0.001001 0.881352
vt 0.234293 0.881352
vt 0.234293 0.824530
vt 0.001001 0.824530
vt 0.881352 0.234293
vt 0.881352 0.001001
vt 0.824530 0.001001
vt 0.824530 0.234293
vt 0.471589 0.822528
vt 0.704881 0.822528
vt 0.704881 0.765707
vt 0.471589 0.765707
vt 0.822528 0.704881
vt 0.822528 0.471589
vt 0.765707 0.471589
vt 0.765707 0.704881
vt 0.704881 0.471589
vt 0.648060 0.471589
vt 0.648060 0.528411
vt 0.704881 0.528411
vt 0.704881 0.851940
vt 0.704881 0.824530
vt 0.471589 0.824530
vt 0.471589 0.851940
vt 0.587234 0.998999
vt 0.587234 0.972590
vt 0.472590 0.998999
vt 0.851940 0.236295
vt 0.824530 0.236295
vt 0.824530 0.469587
vt 0.851940 0.469587
vt 0.469587 0.881352
vt 0.469587 0.853942
vt 0.236295 0.853942
vt 0.236295 0.881352
vt 0.851940 0.471589
vt 0.824530 0.471589
vt 0.824530 0.704881
vt 0.851940 0.704881
vt 0.471589 0.997998
vt 0.471589 0.971589
vt 0.586233 0.971589
vt 0.969587 0.116646
vt 0.943178 0.116646
vt 0.969587 0.002002
vt 0.968586 0.001001
vt 0.942177 0.001001
vt 0.942177 0.115645
vt 0.236295 0.822528
vt 0.469587 0.822528
vt 0.469587 0.765707
vt 0.236295 0.765707
vt 0.881352 0.704881
vt 0.881352 0.471589
vt 0.853942 0.471589
vt 0.853942 0.704881
vt 0.001001 0.822528
vt 0.234293 0.822528
vt 0.234293 0.765707
vt 0.001001 0.765707
vt 0.910764 0.234293
vt 0.910764 0.001001
vt 0.883354 0.001001
vt 0.883354 0.234293
vt 0.998999 0.498999
vt 0.998999 0.471589
vt 0.942177 0.471589
vt 0.942177 0.498999
vt 0.910764 0.236295
vt 0.883354 0.236295
vt 0.883354 0.469587
vt 0.910764 0.469587
vt 0.469587 0.998999
vt 0.469587 0.971589
vt 0.353942 0.971589
vt 0.353942 0.998999
vt 0.940175 0.001001
vt 0.912766 0.001001
vt 0.912766 0.234293
vt 0.940175 0.234293
vt 0.469587 0.910764
vt 0.469587 0.883354
vt 0.236295 0.883354
vt 0.236295 0.910764
vt 0.940175 0.236295
vt 0.912766 0.236295
vt 0.912766 0.469587
vt 0.940175 0.469587
vt 0.116646 0.972590
vt 0.116646 0.998999
vt 0.002002 0.998999
vt 0.351940 0.998999
vt 0.351940 0.971589
vt 0.236295 0.971589
vt 0.236295 0.998999
vt 0.969587 0.236295
vt 0.942177 0.236295
vt 0.942177 0.351940
vt 0.969587 0.351940
vt 0.234293 0.998999
vt 0.234293 0.971589
vt 0.118648 0.971589
vt 0.118648 0.998999
vt 0.001001 0.997998
vt 0.001001 0.971589
vt 0.115645 0.971589
vt 0.969587 0.234293
vt 0.943178 0.234293
vt 0.969587 0.119649
vt 0.968586 0.118648
vt 0.942177 0.118648
vt 0.942177 0.233292
vt 0.763705 0.704881
vt 0.763705 0.471589
vt 0.706883 0.471589
vt 0.706883 0.704881
vt 0.001001 0.763705
vt 0.234293 0.763705
vt 0.234293 0.706883
vt 0.001001 0.706883
vt 0.763705 0.469587
vt 0.763705 0.236295
vt 0.706883 0.236295
vt 0.706883 0.469587
vt 0.471589 0.704881
vt 0.704881 0.704881
vt 0.704881 0.648060
vt 0.471589 0.648060
vt 0.646058 0.471589
vt 0.589236 0.471589
vt 0.589236 0.528411
vt 0.646058 0.528411
vt 0.793117 0.706883
vt 0.765707 0.706883
vt 0.765707 0.940175
vt 0.793117 0.940175
vt 0.704881 0.969587
vt 0.704881 0.943178
vt 0.472590 0.969587
vt 0.234293 0.969587
vt 0.234293 0.942177
vt 0.001001 0.942177
vt 0.001001 0.969587
vt 0.822528 0.706883
vt 0.795119 0.706883
vt 0.795119 0.940175
vt 0.822528 0.940175
vt 0.469587 0.969587
vt 0.469587 0.942177
vt 0.236295 0.942177
vt 0.236295 0.969587
vt 0.471589 0.968586
vt 0.471589 0.942177
vt 0.703880 0.942177
vt 0.851940 0.940175
vt 0.825531 0.940175
vt 0.851940 0.707884
vt 0.850939 0.706883
vt 0.824530 0.706883
vt 0.824530 0.939174
vn 0.0042 -0.1551 0.9879
vn -0.9995 0.0316 0.0043
vn -0.9994 0.0333 0.0043
vn -0.0042 0.2150 -0.9766
vn 0.9995 0.0316 -0.0043
vn 0.9994 0.0333 -0.0043
vn 0.0000 -1.0000 -0.0000
vn -0.9994 0.0351 0.0043
vn -0.0043 0.1298 -0.9915
vn -0.0043 -0.1482 -0.9889
vn 0.0042 0.2149 0.9766
vn 0.9994 0.0351 -0.0043
vn 0.0043 -0.0204 0.9998
vn 0.9814 0.1918 -0.0042
vn -0.9964 -0.0847 0.0043
vn 0.0043 0.0442 0.9990
vn 0.0043 0.0344 0.9994
vn 0.0043 0.0392 0.9992
vn -0.9999 -0.0136 0.0043
vn -0.0043 0.0021 -1.0000
vn 0.9982 0.0598 -0.0043
vn -0.9994 0.0342 0.0043
vn -0.9992 0.0388 0.0043
vn -0.9993 0.0367 0.0043
vn -0.0042 -0.1485 -0.9889
vn -0.0043 0.0342 -0.9994
vn 0.0043 0.0342 0.9994
vn 0.9994 0.0342 -0.0043
vn 0.9993 0.0367 -0.0043
vn 0.9992 0.0388 -0.0043
vn 0.0041 0.2225 0.9749
vn 0.9992 0.0390 -0.0043
vn -0.9992 0.0390 0.0043
vn -0.8308 -0.2389 0.5027
vn -0.5192 0.0148 -0.8545
vn 0.8214 0.2799 -0.4970
vn 0.5137 0.0333 0.8573
vn -0.5348 0.0365 -0.8442
vn 0.2522 0.9556 -0.1526
vn 0.6717 0.6195 -0.4064
vn -0.7110 -0.5563 0.4302
vn 0.4996 0.0365 0.8655
vn -0.3500 -0.9125 0.2117
vn 0.4712 0.0400 0.8811
vn -0.5618 0.0400 -0.8263
vn -0.0157 0.0403 0.9991
vn -0.9995 -0.0164 0.0252
vn 0.1546 0.0393 -0.9872
vn 0.9819 0.0877 -0.1677
vn -0.9997 0.0224 0.0083
vn -0.0944 -0.3204 -0.9426
vn 0.2509 -0.0092 -0.9680
vn 0.0099 0.0572 0.9983
vn 0.9669 0.0155 -0.2546
vn 0.1264 0.3894 0.9123
vn 0.9884 0.0669 0.1363
vn -0.9947 0.0350 -0.0969
vn 0.8859 -0.2389 0.3977
vn -0.4078 0.0148 0.9129
vn -0.8758 0.2799 -0.3932
vn 0.4132 0.0333 -0.9100
vn -0.3904 0.0365 0.9199
vn -0.2689 0.9556 -0.1207
vn -0.7162 0.6194 -0.3215
vn 0.7581 -0.5563 0.3403
vn 0.4280 0.0365 -0.9030
vn 0.3732 -0.9125 0.1675
vn 0.4570 0.0400 -0.8886
vn -0.3603 0.0399 0.9320
vn -0.5008 -0.2389 0.8319
vn -0.8576 0.0148 -0.5141
vn 0.4952 0.2799 -0.8225
vn 0.8540 0.0333 0.5192
vn -0.8666 0.0365 -0.4977
vn 0.1520 0.9556 -0.2525
vn 0.4049 0.6195 -0.6726
vn -0.4286 -0.5563 0.7119
vn 0.8453 0.0365 0.5330
vn -0.2111 -0.9125 0.3504
vn 0.8275 0.0400 0.5601
vn -0.8821 0.0400 -0.4693
vn 0.0043 0.0414 0.9991
vn -0.9996 0.0280 0.0043
vn -0.9996 0.0283 -0.0018
vn -0.9996 0.0282 0.0011
vn -0.0043 0.0029 -1.0000
vn 0.9996 0.0280 -0.0043
vn 0.9996 0.0282 -0.0075
vn 0.9995 0.0283 -0.0104
vn -0.0043 -0.0995 -0.9950
vn 0.9988 0.0324 -0.0379
vn 0.0042 0.1504 0.9886
vn 0.0043 0.1543 0.9880
vn 0.9995 0.0283 -0.0106
vn -0.9996 0.0283 -0.0020
vn -0.0042 0.0828 -0.9966
vn -0.9990 0.0324 -0.0292
vn -0.0043 -0.1264 -0.9920
vn 0.0043 0.1585 0.9874
vn 0.0044 -0.0023 1.0000
vn 0.9922 0.0635 -0.1074
vn -0.9931 0.0635 -0.0988
vn 0.5383 -0.2389 -0.8082
vn 0.8332 0.0148 0.5528
vn -0.5322 0.2799 0.7990
vn -0.8294 0.0333 -0.5576
vn 0.8429 0.0365 0.5368
vn -0.1634 0.9556 0.2453
vn -0.4352 0.6194 0.6534
vn 0.4607 -0.5563 -0.6916
vn -0.8201 0.0365 -0.5710
vn 0.2268 -0.9125 -0.3404
vn -0.8011 0.0400 -0.5972
vn 0.8598 0.0400 0.5091
usemtl Grass1_1.001
s 1
f 1/1/1 2/2/1 4/3/1 3/4/1
f 3/5/2 4/6/3 8/7/3 7/8/2
f 7/9/4 8/10/4 6/11/4 5/12/4
f 5/13/5 6/14/6 2/15/6 1/16/5
f 3/17/7 7/18/7 5/19/7 1/20/7
f 8/21/3 4/22/3 10/23/8 11/24/8
f 12/25/9 11/26/9 13/27/9
f 6/28/10 8/29/10 11/30/10 12/31/10
f 4/32/11 2/33/11 9/34/11 10/35/11
f 2/36/6 6/37/6 12/38/12 9/39/12
f 10/40/13 9/41/13 13/42/13
f 9/43/14 12/44/14 13/45/14
f 11/46/15 10/47/15 13/48/15
f 14/49/16 15/50/17 17/51/18 16/52/16
f 16/53/19 17/54/19 21/55/19 20/56/19
f 20/57/20 21/58/20 19/59/20 18/60/20
f 18/61/21 19/62/21 15/63/21 14/64/21
f 16/65/7 20/66/7 18/67/7 14/68/7
f 21/69/22 17/70/22 23/71/23 24/72/24
f 25/73/25 24/74/25 26/75/25
f 19/76/26 21/77/26 24/78/26 25/79/26
f 17/80/18 15/81/17 22/82/27 23/83/27
f 15/84/28 19/85/28 25/86/29 22/87/30
f 23/88/31 22/89/31 26/90/31
f 22/91/30 25/92/29 26/93/32
f 24/94/24 23/95/23 26/96/33
f 27/97/34 28/98/34 30/99/34 29/100/34
f 29/101/35 30/102/35 34/103/35 33/104/35
f 33/105/36 34/106/36 32/107/36 31/108/36
f 31/109/37 32/110/37 28/111/37 27/112/37
f 29/113/7 33/114/7 31/115/7 27/116/7
f 34/117/38 30/118/38 36/119/38 37/120/38
f 38/121/39 37/122/39 39/123/39
f 32/124/40 34/125/40 37/126/40 38/127/40
f 30/128/41 28/129/41 35/130/41 36/131/41
f 28/132/42 32/133/42 38/134/42 35/135/42
f 36/136/43 35/137/43 39/138/43
f 35/139/44 38/140/44 39/141/44
f 37/142/45 36/143/45 39/144/45
f 40/145/46 41/146/46 43/147/46 42/148/46
f 42/149/47 43/150/47 47/151/47 46/152/47
f 46/153/48 47/154/48 45/155/48 44/156/48
f 44/157/49 45/158/49 41/159/49 40/160/49
f 42/161/7 46/162/7 44/163/7 40/164/7
f 47/165/50 43/166/50 49/167/50 50/168/50
f 51/169/51 50/170/51 52/171/51
f 45/172/52 47/173/52 50/174/52 51/175/52
f 43/176/53 41/177/53 48/178/53 49/179/53
f 41/180/54 45/181/54 51/182/54 48/183/54
f 49/184/55 48/185/55 52/186/55
f 48/187/56 51/188/56 52/189/56
f 50/190/57 49/191/57 52/192/57
f 53/193/58 54/194/58 56/195/58 55/196/58
f 55/197/59 56/198/59 60/199/59 59/200/59
f 59/201/60 60/202/60 58/203/60 57/204/60
f 57/205/61 58/206/61 54/207/61 53/208/61
f 55/209/7 59/210/7 57/211/7 53/212/7
f 60/213/62 56/214/62 62/215/62 63/216/62
f 64/217/63 63/218/63 65/219/63
f 58/220/64 60/221/64 63/222/64 64/223/64
f 56/224/65 54/225/65 61/226/65 62/227/65
f 54/228/66 58/229/66 64/230/66 61/231/66
f 62/232/67 61/233/67 65/234/67
f 61/235/68 64/236/68 65/237/68
f 63/238/69 62/239/69 65/240/69
f 66/241/70 67/242/70 69/243/70 68/244/70
f 68/245/71 69/246/71 73/247/71 72/248/71
f 72/249/72 73/250/72 71/251/72 70/252/72
f 70/253/73 71/254/73 67/255/73 66/256/73
f 68/257/7 72/258/7 70/259/7 66/260/7
f 73/261/74 69/262/74 75/263/74 76/264/74
f 77/265/75 76/266/75 78/267/75
f 71/268/76 73/269/76 76/270/76 77/271/76
f 69/272/77 67/273/77 74/274/77 75/275/77
f 67/276/78 71/277/78 77/278/78 74/279/78
f 75/280/79 74/281/79 78/282/79
f 74/283/80 77/284/80 78/285/80
f 76/286/81 75/287/81 78/288/81
f 79/289/82 80/290/82 82/291/82 81/292/82
f 81/293/83 82/294/84 86/295/85 85/296/83
f 85/297/86 86/298/86 84/299/86 83/300/86
f 83/301/87 84/302/88 80/303/89 79/304/87
f 81/305/7 85/306/7 83/307/7 79/308/7
f 84/309/90 86/310/90 89/311/90 90/312/90
f 87/313/91 90/314/91 94/315/91 91/316/91
f 82/317/92 80/318/92 87/319/93 88/320/93
f 80/321/89 84/322/88 90/323/94 87/324/94
f 86/325/85 82/326/84 88/327/95 89/328/95
f 94/329/96 93/330/96 95/331/96
f 89/332/97 88/333/97 92/334/97 93/335/97
f 90/336/98 89/337/98 93/338/98 94/339/98
f 88/340/93 87/341/93 91/342/99 92/343/99
f 92/344/100 91/345/100 95/346/100
f 91/347/101 94/348/101 95/349/101
f 93/350/102 92/351/102 95/352/102
f 96/353/103 97/354/103 99/355/103 98/356/103
f 98/357/104 99/358/104 103/359/104 102/360/104
f 102/361/105 103/362/105 101/363/105 100/364/105
f 100/365/106 101/366/106 97/367/106 96/368/106
f 98/369/7 102/370/7 100/371/7 96/372/7
f 103/373/107 99/374/107 105/375/107 106/376/107
f 107/377/108 106/378/108 108/379/108
f 101/380/109 103/381/109 106/382/109 107/383/109
f 99/384/110 97/385/110 104/386/110 105/387/110
f 97/388/111 101/389/111 107/390/111 104/391/111
f 105/392/112 104/393/112 108/394/112
f 104/395/113 107/396/113 108/397/113
f 106/398/114 105/399/114 108/400/114
