# Blender v2.90.1 OBJ File: 'NaturePack_AllModels.blend'
# www.blender.org
mtllib grass6.mtl
o Grass1_Cone.009
v 14.304232 0.216004 20.173513
v 14.273880 0.243784 20.135958
v 14.327917 0.246099 20.094000
v 14.358269 0.218320 20.131556
v 14.440512 0.428236 20.289507
v 14.227880 -0.066587 20.069981
v 14.167127 -0.020008 20.013779
v 14.234999 -0.010870 19.947983
v 14.295752 -0.057449 20.004185
v 14.088564 0.267370 19.967817
v 14.144638 0.289374 19.975449
v 14.135909 0.285949 20.049467
v 14.079836 0.263944 20.041836
v 13.928508 0.520888 20.008642
v 14.182699 -0.057513 19.956886
v 14.279057 -0.019700 19.956886
v 14.279057 -0.019700 20.060398
v 14.182699 -0.057513 20.060398
v 14.316375 0.242050 19.902452
v 14.290016 0.262239 19.947184
v 14.230492 0.259097 19.913527
v 14.256850 0.238908 19.868795
v 14.338647 0.474648 19.752548
v 14.292210 -0.056021 19.985973
v 14.258009 -0.021329 20.067495
v 14.170435 -0.021329 20.030756
v 14.204637 -0.056021 19.949234
vt 0.250000 0.490000
vt 0.250000 0.250000
vt 0.490000 0.250000
vt 0.250000 0.010000
vt 0.010000 0.250000
vt 0.490000 0.250000
vt 0.250000 0.490000
vt 0.750000 0.490000
vt 0.990000 0.250000
vt 0.750000 0.010000
vt 0.510000 0.250000
vt 0.010000 0.250000
vt 0.250000 0.010000
vt 0.250000 0.490000
vt 0.250000 0.250000
vt 0.490000 0.250000
vt 0.250000 0.010000
vt 0.010000 0.250000
vt 0.490000 0.250000
vt 0.250000 0.490000
vt 0.750000 0.490000
vt 0.990000 0.250000
vt 0.750000 0.010000
vt 0.510000 0.250000
vt 0.010000 0.250000
vt 0.250000 0.010000
vt 0.250000 0.490000
vt 0.250000 0.250000
vt 0.490000 0.250000
vt 0.250000 0.010000
vt 0.010000 0.250000
vt 0.490000 0.250000
vt 0.250000 0.490000
vt 0.750000 0.490000
vt 0.990000 0.250000
vt 0.750000 0.010000
vt 0.510000 0.250000
vt 0.010000 0.250000
vt 0.250000 0.010000
vn -0.7342 0.1048 0.6708
vn -0.4093 0.7731 -0.4845
vn 0.8120 0.1128 -0.5727
vn 0.4888 -0.6387 0.5943
vn -0.7310 -0.0365 0.6814
vn -0.2829 -0.8661 -0.4121
vn 0.6212 -0.4264 0.6575
vn 0.7553 0.1111 -0.6459
vn -0.5864 0.5371 -0.6064
vn 0.0573 0.1938 -0.9794
vn 0.7342 0.6686 0.1175
vn -0.1499 0.0393 0.9879
vn -0.8479 -0.5154 -0.1238
vn 0.0278 0.0565 -0.9980
vn 0.3653 -0.9309 -0.0000
vn -0.9551 -0.2917 -0.0526
vn -0.0593 0.0237 0.9980
vn 0.9104 0.4104 0.0527
vn 0.8810 0.1938 0.4316
vn -0.3925 0.6686 0.6316
vn -0.8530 0.0393 -0.5204
vn 0.4422 -0.5154 -0.7340
vn 0.9095 0.0565 0.4117
vn -0.1413 -0.9309 0.3369
vn 0.4180 -0.2917 -0.8604
vn -0.8973 0.0237 -0.4407
vn -0.4008 0.4104 0.8191
usemtl Grass1_1
s off
f 1/1/1 5/2/1 2/3/1
f 2/3/2 5/2/2 3/4/2
f 3/4/3 5/2/3 4/5/3
f 4/5/4 5/2/4 1/1/4
f 1/1/5 2/3/5 7/6/5 6/7/5
f 6/8/6 7/9/6 8/10/6 9/11/6
f 4/5/7 1/1/7 6/7/7 9/12/7
f 3/4/8 4/5/8 9/12/8 8/13/8
f 2/3/9 3/4/9 8/13/9 7/6/9
f 10/14/10 14/15/10 11/16/10
f 11/16/11 14/15/11 12/17/11
f 12/17/12 14/15/12 13/18/12
f 13/18/13 14/15/13 10/14/13
f 10/14/14 11/16/14 16/19/14 15/20/14
f 15/21/15 16/22/15 17/23/15 18/24/15
f 13/18/16 10/14/16 15/20/16 18/25/16
f 12/17/17 13/18/17 18/25/17 17/26/17
f 11/16/18 12/17/18 17/26/18 16/19/18
f 19/27/19 23/28/19 20/29/19
f 20/29/20 23/28/20 21/30/20
f 21/30/21 23/28/21 22/31/21
f 22/31/22 23/28/22 19/27/22
f 19/27/23 20/29/23 25/32/23 24/33/23
f 24/34/24 25/35/24 26/36/24 27/37/24
f 22/31/25 19/27/25 24/33/25 27/38/25
f 21/30/26 22/31/26 27/38/26 26/39/26
f 20/29/27 21/30/27 26/39/27 25/32/27
