# Blender v2.90.1 OBJ File: 'NaturePack_AllModels.blend'
# www.blender.org
mtllib grass11.mtl
o Grass6_Cone.025
v 17.549742 0.424417 19.973545
v 17.619457 0.424417 19.982376
v 17.608606 0.424417 20.068043
v 17.538889 0.424417 20.059212
v 17.536606 0.552775 20.020794
v 17.537844 -0.034342 19.984030
v 17.611372 -0.034342 19.984030
v 17.611372 -0.034342 20.057558
v 17.537844 -0.034342 20.057558
v 17.420033 0.287628 19.992037
v 17.477612 0.299930 19.977201
v 17.495438 0.303738 20.049551
v 17.437859 0.291436 20.064386
v 17.356899 0.478862 20.020794
v 17.472876 -0.045501 19.969038
v 17.574102 -0.023874 19.969038
v 17.574102 -0.023874 20.072550
v 17.472876 -0.045501 20.072550
v 17.590214 0.308875 19.833508
v 17.586287 0.313438 19.868755
v 17.542740 0.309517 19.864412
v 17.546665 0.304955 19.829165
v 17.544979 0.571303 19.754723
v 17.631050 -0.026777 19.849514
v 17.632301 -0.015750 19.928766
v 17.552513 -0.021551 19.930832
v 17.551262 -0.032579 19.851580
v 17.727947 0.298192 19.995554
v 17.713350 0.298707 20.011692
v 17.677572 0.303068 19.986954
v 17.692167 0.302552 19.970818
v 17.785883 0.479741 19.958815
v 17.716682 -0.039311 19.995054
v 17.675840 -0.036907 20.020237
v 17.634296 -0.029950 19.952196
v 17.675138 -0.032354 19.927011
v 17.599663 0.291727 20.217722
v 17.595818 0.299437 20.183018
v 17.639460 0.298605 20.177996
v 17.643305 0.290895 20.212700
v 17.633814 0.377644 20.259628
v 17.576540 -0.043675 20.178263
v 17.558012 -0.026367 20.102360
v 17.635788 -0.025703 20.083527
v 17.654316 -0.043011 20.159430
v 17.414219 0.238300 19.881990
v 17.431929 0.242976 19.883797
v 17.432821 0.244486 19.920721
v 17.415113 0.239810 19.918915
v 17.377220 0.410012 19.894577
v 17.487444 -0.037489 19.871044
v 17.523790 -0.027496 19.886192
v 17.498829 -0.031827 19.948942
v 17.462482 -0.041820 19.933794
v 17.751564 0.284281 20.196413
v 17.712278 0.300255 20.152962
v 17.767290 0.298531 20.102589
v 17.806576 0.282557 20.146040
v 17.876699 0.553827 20.253361
v 17.701870 -0.048882 20.163830
v 17.625834 -0.021565 20.099123
v 17.693132 -0.020517 20.020485
v 17.769169 -0.047834 20.085190
v 17.730413 0.211463 19.856092
v 17.722084 0.214608 19.869940
v 17.692173 0.218188 19.856312
v 17.700500 0.215044 19.842464
v 17.778147 0.338604 19.800364
v 17.702597 -0.039347 19.895588
v 17.676342 -0.031830 19.919559
v 17.635801 -0.030196 19.874643
v 17.662056 -0.037713 19.850672
v 17.407076 0.155273 20.211939
v 17.435259 0.169226 20.190859
v 17.463924 0.166524 20.227398
v 17.435741 0.152572 20.248478
v 17.354567 0.312223 20.302513
v 17.443474 -0.046716 20.162939
v 17.486139 -0.022648 20.120918
v 17.531631 -0.023377 20.166693
v 17.488966 -0.047444 20.208714
vt 0.250000 0.490000
vt 0.250000 0.250000
vt 0.490000 0.250000
vt 0.250000 0.010000
vt 0.010000 0.250000
vt 0.490000 0.250000
vt 0.250000 0.490000
vt 0.750000 0.490000
vt 0.990000 0.250000
vt 0.750000 0.010000
vt 0.510000 0.250000
vt 0.010000 0.250000
vt 0.250000 0.010000
vt 0.250000 0.490000
vt 0.250000 0.250000
vt 0.490000 0.250000
vt 0.250000 0.010000
vt 0.010000 0.250000
vt 0.490000 0.250000
vt 0.250000 0.490000
vt 0.750000 0.490000
vt 0.990000 0.250000
vt 0.750000 0.010000
vt 0.510000 0.250000
vt 0.010000 0.250000
vt 0.250000 0.010000
vt 0.250000 0.490000
vt 0.250000 0.250000
vt 0.490000 0.250000
vt 0.250000 0.010000
vt 0.010000 0.250000
vt 0.490000 0.250000
vt 0.250000 0.490000
vt 0.750000 0.490000
vt 0.990000 0.250000
vt 0.750000 0.010000
vt 0.510000 0.250000
vt 0.010000 0.250000
vt 0.250000 0.010000
vt 0.250000 0.490000
vt 0.250000 0.250000
vt 0.490000 0.250000
vt 0.250000 0.010000
vt 0.010000 0.250000
vt 0.490000 0.250000
vt 0.250000 0.490000
vt 0.750000 0.490000
vt 0.990000 0.250000
vt 0.750000 0.010000
vt 0.510000 0.250000
vt 0.010000 0.250000
vt 0.250000 0.010000
vt 0.250000 0.490000
vt 0.250000 0.250000
vt 0.490000 0.250000
vt 0.250000 0.010000
vt 0.010000 0.250000
vt 0.490000 0.250000
vt 0.250000 0.490000
vt 0.750000 0.490000
vt 0.990000 0.250000
vt 0.750000 0.010000
vt 0.510000 0.250000
vt 0.010000 0.250000
vt 0.250000 0.010000
vt 0.250000 0.490000
vt 0.250000 0.250000
vt 0.490000 0.250000
vt 0.250000 0.010000
vt 0.010000 0.250000
vt 0.490000 0.250000
vt 0.250000 0.490000
vt 0.750000 0.490000
vt 0.990000 0.250000
vt 0.750000 0.010000
vt 0.510000 0.250000
vt 0.010000 0.250000
vt 0.250000 0.010000
vt 0.250000 0.490000
vt 0.250000 0.250000
vt 0.490000 0.250000
vt 0.250000 0.010000
vt 0.010000 0.250000
vt 0.490000 0.250000
vt 0.250000 0.490000
vt 0.750000 0.490000
vt 0.990000 0.250000
vt 0.750000 0.010000
vt 0.510000 0.250000
vt 0.010000 0.250000
vt 0.250000 0.010000
vt 0.250000 0.490000
vt 0.250000 0.250000
vt 0.490000 0.250000
vt 0.250000 0.010000
vt 0.010000 0.250000
vt 0.490000 0.250000
vt 0.250000 0.490000
vt 0.750000 0.490000
vt 0.990000 0.250000
vt 0.750000 0.010000
vt 0.510000 0.250000
vt 0.010000 0.250000
vt 0.250000 0.010000
vt 0.250000 0.490000
vt 0.250000 0.250000
vt 0.490000 0.250000
vt 0.250000 0.010000
vt 0.010000 0.250000
vt 0.490000 0.250000
vt 0.250000 0.490000
vt 0.750000 0.490000
vt 0.990000 0.250000
vt 0.750000 0.010000
vt 0.510000 0.250000
vt 0.010000 0.250000
vt 0.250000 0.010000
vn 0.1175 0.3536 -0.9280
vn 0.8497 0.5162 0.1076
vn -0.1205 0.2827 0.9516
vn -0.9906 -0.0552 -0.1255
vn 0.0616 -0.0145 -0.9980
vn 0.0000 -1.0000 0.0000
vn -0.9976 0.0134 -0.0680
vn -0.0616 -0.0133 0.9980
vn 0.9977 -0.0064 0.0680
vn -0.2609 0.0588 -0.9636
vn 0.7820 0.5819 -0.2233
vn 0.1787 0.2955 0.9385
vn -0.9100 -0.3368 0.2419
vn -0.0982 0.0249 -0.9949
vn 0.2089 -0.9779 -0.0000
vn -0.9860 -0.1316 0.1028
vn 0.0801 0.0604 0.9950
vn 0.9612 0.2561 -0.1030
vn 0.9775 0.1937 0.0838
vn -0.1258 0.3843 0.9146
vn -0.9937 -0.0359 -0.1060
vn 0.1195 -0.2666 -0.9564
vn 0.9915 0.1301 0.0055
vn 0.0753 -0.9878 0.1363
vn 0.0228 -0.0554 -0.9982
vn -0.9995 -0.0241 -0.0201
vn -0.0328 0.1853 0.9821
vn 0.7363 -0.0996 0.6693
vn -0.4816 0.4180 0.7703
vn -0.6962 0.3249 -0.6401
vn 0.5109 -0.3242 -0.7962
vn 0.5962 -0.0336 0.8022
vn -0.0881 -0.9950 -0.0479
vn 0.7687 0.0098 -0.6395
vn -0.5862 0.1467 -0.7968
vn -0.7625 0.0669 0.6436
vn -0.9414 0.2917 0.1691
vn -0.0665 0.7146 -0.6964
vn 0.9859 0.1490 -0.0761
vn 0.0924 -0.4659 0.8800
vn -0.9765 0.0520 0.2093
vn -0.0430 -0.9763 -0.2121
vn 0.1908 -0.1381 0.9719
vn 0.9810 0.0528 -0.1865
vn -0.1855 0.2666 -0.9458
vn 0.0776 0.0895 -0.9930
vn 0.9490 0.3131 -0.0358
vn -0.1303 0.1119 0.9851
vn -0.9766 -0.2128 0.0324
vn 0.2736 0.0977 -0.9569
vn 0.2520 -0.9672 0.0335
vn -0.9496 -0.2071 -0.2352
vn -0.3023 0.0122 0.9531
vn 0.9308 0.2818 0.2327
vn -0.6969 0.1767 0.6951
vn -0.5363 0.5876 -0.6058
vn 0.7520 0.0651 -0.6560
vn 0.6047 -0.4232 0.6747
vn -0.6748 0.0431 0.7367
vn -0.1942 -0.9645 -0.1790
vn 0.7122 -0.1887 0.6762
vn 0.6915 0.0400 -0.7213
vn -0.6888 0.3115 -0.6546
vn 0.8450 -0.0859 0.5278
vn -0.2855 0.5639 0.7749
vn -0.7828 0.3079 -0.5408
vn 0.3160 -0.4780 -0.8196
vn 0.7395 0.0112 0.6731
vn -0.1713 -0.9780 0.1190
vn 0.6246 -0.1547 -0.7655
vn -0.7201 0.0999 -0.6867
vn -0.6118 0.2302 0.7568
vn -0.6493 0.2053 -0.7323
vn 0.6051 0.6732 -0.4249
vn 0.5901 0.0270 0.8068
vn -0.6899 -0.5209 0.5027
vn -0.6836 0.0679 -0.7266
vn 0.2571 -0.9278 -0.2703
vn -0.7151 -0.2989 0.6318
vn 0.6615 0.0119 0.7499
vn 0.6838 0.4172 -0.5986
usemtl Grass1_1
s off
f 1/1/1 5/2/1 2/3/1
f 2/3/2 5/2/2 3/4/2
f 3/4/3 5/2/3 4/5/3
f 4/5/4 5/2/4 1/1/4
f 1/1/5 2/3/5 7/6/5 6/7/5
f 6/8/6 7/9/6 8/10/6 9/11/6
f 4/5/7 1/1/7 6/7/7 9/12/7
f 3/4/8 4/5/8 9/12/8 8/13/8
f 2/3/9 3/4/9 8/13/9 7/6/9
f 10/14/10 14/15/10 11/16/10
f 11/16/11 14/15/11 12/17/11
f 12/17/12 14/15/12 13/18/12
f 13/18/13 14/15/13 10/14/13
f 10/14/14 11/16/14 16/19/14 15/20/14
f 15/21/15 16/22/15 17/23/15 18/24/15
f 13/18/16 10/14/16 15/20/16 18/25/16
f 12/17/17 13/18/17 18/25/17 17/26/17
f 11/16/18 12/17/18 17/26/18 16/19/18
f 19/27/19 23/28/19 20/29/19
f 20/29/20 23/28/20 21/30/20
f 21/30/21 23/28/21 22/31/21
f 22/31/22 23/28/22 19/27/22
f 19/27/23 20/29/23 25/32/23 24/33/23
f 24/34/24 25/35/24 26/36/24 27/37/24
f 22/31/25 19/27/25 24/33/25 27/38/25
f 21/30/26 22/31/26 27/38/26 26/39/26
f 20/29/27 21/30/27 26/39/27 25/32/27
f 28/40/28 32/41/28 29/42/28
f 29/42/29 32/41/29 30/43/29
f 30/43/30 32/41/30 31/44/30
f 31/44/31 32/41/31 28/40/31
f 28/40/32 29/42/32 34/45/32 33/46/32
f 33/47/33 34/48/33 35/49/33 36/50/33
f 31/44/34 28/40/34 33/46/34 36/51/34
f 30/43/35 31/44/35 36/51/35 35/52/35
f 29/42/36 30/43/36 35/52/36 34/45/36
f 37/53/37 41/54/37 38/55/37
f 38/55/38 41/54/38 39/56/38
f 39/56/39 41/54/39 40/57/39
f 40/57/40 41/54/40 37/53/40
f 37/53/41 38/55/41 43/58/41 42/59/41
f 42/60/42 43/61/42 44/62/42 45/63/42
f 40/57/43 37/53/43 42/59/43 45/64/43
f 39/56/44 40/57/44 45/64/44 44/65/44
f 38/55/45 39/56/45 44/65/45 43/58/45
f 46/66/46 50/67/46 47/68/46
f 47/68/47 50/67/47 48/69/47
f 48/69/48 50/67/48 49/70/48
f 49/70/49 50/67/49 46/66/49
f 46/66/50 47/68/50 52/71/50 51/72/50
f 51/73/51 52/74/51 53/75/51 54/76/51
f 49/70/52 46/66/52 51/72/52 54/77/52
f 48/69/53 49/70/53 54/77/53 53/78/53
f 47/68/54 48/69/54 53/78/54 52/71/54
f 55/79/55 59/80/55 56/81/55
f 56/81/56 59/80/56 57/82/56
f 57/82/57 59/80/57 58/83/57
f 58/83/58 59/80/58 55/79/58
f 55/79/59 56/81/59 61/84/59 60/85/59
f 60/86/60 61/87/60 62/88/60 63/89/60
f 58/83/61 55/79/61 60/85/61 63/90/61
f 57/82/62 58/83/62 63/90/62 62/91/62
f 56/81/63 57/82/63 62/91/63 61/84/63
f 64/92/64 68/93/64 65/94/64
f 65/94/65 68/93/65 66/95/65
f 66/95/66 68/93/66 67/96/66
f 67/96/67 68/93/67 64/92/67
f 64/92/68 65/94/68 70/97/68 69/98/68
f 69/99/69 70/100/69 71/101/69 72/102/69
f 67/96/70 64/92/70 69/98/70 72/103/70
f 66/95/71 67/96/71 72/103/71 71/104/71
f 65/94/72 66/95/72 71/104/72 70/97/72
f 73/105/73 77/106/73 74/107/73
f 74/107/74 77/106/74 75/108/74
f 75/108/75 77/106/75 76/109/75
f 76/109/76 77/106/76 73/105/76
f 73/105/77 74/107/77 79/110/77 78/111/77
f 78/112/78 79/113/78 80/114/78 81/115/78
f 76/109/79 73/105/79 78/111/79 81/116/79
f 75/108/80 76/109/80 81/116/80 80/117/80
f 74/107/81 75/108/81 80/117/81 79/110/81
