# Blender v2.90.1 OBJ File: 'NaturePack_AllModels.blend'
# www.blender.org
mtllib grass7.mtl
o Grass2_Cone.012
v 14.942619 0.261634 20.219019
v 14.887310 0.281099 20.176004
v 14.945084 0.301578 20.110983
v 15.000393 0.282114 20.153997
v 14.986247 0.359372 20.219557
v 14.938893 -0.053662 20.099478
v 14.875299 -0.035649 20.061787
v 14.916830 -0.015789 20.001204
v 14.980425 -0.033802 20.038895
v 14.723057 0.280840 19.971094
v 14.756639 0.292269 19.975588
v 14.751411 0.290490 20.019178
v 14.717829 0.279061 20.014685
v 14.594683 0.525920 19.995136
v 14.803395 -0.047607 19.955124
v 14.879153 -0.021825 19.955124
v 14.879153 -0.021825 20.035149
v 14.803395 -0.047607 20.035149
v 14.903113 0.288557 19.896856
v 14.903059 0.301708 19.956133
v 14.828449 0.301693 19.956068
v 14.828504 0.288542 19.896791
v 14.880575 0.477908 19.825993
v 14.929805 -0.042808 19.958345
v 14.904426 -0.021073 20.056314
v 14.804074 -0.026570 20.031538
v 14.829453 -0.048305 19.933569
vt 0.250000 0.490000
vt 0.250000 0.250000
vt 0.490000 0.250000
vt 0.250000 0.010000
vt 0.010000 0.250000
vt 0.490000 0.250000
vt 0.250000 0.490000
vt 0.750000 0.490000
vt 0.990000 0.250000
vt 0.750000 0.010000
vt 0.510000 0.250000
vt 0.010000 0.250000
vt 0.250000 0.010000
vt 0.250000 0.490000
vt 0.250000 0.250000
vt 0.490000 0.250000
vt 0.250000 0.010000
vt 0.010000 0.250000
vt 0.490000 0.250000
vt 0.250000 0.490000
vt 0.750000 0.490000
vt 0.990000 0.250000
vt 0.750000 0.010000
vt 0.510000 0.250000
vt 0.010000 0.250000
vt 0.250000 0.010000
vt 0.250000 0.490000
vt 0.250000 0.250000
vt 0.490000 0.250000
vt 0.250000 0.010000
vt 0.010000 0.250000
vt 0.490000 0.250000
vt 0.250000 0.490000
vt 0.750000 0.490000
vt 0.990000 0.250000
vt 0.750000 0.010000
vt 0.510000 0.250000
vt 0.010000 0.250000
vt 0.250000 0.010000
vn -0.5427 0.2378 0.8055
vn -0.5413 0.8099 -0.2259
vn 0.6198 0.5706 -0.5387
vn 0.7537 -0.3395 0.5627
vn -0.5973 -0.2651 0.7569
vn -0.0592 -0.9359 -0.3474
vn 0.7977 -0.2362 0.5548
vn 0.5950 0.2283 -0.7706
vn -0.7973 0.2454 -0.5515
vn 0.0841 0.1408 -0.9865
vn 0.8205 0.5586 0.1212
vn -0.1362 0.0105 0.9906
vn -0.8839 -0.4508 -0.1244
vn 0.0197 0.0628 -0.9978
vn 0.3222 -0.9467 -0.0000
vn -0.9684 -0.2455 -0.0445
vn -0.0542 0.0388 0.9978
vn 0.9278 0.3703 0.0446
vn 0.9937 0.1095 -0.0234
vn -0.0009 0.5940 0.8044
vn -0.9678 0.2455 -0.0553
vn 0.0009 -0.3504 -0.9366
vn 0.9868 0.0775 0.1424
vn 0.0000 -0.9763 0.2166
vn 0.1435 -0.1382 -0.9800
vn -0.9869 0.0075 -0.1613
vn -0.1438 0.2625 0.9542
usemtl Grass1_1
s off
f 1/1/1 5/2/1 2/3/1
f 2/3/2 5/2/2 3/4/2
f 3/4/3 5/2/3 4/5/3
f 4/5/4 5/2/4 1/1/4
f 1/1/5 2/3/5 7/6/5 6/7/5
f 6/8/6 7/9/6 8/10/6 9/11/6
f 4/5/7 1/1/7 6/7/7 9/12/7
f 3/4/8 4/5/8 9/12/8 8/13/8
f 2/3/9 3/4/9 8/13/9 7/6/9
f 10/14/10 14/15/10 11/16/10
f 11/16/11 14/15/11 12/17/11
f 12/17/12 14/15/12 13/18/12
f 13/18/13 14/15/13 10/14/13
f 10/14/14 11/16/14 16/19/14 15/20/14
f 15/21/15 16/22/15 17/23/15 18/24/15
f 13/18/16 10/14/16 15/20/16 18/25/16
f 12/17/17 13/18/17 18/25/17 17/26/17
f 11/16/18 12/17/18 17/26/18 16/19/18
f 19/27/19 23/28/19 20/29/19
f 20/29/20 23/28/20 21/30/20
f 21/30/21 23/28/21 22/31/21
f 22/31/22 23/28/22 19/27/22
f 19/27/23 20/29/23 25/32/23 24/33/23
f 24/34/24 25/35/24 26/36/24 27/37/24
f 22/31/25 19/27/25 24/33/25 27/38/25
f 21/30/26 22/31/26 27/38/26 26/39/26
f 20/29/27 21/30/27 26/39/27 25/32/27
