# Blender v2.90.1 OBJ File: 'NaturePack_AllModels.blend'
# www.blender.org
mtllib grass12.mtl
o Grass7_Cone.044
v 18.825638 0.262604 19.627558
v 18.819675 0.272137 19.658440
v 18.779984 0.271256 19.651049
v 18.785946 0.261724 19.620167
v 18.807920 0.338038 19.575596
v 18.831734 -0.041740 19.691839
v 18.827581 -0.020373 19.762094
v 18.754187 -0.019283 19.757425
v 18.758341 -0.040649 19.687170
v 18.413317 0.418143 19.991945
v 18.441652 0.423932 19.983503
v 18.465616 0.428827 20.038855
v 18.437279 0.423038 20.047297
v 18.281742 0.651202 20.015400
v 18.496365 -0.040773 19.960011
v 18.561522 -0.027461 19.960011
v 18.561522 -0.027461 20.070789
v 18.496365 -0.040773 20.070789
v 18.640524 0.479696 19.970797
v 18.731329 0.489407 19.947786
v 18.759441 0.492413 20.060003
v 18.668636 0.482703 20.083014
v 18.573910 0.784870 20.015400
v 18.668425 -0.042716 19.935125
v 18.828064 -0.025645 19.935125
v 18.828064 -0.025645 20.095675
v 18.668425 -0.042716 20.095675
v 19.020308 0.488245 19.959730
v 19.048662 0.488245 20.049538
v 18.938309 0.488245 20.084381
v 18.909954 0.488245 19.994574
v 18.926197 0.944975 19.906807
v 19.015549 -0.034173 19.908895
v 19.082745 -0.034173 20.054707
v 18.936934 -0.034173 20.121904
v 18.869738 -0.034173 19.976093
v 18.132418 0.191401 19.974386
v 18.183388 0.224021 19.982052
v 18.175453 0.218944 20.056414
v 18.124483 0.186323 20.048748
v 18.080204 0.251836 20.015400
v 18.276014 -0.052134 19.983488
v 18.329771 -0.017729 19.983488
v 18.329771 -0.017729 20.047312
v 18.276014 -0.052134 20.047312
v 18.518829 0.339523 20.344511
v 18.550856 0.345545 20.320768
v 18.580622 0.343075 20.360296
v 18.548597 0.337053 20.384037
v 18.475815 0.635673 20.436682
v 18.516491 -0.040148 20.305437
v 18.580784 -0.026213 20.243677
v 18.643576 -0.028983 20.308420
v 18.579283 -0.042918 20.370180
v 19.219114 0.276560 19.703403
v 19.213902 0.279253 19.723183
v 19.173185 0.284397 19.717442
v 19.178400 0.281705 19.697660
v 19.224693 0.473360 19.688915
v 19.197182 -0.040686 19.740002
v 19.173914 -0.033605 19.778503
v 19.109554 -0.028522 19.738676
v 19.132822 -0.035603 19.700172
v 18.761419 0.719283 20.335703
v 18.812193 0.732143 20.273535
v 18.890141 0.723373 20.335379
v 18.839369 0.710513 20.397549
v 18.766953 0.915213 20.457506
v 18.718761 -0.042723 20.236973
v 18.813646 -0.012163 20.084785
v 18.968771 -0.024392 20.179049
v 18.873884 -0.054952 20.331236
v 18.815401 0.488245 19.989119
v 18.847807 0.488245 19.979660
v 18.875210 0.488245 20.041681
v 18.842804 0.488245 20.051140
v 18.840769 0.809189 20.015400
v 18.803648 -0.034173 19.953339
v 18.878164 -0.034173 19.953339
v 18.878164 -0.034173 20.077461
v 18.803648 -0.034173 20.077461
v 18.991713 0.469340 20.314789
v 18.962456 0.472847 20.298315
v 18.988256 0.485902 20.236984
v 19.017513 0.482395 20.253460
v 18.993124 0.790850 20.345911
v 18.974020 -0.048551 20.238541
v 18.922447 -0.037353 20.185934
v 19.012039 -0.019467 20.101910
v 19.063612 -0.030665 20.154516
v 18.501642 0.140460 20.176350
v 18.540920 0.165759 20.168911
v 18.554152 0.161821 20.225382
v 18.514874 0.136522 20.232821
v 18.473919 0.187331 20.219744
v 18.609097 -0.048415 20.146246
v 18.648451 -0.021733 20.132483
v 18.664793 -0.021733 20.179207
v 18.625439 -0.048415 20.192970
v 19.134125 0.345226 20.125191
v 19.103628 0.345226 20.098818
v 19.136034 0.345226 20.061344
v 19.166531 0.345226 20.087715
v 19.189104 0.653467 20.129206
v 19.152090 -0.034553 20.158770
v 19.076962 -0.034553 20.108793
v 19.126940 -0.034553 20.033665
v 19.202068 -0.034553 20.083641
v 19.017054 0.377838 19.791084
v 18.975044 0.384880 19.804031
v 18.958260 0.380078 19.752186
v 19.000269 0.373035 19.739239
v 19.051477 0.485141 19.733866
v 19.006557 -0.039486 19.849043
v 18.917128 -0.022749 19.889656
v 18.874985 -0.029446 19.799620
v 18.964417 -0.046183 19.759007
v 18.861097 0.469340 19.769335
v 18.876331 0.472847 19.799255
v 18.820881 0.485902 19.836031
v 18.805647 0.482395 19.806108
v 18.877159 0.790850 19.742641
v 18.833595 -0.048551 19.842619
v 18.847399 -0.037353 19.914984
v 18.726267 -0.019467 19.935322
v 18.712463 -0.030665 19.862957
v 19.295452 0.191401 19.901899
v 19.249910 0.224021 19.926039
v 19.212080 0.218944 19.861530
v 19.257622 0.186323 19.837389
v 19.313053 0.251836 19.837877
v 19.174580 -0.052133 19.979954
v 19.131355 -0.017729 20.011913
v 19.093409 -0.017729 19.960594
v 19.136635 -0.052133 19.928633
v 18.630722 0.522250 19.731869
v 18.643381 0.536856 19.790142
v 18.570820 0.527116 19.808346
v 18.558161 0.512510 19.750074
v 18.547041 0.661371 19.668467
v 18.743610 -0.044666 19.792404
v 18.788326 -0.010006 19.917618
v 18.660778 -0.023497 19.966900
v 18.616062 -0.058156 19.841686
v 19.190845 0.298322 20.322935
v 19.170681 0.302583 20.314756
v 19.182364 0.306185 20.271933
v 19.202526 0.301925 20.280111
v 19.277231 0.469833 20.369955
v 19.128443 -0.039398 20.303099
v 19.091003 -0.029602 20.273140
v 19.141939 -0.029602 20.209488
v 19.179379 -0.039398 20.239447
v 18.853802 0.171529 20.493025
v 18.849817 0.174171 20.480131
v 18.874969 0.176405 20.468937
v 18.878954 0.173763 20.481831
v 18.865118 0.277908 20.552969
v 18.838840 -0.037943 20.455269
v 18.838537 -0.031867 20.425528
v 18.889099 -0.031867 20.425013
v 18.889402 -0.037943 20.454754
vt 0.250000 0.490000
vt 0.250000 0.250000
vt 0.490000 0.250000
vt 0.250000 0.010000
vt 0.010000 0.250000
vt 0.490000 0.250000
vt 0.250000 0.490000
vt 0.750000 0.490000
vt 0.990000 0.250000
vt 0.750000 0.010000
vt 0.510000 0.250000
vt 0.010000 0.250000
vt 0.250000 0.010000
vt 0.250000 0.490000
vt 0.250000 0.250000
vt 0.490000 0.250000
vt 0.250000 0.010000
vt 0.010000 0.250000
vt 0.490000 0.250000
vt 0.250000 0.490000
vt 0.750000 0.490000
vt 0.990000 0.250000
vt 0.750000 0.010000
vt 0.510000 0.250000
vt 0.010000 0.250000
vt 0.250000 0.010000
vt 0.250000 0.490000
vt 0.250000 0.250000
vt 0.490000 0.250000
vt 0.250000 0.010000
vt 0.010000 0.250000
vt 0.490000 0.250000
vt 0.250000 0.490000
vt 0.750000 0.490000
vt 0.990000 0.250000
vt 0.750000 0.010000
vt 0.510000 0.250000
vt 0.010000 0.250000
vt 0.250000 0.010000
vt 0.250000 0.490000
vt 0.250000 0.250000
vt 0.490000 0.250000
vt 0.250000 0.010000
vt 0.010000 0.250000
vt 0.490000 0.250000
vt 0.250000 0.490000
vt 0.750000 0.490000
vt 0.990000 0.250000
vt 0.750000 0.010000
vt 0.510000 0.250000
vt 0.010000 0.250000
vt 0.250000 0.010000
vt 0.250000 0.490000
vt 0.250000 0.250000
vt 0.490000 0.250000
vt 0.250000 0.010000
vt 0.010000 0.250000
vt 0.490000 0.250000
vt 0.250000 0.490000
vt 0.750000 0.490000
vt 0.990000 0.250000
vt 0.750000 0.010000
vt 0.510000 0.250000
vt 0.010000 0.250000
vt 0.250000 0.010000
vt 0.250000 0.490000
vt 0.250000 0.250000
vt 0.490000 0.250000
vt 0.250000 0.010000
vt 0.010000 0.250000
vt 0.490000 0.250000
vt 0.250000 0.490000
vt 0.750000 0.490000
vt 0.990000 0.250000
vt 0.750000 0.010000
vt 0.510000 0.250000
vt 0.010000 0.250000
vt 0.250000 0.010000
vt 0.250000 0.490000
vt 0.250000 0.250000
vt 0.490000 0.250000
vt 0.250000 0.010000
vt 0.010000 0.250000
vt 0.490000 0.250000
vt 0.250000 0.490000
vt 0.750000 0.490000
vt 0.990000 0.250000
vt 0.750000 0.010000
vt 0.510000 0.250000
vt 0.010000 0.250000
vt 0.250000 0.010000
vt 0.250000 0.490000
vt 0.250000 0.250000
vt 0.490000 0.250000
vt 0.250000 0.010000
vt 0.010000 0.250000
vt 0.490000 0.250000
vt 0.250000 0.490000
vt 0.750000 0.490000
vt 0.990000 0.250000
vt 0.750000 0.010000
vt 0.510000 0.250000
vt 0.010000 0.250000
vt 0.250000 0.010000
vt 0.250000 0.490000
vt 0.250000 0.250000
vt 0.490000 0.250000
vt 0.250000 0.010000
vt 0.010000 0.250000
vt 0.490000 0.250000
vt 0.250000 0.490000
vt 0.750000 0.490000
vt 0.990000 0.250000
vt 0.750000 0.010000
vt 0.510000 0.250000
vt 0.010000 0.250000
vt 0.250000 0.010000
vt 0.250000 0.490000
vt 0.250000 0.250000
vt 0.490000 0.250000
vt 0.250000 0.010000
vt 0.010000 0.250000
vt 0.490000 0.250000
vt 0.250000 0.490000
vt 0.750000 0.490000
vt 0.990000 0.250000
vt 0.750000 0.010000
vt 0.510000 0.250000
vt 0.010000 0.250000
vt 0.250000 0.010000
vt 0.250000 0.490000
vt 0.250000 0.250000
vt 0.490000 0.250000
vt 0.250000 0.010000
vt 0.010000 0.250000
vt 0.490000 0.250000
vt 0.250000 0.490000
vt 0.750000 0.490000
vt 0.990000 0.250000
vt 0.750000 0.010000
vt 0.510000 0.250000
vt 0.010000 0.250000
vt 0.250000 0.010000
vt 0.250000 0.490000
vt 0.250000 0.250000
vt 0.490000 0.250000
vt 0.250000 0.010000
vt 0.010000 0.250000
vt 0.490000 0.250000
vt 0.250000 0.490000
vt 0.750000 0.490000
vt 0.990000 0.250000
vt 0.750000 0.010000
vt 0.510000 0.250000
vt 0.010000 0.250000
vt 0.250000 0.010000
vt 0.250000 0.490000
vt 0.250000 0.250000
vt 0.490000 0.250000
vt 0.250000 0.010000
vt 0.010000 0.250000
vt 0.490000 0.250000
vt 0.250000 0.490000
vt 0.750000 0.490000
vt 0.990000 0.250000
vt 0.750000 0.010000
vt 0.510000 0.250000
vt 0.010000 0.250000
vt 0.250000 0.010000
vt 0.250000 0.490000
vt 0.250000 0.250000
vt 0.490000 0.250000
vt 0.250000 0.010000
vt 0.010000 0.250000
vt 0.490000 0.250000
vt 0.250000 0.490000
vt 0.750000 0.490000
vt 0.990000 0.250000
vt 0.750000 0.010000
vt 0.510000 0.250000
vt 0.010000 0.250000
vt 0.250000 0.010000
vt 0.250000 0.490000
vt 0.250000 0.250000
vt 0.490000 0.250000
vt 0.250000 0.010000
vt 0.010000 0.250000
vt 0.490000 0.250000
vt 0.250000 0.490000
vt 0.750000 0.490000
vt 0.990000 0.250000
vt 0.750000 0.010000
vt 0.510000 0.250000
vt 0.010000 0.250000
vt 0.250000 0.010000
vt 0.250000 0.490000
vt 0.250000 0.250000
vt 0.490000 0.250000
vt 0.250000 0.010000
vt 0.010000 0.250000
vt 0.490000 0.250000
vt 0.250000 0.490000
vt 0.750000 0.490000
vt 0.990000 0.250000
vt 0.750000 0.010000
vt 0.510000 0.250000
vt 0.010000 0.250000
vt 0.250000 0.010000
vt 0.250000 0.490000
vt 0.250000 0.250000
vt 0.490000 0.250000
vt 0.250000 0.010000
vt 0.010000 0.250000
vt 0.490000 0.250000
vt 0.250000 0.490000
vt 0.750000 0.490000
vt 0.990000 0.250000
vt 0.750000 0.010000
vt 0.510000 0.250000
vt 0.010000 0.250000
vt 0.250000 0.010000
vt 0.250000 0.490000
vt 0.250000 0.250000
vt 0.490000 0.250000
vt 0.250000 0.010000
vt 0.010000 0.250000
vt 0.490000 0.250000
vt 0.250000 0.490000
vt 0.750000 0.490000
vt 0.990000 0.250000
vt 0.750000 0.010000
vt 0.510000 0.250000
vt 0.010000 0.250000
vt 0.250000 0.010000
vn 0.9526 0.2890 0.0947
vn -0.1340 0.7661 0.6285
vn -0.9626 0.1430 -0.2300
vn 0.1663 -0.5326 -0.8299
vn 0.9953 0.0473 0.0851
vn -0.0326 -0.9568 0.2890
vn 0.1032 -0.2138 -0.9714
vn -0.9917 0.0554 -0.1161
vn -0.0991 0.3399 0.9352
vn -0.2742 -0.0581 -0.9599
vn 0.7351 0.5690 -0.3686
vn 0.2209 0.2811 0.9339
vn -0.7872 -0.4830 0.3835
vn -0.0977 0.0388 -0.9945
vn 0.2002 -0.9798 -0.0000
vn -0.9776 -0.1519 0.1455
vn 0.0750 0.0725 0.9945
vn 0.9628 0.2275 -0.1456
vn -0.2533 0.0855 -0.9636
vn 0.8381 0.4977 -0.2233
vn 0.2084 0.2753 0.9385
vn -0.9400 -0.2406 0.2419
vn -0.0951 0.0349 -0.9949
vn 0.1063 -0.9943 -0.0000
vn -0.9943 -0.0285 0.1028
vn 0.0859 0.0517 0.9950
vn 0.9825 0.1550 -0.1030
vn 0.9414 0.1595 -0.2972
vn 0.2816 0.3542 0.8918
vn -0.9496 0.0914 0.2998
vn -0.2967 -0.1700 -0.9397
vn 0.9259 0.0424 -0.3755
vn 0.0000 -1.0000 -0.0000
vn -0.3690 0.0773 -0.9262
vn -0.9258 0.0437 0.3754
vn 0.3696 0.0495 0.9279
vn -0.1601 0.4558 -0.8756
vn 0.2878 0.9529 0.0958
vn -0.3045 0.2605 0.9162
vn -0.7913 -0.5985 -0.1253
vn 0.0628 0.0159 -0.9979
vn 0.5390 -0.8423 0.0000
vn -0.8504 -0.5218 -0.0680
vn -0.0417 -0.0490 0.9979
vn 0.8452 0.5301 0.0680
vn -0.6070 0.1545 -0.7796
vn 0.7423 0.4052 -0.5337
vn 0.5951 0.0034 0.8037
vn -0.7735 -0.2881 0.5646
vn -0.6715 0.0891 -0.7357
vn 0.0898 -0.9875 -0.1293
vn -0.7477 -0.0739 0.6600
vn 0.6618 0.0169 0.7495
vn 0.7372 0.2038 -0.6442
vn 0.9667 -0.0086 0.2559
vn -0.1152 0.1789 0.9771
vn -0.9371 0.2138 -0.2761
vn 0.1298 -0.0765 -0.9886
vn 0.8966 -0.0236 0.4421
vn -0.1383 -0.9856 0.0977
vn 0.3880 -0.0978 -0.9165
vn -0.8810 0.1356 -0.4533
vn -0.3776 0.1738 0.9095
vn -0.7577 0.3598 -0.5444
vn 0.5060 0.6704 -0.5427
vn 0.7635 0.0825 0.6406
vn -0.5942 -0.4124 0.6905
vn -0.8322 0.1258 -0.5400
vn 0.0308 -0.9835 -0.1783
vn -0.5598 -0.0861 0.8242
vn 0.8288 -0.0203 0.5591
vn 0.5567 0.2154 -0.8023
vn -0.2787 0.1002 -0.9551
vn 0.9128 0.0649 -0.4033
vn 0.2785 0.1081 0.9544
vn -0.9140 0.0392 0.4038
vn -0.0880 0.0575 -0.9945
vn -0.9883 0.0468 0.1455
vn 0.0880 0.0561 0.9945
vn 0.9889 0.0302 -0.1456
vn -0.4964 -0.0815 0.8643
vn -0.9228 0.1426 -0.3579
vn 0.4961 0.2850 -0.8201
vn 0.9241 -0.0408 0.3801
vn -0.6569 -0.1002 0.7473
vn 0.0000 -0.9781 -0.2082
vn 0.7890 -0.0817 0.6089
vn 0.6570 0.2114 -0.7237
vn -0.7895 0.1572 -0.5933
vn -0.4402 0.4558 -0.7736
vn 0.3033 0.9529 -0.0046
vn 0.0150 0.2605 0.9653
vn -0.7882 -0.5986 0.1429
vn -0.2701 0.0159 -0.9627
vn 0.5088 -0.8423 -0.1780
vn -0.8251 -0.5218 0.2166
vn 0.2901 -0.0490 0.9558
vn 0.8202 0.5301 -0.2148
vn -0.6504 0.1062 0.7522
vn -0.7294 0.2645 -0.6308
vn 0.6531 0.0539 -0.7554
vn 0.7487 -0.1420 0.6475
vn -0.5850 0.0531 0.8093
vn 0.8045 0.0795 0.5886
vn 0.5850 0.0542 -0.8093
vn -0.8060 0.0517 -0.5897
vn 0.3294 0.3598 0.8729
vn -0.7219 0.6704 0.1716
vn -0.2809 0.0825 -0.9562
vn 0.8772 -0.4125 -0.2458
vn 0.3938 0.1258 0.9106
vn -0.1244 -0.9835 0.1314
vn 0.9225 -0.0861 -0.3762
vn -0.3804 -0.0203 -0.9246
vn -0.9079 0.2154 0.3596
vn 0.8920 -0.0815 -0.4446
vn 0.5702 0.1426 0.8091
vn -0.8673 0.2851 0.4081
vn -0.5589 -0.0408 -0.8282
vn 0.9608 -0.1002 -0.2583
vn -0.1153 -0.9781 0.1733
vn -0.3197 -0.0817 -0.9440
vn -0.9478 0.2114 0.2387
vn 0.3287 0.1572 0.9312
vn 0.6493 0.4559 0.6088
vn -0.2883 0.9529 0.0941
vn -0.2999 0.2605 -0.9177
vn 0.7107 -0.5986 -0.3696
vn 0.5427 0.0159 0.8398
vn -0.4334 -0.8423 0.3205
vn 0.7242 -0.5218 -0.4509
vn -0.5598 -0.0490 -0.8272
vn -0.7200 0.5301 0.4478
vn 0.8729 0.3937 -0.2883
vn 0.0742 0.7257 0.6840
vn -0.9784 0.0382 0.2030
vn -0.1513 -0.4839 -0.8620
vn 0.9293 0.1589 -0.3333
vn 0.1799 -0.9627 0.2022
vn -0.2971 -0.1703 -0.9395
vn -0.9486 -0.0556 0.3115
vn 0.2740 0.2970 0.9147
vn -0.3858 -0.0581 0.9208
vn -0.8043 0.5690 -0.1715
vn 0.4112 0.2811 -0.8671
vn 0.8542 -0.4830 0.1924
vn -0.5450 0.0388 0.8375
vn -0.1563 -0.9798 -0.1251
vn 0.8542 -0.1519 0.4972
vn 0.5628 0.0725 -0.8234
vn -0.8427 0.2275 -0.4879
vn -0.9571 -0.0580 0.2839
vn -0.3762 0.5690 -0.7313
vn 0.9317 0.2810 -0.2303
vn 0.3916 -0.4830 0.7832
vn -0.9934 0.0388 0.1078
vn -0.0020 -0.9798 -0.2001
vn 0.1555 -0.1519 0.9761
vn 0.9937 0.0725 -0.0851
vn -0.1554 0.2275 -0.9613
usemtl Grass1_1
s off
f 1/1/1 5/2/1 2/3/1
f 2/3/2 5/2/2 3/4/2
f 3/4/3 5/2/3 4/5/3
f 4/5/4 5/2/4 1/1/4
f 1/1/5 2/3/5 7/6/5 6/7/5
f 6/8/6 7/9/6 8/10/6 9/11/6
f 4/5/7 1/1/7 6/7/7 9/12/7
f 3/4/8 4/5/8 9/12/8 8/13/8
f 2/3/9 3/4/9 8/13/9 7/6/9
f 10/14/10 14/15/10 11/16/10
f 11/16/11 14/15/11 12/17/11
f 12/17/12 14/15/12 13/18/12
f 13/18/13 14/15/13 10/14/13
f 10/14/14 11/16/14 16/19/14 15/20/14
f 15/21/15 16/22/15 17/23/15 18/24/15
f 13/18/16 10/14/16 15/20/16 18/25/16
f 12/17/17 13/18/17 18/25/17 17/26/17
f 11/16/18 12/17/18 17/26/18 16/19/18
f 19/27/19 23/28/19 20/29/19
f 20/29/20 23/28/20 21/30/20
f 21/30/21 23/28/21 22/31/21
f 22/31/22 23/28/22 19/27/22
f 19/27/23 20/29/23 25/32/23 24/33/23
f 24/34/24 25/35/24 26/36/24 27/37/24
f 22/31/25 19/27/25 24/33/25 27/38/25
f 21/30/26 22/31/26 27/38/26 26/39/26
f 20/29/27 21/30/27 26/39/27 25/32/27
f 28/40/28 32/41/28 29/42/28
f 29/42/29 32/41/29 30/43/29
f 30/43/30 32/41/30 31/44/30
f 31/44/31 32/41/31 28/40/31
f 28/40/32 29/42/32 34/45/32 33/46/32
f 33/47/33 34/48/33 35/49/33 36/50/33
f 31/44/34 28/40/34 33/46/34 36/51/34
f 30/43/35 31/44/35 36/51/35 35/52/35
f 29/42/36 30/43/36 35/52/36 34/45/36
f 37/53/37 41/54/37 38/55/37
f 38/55/38 41/54/38 39/56/38
f 39/56/39 41/54/39 40/57/39
f 40/57/40 41/54/40 37/53/40
f 37/53/41 38/55/41 43/58/41 42/59/41
f 42/60/42 43/61/42 44/62/42 45/63/42
f 40/57/43 37/53/43 42/59/43 45/64/43
f 39/56/44 40/57/44 45/64/44 44/65/44
f 38/55/45 39/56/45 44/65/45 43/58/45
f 46/66/46 50/67/46 47/68/46
f 47/68/47 50/67/47 48/69/47
f 48/69/48 50/67/48 49/70/48
f 49/70/49 50/67/49 46/66/49
f 46/66/50 47/68/50 52/71/50 51/72/50
f 51/73/51 52/74/51 53/75/51 54/76/51
f 49/70/52 46/66/52 51/72/52 54/77/52
f 48/69/53 49/70/53 54/77/53 53/78/53
f 47/68/54 48/69/54 53/78/54 52/71/54
f 55/79/55 59/80/55 56/81/55
f 56/81/56 59/80/56 57/82/56
f 57/82/57 59/80/57 58/83/57
f 58/83/58 59/80/58 55/79/58
f 55/79/59 56/81/59 61/84/59 60/85/59
f 60/86/60 61/87/60 62/88/60 63/89/60
f 58/83/61 55/79/61 60/85/61 63/90/61
f 57/82/62 58/83/62 63/90/62 62/91/62
f 56/81/63 57/82/63 62/91/63 61/84/63
f 64/92/64 68/93/64 65/94/64
f 65/94/65 68/93/65 66/95/65
f 66/95/66 68/93/66 67/96/66
f 67/96/67 68/93/67 64/92/67
f 64/92/68 65/94/68 70/97/68 69/98/68
f 69/99/69 70/100/69 71/101/69 72/102/69
f 67/96/70 64/92/70 69/98/70 72/103/70
f 66/95/71 67/96/71 72/103/71 71/104/71
f 65/94/72 66/95/72 71/104/72 70/97/72
f 73/105/73 77/106/73 74/107/73
f 74/107/74 77/106/74 75/108/74
f 75/108/75 77/106/75 76/109/75
f 76/109/76 77/106/76 73/105/76
f 73/105/77 74/107/77 79/110/77 78/111/77
f 78/112/33 79/113/33 80/114/33 81/115/33
f 76/109/78 73/105/78 78/111/78 81/116/78
f 75/108/79 76/109/79 81/116/79 80/117/79
f 74/107/80 75/108/80 80/117/80 79/110/80
f 82/118/81 86/119/81 83/120/81
f 83/120/82 86/119/82 84/121/82
f 84/121/83 86/119/83 85/122/83
f 85/122/84 86/119/84 82/118/84
f 82/118/85 83/120/85 88/123/85 87/124/85
f 87/125/86 88/126/86 89/127/86 90/128/86
f 85/122/87 82/118/87 87/124/87 90/129/87
f 84/121/88 85/122/88 90/129/88 89/130/88
f 83/120/89 84/121/89 89/130/89 88/123/89
f 91/131/90 95/132/90 92/133/90
f 92/133/91 95/132/91 93/134/91
f 93/134/92 95/132/92 94/135/92
f 94/135/93 95/132/93 91/131/93
f 91/131/94 92/133/94 97/136/94 96/137/94
f 96/138/95 97/139/95 98/140/95 99/141/95
f 94/135/96 91/131/96 96/137/96 99/142/96
f 93/134/97 94/135/97 99/142/97 98/143/97
f 92/133/98 93/134/98 98/143/98 97/136/98
f 100/144/99 104/145/99 101/146/99
f 101/146/100 104/145/100 102/147/100
f 102/147/101 104/145/101 103/148/101
f 103/148/102 104/145/102 100/144/102
f 100/144/103 101/146/103 106/149/103 105/150/103
f 105/151/33 106/152/33 107/153/33 108/154/33
f 103/148/104 100/144/104 105/150/104 108/155/104
f 102/147/105 103/148/105 108/155/105 107/156/105
f 101/146/106 102/147/106 107/156/106 106/149/106
f 109/157/107 113/158/107 110/159/107
f 110/159/108 113/158/108 111/160/108
f 111/160/109 113/158/109 112/161/109
f 112/161/110 113/158/110 109/157/110
f 109/157/111 110/159/111 115/162/111 114/163/111
f 114/164/112 115/165/112 116/166/112 117/167/112
f 112/161/113 109/157/113 114/163/113 117/168/113
f 111/160/114 112/161/114 117/168/114 116/169/114
f 110/159/115 111/160/115 116/169/115 115/162/115
f 118/170/116 122/171/116 119/172/116
f 119/172/117 122/171/117 120/173/117
f 120/173/118 122/171/118 121/174/118
f 121/174/119 122/171/119 118/170/119
f 118/170/120 119/172/120 124/175/120 123/176/120
f 123/177/121 124/178/121 125/179/121 126/180/121
f 121/174/122 118/170/122 123/176/122 126/181/122
f 120/173/123 121/174/123 126/181/123 125/182/123
f 119/172/124 120/173/124 125/182/124 124/175/124
f 127/183/125 131/184/125 128/185/125
f 128/185/126 131/184/126 129/186/126
f 129/186/127 131/184/127 130/187/127
f 130/187/128 131/184/128 127/183/128
f 127/183/129 128/185/129 133/188/129 132/189/129
f 132/190/130 133/191/130 134/192/130 135/193/130
f 130/187/131 127/183/131 132/189/131 135/194/131
f 129/186/132 130/187/132 135/194/132 134/195/132
f 128/185/133 129/186/133 134/195/133 133/188/133
f 136/196/134 140/197/134 137/198/134
f 137/198/135 140/197/135 138/199/135
f 138/199/136 140/197/136 139/200/136
f 139/200/137 140/197/137 136/196/137
f 136/196/138 137/198/138 142/201/138 141/202/138
f 141/203/139 142/204/139 143/205/139 144/206/139
f 139/200/140 136/196/140 141/202/140 144/207/140
f 138/199/141 139/200/141 144/207/141 143/208/141
f 137/198/142 138/199/142 143/208/142 142/201/142
f 145/209/143 149/210/143 146/211/143
f 146/211/144 149/210/144 147/212/144
f 147/212/145 149/210/145 148/213/145
f 148/213/146 149/210/146 145/209/146
f 145/209/147 146/211/147 151/214/147 150/215/147
f 150/216/148 151/217/148 152/218/148 153/219/148
f 148/213/149 145/209/149 150/215/149 153/220/149
f 147/212/150 148/213/150 153/220/150 152/221/150
f 146/211/151 147/212/151 152/221/151 151/214/151
f 154/222/152 158/223/152 155/224/152
f 155/224/153 158/223/153 156/225/153
f 156/225/154 158/223/154 157/226/154
f 157/226/155 158/223/155 154/222/155
f 154/222/156 155/224/156 160/227/156 159/228/156
f 159/229/157 160/230/157 161/231/157 162/232/157
f 157/226/158 154/222/158 159/228/158 162/233/158
f 156/225/159 157/226/159 162/233/159 161/234/159
f 155/224/160 156/225/160 161/234/160 160/227/160
