# Blender v2.90.1 OBJ File: 'NaturePack_AllModels.blend'
# www.blender.org
mtllib huge_rock3.mtl
o BigRock1_Cube.008
v 29.987251 0.496560 -10.327811
v 28.070309 -0.289551 -10.472961
v 29.436897 1.951290 -10.924504
v 30.038843 0.208697 -10.748856
v 26.791866 0.498863 -10.431211
v 30.024664 -0.405559 -10.188064
v 29.271032 -0.470021 -10.184674
v 30.040422 -0.412119 -10.813937
v 26.681032 -0.036584 -13.370282
v 26.261665 -0.076681 -12.472735
v 26.634159 0.920125 -13.866696
v 29.665384 -0.088935 -13.882898
v 28.938242 6.689606 -13.543416
v 26.683376 6.870940 -11.518003
v 26.557119 3.055178 -11.160996
v 26.368492 3.080047 -13.793772
v 29.345434 2.709826 -13.593582
v 28.192915 3.442026 -14.019749
v 28.602325 4.653727 -10.738392
v 29.378963 3.309438 -12.892485
v 29.406235 6.307541 -13.096315
v 28.582104 6.156205 -11.026442
v 26.263962 1.112161 -10.612473
v 26.514032 5.740838 -13.689740
v 29.383139 4.702456 -11.874599
v 28.345306 1.570558 -13.987268
v 29.308867 2.604547 -11.068964
v 29.127518 3.296398 -13.869460
v 29.003143 6.658220 -12.355087
v 29.305264 4.227957 -10.786564
v 27.428698 6.737817 -13.667368
v 29.276379 3.823775 -12.516294
v 28.856167 5.679099 -10.940552
v 29.311953 5.307119 -11.084318
v 29.040562 6.464856 -13.770824
v 26.396942 3.657174 -11.173796
v 26.431116 6.127244 -13.224115
v 26.352705 4.390584 -13.778524
v 29.235670 6.298123 -11.579252
v 28.200241 7.004146 -13.649326
v 26.750248 6.881649 -12.905756
v 26.460796 6.175083 -11.090162
v 27.476130 6.834357 -11.411911
v 27.542892 -0.378153 -12.398270
v 26.249584 0.753959 -13.009266
v 26.201565 2.624695 -12.705239
v 26.373003 1.582811 -13.890710
v 28.307367 2.718874 -14.036107
v 28.992416 6.586215 -11.358957
v 26.511097 4.541358 -10.720594
v 28.488970 0.672760 -10.457817
v 27.330669 2.267319 -10.791136
v 28.220581 2.993982 -10.866838
v 27.240524 3.056690 -10.901321
v 27.617306 4.220112 -10.755396
v 29.352781 1.417588 -13.642151
v 28.954216 2.775833 -13.896526
v 29.675106 1.355462 -11.629302
v 28.525253 -0.378617 -11.839271
v 27.924728 0.871161 -10.563784
v 29.392326 3.006937 -11.688766
v 29.753441 -0.135975 -12.036714
v 26.230059 -0.307909 -10.354766
v 29.540199 0.509480 -13.771507
v 26.303982 2.763202 -11.584300
v 29.354553 3.539702 -13.585544
v 29.469919 2.790539 -12.991182
v 28.559946 3.754967 -10.737834
v 29.539919 1.868916 -12.963503
v 26.906153 0.122349 -13.776551
v 27.972742 -0.139375 -13.936376
v 27.812380 -0.206122 -13.481962
v 28.202290 6.482882 -13.930958
v 29.469894 5.625182 -13.729612
v 28.242149 5.299860 -13.602187
v 26.384537 0.221415 -13.453991
v 26.822916 2.942633 -13.745682
v 29.432825 4.426051 -13.661752
v 27.299961 5.833662 -13.764856
v 28.976273 6.863970 -12.961867
v 26.137693 -0.274471 -10.938191
v 26.930140 -0.373286 -11.061426
v 26.462456 2.324425 -10.920979
v 26.369167 4.367080 -12.032050
v 27.632664 4.764207 -13.732957
v 26.316938 6.436996 -12.167333
v 27.428949 7.011679 -12.408190
vt 0.000000 0.000000
vt 0.000000 0.000000
vt 0.000000 0.000000
vt 0.000000 0.000000
vt 0.000000 0.000000
vt 0.000000 0.000000
vt 0.000000 0.000000
vt 0.000000 0.000000
vt 0.000000 0.000000
vt 0.000000 0.000000
vt 0.000000 0.000000
vt 0.000000 0.000000
vt 0.000000 0.000000
vt 0.000000 0.000000
vt 0.000000 0.000000
vt 0.000000 0.000000
vt 0.000000 0.000000
vt 0.000000 0.000000
vt 0.000000 0.000000
vt 0.000000 0.000000
vt 0.000000 0.000000
vt 0.000000 0.000000
vt 0.000000 0.000000
vt 0.000000 0.000000
vt 0.000000 0.000000
vt 0.000000 0.000000
vt 0.000000 0.000000
vt 0.000000 0.000000
vt 0.000000 0.000000
vt 0.000000 0.000000
vt 0.000000 0.000000
vt 0.000000 0.000000
vt 0.000000 0.000000
vt 0.000000 0.000000
vt 0.000000 0.000000
vt 0.000000 0.000000
vt 0.000000 0.000000
vt 0.000000 0.000000
vt 0.000000 0.000000
vt 0.000000 0.000000
vt 0.000000 0.000000
vt 0.000000 0.000000
vt 0.000000 0.000000
vt 0.000000 0.000000
vt 0.000000 0.000000
vt 0.000000 0.000000
vt 0.000000 0.000000
vt 0.000000 0.000000
vt 0.000000 0.000000
vt 0.000000 0.000000
vt 0.000000 0.000000
vt 0.000000 0.000000
vt 0.000000 0.000000
vt 0.000000 0.000000
vt 0.000000 0.000000
vt 0.000000 0.000000
vt 0.000000 0.000000
vt 0.000000 0.000000
vt 0.000000 0.000000
vt 0.000000 0.000000
vt 0.000000 0.000000
vt 0.000000 0.000000
vt 0.000000 0.000000
vt 0.000000 0.000000
vt 0.000000 0.000000
vt 0.000000 0.000000
vt 0.000000 0.000000
vt 0.000000 0.000000
vt 0.000000 0.000000
vt 0.000000 0.000000
vt 0.000000 0.000000
vt 0.000000 0.000000
vt 0.000000 0.000000
vt 0.000000 0.000000
vt 0.000000 0.000000
vt 0.000000 0.000000
vt 0.000000 0.000000
vt 0.000000 0.000000
vt 0.000000 0.000000
vt 0.000000 0.000000
vt 0.000000 0.000000
vt 0.000000 0.000000
vt 0.000000 0.000000
vt 0.000000 0.000000
vt 0.000000 0.000000
vt 0.000000 0.000000
vt 0.000000 0.000000
vn -0.1510 0.0959 0.9839
vn -0.0375 0.3671 0.9294
vn 0.9638 0.2599 -0.0596
vn -0.0147 0.2229 0.9747
vn 0.0635 0.0502 0.9967
vn 0.0853 -0.9963 0.0126
vn 0.0219 -0.9976 -0.0650
vn -0.0679 0.1500 0.9864
vn 0.1486 -0.9565 -0.2509
vn 0.0870 0.0886 0.9923
vn 0.0205 0.1885 0.9819
vn -0.1419 0.4701 -0.8711
vn 0.7651 0.1714 0.6207
vn 0.7402 0.6292 -0.2371
vn -0.0179 0.0015 0.9998
vn -0.0241 0.2021 -0.9791
vn 0.0693 0.1615 -0.9844
vn 0.9861 -0.1576 0.0518
vn 0.3668 0.0917 0.9258
vn -0.7772 -0.1941 0.5986
vn 0.1048 -0.2115 0.9717
vn -0.3541 -0.0744 0.9323
vn -0.6665 0.5110 -0.5428
vn -0.9999 -0.0122 0.0093
vn -0.0883 -0.0571 -0.9945
vn -0.9866 0.1320 -0.0961
vn 0.9974 0.0341 0.0637
vn 0.9991 -0.0291 0.0323
vn -0.0890 -0.0535 -0.9946
vn 0.8231 -0.1204 -0.5550
vn 0.0668 -0.0025 0.9978
vn 0.0170 0.0636 -0.9978
vn -0.0045 -0.1230 0.9924
vn -0.1271 0.9883 -0.0850
vn -0.5755 -0.7597 -0.3028
vn 0.9977 -0.0095 0.0673
vn 0.1586 0.9847 0.0729
vn 0.3127 0.4525 -0.8352
vn -0.8587 0.4592 -0.2274
vn 0.4101 0.8659 -0.2864
vn -0.2406 0.2418 -0.9400
vn 0.0221 0.9845 0.1742
vn 0.3387 0.3517 0.8727
vn -0.0278 0.1879 0.9818
vn 0.9850 0.1315 0.1116
vn 0.7994 0.5788 0.1609
vn -0.5747 0.5410 -0.6141
vn 0.1424 0.7353 -0.6626
vn -0.0224 0.4662 0.8844
vn -0.0869 0.5418 0.8360
vn -0.0771 -0.1452 -0.9864
vn -0.2186 -0.9649 -0.1452
vn 0.0649 0.5710 0.8184
vn -0.9512 0.1320 -0.2789
vn 0.9889 0.0215 0.1471
vn 0.7487 0.6081 -0.2641
vn 0.5586 0.4046 0.7241
vn 0.7404 0.6664 0.0874
vn -0.1685 -0.0770 -0.9827
vn -0.7407 0.6711 -0.0305
vn 0.9827 0.0707 0.1714
vn -0.9874 0.0868 -0.1321
vn -0.5007 -0.3428 0.7949
vn 0.1527 -0.0844 0.9847
vn 0.0547 0.1831 0.9816
vn 0.9855 0.1668 0.0310
vn 0.1279 -0.0573 -0.9901
vn -0.1871 0.9823 -0.0014
vn -0.3356 0.3329 0.8812
vn 0.0169 -0.9939 0.1087
vn -0.1805 0.0755 -0.9807
vn -0.1436 -0.9800 -0.1379
vn -0.0315 -0.9980 0.0546
vn 0.0334 -0.9920 -0.1220
vn 0.9947 0.0734 -0.0725
vn -0.9859 0.0524 0.1591
vn 0.7827 0.6201 0.0533
vn 0.2137 -0.0345 -0.9763
vn 0.9949 0.0544 0.0847
vn -0.9980 -0.0156 -0.0617
vn -0.9900 -0.0025 -0.1410
vn 0.1932 0.0406 -0.9803
vn -0.0262 0.1353 0.9905
vn -0.1258 0.1800 0.9756
vn 0.1243 0.0645 -0.9901
vn 0.9997 -0.0001 0.0252
vn 0.9616 0.2293 -0.1511
vn 0.9968 0.0649 -0.0459
vn -0.2264 0.0477 0.9729
vn -0.0535 -0.0442 -0.9976
vn 0.9745 0.0258 -0.2229
vn 0.9845 0.1726 0.0325
vn 0.9660 0.2367 0.1038
vn -0.1519 -0.9883 0.0139
vn 0.9335 0.3583 0.0126
vn -0.1340 0.1427 0.9807
vn 0.9625 0.1174 -0.2447
vn 0.1884 -0.9815 -0.0340
vn 0.9653 0.2202 0.1401
vn 0.1472 0.2410 0.9593
vn 0.9930 -0.0914 0.0744
vn -0.9888 0.0067 -0.1489
vn -0.0828 -0.1305 0.9880
vn -0.0420 -0.1109 0.9929
vn -0.9922 0.0784 0.0970
vn -0.9941 -0.0061 0.1084
vn -0.1390 0.1213 0.9828
vn -0.0768 0.2213 0.9722
vn -0.8954 0.2418 0.3738
vn 0.0895 0.2657 0.9599
vn -0.1257 0.2639 0.9563
vn 0.0121 -0.0665 0.9977
vn -0.9944 0.0654 0.0828
vn -0.9942 0.0716 0.0807
vn 0.3447 0.2017 -0.9168
vn 0.9612 0.0158 -0.2756
vn 0.1857 0.0285 -0.9822
vn -0.1292 -0.9910 -0.0363
vn 0.8833 0.2397 -0.4030
vn 0.0527 -0.9905 -0.1269
vn 0.0577 -0.9979 0.0301
vn 0.0777 -0.9875 -0.1374
vn -0.2225 -0.9699 -0.0985
vn -0.9940 0.0718 0.0819
vn 0.3112 -0.0859 -0.9465
vn 0.9752 0.0677 -0.2106
vn 0.6154 0.0331 -0.7875
vn 0.8382 0.4110 -0.3586
vn -0.2875 0.8614 -0.4188
vn 0.9854 0.1687 0.0213
vn 0.2208 0.2581 0.9405
vn 0.9954 0.0490 -0.0820
vn 0.1704 -0.1685 0.9709
vn 0.0254 0.1881 -0.9818
vn 0.1884 0.0482 -0.9809
vn -0.0643 -0.0157 -0.9978
vn 0.1585 -0.0014 -0.9874
vn -0.9916 -0.0166 0.1284
vn -0.1754 -0.8800 -0.4415
vn -0.0035 0.2205 0.9754
vn -0.1641 -0.9671 -0.1943
vn -0.2644 -0.9364 -0.2308
vn -0.0288 -0.2685 -0.9628
vn 0.1773 0.1314 -0.9753
vn 0.2060 0.0547 -0.9770
vn 0.1091 0.0129 -0.9939
vn -0.8304 -0.3432 -0.4390
vn -0.9805 -0.1164 -0.1581
vn -0.9150 0.0954 -0.3919
vn 0.0843 0.2452 -0.9658
vn 0.5884 -0.1546 -0.7936
vn -0.1874 -0.1731 -0.9669
vn 0.9795 -0.0088 -0.2012
vn 0.2110 0.9640 0.1616
vn 0.9934 -0.0934 -0.0660
vn 0.1986 0.9308 0.3068
vn 0.9974 0.0340 0.0636
vn -0.1932 -0.0084 -0.9811
vn 0.1188 0.9906 0.0678
vn -0.9934 -0.0723 -0.0896
vn 0.9887 -0.0110 -0.1494
vn -0.9944 0.0631 0.0843
vn 0.7821 -0.0026 -0.6232
vn -0.8971 0.2384 0.3720
vn 0.0149 -0.2673 -0.9635
vn -0.8821 0.4169 0.2192
vn -0.5429 -0.2748 -0.7936
vn -0.9997 -0.0246 0.0091
vn 0.9968 0.0154 0.0780
vn -0.4643 -0.7068 -0.5338
usemtl BigRock1_1
s off
f 60/1/1 51/2/1 52/3/1
f 3/4/2 51/2/2 1/5/2
f 4/6/3 58/7/3 1/5/3
f 51/2/4 7/8/4 6/9/4
f 5/10/5 63/11/5 2/12/5
f 6/9/6 7/8/6 8/13/6
f 7/8/7 59/14/7 8/13/7
f 1/5/8 51/2/8 6/9/8
f 8/13/9 59/14/9 62/15/9
f 60/1/10 5/10/10 2/12/10
f 19/16/11 33/17/11 22/18/11
f 31/19/12 40/20/12 73/21/12
f 33/17/13 39/22/13 49/23/13
f 13/24/14 80/25/14 21/26/14
f 19/16/15 55/27/15 68/28/15
f 38/29/16 85/30/16 18/31/16
f 78/32/17 85/30/17 75/33/17
f 32/34/18 78/32/18 25/35/18
f 33/17/19 19/16/19 34/36/19
f 65/37/20 15/38/20 36/39/20
f 53/40/21 27/41/21 68/28/21
f 36/39/22 15/38/22 54/42/22
f 24/43/23 37/44/23 41/45/23
f 84/46/24 38/29/24 16/47/24
f 79/48/25 85/30/25 24/43/25
f 16/47/26 46/49/26 84/46/26
f 34/36/27 25/35/27 21/26/27
f 25/35/28 78/32/28 74/50/28
f 78/32/29 75/33/29 74/50/29
f 28/51/30 78/32/30 66/52/30
f 30/53/31 19/16/31 68/28/31
f 38/29/32 24/43/32 85/30/32
f 50/54/33 54/42/33 55/27/33
f 87/55/34 40/20/34 41/45/34
f 76/56/35 9/57/35 10/58/35
f 27/41/36 25/35/36 30/53/36
f 43/59/37 49/23/37 29/60/37
f 13/24/38 73/21/38 40/20/38
f 86/61/39 41/45/39 37/44/39
f 13/24/40 40/20/40 80/25/40
f 24/43/41 31/19/41 73/21/41
f 14/62/42 43/59/42 87/55/42
f 22/18/43 33/17/43 49/23/43
f 22/18/44 42/63/44 19/16/44
f 21/26/45 39/22/45 34/36/45
f 80/25/46 29/60/46 21/26/46
f 31/19/47 24/43/47 41/45/47
f 73/21/48 13/24/48 35/64/48
f 22/18/49 43/59/49 42/63/49
f 43/59/50 14/62/50 42/63/50
f 24/43/51 73/21/51 79/48/51
f 9/57/52 44/65/52 10/58/52
f 49/23/53 43/59/53 22/18/53
f 24/43/54 38/29/54 37/44/54
f 25/35/55 27/41/55 61/66/55
f 21/26/56 35/64/56 13/24/56
f 39/22/57 33/17/57 34/36/57
f 39/22/58 21/26/58 29/60/58
f 77/67/59 38/29/59 18/31/59
f 86/61/60 14/62/60 41/45/60
f 20/68/61 78/32/61 32/34/61
f 38/29/62 86/61/62 37/44/62
f 54/42/63 50/54/63 36/39/63
f 27/41/64 53/40/64 52/3/64
f 60/1/65 52/3/65 5/10/65
f 20/68/66 61/66/66 67/69/66
f 71/70/67 26/71/67 64/72/67
f 41/45/68 14/62/68 87/55/68
f 15/38/69 83/73/69 54/42/69
f 2/12/70 63/11/70 82/74/70
f 11/75/71 77/67/71 48/76/71
f 10/58/72 82/74/72 81/77/72
f 2/12/73 44/65/73 59/14/73
f 12/78/74 59/14/74 71/70/74
f 69/79/75 67/69/75 58/7/75
f 81/77/76 63/11/76 23/80/76
f 29/60/77 49/23/77 39/22/77
f 57/81/78 26/71/78 48/76/78
f 6/9/79 4/6/79 1/5/79
f 45/82/80 81/77/80 46/49/80
f 46/49/81 47/83/81 45/82/81
f 47/83/82 77/67/82 11/75/82
f 53/40/83 54/42/83 52/3/83
f 63/11/84 5/10/84 23/80/84
f 16/47/85 77/67/85 47/83/85
f 6/9/86 8/13/86 4/6/86
f 58/7/87 12/78/87 64/72/87
f 62/15/88 12/78/88 58/7/88
f 2/12/89 7/8/89 60/1/89
f 26/71/90 11/75/90 48/76/90
f 62/15/91 4/6/91 8/13/91
f 61/66/92 20/68/92 32/34/92
f 67/69/93 27/41/93 58/7/93
f 7/8/94 2/12/94 59/14/94
f 3/4/95 1/5/95 58/7/95
f 7/8/96 51/2/96 60/1/96
f 4/6/97 62/15/97 58/7/97
f 62/15/98 59/14/98 12/78/98
f 58/7/99 27/41/99 3/4/99
f 3/4/100 27/41/100 51/2/100
f 61/66/101 27/41/101 67/69/101
f 46/49/102 16/47/102 47/83/102
f 68/28/103 55/27/103 53/40/103
f 54/42/104 53/40/104 55/27/104
f 50/54/105 84/46/105 36/39/105
f 84/46/106 50/54/106 42/63/106
f 83/73/107 52/3/107 54/42/107
f 52/3/108 23/80/108 5/10/108
f 65/37/109 23/80/109 83/73/109
f 27/41/110 52/3/110 51/2/110
f 23/80/111 52/3/111 83/73/111
f 50/54/112 55/27/112 19/16/112
f 36/39/113 46/49/113 65/37/113
f 23/80/114 65/37/114 81/77/114
f 56/84/115 64/72/115 26/71/115
f 56/84/116 17/85/116 69/79/116
f 75/33/117 85/30/117 79/48/117
f 63/11/118 81/77/118 82/74/118
f 56/84/119 69/79/119 64/72/119
f 59/14/120 72/86/120 71/70/120
f 2/12/121 82/74/121 44/65/121
f 44/65/122 72/86/122 59/14/122
f 82/74/123 10/58/123 44/65/123
f 65/37/124 46/49/124 81/77/124
f 57/81/125 56/84/125 26/71/125
f 69/79/126 17/85/126 67/69/126
f 56/84/127 57/81/127 17/85/127
f 35/64/128 21/26/128 74/50/128
f 41/45/129 40/20/129 31/19/129
f 66/52/130 20/68/130 67/69/130
f 19/16/131 30/53/131 34/36/131
f 58/7/132 64/72/132 69/79/132
f 30/53/133 68/28/133 27/41/133
f 64/72/134 12/78/134 71/70/134
f 35/64/135 74/50/135 73/21/135
f 11/75/136 26/71/136 71/70/136
f 18/31/137 28/51/137 57/81/137
f 42/63/138 86/61/138 84/46/138
f 70/87/139 72/86/139 9/57/139
f 50/54/140 19/16/140 42/63/140
f 44/65/141 9/57/141 72/86/141
f 70/87/142 71/70/142 72/86/142
f 73/21/143 74/50/143 75/33/143
f 28/51/144 18/31/144 78/32/144
f 57/81/145 48/76/145 18/31/145
f 77/67/146 16/47/146 38/29/146
f 45/82/147 47/83/147 11/75/147
f 10/58/148 45/82/148 76/56/148
f 76/56/149 45/82/149 11/75/149
f 85/30/150 78/32/150 18/31/150
f 28/51/151 17/85/151 57/81/151
f 11/75/152 71/70/152 70/87/152
f 17/85/153 66/52/153 67/69/153
f 29/60/154 87/55/154 43/59/154
f 66/52/155 78/32/155 20/68/155
f 80/25/156 87/55/156 29/60/156
f 25/35/157 74/50/157 21/26/157
f 48/76/158 77/67/158 18/31/158
f 87/55/159 80/25/159 40/20/159
f 10/58/160 81/77/160 45/82/160
f 32/34/161 25/35/161 61/66/161
f 84/46/162 46/49/162 36/39/162
f 17/85/163 28/51/163 66/52/163
f 83/73/164 15/38/164 65/37/164
f 73/21/165 75/33/165 79/48/165
f 86/61/166 42/63/166 14/62/166
f 70/87/167 76/56/167 11/75/167
f 86/61/168 38/29/168 84/46/168
f 30/53/169 25/35/169 34/36/169
f 70/87/170 9/57/170 76/56/170
