# Blender v2.90.1 OBJ File: 'NaturePack_AllModels.blend'
# www.blender.org
mtllib huge_rock1.mtl
o BigRock3_Cube.011
v 28.796787 0.785136 2.391809
v 28.980297 -0.237964 -0.726652
v 28.226883 -0.403560 -2.867383
v 29.591742 0.817402 -2.209935
v 29.589880 2.863191 -0.623045
v 28.232088 -0.487155 1.193061
v 26.016205 2.474623 1.575014
v 25.870049 1.633739 0.950305
v 27.483141 -0.202836 -3.338089
v 28.989429 2.834097 -3.465584
v 27.166204 2.607603 -3.989691
v 27.130735 3.544601 0.393205
v 26.831932 1.980756 -4.178391
v 28.775841 2.867282 2.191551
v 26.402382 3.404881 -1.479222
v 26.518770 1.034511 -3.580241
v 27.757313 0.956674 2.685496
v 29.555494 2.877828 -2.186476
v 25.964741 2.936150 0.284542
v 28.745901 3.519586 1.391971
v 26.838022 2.906838 2.195348
v 29.808830 2.873147 1.266351
v 28.223167 3.561111 -2.098584
v 29.071278 -0.080916 1.255945
v 28.324057 2.000466 -4.453604
v 27.457218 0.474375 -4.205294
v 29.513557 2.114592 -3.517975
v 26.394175 1.566369 2.080211
v 29.334585 0.245615 -3.112103
vt 0.000000 0.000000
vt 0.000000 0.000000
vt 0.000000 0.000000
vt 0.000000 0.000000
vt 0.000000 0.000000
vt 0.000000 0.000000
vt 0.000000 0.000000
vt 0.000000 0.000000
vt 0.000000 0.000000
vt 0.000000 0.000000
vt 0.000000 0.000000
vt 0.000000 0.000000
vt 0.000000 0.000000
vt 0.000000 0.000000
vt 0.000000 0.000000
vt 0.000000 0.000000
vt 0.000000 0.000000
vt 0.000000 0.000000
vt 0.000000 0.000000
vt 0.000000 0.000000
vt 0.000000 0.000000
vt 0.000000 0.000000
vt 0.000000 0.000000
vt 0.000000 0.000000
vt 0.000000 0.000000
vt 0.000000 0.000000
vt 0.000000 0.000000
vt 0.000000 0.000000
vt 0.000000 0.000000
vn 0.2817 -0.7198 -0.6344
vn 0.1647 0.9561 -0.2424
vn -0.5285 -0.6879 0.4974
vn 0.0171 0.7751 0.6317
vn 0.9722 -0.1347 -0.1917
vn 0.4823 0.6875 0.5428
vn 0.0069 0.2468 0.9690
vn 0.9991 0.0267 -0.0332
vn -0.9695 0.1341 -0.2049
vn 0.8653 -0.5013 0.0000
vn -0.3869 0.0490 0.9208
vn 0.8942 -0.2246 0.3873
vn 0.2690 -0.9629 -0.0202
vn -0.6593 -0.6020 -0.4504
vn -0.2489 -0.9683 -0.0196
vn -0.6704 -0.7392 0.0644
vn 0.9878 -0.0950 0.1237
vn 0.4857 -0.8679 -0.1038
vn 0.1768 -0.7732 -0.6091
vn 0.8872 -0.4598 0.0385
vn -0.7854 -0.6182 -0.0307
vn 0.5130 0.8560 -0.0640
vn 0.1062 0.7236 -0.6820
vn 0.7451 0.5682 -0.3492
vn -0.9567 0.1653 -0.2395
vn 0.5293 0.4385 -0.7264
vn -0.6359 -0.2509 -0.7299
vn 0.0219 0.8877 -0.4598
vn 0.4334 0.8735 -0.2217
vn -0.1804 -0.0573 -0.9819
vn -0.1734 0.3675 -0.9137
vn 0.4310 -0.3781 -0.8193
vn 0.4562 0.8899 -0.0017
vn -0.1979 0.9153 -0.3509
vn -0.0977 0.9946 -0.0362
vn 0.9644 -0.2404 -0.1105
vn 0.6158 -0.2231 -0.7557
vn -0.7556 0.5220 -0.3957
vn 0.3199 0.9361 0.1464
vn -0.9006 -0.1473 0.4090
vn -0.9904 0.1128 0.0798
vn 0.3025 -0.7213 0.6231
vn 0.0836 -0.7028 0.7065
vn 0.6649 0.0781 0.7428
vn 0.9996 -0.0163 -0.0221
vn -0.9899 -0.0005 -0.1417
vn 0.2851 0.0946 0.9538
vn -0.6593 -0.7041 0.2638
vn 0.4320 -0.9004 0.0515
vn -0.1731 0.9370 0.3035
vn -0.6445 0.1490 0.7500
vn -0.4671 0.8547 0.2266
vn -0.6073 0.7401 0.2889
vn -0.4680 0.8760 0.1167
usemtl BigRock1_1
s off
f 29/1/1 3/2/1 26/3/1
f 20/4/2 5/5/2 12/6/2
f 17/7/3 28/8/3 6/9/3
f 20/4/4 21/10/4 14/11/4
f 29/1/5 27/12/5 4/13/5
f 20/4/6 14/11/6 22/14/6
f 14/11/7 21/10/7 17/7/7
f 27/12/8 5/5/8 4/13/8
f 19/15/9 15/16/9 16/17/9
f 4/13/10 24/18/10 2/19/10
f 28/8/11 17/7/11 21/10/11
f 22/14/12 1/20/12 24/18/12
f 6/9/13 3/2/13 2/19/13
f 26/3/14 9/21/14 16/17/14
f 9/21/15 3/2/15 6/9/15
f 6/9/16 8/22/16 9/21/16
f 4/13/17 5/5/17 24/18/17
f 2/19/18 3/2/18 29/1/18
f 26/3/19 3/2/19 9/21/19
f 2/19/20 29/1/20 4/13/20
f 16/17/21 9/21/21 8/22/21
f 22/14/22 5/5/22 20/4/22
f 25/23/23 11/24/23 10/25/23
f 10/25/24 18/26/24 27/12/24
f 16/17/25 15/16/25 13/27/25
f 10/25/26 27/12/26 25/23/26
f 13/27/27 26/3/27 16/17/27
f 10/25/28 11/24/28 23/28/28
f 10/25/29 23/28/29 18/26/29
f 25/23/30 26/3/30 13/27/30
f 25/23/31 13/27/31 11/24/31
f 29/1/32 26/3/32 25/23/32
f 23/28/33 5/5/33 18/26/33
f 15/16/34 23/28/34 11/24/34
f 12/6/35 23/28/35 15/16/35
f 5/5/36 22/14/36 24/18/36
f 29/1/37 25/23/37 27/12/37
f 13/27/38 15/16/38 11/24/38
f 23/28/39 12/6/39 5/5/39
f 7/29/40 8/22/40 28/8/40
f 8/22/41 7/29/41 19/15/41
f 6/9/42 24/18/42 1/20/42
f 17/7/43 6/9/43 1/20/43
f 1/20/44 22/14/44 14/11/44
f 18/26/45 5/5/45 27/12/45
f 8/22/46 19/15/46 16/17/46
f 1/20/47 14/11/47 17/7/47
f 28/8/48 8/22/48 6/9/48
f 24/18/49 6/9/49 2/19/49
f 12/6/50 21/10/50 20/4/50
f 7/29/51 28/8/51 21/10/51
f 19/15/52 21/10/52 12/6/52
f 19/15/53 7/29/53 21/10/53
f 12/6/54 15/16/54 19/15/54
