# Blender v2.90.1 OBJ File: 'NaturePack_AllModels.blend'
# www.blender.org
mtllib indicator.mtl
o Pointer_Cylinder.015
v 29.412815 -0.073638 19.970522
v 29.336037 -0.073282 20.240644
v 29.239738 0.926884 20.071341
v 29.293972 0.562020 20.277536
v 29.317503 1.525511 20.257563
v 29.410400 1.387987 19.951773
v 29.532108 4.005039 20.234604
v 29.453074 3.949572 19.934340
v 29.259212 1.846218 20.074791
v 29.513048 1.683321 20.255604
v 29.604631 3.943697 20.044861
v 29.344543 3.997821 20.227457
v 29.554667 0.851813 20.078781
v 29.278181 -0.073425 20.061201
v 29.507740 -0.070528 20.271799
v 29.591999 -0.062853 20.068712
v 29.280603 3.970972 20.056400
v 29.405367 4.074619 20.107763
v 29.052414 3.541399 20.331041
v 29.960192 3.827281 20.247107
v 30.463978 2.609928 20.248348
v 29.874626 2.636436 20.329554
v 30.331692 2.828390 20.310530
v 29.950281 3.789370 20.330420
v 30.538607 3.775574 20.246864
v 29.128254 2.510865 20.331369
v 28.487999 3.695444 20.307928
v 29.142303 2.521935 20.247042
v 29.057507 3.155635 20.247389
v 29.200806 3.820807 20.331079
v 29.130751 3.801893 20.249285
v 30.458729 3.182927 20.331173
v 30.224176 3.198111 20.254616
v 28.432266 3.228864 20.257862
v 28.340988 3.182721 20.331205
v 30.339132 3.714398 20.311878
v 28.312799 3.820986 20.248247
v 28.366621 2.540956 20.246477
v 28.440081 2.767846 20.330746
vt 0.000000 0.000000
vt 0.000000 0.000000
vt 0.000000 0.000000
vt 0.000000 0.000000
vt 0.000000 0.000000
vt 0.000000 0.000000
vt 0.000000 0.000000
vt 0.000000 0.000000
vt 0.000000 0.000000
vt 0.000000 0.000000
vt 0.000000 0.000000
vt 0.000000 0.000000
vt 0.000000 0.000000
vt 0.000000 0.000000
vt 0.000000 0.000000
vt 0.000000 0.000000
vt 0.000000 0.000000
vt 0.800000 0.992132
vt 0.750131 1.000000
vt 0.611344 0.993921
vt 0.200000 0.992132
vt 0.108711 1.000000
vt 0.000000 0.992132
vt 0.400000 0.992132
vt 0.318933 1.000000
vt 0.449869 1.000000
vt 1.000000 0.992132
vt 0.915844 1.000000
vt 0.000000 0.000000
vt 0.000000 0.000000
vt 0.000000 0.000000
vt 0.000000 0.000000
vt 0.000000 0.000000
vt 0.000000 0.000000
vt 0.000000 0.000000
vt 0.000000 0.000000
vt 0.000000 0.000000
vt 0.000000 0.000000
vt 0.000000 0.000000
vt 0.000000 0.000000
vt 0.502251 0.329085
vt 0.521268 0.437500
vt 0.381680 0.437500
vt 0.000000 0.000000
vt 0.000000 0.000000
vt 0.000000 0.000000
vt 0.000000 0.000000
vt 0.000000 0.000000
vt 0.000000 0.000000
vt 0.000000 0.000000
vt 0.000000 0.000000
vt 0.000000 0.000000
vt 0.624798 0.341725
vt 0.375000 0.343253
vt 0.624915 0.437500
vn 0.0044 -1.0000 0.0089
vn 0.6422 -0.0088 -0.7665
vn -0.9814 -0.0396 0.1880
vn -0.5586 -0.0131 -0.8293
vn 0.4790 0.0292 -0.8773
vn 0.0658 -0.9978 -0.0104
vn 0.0169 -0.9998 -0.0046
vn -0.1770 -0.0687 0.9818
vn -0.9486 -0.0806 0.3059
vn -0.6019 0.0157 -0.7984
vn -0.5525 -0.0116 -0.8334
vn -0.9426 0.0187 0.3335
vn 0.9726 -0.0008 0.2326
vn 0.0819 0.0187 0.9965
vn 0.9227 0.0334 0.3841
vn 0.0026 0.0092 1.0000
vn -0.9526 0.0295 0.3028
vn 0.9588 -0.0124 0.2839
vn 0.5888 -0.0153 -0.8082
vn 0.6208 -0.0186 -0.7838
vn -0.9373 0.0125 0.3484
vn -0.6219 0.0050 -0.7831
vn -0.5778 -0.0012 -0.8162
vn 0.0002 0.0122 0.9999
vn -0.0384 0.0094 0.9992
vn 0.9336 -0.0044 0.3583
vn -0.9451 0.0143 0.3265
vn 0.5324 0.8436 -0.0692
vn -0.3428 0.7147 -0.6096
vn -0.6652 0.7346 0.1333
vn -0.0526 0.8524 0.5202
vn 0.3752 0.7978 -0.4720
vn -0.0015 -0.0126 -0.9999
vn -0.0264 0.0529 0.9982
vn -0.6472 0.0743 -0.7587
vn -0.3584 -0.0572 0.9318
vn 0.0007 -0.0009 1.0000
vn 0.0007 0.0006 -1.0000
vn 0.0057 0.0130 -0.9999
vn 0.1909 0.8847 0.4253
vn -0.0146 0.0179 -0.9997
vn 0.0918 -0.5337 0.8407
vn 0.3066 -0.0545 -0.9503
vn 0.1248 -0.2010 0.9716
vn -0.0191 -0.0201 -0.9996
vn -0.1701 0.9821 -0.0814
vn -0.3441 -0.9218 -0.1783
vn 0.2811 0.0979 0.9547
vn -0.0358 0.0189 0.9992
vn 0.0403 0.9654 -0.2577
vn 0.0570 0.0490 0.9972
vn -0.0022 -0.0006 1.0000
vn 0.0061 0.0022 -1.0000
vn 0.0009 0.0007 -1.0000
vn 0.0570 0.6339 0.7713
vn -0.6658 0.1578 -0.7293
vn 0.0009 -0.0008 1.0000
vn 0.2954 -0.1735 -0.9395
vn 0.0773 -0.0855 0.9933
vn 0.7712 0.3085 0.5569
vn 0.0013 0.0028 -1.0000
vn 0.0024 0.0005 1.0000
vn 0.0009 -0.0006 1.0000
vn 0.0661 -0.9907 -0.1191
vn -0.0092 -0.3455 0.9384
vn -0.0008 0.0003 1.0000
vn -0.5450 -0.1311 0.8281
vn -0.0022 -0.0129 -0.9999
vn 0.0091 0.4397 0.8981
vn -0.0268 0.9111 0.4114
usemtl Pointer1_1
s off
f 14/1/1 1/2/1 15/3/1
f 1/2/2 6/4/2 13/5/2
f 4/6/3 3/7/3 14/1/3
f 14/1/4 3/7/4 1/2/4
f 16/8/5 1/2/5 13/5/5
f 1/2/6 16/8/6 15/3/6
f 15/3/7 2/9/7 14/1/7
f 15/3/8 4/6/8 2/9/8
f 2/9/9 4/6/9 14/1/9
f 3/7/10 9/10/10 6/4/10
f 6/4/11 1/2/11 3/7/11
f 3/7/12 5/11/12 9/10/12
f 10/12/13 15/3/13 13/5/13
f 5/11/14 4/6/14 15/3/14
f 15/3/15 16/8/15 13/5/15
f 15/3/16 10/12/16 5/11/16
f 4/6/17 5/11/17 3/7/17
f 10/12/18 13/5/18 11/13/18
f 6/4/19 8/14/19 11/13/19
f 13/5/20 6/4/20 11/13/20
f 12/15/21 17/16/21 9/10/21
f 8/14/22 6/4/22 9/10/22
f 17/16/23 8/14/23 9/10/23
f 12/15/24 5/11/24 10/12/24
f 10/12/25 7/17/25 12/15/25
f 7/17/26 10/12/26 11/13/26
f 9/10/27 5/11/27 12/15/27
usemtl Pointer1_2
f 11/18/28 18/19/28 7/20/28
f 17/21/29 18/22/29 8/23/29
f 12/24/30 18/25/30 17/21/30
f 7/20/31 18/26/31 12/24/31
f 8/27/32 18/28/32 11/18/32
f 25/29/33 33/30/33 20/31/33
f 19/32/34 27/33/34 35/34/34
f 35/34/35 34/35/35 38/36/35
f 27/33/36 37/37/36 34/35/36
f 19/32/37 35/34/37 39/38/37
f 38/36/38 29/39/38 28/40/38
f 29/41/39 33/42/39 21/43/39
f 20/31/40 24/44/40 36/45/40
f 38/36/41 34/35/41 29/39/41
f 21/46/42 22/47/42 26/48/42
f 33/30/43 32/49/43 23/50/43
f 21/46/44 23/50/44 22/47/44
f 34/35/45 37/37/45 29/39/45
f 31/51/46 27/33/46 30/52/46
f 28/40/47 26/48/47 39/38/47
f 25/29/48 36/45/48 32/49/48
f 19/32/49 30/52/49 27/33/49
f 31/51/50 30/52/50 24/44/50
f 32/49/51 36/45/51 24/44/51
f 32/49/52 24/44/52 22/47/52
f 31/53/53 33/42/53 29/41/53
f 29/41/54 21/43/54 28/54/54
f 20/31/55 36/45/55 25/29/55
f 27/33/56 34/35/56 35/34/56
f 24/44/57 19/32/57 22/47/57
f 25/29/58 32/49/58 33/30/58
f 32/49/59 22/47/59 23/50/59
f 33/30/60 23/50/60 21/46/60
f 37/37/61 31/51/61 29/39/61
f 19/32/62 26/48/62 22/47/62
f 24/44/63 30/52/63 19/32/63
f 21/46/64 26/48/64 28/40/64
f 28/40/65 39/38/65 38/36/65
f 19/32/66 39/38/66 26/48/66
f 35/34/67 38/36/67 39/38/67
f 31/53/68 20/55/68 33/42/68
f 37/37/69 27/33/69 31/51/69
f 31/51/70 24/44/70 20/31/70
