# Blender v2.90.1 OBJ File: 'NaturePack_AllModels.blend'
# www.blender.org
mtllib log1.mtl
o Branch2_Cylinder.003
v -12.593274 0.043791 11.080087
v -12.668829 -0.010095 9.765941
v -12.758900 -0.223659 9.100483
v -12.712350 -0.162453 11.080087
v -13.025741 -0.216754 9.764136
v -12.950500 -0.162453 11.080087
v -13.146376 -0.010734 9.767191
v -13.069574 0.043791 11.080087
v -13.028995 0.195731 9.765658
v -12.950500 0.250035 11.080087
v -12.790845 0.195731 9.765658
v -12.712350 0.250035 11.080087
v -12.652529 -0.014454 11.830894
v -12.765312 -0.196838 11.830273
v -12.971337 -0.188394 11.833403
v -13.088259 -0.011557 11.818439
v -12.948144 0.127313 11.859584
v -12.984542 0.200799 11.790971
v -12.753782 0.188280 11.816921
v -12.636134 -0.010240 9.090906
v -12.773004 -0.064039 8.980877
v -12.993360 -0.216484 9.090908
v -13.112434 -0.010240 9.090906
v -12.970614 -0.070274 8.979274
v -12.993360 0.196004 9.090908
v -12.755209 0.196004 9.090908
v -12.851851 0.099569 8.977810
v -12.773027 0.195868 9.551107
v -13.011177 0.195868 9.551107
v -12.846758 0.383572 9.711402
v -12.964039 0.383572 9.711402
v -12.837983 0.383639 9.605742
v -12.955264 0.383639 9.605742
v -12.800392 0.521562 9.681800
v -12.798180 0.519031 9.635080
vt 0.500000 0.636017
vt 0.333333 0.635639
vt 0.333333 0.576933
vt 0.166667 0.635639
vt 0.333333 0.635639
vt 0.159655 0.991075
vt -0.000000 0.864361
vt 0.166667 0.864361
vt 0.333333 0.864361
vt 0.500000 0.864361
vt 0.333333 0.988061
vt 0.666667 0.864361
vt 0.491862 0.991559
vt 0.666667 0.635152
vt 0.833333 0.519910
vt 0.833333 0.864361
vt 1.000000 0.635650
vt 1.000000 0.864361
vt 0.821701 0.993061
vt 0.988312 0.993086
vt 0.500000 0.518227
vt 0.666667 0.518227
vt 0.166667 0.518227
vt -0.000000 0.635650
vt -0.000000 0.518227
vt 0.333333 0.518227
vt 0.166667 0.576933
vt 1.000000 0.518227
vt 0.166667 0.576933
vt 0.166667 0.635639
vt 0.333333 0.576933
vt 0.221120 0.635639
vt 0.226731 0.576933
vt 0.011688 0.993086
vt 0.653276 0.993817
vt 0.111422 0.169992
vt 0.250000 0.089984
vt 0.388578 0.169992
vt 0.361105 1.000000
vt 0.709019 0.500000
vt 0.790981 0.500000
vt 0.457647 0.500000
vt 0.238171 0.500000
vt 0.124314 0.500000
vt 0.388578 0.330008
vt 0.250000 0.410016
vt 0.111422 0.330008
vt 0.305561 1.000000
vt 0.173678 0.991075
vt 0.917539 0.500000
vt 0.584101 0.500000
vt 0.375686 0.500000
vt 0.042352 0.500000
vt 0.647788 0.267033
vt 0.800018 0.339147
vt 0.802064 0.162034
vn -0.8673 0.4926 -0.0717
vn 0.0000 0.2775 0.9607
vn 0.8625 0.4980 0.0902
vn 0.0000 0.9965 0.0835
vn -0.8660 0.5000 -0.0068
vn -0.8645 -0.4991 -0.0593
vn 0.8638 0.4987 -0.0722
vn 0.0000 0.9991 -0.0413
vn -0.8688 0.4942 0.0303
vn -0.8604 -0.5048 0.0700
vn 0.0000 -0.9995 0.0309
vn 0.8657 -0.4998 -0.0293
vn 0.0000 -0.9990 -0.0458
vn 0.8656 -0.4998 0.0295
vn -0.8653 -0.4996 -0.0418
vn 0.8653 0.4996 0.0418
vn -0.0000 1.0000 0.0003
vn -0.8655 0.4997 -0.0334
vn 0.8669 -0.4968 0.0421
vn -0.0000 0.2794 -0.9602
vn 0.9490 0.3053 0.0790
vn -0.9490 0.3055 -0.0786
vn 0.9500 -0.3023 0.0787
vn -0.6435 0.7621 -0.0718
vn 0.0000 0.2097 0.9778
vn 0.8868 0.4501 0.1049
vn 0.8580 0.5087 0.0716
vn 0.0460 0.9964 0.0712
vn -0.8980 0.4399 0.0103
vn -0.8318 -0.5535 -0.0421
vn 0.8581 0.5086 -0.0702
vn -0.8656 0.4998 0.0310
vn -0.8638 -0.4987 0.0712
vn 0.0670 -0.9971 0.0373
vn 0.9330 -0.3598 -0.0108
vn -0.0415 -0.9985 -0.0355
vn 0.8499 -0.5257 0.0359
vn -0.8624 -0.5043 -0.0437
vn 0.8770 0.4793 0.0341
vn -0.0305 -0.9995 -0.0019
vn -0.8558 0.5155 -0.0426
vn 0.0000 0.2118 -0.9773
vn -0.9490 0.3054 -0.0786
vn 0.9540 -0.2937 0.0611
vn -0.6493 0.7586 -0.0534
vn -0.2219 -0.0644 0.9729
vn -0.5858 0.3788 0.7165
vn 0.0254 -0.5980 -0.8011
vn -0.5108 0.2949 -0.8075
vn 0.0000 0.7609 -0.6488
vn 0.5637 0.3255 -0.7592
vn 0.0117 -0.0835 0.9964
vn 0.0733 -0.0487 0.9961
vn 0.1667 0.1504 0.9745
vn -0.0471 0.6691 0.7416
vn 0.6639 -0.4100 -0.6254
vn 0.0138 -0.6082 -0.7937
vn -0.6660 -0.3845 -0.6393
vn -0.4550 0.3110 -0.8344
vn 0.5459 0.2481 -0.8003
vn 0.0086 -0.0146 -0.9999
usemtl Branch1_1
s off
f 7/1/1 9/2/1 29/3/1
f 11/4/2 31/5/2 9/2/2
f 19/6/3 1/7/3 12/8/3
f 10/9/4 19/6/4 12/8/4
f 8/10/5 18/11/5 10/9/5
f 6/12/6 16/13/6 8/10/6
f 1/7/7 11/4/7 12/8/7
f 10/9/8 11/4/8 9/2/8
f 8/10/9 9/2/9 7/1/9
f 6/12/10 7/1/10 5/14/10
f 6/12/11 3/15/11 4/16/11
f 4/16/12 2/17/12 1/18/12
f 14/19/13 6/12/13 4/16/13
f 13/20/14 4/16/14 1/18/14
f 5/14/15 23/21/15 22/22/15
f 26/23/16 2/24/16 20/25/16
f 25/26/17 28/27/17 26/23/17
f 23/21/18 29/3/18 25/26/18
f 2/17/19 3/15/19 20/28/19
f 29/3/20 32/29/20 28/27/20
f 11/4/21 32/29/21 30/30/21
f 29/3/22 31/5/22 33/31/22
f 32/29/23 34/32/23 30/30/23
f 33/31/24 34/32/24 35/33/24
f 30/30/25 34/32/25 31/5/25
f 11/4/2 30/30/2 31/5/2
f 19/6/26 13/34/26 1/7/26
f 28/27/27 11/4/27 2/24/27
f 10/9/28 18/11/28 19/6/28
f 8/10/29 16/13/29 18/11/29
f 6/12/30 15/35/30 16/13/30
f 1/7/31 2/24/31 11/4/31
f 10/9/8 12/8/8 11/4/8
f 8/10/32 10/9/32 9/2/32
f 6/12/33 8/10/33 7/1/33
f 6/12/34 5/14/34 3/15/34
f 4/16/35 3/15/35 2/17/35
f 14/19/36 15/35/36 6/12/36
f 13/20/37 14/19/37 4/16/37
f 5/14/38 7/1/38 23/21/38
f 26/23/39 28/27/39 2/24/39
f 3/15/40 5/14/40 22/22/40
f 25/26/17 29/3/17 28/27/17
f 23/21/41 7/1/41 29/3/41
f 32/29/42 33/31/42 35/33/42
f 29/3/20 33/31/20 32/29/20
f 11/4/21 28/27/21 32/29/21
f 29/3/43 9/2/43 31/5/43
f 32/29/44 35/33/44 34/32/44
f 33/31/45 31/5/45 34/32/45
usemtl Branch1_2
f 17/36/46 16/37/46 15/38/46
f 16/13/47 17/39/47 18/11/47
f 3/15/48 24/40/48 21/41/48
f 25/26/49 24/42/49 23/21/49
f 26/23/50 27/43/50 25/26/50
f 20/25/51 27/44/51 26/23/51
f 15/38/52 14/45/52 17/36/52
f 14/45/53 13/46/53 17/36/53
f 13/46/54 19/47/54 17/36/54
f 18/11/55 17/48/55 19/49/55
f 20/28/56 3/15/56 21/50/56
f 3/15/57 22/22/57 24/40/57
f 22/22/58 23/21/58 24/51/58
f 25/26/59 27/52/59 24/42/59
f 20/25/60 21/53/60 27/44/60
f 27/54/61 21/55/61 24/56/61
