# Blender v2.90.1 OBJ File: 'NaturePack_AllModels.blend'
# www.blender.org
mtllib log2.mtl
o Branch1_Cylinder.001
v -10.706837 -0.010462 9.650972
v -10.806833 -0.183661 9.650972
v -11.006825 -0.183661 9.650972
v -11.075830 -0.030088 9.008010
v -11.006825 0.162736 9.650972
v -10.806833 0.162736 9.650972
v -10.782889 0.110374 10.874325
v -10.883032 -0.065225 10.641624
v -11.083087 -0.062201 10.880097
v -11.183017 0.107968 10.641583
v -11.152541 0.082642 11.231268
v -11.083024 0.281171 10.641624
v -11.052562 0.255861 11.231200
v -10.885303 0.289762 10.884782
v -10.692444 0.013135 11.628966
v -10.805688 -0.052713 11.750084
v -10.792434 -0.160071 11.629004
v -10.932391 -0.067318 11.749823
v -10.992436 -0.160059 11.628942
v -11.092428 0.013135 11.628966
v -10.866123 0.074688 11.751350
v -10.992426 0.186326 11.629004
v -10.792444 0.186338 11.628942
v -10.678129 -0.010242 9.003670
v -10.778125 -0.183441 9.003672
v -10.814572 -0.042603 8.866426
v -10.978117 -0.183441 9.003672
v -10.933536 -0.046370 8.865302
v -10.978117 0.162956 9.003672
v -10.778125 0.162956 9.003672
v -10.861668 0.059308 8.867697
v -11.067793 0.268516 11.014898
v -11.167779 0.095305 11.014918
v -10.855494 -0.087793 11.211156
v -11.364545 0.377149 11.067487
v -11.357444 0.371249 11.217112
v -11.411160 0.296396 11.067500
v -11.404056 0.290492 11.217159
v -11.552843 0.431497 11.268857
v -11.548740 0.428434 11.325403
vt 1.000000 0.635639
vt 0.833333 0.523003
vt 1.000000 0.523003
vt 0.500000 0.523733
vt 0.333333 0.635639
vt 0.333333 0.523003
vt 0.166667 0.635639
vt 0.166667 0.523003
vt 0.166667 0.979823
vt -0.000000 0.850571
vt 0.166667 0.853152
vt 0.833333 0.635639
vt 0.666667 0.523003
vt -0.000000 0.635639
vt -0.000000 0.523003
vt 0.666667 0.635639
vt 0.333333 0.808021
vt 0.500000 0.808014
vt 0.666667 0.852025
vt 0.833333 0.808021
vt 1.000000 0.850571
vt 0.333333 0.979833
vt 0.333333 0.919712
vt 0.500000 0.919730
vt 0.500000 0.979827
vt 0.333333 0.863867
vt 0.500000 0.863872
vt 0.833333 0.914466
vt 0.666667 0.979823
vt 1.000000 0.979827
vt 0.333333 0.919712
vt 0.416486 0.919721
vt 0.500000 0.919730
vt 0.333333 0.863867
vt 0.500000 0.863872
vt 0.416543 0.863869
vt -0.000000 0.979827
vt 0.833333 0.979833
vt 0.297726 0.324181
vt 0.161895 0.257363
vt 0.314216 0.185340
vt 0.714675 1.000000
vt 0.599502 1.000000
vt 0.381342 1.000000
vt 0.118658 1.000000
vt 0.048009 1.000000
vt 0.720118 0.500000
vt 0.779882 0.500000
vt 0.446549 0.500000
vt 0.241174 0.500000
vt 0.113215 0.500000
vt 0.913721 1.000000
vt 0.785325 1.000000
vt 0.451991 1.000000
vt 0.244887 1.000000
vt 0.917316 0.500000
vt 0.583906 0.500000
vt 0.386784 0.500000
vt 0.053451 0.500000
vt 0.786456 0.315013
vt 0.787980 0.185867
vt 0.675469 0.262710
vn 0.8654 -0.4996 0.0382
vn -0.8919 0.4506 -0.0394
vn 0.0000 1.0000 0.0003
vn 0.8668 0.4971 -0.0391
vn -0.0000 -1.0000 -0.0003
vn 0.8654 0.4996 0.0385
vn -0.8432 -0.5362 -0.0376
vn 0.0936 0.9894 -0.1111
vn -0.7756 0.6227 -0.1035
vn -0.8938 -0.4483 -0.0112
vn 0.0000 -0.9929 0.1187
vn 0.7949 -0.5969 0.1084
vn 0.1190 0.9810 0.1535
vn -0.8461 0.4885 0.2133
vn -0.8590 -0.5104 0.0406
vn 0.8685 0.4956 0.0042
vn -0.0892 0.9953 0.0374
vn -0.8649 0.4993 0.0522
vn -0.0588 -0.9976 -0.0367
vn 0.0929 -0.9858 -0.1401
vn 0.7959 -0.5810 -0.1703
vn 0.3526 0.9353 0.0299
vn -0.0708 0.9955 0.0632
vn 0.4219 -0.2430 0.8735
vn -0.1443 0.0832 -0.9860
vn -0.6370 -0.7709 -0.0002
vn -0.0377 0.0222 0.9990
vn 0.3017 0.9529 0.0297
vn -0.6296 0.3633 -0.6868
vn -0.6871 -0.7265 0.0040
vn 0.8654 0.4996 -0.0393
vn 0.8654 0.4996 0.0386
vn 0.0000 0.9947 -0.1024
vn -0.8592 0.4961 -0.1254
vn -0.8547 -0.5190 -0.0122
vn 0.1096 -0.9885 0.1045
vn 0.8592 -0.4961 0.1254
vn -0.0000 0.9905 0.1377
vn -0.8654 -0.4996 0.0395
vn 0.8660 0.5000 0.0045
vn -0.8737 -0.4862 0.0192
vn 0.8995 -0.4326 -0.0606
vn -0.0000 -0.9854 -0.1704
vn 0.8463 -0.4886 -0.2122
vn -0.8685 -0.4946 0.0322
vn 0.3469 0.9377 0.0205
vn -0.1443 0.0831 -0.9860
vn -0.6370 -0.7709 -0.0003
vn -0.0377 0.0224 0.9990
vn 0.3002 0.9536 0.0234
vn -0.6859 -0.7276 0.0103
vn -0.0009 -0.0104 0.9999
vn -0.0002 -0.7933 0.6088
vn -0.6717 -0.3879 0.6312
vn -0.5155 0.2975 0.8036
vn 0.6176 0.2857 0.7328
vn 0.0288 -0.6938 -0.7196
vn -0.6537 0.3154 -0.6878
vn 0.0000 0.7953 -0.6062
vn 0.6395 0.3692 -0.6743
vn 0.7627 -0.4402 0.4738
vn 0.0840 -0.7410 0.6662
vn -0.5105 0.2293 0.8287
vn 0.0002 0.7388 0.6739
vn 0.6193 0.3577 0.6990
vn 0.6951 -0.4013 -0.5964
vn -0.0000 -0.7104 -0.7038
vn -0.6691 -0.4088 -0.6206
vn -0.5373 0.3824 -0.7517
vn 0.6388 0.3040 -0.7068
vn 0.0089 0.0166 -0.9998
usemtl Branch1_1
s off
f 1/1/1 25/2/1 24/3/1
f 4/4/2 5/5/2 29/6/2
f 29/6/3 6/7/3 30/8/3
f 23/9/4 7/10/4 14/11/4
f 2/12/5 27/13/5 25/2/5
f 30/8/6 1/14/6 24/15/6
f 3/16/7 4/4/7 27/13/7
f 14/11/8 5/5/8 12/17/8
f 10/18/9 5/5/9 4/4/9
f 9/19/10 4/4/10 3/16/10
f 8/20/11 3/16/11 2/12/11
f 8/20/12 1/1/12 7/21/12
f 22/22/13 14/11/13 13/23/13
f 11/24/14 22/22/14 13/23/14
f 9/19/15 20/25/15 11/24/15
f 7/10/16 6/7/16 14/11/16
f 32/26/17 14/11/17 12/17/17
f 32/26/18 10/18/18 33/27/18
f 9/19/19 8/20/19 34/28/19
f 34/28/20 19/29/20 9/19/20
f 15/30/21 34/28/21 7/21/21
f 32/26/22 36/31/22 13/23/22
f 13/23/23 14/11/23 32/26/23
f 36/31/24 40/32/24 38/33/24
f 33/27/25 35/34/25 32/26/25
f 33/27/26 38/33/26 37/35/26
f 13/23/27 38/33/27 11/24/27
f 36/31/28 39/36/28 40/32/28
f 37/35/29 39/36/29 35/34/29
f 38/33/30 39/36/30 37/35/30
f 1/1/1 2/12/1 25/2/1
f 29/6/3 5/5/3 6/7/3
f 23/9/31 15/37/31 7/10/31
f 2/12/5 3/16/5 27/13/5
f 30/8/32 6/7/32 1/14/32
f 14/11/33 6/7/33 5/5/33
f 10/18/34 12/17/34 5/5/34
f 9/19/35 10/18/35 4/4/35
f 8/20/36 9/19/36 3/16/36
f 8/20/37 2/12/37 1/1/37
f 22/22/38 23/9/38 14/11/38
f 11/24/14 20/25/14 22/22/14
f 9/19/39 19/29/39 20/25/39
f 7/10/40 1/14/40 6/7/40
f 32/26/18 12/17/18 10/18/18
f 33/27/41 10/18/41 9/19/41
f 7/21/42 34/28/42 8/20/42
f 34/28/43 17/38/43 19/29/43
f 15/30/44 17/38/44 34/28/44
f 11/24/45 33/27/45 9/19/45
f 32/26/46 35/34/46 36/31/46
f 33/27/47 37/35/47 35/34/47
f 33/27/48 11/24/48 38/33/48
f 13/23/49 36/31/49 38/33/49
f 36/31/50 35/34/50 39/36/50
f 38/33/51 40/32/51 39/36/51
usemtl Branch1_2
f 16/39/52 21/40/52 18/41/52
f 17/38/53 18/42/53 19/29/53
f 19/29/54 18/43/54 20/25/54
f 20/25/55 21/44/55 22/22/55
f 15/37/56 21/45/56 16/46/56
f 25/2/57 28/47/57 26/48/57
f 29/6/58 28/49/58 4/4/58
f 30/8/59 31/50/59 29/6/59
f 24/15/60 31/51/60 30/8/60
f 17/38/61 15/30/61 16/52/61
f 17/38/62 16/53/62 18/42/62
f 20/25/63 18/54/63 21/44/63
f 23/9/64 22/22/64 21/55/64
f 15/37/65 23/9/65 21/45/65
f 24/3/66 25/2/66 26/56/66
f 25/2/67 27/13/67 28/47/67
f 27/13/68 4/4/68 28/57/68
f 29/6/69 31/58/69 28/49/69
f 24/15/70 26/59/70 31/51/70
f 26/60/71 28/61/71 31/62/71
