# Blender v2.90.1 OBJ File: 'NaturePack_AllModels.blend'
# www.blender.org
mtllib mushroom15.mtl
o Mushroom2_2_Cube
v 3.977389 -0.034468 20.022346
v 3.977389 0.065761 20.017506
v 3.977389 -0.034468 20.007061
v 3.977389 0.065761 20.002218
v 3.992676 -0.034468 20.022346
v 3.992676 0.065761 20.017506
v 3.992676 -0.034468 20.007061
v 3.992676 0.065761 20.002218
v 3.988162 0.215341 20.022346
v 3.988162 0.215341 20.007061
v 4.003449 0.215341 20.007061
v 4.003449 0.215341 20.022346
v 3.984550 0.380134 20.026402
v 3.984550 0.380134 20.011114
v 3.999837 0.380134 20.011114
v 3.999837 0.380134 20.026402
v 3.989156 0.595416 20.022346
v 3.989156 0.595416 20.007061
v 4.004444 0.595416 20.007061
v 4.004444 0.595416 20.022346
v 3.996481 0.613921 20.014704
v 4.032434 0.519382 20.040825
v 3.982748 0.519382 20.056969
v 3.952040 0.519382 20.014704
v 3.982748 0.519382 19.972439
v 4.032434 0.519382 19.988583
v 4.010213 0.614174 20.056969
v 3.960528 0.614174 20.040825
v 3.960528 0.614174 19.988583
v 4.010213 0.614174 19.972439
v 4.040921 0.614173 20.014704
v 3.996481 0.710412 20.014704
v 3.988409 0.567870 20.039547
v 4.017613 0.567870 20.030058
v 4.009542 0.522809 20.054899
v 4.038746 0.522809 20.014704
v 4.017613 0.567870 19.999350
v 3.970359 0.567869 20.014704
v 3.962287 0.522809 20.039547
v 3.988409 0.567870 19.989861
v 3.962287 0.522809 19.989861
v 4.009542 0.522809 19.974508
v 4.043735 0.541555 20.030058
v 4.043735 0.541555 19.999350
v 3.996481 0.541555 20.064390
v 4.025685 0.541555 20.054901
v 3.949227 0.541555 20.030058
v 3.967276 0.541555 20.054901
v 3.967276 0.541555 19.974506
v 3.949227 0.541555 19.999350
v 4.025685 0.541555 19.974506
v 3.996481 0.541555 19.965017
v 4.030674 0.627843 20.039547
v 3.983420 0.627844 20.054899
v 3.954216 0.627843 20.014704
v 3.983420 0.627844 19.974508
v 4.030674 0.627843 19.989861
v 4.004552 0.684411 20.039547
v 4.022602 0.684411 20.014704
v 3.975348 0.684411 20.030058
v 3.975348 0.684411 19.999350
v 4.004552 0.684411 19.989861
vt 0.375000 0.000000
vt 0.625000 0.000000
vt 0.625000 0.250000
vt 0.375000 0.250000
vt 0.625000 0.500000
vt 0.375000 0.500000
vt 0.625000 0.750000
vt 0.375000 0.750000
vt 0.625000 1.000000
vt 0.375000 1.000000
vt 0.125000 0.500000
vt 0.125000 0.750000
vt 0.625000 0.500000
vt 0.625000 0.750000
vt 0.625000 0.500000
vt 0.625000 0.750000
vt 0.625000 0.000000
vt 0.625000 0.250000
vt 0.625000 1.000000
vt 0.625000 1.000000
vt 0.625000 0.750000
vt 0.625000 1.000000
vt 0.625000 0.000000
vt 0.625000 0.250000
vt 0.625000 0.500000
vt 0.875000 0.500000
vt 0.875000 0.750000
vt 0.625000 0.250000
vt 0.625000 0.000000
vt 0.818181 0.000000
vt 0.772726 0.078731
vt 0.863635 0.078731
vt 0.727272 0.157461
vt 0.681818 0.078731
vt 0.636363 0.157461
vt 0.090909 0.000000
vt 0.045454 0.078731
vt 0.136363 0.078731
vt 0.272727 0.000000
vt 0.227273 0.078731
vt 0.318182 0.078731
vt 0.454545 0.000000
vt 0.409090 0.078731
vt 0.500000 0.078731
vt 0.681818 0.236191
vt 0.909090 0.157461
vt 0.818181 0.157461
vt 0.863635 0.236191
vt 0.181818 0.157461
vt 0.090909 0.157461
vt 0.136363 0.236191
vt 0.363636 0.157461
vt 0.272727 0.157461
vt 0.318182 0.236191
vt 0.545454 0.157461
vt 0.454545 0.157461
vt 0.500000 0.236191
vt 0.772726 0.236191
vt 0.954545 0.236191
vt 0.227273 0.236191
vt 0.409090 0.236191
vt 0.590909 0.236191
vt 0.818181 0.314921
vt 0.727272 0.314921
vt 0.772726 0.393651
vt 1.000000 0.314921
vt 0.909091 0.314921
vt 0.954545 0.393651
vt 0.272727 0.314921
vt 0.181818 0.314921
vt 0.227273 0.393651
vt 0.454545 0.314921
vt 0.363636 0.314921
vt 0.409090 0.393651
vt 0.636363 0.314921
vt 0.545454 0.314921
vt 0.590909 0.393651
vt 0.500000 0.393651
vt 0.545454 0.472382
vt 0.318182 0.393651
vt 0.363636 0.472382
vt 0.136363 0.393651
vt 0.181818 0.472382
vt 0.090909 0.314921
vt 0.863635 0.393651
vt 0.909090 0.472382
vt 0.681818 0.393651
vt 0.727272 0.472382
vt 0.045454 0.236191
vt 0.000000 0.157461
vt 0.590909 0.078731
vt 0.636363 0.000000
vn -1.0000 0.0000 0.0000
vn 0.0000 -0.0483 -0.9988
vn 1.0000 0.0000 0.0000
vn 0.0000 0.0482 0.9988
vn 0.0000 -1.0000 0.0000
vn 0.9974 -0.0718 0.0000
vn 0.9998 0.0219 0.0000
vn -0.9974 0.0718 0.0000
vn 0.0000 -0.0323 0.9995
vn 0.0000 0.0324 -0.9995
vn 0.0000 0.0188 0.9998
vn -0.9998 -0.0219 0.0000
vn 0.0000 -0.0246 0.9997
vn 0.0000 0.0246 -0.9997
vn 0.0000 1.0000 0.0000
vn 0.0000 -0.0188 -0.9998
vn 0.9998 -0.0214 0.0000
vn -0.9998 0.0214 0.0000
vn -0.2809 -0.4171 -0.8644
vn -0.9049 -0.3349 -0.2626
vn 0.7353 -0.4171 -0.5342
vn 0.7353 -0.4171 0.5342
vn -0.2810 -0.4171 0.8644
vn 0.9089 -0.3808 0.1697
vn 0.1196 -0.3809 0.9168
vn -0.8350 -0.3809 0.3970
vn -0.6356 -0.3809 -0.6715
vn 0.4423 -0.3809 -0.8120
vn 0.8025 -0.1259 0.5831
vn -0.3066 -0.1259 0.9435
vn -0.9920 -0.1259 0.0000
vn -0.3066 -0.1259 -0.9435
vn 0.8025 -0.1259 -0.5831
vn 0.5288 0.2442 0.8128
vn -0.6095 0.2442 0.7542
vn -0.9056 0.2442 -0.3467
vn 0.0496 0.2442 -0.9684
vn 0.9365 0.2442 -0.2518
vn 0.6278 0.6307 -0.4561
vn 0.7578 0.3500 -0.5507
vn 0.5290 0.2442 -0.8127
vn -0.2398 0.6307 -0.7380
vn -0.2893 0.3500 -0.8910
vn -0.6095 0.2442 -0.7542
vn -0.7760 0.6307 0.0000
vn -0.9368 0.3500 0.0000
vn -0.9056 0.2442 0.3467
vn -0.2398 0.6307 0.7380
vn -0.2894 0.3499 0.8909
vn 0.0498 0.2442 0.9684
vn 0.6278 0.6307 0.4561
vn 0.7578 0.3500 0.5506
vn 0.9365 0.2442 0.2518
vn 0.9384 0.1059 -0.3289
vn 0.8077 0.0577 -0.5868
vn 0.6027 0.1059 -0.7909
vn -0.0228 0.1059 -0.9941
vn -0.3085 0.0577 -0.9495
vn -0.5659 0.1059 -0.8176
vn -0.9525 0.1059 -0.2856
vn -0.9983 0.0577 0.0000
vn -0.9525 0.1059 0.2856
vn -0.5660 0.1059 0.8176
vn -0.3084 0.0577 0.9495
vn -0.0229 0.1059 0.9941
vn 0.6027 0.1059 0.7909
vn 0.8077 0.0577 0.5868
vn 0.9384 0.1059 0.3288
vn 0.3088 0.0387 -0.9504
vn 0.2985 -0.2573 -0.9191
vn 0.1197 -0.3809 -0.9168
vn -0.8084 0.0387 -0.5873
vn -0.7818 -0.2572 -0.5680
vn -0.8351 -0.3808 -0.3970
vn -0.8084 0.0387 0.5873
vn -0.7818 -0.2572 0.5680
vn -0.6356 -0.3809 0.6715
vn 0.3089 0.0387 0.9503
vn 0.2986 -0.2573 0.9191
vn 0.4423 -0.3809 0.8120
vn 0.9993 0.0387 0.0000
vn 0.9664 -0.2572 0.0000
vn 0.9089 -0.3808 -0.1697
vn -0.5294 -0.3349 0.7795
vn -0.2797 -0.4246 0.8611
vn -0.0300 -0.3349 0.9418
vn 0.5778 -0.3349 0.7444
vn 0.7324 -0.4246 0.5322
vn 0.8865 -0.3349 0.3194
vn 0.8865 -0.3349 -0.3194
vn 0.7324 -0.4246 -0.5322
vn 0.5777 -0.3349 -0.7444
vn -0.9049 -0.3349 0.2626
vn -0.9054 -0.4246 0.0000
vn -0.9089 -0.4171 0.0000
vn -0.0300 -0.3349 -0.9418
vn -0.2797 -0.4246 -0.8611
vn -0.5293 -0.3349 -0.7795
usemtl Mushroom2_1
s off
f 1/1/1 2/2/1 4/3/1 3/4/1
f 3/4/2 4/3/2 8/5/2 7/6/2
f 7/6/3 8/5/3 6/7/3 5/8/3
f 5/8/4 6/7/4 2/9/4 1/10/4
f 3/11/5 7/6/5 5/8/5 1/12/5
f 6/7/6 8/5/6 11/13/6 12/14/6
f 12/14/7 11/13/7 15/15/7 16/16/7
f 4/3/8 2/2/8 9/17/8 10/18/8
f 2/9/9 6/7/9 12/14/9 9/19/9
f 8/5/10 4/3/10 10/18/10 11/13/10
f 13/20/11 16/16/11 20/21/11 17/22/11
f 10/18/12 9/17/12 13/23/12 14/24/12
f 9/19/13 12/14/13 16/16/13 13/20/13
f 11/13/14 10/18/14 14/24/14 15/15/14
f 19/25/15 18/26/15 17/27/15 20/21/15
f 15/15/16 14/24/16 18/28/16 19/25/16
f 16/16/17 15/15/17 19/25/17 20/21/17
f 14/24/18 13/23/18 17/29/18 18/28/18
usemtl Mushroom2-2
f 21/30/19 34/31/19 33/32/19
f 22/33/20 34/34/20 36/35/20
f 21/36/21 33/37/21 38/38/21
f 21/39/22 38/40/22 40/41/22
f 21/42/23 40/43/23 37/44/23
f 22/33/24 36/35/24 43/45/24
f 23/46/25 35/47/25 45/48/25
f 24/49/26 39/50/26 47/51/26
f 25/52/27 41/53/27 49/54/27
f 26/55/28 42/56/28 51/57/28
f 22/33/29 43/45/29 46/58/29
f 23/46/30 45/48/30 48/59/30
f 24/49/31 47/51/31 50/60/31
f 25/52/32 49/54/32 52/61/32
f 26/55/33 51/57/33 44/62/33
f 27/63/34 53/64/34 58/65/34
f 28/66/35 54/67/35 60/68/35
f 29/69/36 55/70/36 61/71/36
f 30/72/37 56/73/37 62/74/37
f 31/75/38 57/76/38 59/77/38
f 59/77/39 62/78/39 32/79/39
f 59/77/40 57/76/40 62/78/40
f 57/76/41 30/72/41 62/78/41
f 62/74/42 61/80/42 32/81/42
f 62/74/43 56/73/43 61/80/43
f 56/73/44 29/69/44 61/80/44
f 61/71/45 60/82/45 32/83/45
f 61/71/46 55/70/46 60/82/46
f 55/70/47 28/84/47 60/82/47
f 60/68/48 58/85/48 32/86/48
f 60/68/49 54/67/49 58/85/49
f 54/67/50 27/63/50 58/85/50
f 58/65/51 59/87/51 32/88/51
f 58/65/52 53/64/52 59/87/52
f 53/64/53 31/75/53 59/87/53
f 44/62/54 57/76/54 31/75/54
f 44/62/55 51/57/55 57/76/55
f 51/57/56 30/72/56 57/76/56
f 52/61/57 56/73/57 30/72/57
f 52/61/58 49/54/58 56/73/58
f 49/54/59 29/69/59 56/73/59
f 50/60/60 55/70/60 29/69/60
f 50/60/61 47/51/61 55/70/61
f 47/51/62 28/84/62 55/70/62
f 48/59/63 54/67/63 28/66/63
f 48/59/64 45/48/64 54/67/64
f 45/48/65 27/63/65 54/67/65
f 46/58/66 53/64/66 27/63/66
f 46/58/67 43/45/67 53/64/67
f 43/45/68 31/75/68 53/64/68
f 51/57/69 52/61/69 30/72/69
f 51/57/70 42/56/70 52/61/70
f 42/56/71 25/52/71 52/61/71
f 49/54/72 50/60/72 29/69/72
f 49/54/73 41/53/73 50/60/73
f 41/53/74 24/49/74 50/60/74
f 47/51/75 48/89/75 28/84/75
f 47/51/76 39/50/76 48/89/76
f 39/50/77 23/90/77 48/89/77
f 45/48/78 46/58/78 27/63/78
f 45/48/79 35/47/79 46/58/79
f 35/47/80 22/33/80 46/58/80
f 43/45/81 44/62/81 31/75/81
f 43/45/82 36/35/82 44/62/82
f 36/35/83 26/55/83 44/62/83
f 37/44/84 42/56/84 26/55/84
f 37/44/85 40/43/85 42/56/85
f 40/43/86 25/52/86 42/56/86
f 40/41/87 41/53/87 25/52/87
f 40/41/88 38/40/88 41/53/88
f 38/40/89 24/49/89 41/53/89
f 38/38/90 39/50/90 24/49/90
f 38/38/91 33/37/91 39/50/91
f 33/37/92 23/90/92 39/50/92
f 36/35/93 37/91/93 26/55/93
f 36/35/94 34/34/94 37/91/94
f 34/34/95 21/92/95 37/91/95
f 33/32/96 35/47/96 23/46/96
f 33/32/97 34/31/97 35/47/97
f 34/31/98 22/33/98 35/47/98
