# Blender v2.90.1 OBJ File: 'NaturePack_AllModels.blend'
# www.blender.org
mtllib mushroom10.mtl
o Mushroom4_2_Cylinder.055
v -4.922991 -0.087764 19.774576
v -4.868667 0.131921 19.774343
v -4.878195 -0.087764 19.665094
v -4.839615 0.131921 19.703342
v -4.769103 -0.087764 19.619356
v -4.768869 0.131921 19.673681
v -4.659621 -0.087764 19.664152
v -4.697869 0.131921 19.702732
v -4.613882 -0.087764 19.773245
v -4.668206 0.131921 19.773478
v -4.658678 -0.087764 19.882727
v -4.697258 0.131921 19.844479
v -4.767770 -0.087764 19.928465
v -4.768004 0.131921 19.874140
v -4.877252 -0.087764 19.883669
v -4.839004 0.131921 19.845089
v -4.844652 0.402190 19.698349
v -4.875758 0.402190 19.774374
v -4.768899 0.402190 19.666588
v -4.692876 0.402190 19.697695
v -4.661115 0.402190 19.773447
v -4.692221 0.402190 19.849472
v -4.767973 0.402190 19.881231
v -4.843997 0.402190 19.850126
v -5.182835 0.313233 19.775698
v -4.953052 0.973762 19.774706
v -5.062725 0.313233 19.482151
v -4.899542 0.973762 19.643930
v -4.770224 0.313233 19.359512
v -4.769233 0.973762 19.589294
v -4.476676 0.313233 19.479622
v -4.638457 0.973762 19.642805
v -4.354038 0.313233 19.772123
v -4.583821 0.973762 19.773115
v -4.474149 0.313233 20.065670
v -4.637331 0.973762 19.903891
v -4.766649 0.313233 20.188309
v -4.767641 0.973762 19.958527
v -5.060197 0.313233 20.068199
v -4.898417 0.973762 19.905016
v -4.768436 1.232859 19.773911
v -5.059977 0.594067 19.775167
v -4.975476 0.594067 19.568649
v -4.769694 0.594067 19.482370
v -4.563176 0.594067 19.566872
v -4.476896 0.594067 19.772654
v -4.561397 0.594067 19.979172
v -4.767179 0.594067 20.065451
v -4.973698 0.594067 19.980949
vt 0.098999 0.910092
vt 0.001001 0.910092
vt 0.001001 0.998999
vt 0.098999 0.998999
vt 0.998999 0.819183
vt 0.901001 0.819183
vt 0.901001 0.908090
vt 0.998999 0.908090
vt 0.898999 0.819183
vt 0.801001 0.819183
vt 0.801001 0.908090
vt 0.898999 0.908090
vt 0.998999 0.728274
vt 0.901001 0.728274
vt 0.901001 0.817181
vt 0.998999 0.817181
vt 0.998999 0.637365
vt 0.901001 0.637365
vt 0.901001 0.726272
vt 0.998999 0.726272
vt 0.998999 0.546456
vt 0.901001 0.546456
vt 0.901001 0.635363
vt 0.998999 0.635363
vt 0.698999 0.364637
vt 0.601001 0.364637
vt 0.601001 0.544454
vt 0.698999 0.544454
vt 0.998999 0.455546
vt 0.901001 0.455546
vt 0.901001 0.544454
vt 0.998999 0.544454
vt 0.998999 0.364637
vt 0.901001 0.364637
vt 0.901001 0.453544
vt 0.998999 0.453544
vt 0.658993 0.362635
vt 0.601001 0.309968
vt 0.601001 0.235486
vt 0.658993 0.182819
vt 0.741007 0.182819
vt 0.798999 0.235486
vt 0.798999 0.309968
vt 0.741007 0.362635
vt 0.870296 0.728274
vt 0.898999 0.754314
vt 0.898999 0.791141
vt 0.870296 0.817181
vt 0.829704 0.817181
vt 0.801001 0.791141
vt 0.801001 0.754314
vt 0.829704 0.728274
vt 0.598999 0.635363
vt 0.598999 0.546456
vt 0.401001 0.546456
vt 0.401001 0.635363
vt 0.798999 0.364637
vt 0.701001 0.364637
vt 0.701001 0.544454
vt 0.798999 0.544454
vt 0.598999 0.726272
vt 0.598999 0.637365
vt 0.401001 0.637365
vt 0.401001 0.726272
vt 0.998999 0.182819
vt 0.901001 0.182819
vt 0.901001 0.362635
vt 0.998999 0.362635
vt 0.198999 0.817181
vt 0.198999 0.728274
vt 0.001001 0.728274
vt 0.001001 0.817181
vt 0.798999 0.546456
vt 0.701001 0.546456
vt 0.701001 0.726272
vt 0.798999 0.726272
vt 0.398999 0.817181
vt 0.398999 0.728274
vt 0.201001 0.728274
vt 0.201001 0.817181
vt 0.898999 0.180817
vt 0.898999 0.001001
vt 0.801001 0.001001
vt 0.801001 0.180817
vt 0.601001 0.908090
vt 0.798999 0.908090
vt 0.798999 0.819183
vt 0.601001 0.819183
vt 0.898999 0.362635
vt 0.898999 0.182819
vt 0.801001 0.182819
vt 0.801001 0.362635
vt 0.601001 0.817181
vt 0.798999 0.817181
vt 0.798999 0.728274
vt 0.601001 0.728274
vt 0.898999 0.544454
vt 0.898999 0.364637
vt 0.801001 0.364637
vt 0.801001 0.544454
vt 0.001001 0.908090
vt 0.198999 0.908090
vt 0.198999 0.819183
vt 0.001001 0.819183
vt 0.598999 0.729275
vt 0.598999 0.817181
vt 0.402002 0.817181
vt 0.898999 0.726272
vt 0.898999 0.546456
vt 0.801001 0.546456
vt 0.801001 0.726272
vt 0.201001 0.908090
vt 0.398999 0.908090
vt 0.398999 0.819183
vt 0.201001 0.819183
vt 0.117572 0.362635
vt 0.001001 0.256715
vt 0.001001 0.106921
vt 0.117572 0.001001
vt 0.282428 0.001001
vt 0.398999 0.106921
vt 0.398999 0.256715
vt 0.282428 0.362635
vt 0.598999 0.820184
vt 0.598999 0.908090
vt 0.402002 0.908090
vt 0.401001 0.816180
vt 0.401001 0.728274
vt 0.597998 0.728274
vt 0.602002 0.726272
vt 0.698999 0.726272
vt 0.698999 0.547457
vt 0.902002 0.180817
vt 0.998999 0.180817
vt 0.998999 0.002002
vt 0.997998 0.001001
vt 0.901001 0.001001
vt 0.901001 0.179816
vt 0.401001 0.907089
vt 0.401001 0.819183
vt 0.597998 0.819183
vt 0.601001 0.546456
vt 0.697998 0.546456
vt 0.601001 0.725271
vt 0.198999 0.364637
vt 0.001001 0.364637
vt 0.001001 0.544454
vt 0.198999 0.544454
vt 0.398999 0.364637
vt 0.201001 0.364637
vt 0.201001 0.544454
vt 0.398999 0.544454
vt 0.598999 0.001001
vt 0.401001 0.001001
vt 0.401001 0.180817
vt 0.598999 0.180817
vt 0.798999 0.001001
vt 0.601001 0.001001
vt 0.601001 0.180817
vt 0.798999 0.180817
vt 0.398999 0.546456
vt 0.201001 0.546456
vt 0.201001 0.726272
vt 0.398999 0.726272
vt 0.198999 0.546456
vt 0.001001 0.546456
vt 0.001001 0.726272
vt 0.198999 0.726272
vt 0.598999 0.364637
vt 0.401001 0.364637
vt 0.401001 0.544454
vt 0.598999 0.544454
vt 0.598999 0.182819
vt 0.401001 0.182819
vt 0.401001 0.362635
vt 0.598999 0.362635
vn -0.9023 0.2227 -0.3692
vn -0.3769 0.2227 -0.8991
vn 0.3692 0.2227 -0.9023
vn 0.8991 0.2227 -0.3770
vn 0.9023 0.2227 0.3692
vn 0.3770 0.2227 0.8991
vn -0.3786 -0.0242 0.9253
vn -0.3692 0.2227 0.9023
vn -0.8991 0.2227 0.3770
vn 0.0000 -1.0000 -0.0000
vn -0.0000 1.0000 0.0000
vn -0.3865 -0.0242 -0.9220
vn 0.9253 -0.0242 0.3786
vn -0.9219 -0.0242 0.3866
vn -0.9253 -0.0242 -0.3786
vn 0.3786 -0.0242 -0.9252
vn 0.3865 -0.0242 0.9220
vn 0.9219 -0.0242 -0.3866
vn -0.8957 0.2518 -0.3665
vn -0.3742 0.2518 -0.8925
vn 0.3665 0.2518 -0.8957
vn 0.8925 0.2518 -0.3742
vn 0.8957 0.2518 0.3665
vn 0.3742 0.2518 0.8925
vn 0.3230 0.5499 0.7703
vn -0.3665 0.2518 0.8957
vn -0.8925 0.2518 0.3742
vn 0.7703 0.5499 -0.3230
vn -0.3163 0.5499 0.7730
vn -0.3230 0.5499 -0.7703
vn 0.7731 0.5498 0.3163
vn -0.7703 0.5499 0.3230
vn -0.7731 0.5499 -0.3163
vn 0.3163 0.5499 -0.7730
vn -0.8550 0.3747 0.3585
vn -0.3511 0.3747 0.8581
vn 0.3585 0.3747 0.8550
vn 0.8581 0.3747 0.3511
vn 0.8550 0.3747 -0.3585
vn 0.3511 0.3747 -0.8581
vn -0.3585 0.3747 -0.8550
vn -0.8581 0.3747 -0.3511
usemtl Mushroom4_1
s 1
f 1/1/1 2/2/1 4/3/1 3/4/1
f 3/5/2 4/6/2 6/7/2 5/8/2
f 5/9/3 6/10/3 8/11/3 7/12/3
f 7/13/4 8/14/4 10/15/4 9/16/4
f 9/17/5 10/18/5 12/19/5 11/20/5
f 11/21/6 12/22/6 14/23/6 13/24/6
f 16/25/7 14/26/7 23/27/7 24/28/7
f 13/29/8 14/30/8 16/31/8 15/32/8
f 15/33/9 16/34/9 2/35/9 1/36/9
f 1/37/10 3/38/10 5/39/10 7/40/10 9/41/10 11/42/10 13/43/10 15/44/10
f 17/45/11 18/46/11 24/47/11 23/48/11 22/49/11 21/50/11 20/51/11 19/52/11
f 6/53/12 4/54/12 17/55/12 19/56/12
f 12/57/13 10/58/13 21/59/13 22/60/13
f 2/61/14 16/62/14 24/63/14 18/64/14
f 4/65/15 2/66/15 18/67/15 17/68/15
f 8/69/16 6/70/16 19/71/16 20/72/16
f 14/73/17 12/74/17 22/75/17 23/76/17
f 10/77/18 8/78/18 20/79/18 21/80/18
usemtl Mushroom4_2
f 42/81/19 26/82/19 28/83/19 43/84/19
f 43/85/20 28/86/20 30/87/20 44/88/20
f 44/89/21 30/90/21 32/91/21 45/92/21
f 45/93/22 32/94/22 34/95/22 46/96/22
f 46/97/23 34/98/23 36/99/23 47/100/23
f 47/101/24 36/102/24 38/103/24 48/104/24
f 38/105/25 36/106/25 41/107/25
f 48/108/26 38/109/26 40/110/26 49/111/26
f 49/112/27 40/113/27 26/114/27 42/115/27
f 25/116/10 27/117/10 29/118/10 31/119/10 33/120/10 35/121/10 37/122/10 39/123/10
f 34/124/28 32/125/28 41/126/28
f 40/127/29 38/128/29 41/129/29
f 30/130/30 28/131/30 41/132/30
f 36/133/31 34/134/31 41/135/31
f 26/136/32 40/137/32 41/138/32
f 28/139/33 26/140/33 41/141/33
f 32/142/34 30/143/34 41/144/34
f 39/145/35 49/146/35 42/147/35 25/148/35
f 37/149/36 48/150/36 49/151/36 39/152/36
f 35/153/37 47/154/37 48/155/37 37/156/37
f 33/157/38 46/158/38 47/159/38 35/160/38
f 31/161/39 45/162/39 46/163/39 33/164/39
f 29/165/40 44/166/40 45/167/40 31/168/40
f 27/169/41 43/170/41 44/171/41 29/172/41
f 25/173/42 42/174/42 43/175/42 27/176/42
