# Blender v2.90.1 OBJ File: 'NaturePack_AllModels.blend'
# www.blender.org
mtllib mushroom9.mtl
o Mushroom4_1_Cylinder.054
v -6.597515 -0.084100 19.782055
v -6.532476 0.062549 19.781517
v -6.555353 -0.087764 19.672327
v -6.508835 0.090663 19.710541
v -6.453306 -0.087628 19.632256
v -6.446414 0.125876 19.681854
v -6.372700 -0.085266 19.694021
v -6.384910 0.136235 19.715490
v -6.350353 -0.080781 19.803213
v -6.361982 0.139174 19.790005
v -6.371612 -0.077521 19.896122
v -6.383020 0.129462 19.857246
v -6.446035 -0.069801 19.936724
v -6.438795 0.091349 19.882217
v -6.543903 -0.073148 19.891876
v -6.502669 0.062750 19.852278
v -6.521810 0.402190 19.705582
v -6.552917 0.402190 19.781607
v -6.446901 0.402558 19.674294
v -6.379155 0.406171 19.710028
v -6.354890 0.409443 19.789972
v -6.378500 0.406171 19.861805
v -6.445975 0.402558 19.888937
v -6.521155 0.402190 19.857359
v -6.778594 0.270552 19.717651
v -6.610577 0.691783 19.731464
v -6.616974 0.260571 19.498549
v -6.538575 0.687337 19.633854
v -6.347866 0.269928 19.457077
v -6.429744 0.688505 19.615551
v -6.134617 0.292763 19.616154
v -6.352748 0.693270 19.687355
v -6.129333 0.313889 19.876024
v -6.347836 0.700159 19.807127
v -6.290953 0.323871 20.095127
v -6.419837 0.704606 19.904737
v -6.524801 0.316860 20.145115
v -6.526576 0.704006 19.923008
v -6.738050 0.294025 19.986040
v -6.603571 0.699240 19.851204
v -6.467041 0.861979 19.756081
v -6.684487 0.451509 19.728607
v -6.570783 0.444487 19.574461
v -6.381459 0.451070 19.545286
v -6.227468 0.467399 19.658157
v -6.206177 0.483349 19.845331
v -6.319857 0.490378 19.999475
v -6.501973 0.484352 20.030294
v -6.655963 0.468023 19.917423
vt 0.998999 0.101001
vt 0.901001 0.101001
vt 0.901001 0.198999
vt 0.998999 0.198999
vt 0.098999 0.901001
vt 0.001001 0.901001
vt 0.001001 0.998999
vt 0.098999 0.998999
vt 0.698999 0.198999
vt 0.698999 0.001001
vt 0.601001 0.001001
vt 0.601001 0.198999
vt 0.201001 0.498999
vt 0.398999 0.498999
vt 0.398999 0.401001
vt 0.201001 0.401001
vt 0.998999 0.001001
vt 0.901001 0.001001
vt 0.901001 0.098999
vt 0.998999 0.098999
vt 0.898999 0.801001
vt 0.801001 0.801001
vt 0.801001 0.898999
vt 0.898999 0.898999
vt 0.498999 0.301001
vt 0.401001 0.301001
vt 0.401001 0.498999
vt 0.498999 0.498999
vt 0.898999 0.701001
vt 0.801001 0.701001
vt 0.801001 0.798999
vt 0.898999 0.798999
vt 0.898999 0.601001
vt 0.801001 0.601001
vt 0.801001 0.698999
vt 0.898999 0.698999
vt 0.198999 0.543450
vt 0.128311 0.598999
vt 0.038409 0.593012
vt 0.001001 0.530159
vt 0.023780 0.455392
vt 0.072951 0.403981
vt 0.142759 0.401001
vt 0.198999 0.458601
vt 0.898999 0.568761
vt 0.870418 0.598999
vt 0.830055 0.598955
vt 0.801498 0.569149
vt 0.801001 0.531195
vt 0.829081 0.505354
vt 0.869945 0.501001
vt 0.898999 0.526447
vt 0.198999 0.698999
vt 0.198999 0.601001
vt 0.001001 0.601001
vt 0.001001 0.698999
vt 0.698999 0.201001
vt 0.601001 0.201001
vt 0.601001 0.398999
vt 0.698999 0.398999
vt 0.398999 0.698999
vt 0.398999 0.601001
vt 0.201001 0.601001
vt 0.201001 0.698999
vt 0.698999 0.401001
vt 0.601001 0.401001
vt 0.601001 0.598999
vt 0.698999 0.598999
vt 0.598999 0.698999
vt 0.598999 0.601001
vt 0.401001 0.601001
vt 0.401001 0.698999
vt 0.798999 0.001001
vt 0.701001 0.001001
vt 0.701001 0.198999
vt 0.798999 0.198999
vt 0.198999 0.798999
vt 0.198999 0.701001
vt 0.001001 0.701001
vt 0.001001 0.798999
vt 0.798999 0.398999
vt 0.798999 0.201001
vt 0.701001 0.201001
vt 0.701001 0.398999
vt 0.401001 0.898999
vt 0.598999 0.898999
vt 0.598999 0.801001
vt 0.401001 0.801001
vt 0.798999 0.598999
vt 0.798999 0.401001
vt 0.701001 0.401001
vt 0.701001 0.598999
vt 0.401001 0.798999
vt 0.598999 0.798999
vt 0.598999 0.701001
vt 0.401001 0.701001
vt 0.698999 0.798999
vt 0.698999 0.601001
vt 0.601001 0.601001
vt 0.601001 0.798999
vt 0.001001 0.898999
vt 0.198999 0.898999
vt 0.198999 0.801001
vt 0.001001 0.801001
vt 0.398999 0.702002
vt 0.398999 0.798999
vt 0.202002 0.798999
vt 0.798999 0.798999
vt 0.798999 0.601001
vt 0.701001 0.601001
vt 0.701001 0.798999
vt 0.201001 0.898999
vt 0.398999 0.898999
vt 0.398999 0.801001
vt 0.201001 0.801001
vt 0.001001 0.281463
vt 0.001001 0.117172
vt 0.124916 0.001001
vt 0.296666 0.002366
vt 0.398999 0.126969
vt 0.398999 0.291260
vt 0.296666 0.398999
vt 0.124917 0.397634
vt 0.198999 0.998999
vt 0.102002 0.998999
vt 0.198999 0.902002
vt 0.201001 0.701001
vt 0.201001 0.797998
vt 0.397998 0.701001
vt 0.598999 0.002002
vt 0.598999 0.098999
vt 0.402002 0.098999
vt 0.197998 0.901001
vt 0.101001 0.901001
vt 0.101001 0.997998
vt 0.498999 0.298999
vt 0.402002 0.298999
vt 0.498999 0.102002
vt 0.497998 0.101001
vt 0.401001 0.101001
vt 0.401001 0.297998
vt 0.401001 0.001001
vt 0.401001 0.097998
vt 0.597998 0.001001
vt 0.898999 0.001001
vt 0.801001 0.001001
vt 0.801001 0.198999
vt 0.898999 0.198999
vt 0.798999 0.898999
vt 0.798999 0.801001
vt 0.601001 0.801001
vt 0.601001 0.898999
vt 0.898999 0.401001
vt 0.801001 0.401001
vt 0.801001 0.498999
vt 0.898999 0.498999
vt 0.898999 0.201001
vt 0.801001 0.201001
vt 0.801001 0.398999
vt 0.898999 0.398999
vt 0.598999 0.598999
vt 0.598999 0.501001
vt 0.401001 0.501001
vt 0.401001 0.598999
vt 0.598999 0.101001
vt 0.501001 0.101001
vt 0.501001 0.298999
vt 0.598999 0.298999
vt 0.398999 0.598999
vt 0.398999 0.501001
vt 0.201001 0.501001
vt 0.201001 0.598999
vt 0.598999 0.301001
vt 0.501001 0.301001
vt 0.501001 0.498999
vt 0.598999 0.498999
vn -0.8974 0.3405 -0.2807
vn -0.4189 0.2525 -0.8722
vn 0.5429 0.1419 -0.8277
vn 0.9688 0.0568 -0.2411
vn 0.9626 0.0834 0.2576
vn 0.3943 0.2301 0.8897
vn -0.3987 -0.0324 0.9165
vn -0.4491 0.3356 0.8280
vn -0.8510 0.3726 0.3701
vn 0.0006 -0.9984 0.0567
vn -0.0322 0.9995 0.0001
vn -0.3939 -0.0286 -0.9187
vn 0.9525 -0.0227 0.3037
vn -0.9204 -0.0557 0.3869
vn -0.9327 -0.0505 -0.3570
vn 0.4749 -0.0255 -0.8797
vn 0.3939 -0.0158 0.9190
vn 0.9563 -0.0257 -0.2912
vn -0.7748 0.2453 -0.5827
vn -0.1586 0.2524 -0.9545
vn 0.5596 0.3690 -0.7421
vn 0.8521 0.5116 -0.1108
vn 0.6906 0.5367 0.4849
vn 0.1395 0.4506 0.8817
vn 0.1166 0.7003 0.7043
vn -0.6097 0.3171 0.7264
vn -0.9590 0.2689 0.0895
vn 0.0469 -0.9957 0.0800
vn 0.8133 0.5781 -0.0666
vn -0.5032 0.7101 0.4925
vn -0.1383 0.6053 -0.7839
vn 0.6462 0.6175 0.4485
vn -0.7648 0.6443 0.0046
vn -0.6293 0.6019 -0.4916
vn 0.5249 0.6011 -0.6027
vn -0.8856 0.4549 0.0940
vn -0.5432 0.5207 0.6586
vn 0.1458 0.5293 0.8358
vn 0.7363 0.4286 0.5236
vn 0.8921 0.4429 -0.0898
vn 0.5004 0.4488 -0.7404
vn -0.1528 0.4096 -0.8994
vn -0.7248 0.4104 -0.5533
usemtl Mushroom4_1
s 1
f 1/1/1 2/2/1 4/3/1 3/4/1
f 3/5/2 4/6/2 6/7/2 5/8/2
f 5/9/3 6/10/3 8/11/3 7/12/3
f 7/13/4 8/14/4 10/15/4 9/16/4
f 9/17/5 10/18/5 12/19/5 11/20/5
f 11/21/6 12/22/6 14/23/6 13/24/6
f 16/25/7 14/26/7 23/27/7 24/28/7
f 13/29/8 14/30/8 16/31/8 15/32/8
f 15/33/9 16/34/9 2/35/9 1/36/9
f 1/37/10 3/38/10 5/39/10 7/40/10 9/41/10 11/42/10 13/43/10 15/44/10
f 17/45/11 18/46/11 24/47/11 23/48/11 22/49/11 21/50/11 20/51/11 19/52/11
f 6/53/12 4/54/12 17/55/12 19/56/12
f 12/57/13 10/58/13 21/59/13 22/60/13
f 2/61/14 16/62/14 24/63/14 18/64/14
f 4/65/15 2/66/15 18/67/15 17/68/15
f 8/69/16 6/70/16 19/71/16 20/72/16
f 14/73/17 12/74/17 22/75/17 23/76/17
f 10/77/18 8/78/18 20/79/18 21/80/18
usemtl Mushroom4_2
f 42/81/19 26/82/19 28/83/19 43/84/19
f 43/85/20 28/86/20 30/87/20 44/88/20
f 44/89/21 30/90/21 32/91/21 45/92/21
f 45/93/22 32/94/22 34/95/22 46/96/22
f 46/97/23 34/98/23 36/99/23 47/100/23
f 47/101/24 36/102/24 38/103/24 48/104/24
f 38/105/25 36/106/25 41/107/25
f 48/108/26 38/109/26 40/110/26 49/111/26
f 49/112/27 40/113/27 26/114/27 42/115/27
f 25/116/28 27/117/28 29/118/28 31/119/28 33/120/28 35/121/28 37/122/28 39/123/28
f 34/124/29 32/125/29 41/126/29
f 40/127/30 38/128/30 41/129/30
f 30/130/31 28/131/31 41/132/31
f 36/133/32 34/134/32 41/135/32
f 26/136/33 40/137/33 41/138/33
f 28/139/34 26/140/34 41/141/34
f 32/142/35 30/143/35 41/144/35
f 39/145/36 49/146/36 42/147/36 25/148/36
f 37/149/37 48/150/37 49/151/37 39/152/37
f 35/153/38 47/154/38 48/155/38 37/156/38
f 33/157/39 46/158/39 47/159/39 35/160/39
f 31/161/40 45/162/40 46/163/40 33/164/40
f 29/165/41 44/166/41 45/167/41 31/168/41
f 27/169/42 43/170/42 44/171/42 29/172/42
f 25/173/43 42/174/43 43/175/43 27/176/43
