# Blender v2.90.1 OBJ File: 'NaturePack_AllModels.blend'
# www.blender.org
mtllib mushroom6.mtl
o Mushroom2_2.001_Cylinder.051
v -11.243459 -0.087764 19.726620
v -11.243492 0.143528 19.705624
v -11.161631 -0.087764 19.760363
v -11.146807 0.143528 19.745491
v -11.127629 -0.087764 19.842083
v -11.106632 0.143528 19.842049
v -11.161371 -0.087764 19.923910
v -11.146500 0.143528 19.938734
v -11.243091 -0.087764 19.957912
v -11.243057 0.143528 19.978909
v -11.324919 -0.087764 19.924170
v -11.339743 0.143528 19.939041
v -11.358920 -0.087764 19.842449
v -11.379917 0.143528 19.842484
v -11.325178 -0.087764 19.760622
v -11.340050 0.143528 19.745800
v -11.161631 0.339626 19.760363
v -11.243459 0.339626 19.726622
v -11.127629 0.339625 19.842083
v -11.161371 0.339625 19.923910
v -11.243091 0.339625 19.957912
v -11.324919 0.339625 19.924171
v -11.358920 0.339625 19.842451
v -11.325178 0.339626 19.760624
v -11.243543 0.638843 19.673704
v -11.124271 0.638843 19.722885
v -11.074711 0.638843 19.841999
v -11.123893 0.638842 19.961271
v -11.243007 0.638842 20.010832
v -11.362278 0.638842 19.961649
v -11.411839 0.638843 19.842535
v -11.362657 0.638843 19.723265
v -11.243676 0.318788 19.589909
v -11.243743 0.407976 19.547745
v -11.065114 0.318787 19.663540
v -11.035347 0.407976 19.633678
v -10.990917 0.318787 19.841866
v -10.948752 0.407976 19.841799
v -11.064548 0.318787 20.020428
v -11.034685 0.407975 20.050196
v -11.242873 0.318786 20.094625
v -11.242806 0.407975 20.136789
v -11.421435 0.318787 20.020994
v -11.451202 0.407975 20.050858
v -11.495632 0.318787 19.842669
v -11.537797 0.407976 19.842735
v -11.422002 0.318787 19.664106
v -11.451864 0.407976 19.634340
v -11.188568 0.659846 19.709599
v -11.110781 0.659846 19.787140
v -11.110606 0.659846 19.896975
v -11.188147 0.659846 19.974762
v -11.297981 0.659846 19.974937
v -11.375769 0.659846 19.897396
v -11.375943 0.659846 19.787561
v -11.298403 0.659846 19.709774
v -11.243755 0.338082 19.539865
v -11.131127 0.407976 19.570299
v -11.029785 0.338082 19.628098
v -11.158849 0.316412 19.637526
v -10.971664 0.407976 19.729256
v -10.940873 0.338082 19.841787
v -11.038802 0.316412 19.757191
v -10.971306 0.407975 19.954414
v -11.029105 0.338081 20.055758
v -11.038532 0.316412 19.926693
v -11.130264 0.407975 20.113878
v -11.242794 0.338081 20.144669
v -11.158198 0.316411 20.046740
v -11.355422 0.407975 20.114235
v -11.456764 0.338081 20.056437
v -11.327701 0.316411 20.047009
v -11.514885 0.407975 19.955278
v -11.545676 0.338082 19.842749
v -11.447747 0.316412 19.927343
v -11.515244 0.407976 19.730120
v -11.457444 0.338082 19.628777
v -11.448017 0.316412 19.757841
v -11.356286 0.407976 19.570656
v -11.328351 0.316412 19.637794
v -11.243652 0.537952 19.604828
v -11.075646 0.537952 19.674105
v -11.411437 0.537952 19.674639
v -11.005835 0.537952 19.841890
v -11.075112 0.537951 20.009895
v -11.242897 0.537951 20.079708
v -11.410903 0.537951 20.010429
v -11.480715 0.537952 19.842646
v -11.333608 0.540023 19.625160
v -11.025881 0.540022 19.931910
v -11.152942 0.540022 20.059376
v -11.332917 0.540022 20.059662
v -11.460382 0.540022 19.932600
v -11.460669 0.540023 19.752625
v -11.243275 0.713390 19.842268
v -11.026167 0.540023 19.751934
v -11.153632 0.540023 19.624874
v -11.128919 0.337848 19.564941
v -10.966314 0.337848 19.727030
v -10.965950 0.337847 19.956623
v -11.128038 0.337847 20.119226
v -11.357631 0.337847 20.119593
v -11.520235 0.337847 19.957504
v -11.520599 0.337848 19.727911
v -11.358511 0.337848 19.565308
v -11.243275 0.310357 19.842266
vt 0.748999 0.332332
vt 0.748999 0.167668
vt 0.667668 0.167668
vt 0.667668 0.332332
vt 0.167668 0.748999
vt 0.332332 0.748999
vt 0.332332 0.667668
vt 0.167668 0.667668
vt 0.665666 0.582332
vt 0.665666 0.417668
vt 0.584334 0.417668
vt 0.584334 0.582332
vt 0.001001 0.748999
vt 0.165666 0.748999
vt 0.165666 0.667668
vt 0.001001 0.667668
vt 0.665666 0.415666
vt 0.665666 0.251001
vt 0.584334 0.251001
vt 0.584334 0.415666
vt 0.501001 0.665666
vt 0.665666 0.665666
vt 0.665666 0.584334
vt 0.501001 0.584334
vt 0.665666 0.001001
vt 0.584334 0.001001
vt 0.584334 0.165666
vt 0.665666 0.165666
vt 0.334334 0.582332
vt 0.498999 0.582332
vt 0.498999 0.501001
vt 0.334334 0.501001
vt 0.582332 0.165666
vt 0.582332 0.001001
vt 0.501001 0.001001
vt 0.501001 0.165666
vt 0.049230 0.665666
vt 0.001001 0.617436
vt 0.001001 0.549230
vt 0.049230 0.501001
vt 0.117437 0.501001
vt 0.165666 0.549230
vt 0.165666 0.617437
vt 0.117436 0.665666
vt 0.334334 0.382563
vt 0.382564 0.334334
vt 0.450770 0.334334
vt 0.498999 0.382564
vt 0.498999 0.450770
vt 0.450770 0.498999
vt 0.382563 0.498999
vt 0.334334 0.450770
vt 0.332332 0.582332
vt 0.332332 0.501001
vt 0.167668 0.501001
vt 0.167668 0.582332
vt 0.748999 0.001001
vt 0.667668 0.001001
vt 0.667668 0.165666
vt 0.748999 0.165666
vt 0.665666 0.248999
vt 0.665666 0.167668
vt 0.501001 0.167668
vt 0.501001 0.248999
vt 0.582332 0.251001
vt 0.501001 0.251001
vt 0.501001 0.415666
vt 0.582332 0.415666
vt 0.332332 0.665666
vt 0.332332 0.584334
vt 0.167668 0.584334
vt 0.167668 0.665666
vt 0.582332 0.417668
vt 0.501001 0.417668
vt 0.501001 0.582332
vt 0.582332 0.582332
vt 0.498999 0.665666
vt 0.498999 0.584334
vt 0.334334 0.584334
vt 0.334334 0.665666
vt 0.915666 0.917668
vt 0.834334 0.917668
vt 0.834334 0.998999
vt 0.915666 0.998999
vt 0.998999 0.834334
vt 0.917668 0.834334
vt 0.917668 0.915666
vt 0.998999 0.915666
vt 0.998999 0.751001
vt 0.917668 0.751001
vt 0.917668 0.832332
vt 0.998999 0.832332
vt 0.832332 0.917668
vt 0.751001 0.917668
vt 0.751001 0.998999
vt 0.832332 0.998999
vt 0.998999 0.667668
vt 0.917668 0.667668
vt 0.917668 0.748999
vt 0.998999 0.748999
vt 0.748999 0.917668
vt 0.667668 0.917668
vt 0.667668 0.998999
vt 0.748999 0.998999
vt 0.998999 0.584334
vt 0.917668 0.584334
vt 0.917668 0.665666
vt 0.998999 0.665666
vt 0.832332 0.584334
vt 0.751001 0.584334
vt 0.751001 0.665666
vt 0.832332 0.665666
vt 0.748999 0.334334
vt 0.667668 0.334334
vt 0.667668 0.415666
vt 0.748999 0.415666
vt 0.415666 0.667668
vt 0.334334 0.667668
vt 0.334334 0.748999
vt 0.415666 0.748999
vt 0.498999 0.667668
vt 0.417668 0.667668
vt 0.417668 0.748999
vt 0.498999 0.748999
vt 0.748999 0.417668
vt 0.667668 0.417668
vt 0.667668 0.498999
vt 0.748999 0.498999
vt 0.748999 0.501001
vt 0.667668 0.501001
vt 0.667668 0.582332
vt 0.748999 0.582332
vt 0.582332 0.667668
vt 0.501001 0.667668
vt 0.501001 0.748999
vt 0.582332 0.748999
vt 0.665666 0.667668
vt 0.584334 0.667668
vt 0.584334 0.748999
vt 0.665666 0.748999
vt 0.748999 0.584334
vt 0.667668 0.584334
vt 0.667668 0.665666
vt 0.748999 0.665666
vt 0.748999 0.667668
vt 0.667668 0.667668
vt 0.667668 0.748999
vt 0.748999 0.748999
vt 0.832332 0.001001
vt 0.751001 0.001001
vt 0.751001 0.082332
vt 0.832332 0.082332
vt 0.082332 0.751001
vt 0.001001 0.751001
vt 0.001001 0.832332
vt 0.082332 0.832332
vt 0.165666 0.751001
vt 0.084334 0.751001
vt 0.084334 0.832332
vt 0.165666 0.832332
vt 0.832332 0.084334
vt 0.751001 0.084334
vt 0.751001 0.165666
vt 0.832332 0.165666
vt 0.832332 0.167668
vt 0.751001 0.167668
vt 0.751001 0.248999
vt 0.832332 0.248999
vt 0.248999 0.751001
vt 0.167668 0.751001
vt 0.167668 0.832332
vt 0.248999 0.832332
vt 0.332332 0.751001
vt 0.251001 0.751001
vt 0.251001 0.832332
vt 0.332332 0.832332
vt 0.832332 0.251001
vt 0.751001 0.251001
vt 0.751001 0.332332
vt 0.832332 0.332332
vt 0.832332 0.334334
vt 0.751001 0.334334
vt 0.751001 0.415666
vt 0.832332 0.415666
vt 0.415666 0.751001
vt 0.334334 0.751001
vt 0.334334 0.832332
vt 0.415666 0.832332
vt 0.832332 0.417668
vt 0.751001 0.417668
vt 0.751001 0.498999
vt 0.832332 0.498999
vt 0.498999 0.751001
vt 0.417668 0.751001
vt 0.417668 0.832332
vt 0.498999 0.832332
vt 0.832332 0.501001
vt 0.751001 0.501001
vt 0.751001 0.582332
vt 0.832332 0.582332
vt 0.582332 0.751001
vt 0.501001 0.751001
vt 0.501001 0.832332
vt 0.582332 0.832332
vt 0.998999 0.917668
vt 0.917668 0.917668
vt 0.917668 0.998999
vt 0.998999 0.998999
vt 0.665666 0.751001
vt 0.584334 0.751001
vt 0.584334 0.832332
vt 0.665666 0.832332
vt 0.832332 0.667668
vt 0.751001 0.667668
vt 0.751001 0.748999
vt 0.832332 0.748999
vt 0.748999 0.751001
vt 0.667668 0.751001
vt 0.667668 0.832332
vt 0.748999 0.832332
vt 0.832332 0.751001
vt 0.751001 0.751001
vt 0.751001 0.832332
vt 0.832332 0.832332
vt 0.915666 0.001001
vt 0.834334 0.001001
vt 0.834334 0.082332
vt 0.915666 0.082332
vt 0.082332 0.834334
vt 0.001001 0.834334
vt 0.001001 0.915666
vt 0.082332 0.915666
vt 0.165666 0.834334
vt 0.084334 0.834334
vt 0.084334 0.915666
vt 0.165666 0.915666
vt 0.915666 0.084334
vt 0.834334 0.084334
vt 0.834334 0.165666
vt 0.915666 0.165666
vt 0.248999 0.834334
vt 0.167668 0.834334
vt 0.167668 0.915666
vt 0.248999 0.915666
vt 0.915666 0.167668
vt 0.834334 0.167668
vt 0.834334 0.248999
vt 0.915666 0.248999
vt 0.915666 0.251001
vt 0.834334 0.251001
vt 0.834334 0.332332
vt 0.915666 0.332332
vt 0.332332 0.834334
vt 0.251001 0.834334
vt 0.251001 0.915666
vt 0.332332 0.915666
vt 0.415666 0.834334
vt 0.334334 0.834334
vt 0.334334 0.915666
vt 0.415666 0.915666
vt 0.915666 0.334334
vt 0.834334 0.334334
vt 0.834334 0.415666
vt 0.915666 0.415666
vt 0.498999 0.834334
vt 0.417668 0.834334
vt 0.417668 0.915666
vt 0.498999 0.915666
vt 0.915666 0.417668
vt 0.834334 0.417668
vt 0.834334 0.498999
vt 0.915666 0.498999
vt 0.915666 0.501001
vt 0.834334 0.501001
vt 0.834334 0.582332
vt 0.915666 0.582332
vt 0.582332 0.834334
vt 0.501001 0.834334
vt 0.501001 0.915666
vt 0.582332 0.915666
vt 0.665666 0.834334
vt 0.584334 0.834334
vt 0.584334 0.915666
vt 0.665666 0.915666
vt 0.915666 0.584334
vt 0.834334 0.584334
vt 0.834334 0.665666
vt 0.915666 0.665666
vt 0.748999 0.834334
vt 0.667668 0.834334
vt 0.667668 0.915666
vt 0.748999 0.915666
vt 0.915666 0.667668
vt 0.834334 0.667668
vt 0.834334 0.748999
vt 0.915666 0.748999
vt 0.832332 0.834334
vt 0.751001 0.834334
vt 0.751001 0.915666
vt 0.832332 0.915666
vt 0.915666 0.751001
vt 0.834334 0.751001
vt 0.834334 0.832332
vt 0.915666 0.832332
vt 0.915666 0.834334
vt 0.834334 0.834334
vt 0.834334 0.915666
vt 0.915666 0.915666
vt 0.998999 0.001001
vt 0.917668 0.001001
vt 0.917668 0.082332
vt 0.998999 0.082332
vt 0.082332 0.917668
vt 0.001001 0.917668
vt 0.001001 0.998999
vt 0.082332 0.998999
vt 0.165666 0.917668
vt 0.084334 0.917668
vt 0.084334 0.998999
vt 0.165666 0.998999
vt 0.998999 0.084334
vt 0.917668 0.084334
vt 0.917668 0.165666
vt 0.998999 0.165666
vt 0.998999 0.167668
vt 0.917668 0.167668
vt 0.917668 0.248999
vt 0.998999 0.248999
vt 0.248999 0.917668
vt 0.167668 0.917668
vt 0.167668 0.998999
vt 0.248999 0.998999
vt 0.998999 0.251001
vt 0.917668 0.251001
vt 0.917668 0.332332
vt 0.998999 0.332332
vt 0.332332 0.917668
vt 0.251001 0.917668
vt 0.251001 0.998999
vt 0.332332 0.998999
vt 0.998999 0.334334
vt 0.917668 0.334334
vt 0.917668 0.415666
vt 0.998999 0.415666
vt 0.415666 0.917668
vt 0.334334 0.917668
vt 0.334334 0.998999
vt 0.415666 0.998999
vt 0.498999 0.917668
vt 0.417668 0.917668
vt 0.417668 0.998999
vt 0.498999 0.998999
vt 0.998999 0.417668
vt 0.917668 0.417668
vt 0.917668 0.498999
vt 0.998999 0.498999
vt 0.998999 0.501001
vt 0.917668 0.501001
vt 0.917668 0.582332
vt 0.998999 0.582332
vt 0.582332 0.917668
vt 0.501001 0.917668
vt 0.501001 0.998999
vt 0.582332 0.998999
vt 0.665666 0.917668
vt 0.584334 0.917668
vt 0.584334 0.998999
vt 0.665666 0.998999
vt 0.332332 0.334334
vt 0.167668 0.334334
vt 0.167668 0.498999
vt 0.332332 0.498999
vt 0.165666 0.167668
vt 0.001001 0.167668
vt 0.001001 0.332332
vt 0.165666 0.332332
vt 0.332332 0.001001
vt 0.167668 0.001001
vt 0.167668 0.165666
vt 0.332332 0.165666
vt 0.332332 0.167668
vt 0.167668 0.167668
vt 0.167668 0.332332
vt 0.332332 0.332332
vt 0.165666 0.334334
vt 0.001001 0.334334
vt 0.001001 0.498999
vt 0.165666 0.498999
vt 0.498999 0.001001
vt 0.334334 0.001001
vt 0.334334 0.165666
vt 0.498999 0.165666
vt 0.498999 0.167668
vt 0.334334 0.167668
vt 0.334334 0.332332
vt 0.498999 0.332332
vt 0.165666 0.001001
vt 0.001001 0.001001
vt 0.001001 0.165666
vt 0.165666 0.165666
vn 0.3799 -0.0836 -0.9213
vn 0.9200 -0.0836 -0.3828
vn 0.9213 -0.0836 0.3799
vn 0.3828 -0.0836 0.9200
vn -0.3799 -0.0836 0.9212
vn -0.9200 -0.0836 0.3828
vn 0.3823 0.0984 0.9188
vn -0.9212 -0.0836 -0.3799
vn -0.3828 -0.0836 -0.9200
vn -0.0000 -1.0000 -0.0000
vn 0.0000 1.0000 0.0000
vn -0.9200 0.0985 -0.3794
vn 0.9188 0.0984 -0.3823
vn -0.3794 0.0984 0.9200
vn -0.3823 0.0984 -0.9188
vn 0.3794 0.0984 -0.9200
vn 0.9200 0.0984 0.3794
vn -0.9188 0.0984 0.3823
vn -0.5046 0.3986 -0.7659
vn -0.4069 0.5806 -0.7053
vn -0.2135 0.5806 -0.7857
vn -0.1876 0.3986 -0.8977
vn 0.8983 0.3986 0.1848
vn 0.7864 0.5806 0.2110
vn 0.7066 0.5806 0.4046
vn 0.7675 0.3986 0.5021
vn 0.5046 0.3986 0.7659
vn 0.4069 0.5806 0.7053
vn 0.2135 0.5806 0.7857
vn 0.1876 0.3986 0.8977
vn -0.1848 0.3986 0.8983
vn -0.2110 0.5806 0.7864
vn -0.4046 0.5806 0.7066
vn -0.5021 0.3986 0.7675
vn -0.7659 0.3986 0.5045
vn -0.7053 0.5806 0.4069
vn -0.7857 0.5806 0.2135
vn -0.8977 0.3986 0.1876
vn -0.8983 0.3986 -0.1848
vn -0.7864 0.5806 -0.2110
vn -0.7066 0.5806 -0.4046
vn -0.7675 0.3986 -0.5021
vn 0.2856 0.9146 -0.2864
vn -0.0006 0.9146 -0.4045
vn -0.2865 0.9146 -0.2855
vn -0.4045 0.9146 0.0006
vn -0.2855 0.9146 0.2865
vn 0.0006 0.9146 0.4045
vn 0.2865 0.9146 0.2855
vn 0.4044 0.9146 -0.0006
vn 0.7659 0.3986 -0.5046
vn 0.7053 0.5806 -0.4068
vn 0.7857 0.5806 -0.2135
vn 0.8977 0.3986 -0.1876
vn 0.1848 0.3986 -0.8983
vn 0.2110 0.5806 -0.7864
vn 0.4046 0.5806 -0.7066
vn 0.5021 0.3986 -0.7675
vn 0.2041 0.0953 -0.9743
vn 0.5420 0.0953 -0.8350
vn 0.1397 -0.9514 -0.2743
vn 0.0943 -0.9514 -0.2931
vn 0.8333 0.0953 -0.5446
vn 0.9736 0.0953 -0.2072
vn 0.2928 -0.9514 -0.0952
vn 0.2739 -0.9514 -0.1406
vn 0.9743 0.0953 0.2041
vn 0.8350 0.0953 0.5419
vn 0.2743 -0.9514 0.1397
vn 0.2931 -0.9514 0.0943
vn 0.5446 0.0953 0.8333
vn 0.2072 0.0953 0.9736
vn 0.0952 -0.9514 0.2928
vn 0.1406 -0.9514 0.2739
vn -0.2041 0.0953 0.9743
vn -0.5419 0.0953 0.8350
vn -0.1397 -0.9514 0.2743
vn -0.0943 -0.9514 0.2931
vn -0.8333 0.0953 0.5446
vn -0.9736 0.0953 0.2072
vn -0.2928 -0.9514 0.0952
vn -0.2739 -0.9514 0.1406
vn -0.9743 0.0953 -0.2041
vn -0.8350 0.0953 -0.5419
vn -0.2743 -0.9514 -0.1397
vn -0.2931 -0.9514 -0.0943
vn -0.5446 0.0953 -0.8333
vn -0.2072 0.0953 -0.9736
vn -0.0952 -0.9514 -0.2928
vn -0.1406 -0.9514 -0.2739
vn -0.0001 -0.9994 -0.0334
vn 0.0236 -0.9994 -0.0236
vn 0.0334 -0.9994 -0.0001
vn 0.0236 -0.9994 0.0236
vn 0.0001 -0.9994 0.0334
vn -0.0236 -0.9994 0.0236
vn -0.0334 -0.9994 0.0001
vn -0.0236 -0.9994 -0.0236
usemtl Mushroom2_1.001
s 1
f 1/1/1 2/2/1 4/3/1 3/4/1
f 3/5/2 4/6/2 6/7/2 5/8/2
f 5/9/3 6/10/3 8/11/3 7/12/3
f 7/13/4 8/14/4 10/15/4 9/16/4
f 9/17/5 10/18/5 12/19/5 11/20/5
f 11/21/6 12/22/6 14/23/6 13/24/6
f 10/25/7 8/26/7 20/27/7 21/28/7
f 13/29/8 14/30/8 16/31/8 15/32/8
f 15/33/9 16/34/9 2/35/9 1/36/9
f 1/37/10 3/38/10 5/39/10 7/40/10 9/41/10 11/42/10 13/43/10 15/44/10
f 17/45/11 18/46/11 24/47/11 23/48/11 22/49/11 21/50/11 20/51/11 19/52/11
f 16/53/12 14/54/12 23/55/12 24/56/12
f 6/57/13 4/58/13 17/59/13 19/60/13
f 12/61/14 10/62/14 21/63/14 22/64/14
f 2/65/15 16/66/15 24/67/15 18/68/15
f 4/69/16 2/70/16 18/71/16 17/72/16
f 8/73/17 6/74/17 19/75/17 20/76/17
f 14/77/18 12/78/18 22/79/18 23/80/18
usemtl Mushroom2_2
f 48/81/19 83/82/19 89/83/19 79/84/19
f 83/85/20 32/86/20 56/87/20 89/88/20
f 89/89/21 56/90/21 25/91/21 81/92/21
f 79/93/22 89/94/22 81/95/22 34/96/22
f 38/97/23 84/98/23 90/99/23 64/100/23
f 84/101/24 27/102/24 51/103/24 90/104/24
f 90/105/25 51/106/25 28/107/25 85/108/25
f 64/109/26 90/110/26 85/111/26 40/112/26
f 40/113/27 85/114/27 91/115/27 67/116/27
f 85/117/28 28/118/28 52/119/28 91/120/28
f 91/121/29 52/122/29 29/123/29 86/124/29
f 67/125/30 91/126/30 86/127/30 42/128/30
f 42/129/31 86/130/31 92/131/31 70/132/31
f 86/133/32 29/134/32 53/135/32 92/136/32
f 92/137/33 53/138/33 30/139/33 87/140/33
f 70/141/34 92/142/34 87/143/34 44/144/34
f 44/145/35 87/146/35 93/147/35 73/148/35
f 87/149/36 30/150/36 54/151/36 93/152/36
f 93/153/37 54/154/37 31/155/37 88/156/37
f 73/157/38 93/158/38 88/159/38 46/160/38
f 46/161/39 88/162/39 94/163/39 76/164/39
f 88/165/40 31/166/40 55/167/40 94/168/40
f 94/169/41 55/170/41 32/171/41 83/172/41
f 76/173/42 94/174/42 83/175/42 48/176/42
f 26/177/43 49/178/43 95/179/43 50/180/43
f 25/181/44 56/182/44 95/183/44 49/184/44
f 32/185/45 55/186/45 95/187/45 56/188/45
f 31/189/46 54/190/46 95/191/46 55/192/46
f 30/193/47 53/194/47 95/195/47 54/196/47
f 29/197/48 52/198/48 95/199/48 53/200/48
f 28/201/49 51/202/49 95/203/49 52/204/49
f 27/205/50 50/206/50 95/207/50 51/208/50
f 36/209/51 82/210/51 96/211/51 61/212/51
f 82/213/52 26/214/52 50/215/52 96/216/52
f 96/217/53 50/218/53 27/219/53 84/220/53
f 61/221/54 96/222/54 84/223/54 38/224/54
f 34/225/55 81/226/55 97/227/55 58/228/55
f 81/229/56 25/230/56 49/231/56 97/232/56
f 97/233/57 49/234/57 26/235/57 82/236/57
f 58/237/58 97/238/58 82/239/58 36/240/58
f 34/241/59 58/242/59 98/243/59 57/244/59
f 58/245/60 36/246/60 59/247/60 98/248/60
f 98/249/61 59/250/61 35/251/61 60/252/61
f 57/253/62 98/254/62 60/255/62 33/256/62
f 36/257/63 61/258/63 99/259/63 59/260/63
f 61/261/64 38/262/64 62/263/64 99/264/64
f 99/265/65 62/266/65 37/267/65 63/268/65
f 59/269/66 99/270/66 63/271/66 35/272/66
f 38/273/67 64/274/67 100/275/67 62/276/67
f 64/277/68 40/278/68 65/279/68 100/280/68
f 100/281/69 65/282/69 39/283/69 66/284/69
f 62/285/70 100/286/70 66/287/70 37/288/70
f 40/289/71 67/290/71 101/291/71 65/292/71
f 67/293/72 42/294/72 68/295/72 101/296/72
f 101/297/73 68/298/73 41/299/73 69/300/73
f 65/301/74 101/302/74 69/303/74 39/304/74
f 42/305/75 70/306/75 102/307/75 68/308/75
f 70/309/76 44/310/76 71/311/76 102/312/76
f 102/313/77 71/314/77 43/315/77 72/316/77
f 68/317/78 102/318/78 72/319/78 41/320/78
f 44/321/79 73/322/79 103/323/79 71/324/79
f 73/325/80 46/326/80 74/327/80 103/328/80
f 103/329/81 74/330/81 45/331/81 75/332/81
f 71/333/82 103/334/82 75/335/82 43/336/82
f 46/337/83 76/338/83 104/339/83 74/340/83
f 76/341/84 48/342/84 77/343/84 104/344/84
f 104/345/85 77/346/85 47/347/85 78/348/85
f 74/349/86 104/350/86 78/351/86 45/352/86
f 48/353/87 79/354/87 105/355/87 77/356/87
f 79/357/88 34/358/88 57/359/88 105/360/88
f 105/361/89 57/362/89 33/363/89 80/364/89
f 77/365/90 105/366/90 80/367/90 47/368/90
f 33/369/91 60/370/91 106/371/91 80/372/91
f 35/373/92 63/374/92 106/375/92 60/376/92
f 37/377/93 66/378/93 106/379/93 63/380/93
f 39/381/94 69/382/94 106/383/94 66/384/94
f 41/385/95 72/386/95 106/387/95 69/388/95
f 43/389/96 75/390/96 106/391/96 72/392/96
f 45/393/97 78/394/97 106/395/97 75/396/97
f 47/397/98 80/398/98 106/399/98 78/400/98
