# Blender v2.90.1 OBJ File: 'NaturePack_AllModels.blend'
# www.blender.org
mtllib pillar1.mtl
o Ruins3_Cube.032
v 11.034898 1.609552 9.829920
v 10.471995 1.620366 9.848150
v 10.423828 1.482929 9.916380
v 10.481754 0.280709 9.819492
v 10.391088 -0.051775 8.442305
v 10.501117 0.349410 9.246928
v 11.816146 0.234511 8.466424
v 11.737449 0.353979 9.784045
v 11.736107 1.310643 8.562928
v 11.835494 1.461385 8.468268
v 11.682751 1.622515 9.174526
v 11.322824 2.806559 8.600102
v 10.544611 2.955562 8.895950
v 10.570868 2.968031 9.445235
v 10.566747 2.855817 9.182840
v 10.586895 2.950140 9.741338
v 11.865778 -0.074659 8.836617
v 11.122785 3.255828 9.470983
v 11.060654 3.246924 9.168030
v 11.199731 3.147512 9.751963
v 11.128756 3.245646 8.626728
v 10.558534 1.627507 9.756925
v 11.182072 1.386893 9.888334
v 10.499614 1.325031 9.813404
v 10.414750 0.219463 9.876420
v 11.863593 -0.070446 9.916031
v 11.666765 3.457408 8.885694
v 11.769189 1.595851 9.174765
v 11.801353 0.253516 9.097038
v 10.479095 1.610698 8.527515
v 10.420307 1.473482 8.469539
v 10.424099 1.360748 8.472299
v 10.512454 1.315672 9.155507
v 10.464272 0.246482 9.231820
v 11.683936 3.526082 9.728902
v 11.774403 0.342026 9.812732
v 11.847715 0.209416 9.898030
v 10.393498 -0.050457 9.904529
v 11.697165 3.407870 9.212617
v 10.563690 1.622313 8.613408
v 11.741443 1.316679 9.788933
v 10.521970 0.351032 8.562045
v 10.407580 -0.071124 9.234975
v 10.572347 2.827718 8.618842
v 11.669712 3.294516 8.664165
v 11.787373 1.607012 8.522356
v 11.688461 1.625057 9.725670
v 11.690014 1.624446 8.620297
v 11.787419 1.609403 9.827878
v 11.852090 1.374632 9.891541
v 11.836572 1.360528 8.458491
v 10.416287 1.374484 9.923999
v 10.517405 1.310792 8.560614
v 10.477908 0.330558 8.526515
v 10.499112 0.356688 9.793461
v 11.773858 0.353934 8.538025
v 11.858564 -0.060188 8.439291
v 10.412107 0.208751 8.471228
vt 0.000000 0.000000
vt 0.000000 0.000000
vt 0.000000 0.000000
vt 0.000000 0.000000
vt 0.000000 0.000000
vt 0.000000 0.000000
vt 0.000000 0.000000
vt 0.000000 0.000000
vt 0.000000 0.000000
vt 0.000000 0.000000
vt 0.000000 0.000000
vt 0.000000 0.000000
vt 0.000000 0.000000
vt 0.000000 0.000000
vt 0.000000 0.000000
vt 0.000000 0.000000
vt 0.000000 0.000000
vt 0.000000 0.000000
vt 0.000000 0.000000
vt 0.000000 0.000000
vt 0.000000 0.000000
vt 0.000000 0.000000
vt 0.000000 0.000000
vt 0.000000 0.000000
vt 0.000000 0.000000
vt 0.000000 0.000000
vt 0.000000 0.000000
vt 0.000000 0.000000
vt 0.871764 0.503515
vt 0.875000 0.500000
vt 0.873815 0.641234
vt 0.871722 0.746922
vt 0.871922 0.746922
vt 0.871922 0.503600
vt 0.000000 0.000000
vt 0.000000 0.000000
vt 0.654730 0.529730
vt 0.628078 0.503078
vt 0.748026 0.503078
vt 0.654730 0.720270
vt 0.628078 0.746922
vt 0.628078 0.633845
vt 0.748457 0.672635
vt 0.748457 0.720270
vt 0.654730 0.718091
vt 0.000000 0.000000
vt 0.000000 0.000000
vt 0.000000 0.000000
vt 0.000000 0.000000
vt 0.000000 0.000000
vt 0.000000 0.000000
vt 0.845158 0.720184
vt 0.845180 0.529905
vt 0.871922 0.746842
vt 0.871922 0.746861
vt 0.871922 0.503495
vt 0.626710 0.501763
vt 0.628078 0.746678
vt 0.625000 0.749672
vt 0.625000 0.000999
vt 0.625000 0.115189
vt 0.375000 0.125000
vt 0.628078 0.503423
vt 0.654730 0.625000
vt 0.625000 0.000453
vt 0.625000 0.136765
vt 0.000000 0.000000
vt 0.375000 0.608681
vt 0.625000 0.617850
vt 0.625000 0.749539
vt 0.625000 0.500000
vt 0.625000 0.250000
vt 0.000000 0.000000
vt 0.000000 0.000000
vt 0.000000 0.000000
vt 0.871921 0.503078
vt 0.871922 0.620769
vt 0.654730 0.624987
vt 0.748457 0.529730
vt 0.748457 0.620517
vt 0.654730 0.577365
vt 0.871922 0.503218
vt 0.000000 0.000000
vt 0.000000 0.000000
vt 0.845270 0.672635
vt 0.845270 0.720270
vt 0.748026 0.746922
vt 0.000000 0.000000
vt 0.000000 0.000000
vt 0.628078 0.503197
vt 0.748026 0.503078
vt 0.872882 0.747849
vt 0.625000 0.999936
vt 0.625000 1.000000
vt 0.625000 0.377024
vt 0.625000 0.377024
vt 0.000000 0.000000
vt 0.000000 0.000000
vt 0.000000 0.000000
vt 0.000000 0.000000
vt 0.000000 0.000000
vt 0.000000 0.000000
vt 0.000000 0.000000
vt 0.000000 0.000000
vt 0.000000 0.000000
vt 0.628078 0.503539
vt 0.628078 0.746567
vt 0.654730 0.529730
vt 0.625000 0.250000
vt 0.375000 0.500000
vt 0.375000 0.749983
vt 0.375000 0.249899
vt 0.628078 0.746903
vt 0.375000 0.000386
vt 0.747976 0.500000
vt 0.625000 0.872976
vt 0.748026 0.746922
vt 0.625000 0.000000
vn 0.0375 0.4338 0.9002
vn 0.0223 0.9948 0.0991
vn 0.0027 0.2554 0.9668
vn 0.0729 0.2979 0.9518
vn 0.0021 0.3488 -0.9372
vn -0.0049 -0.8726 -0.4884
vn 0.0019 -0.0015 -1.0000
vn -0.0014 0.1105 -0.9939
vn -0.0090 -0.9997 -0.0242
vn -0.9995 -0.0048 -0.0304
vn -0.0064 0.1041 0.9945
vn -0.9999 0.0114 -0.0038
vn -0.0138 -0.9994 0.0306
vn -0.9998 0.0009 -0.0195
vn -0.9999 0.0109 -0.0084
vn 0.0346 -0.9024 0.4296
vn 0.0453 0.0669 0.9967
vn -0.0025 0.3901 -0.9208
vn -0.0058 -0.9993 -0.0363
vn -0.0098 -0.0248 -0.9996
vn -0.4144 0.9100 -0.0105
vn -0.5050 -0.8631 0.0054
vn -0.0182 -0.8620 0.5065
vn 0.0021 0.9849 -0.1732
vn 0.1818 0.9830 -0.0255
vn -0.5441 0.7220 0.4273
vn 0.0488 -0.0016 0.9988
vn -0.9973 -0.0285 0.0670
vn -0.0874 0.9962 -0.0049
vn -0.9994 -0.0335 0.0027
vn 0.3016 0.9534 0.0088
vn -0.9823 0.1747 -0.0681
vn 0.8118 0.5829 -0.0348
vn -0.3402 0.9147 -0.2181
vn -0.9411 0.3381 -0.0080
vn -0.0146 0.0634 0.9979
vn 0.9732 0.2259 -0.0439
vn 0.9837 0.1791 0.0177
vn -0.9423 0.3341 0.0216
vn 0.9902 0.1187 -0.0741
vn -0.4744 -0.8803 0.0033
vn 0.2948 0.9555 0.0072
vn -0.3467 0.9369 -0.0458
vn -0.1281 0.9917 -0.0079
vn 0.9614 0.2753 0.0022
vn -0.0248 0.0047 -0.9997
vn -0.3069 0.9489 0.0739
vn 0.0075 0.9812 0.1927
vn 0.9988 0.0387 0.0292
vn 0.0007 -0.9026 -0.4305
vn 0.0049 0.9253 0.3792
vn -0.0105 0.3263 0.9452
vn -0.0108 0.4181 -0.9083
vn -0.9982 0.0221 0.0554
vn -1.0000 0.0046 -0.0045
vn -0.0107 -0.0207 0.9997
vn -0.0235 0.0502 -0.9985
vn -0.5963 0.7414 -0.3077
vn -0.4638 0.8832 0.0692
vn -0.9999 0.0117 0.0107
vn 0.0061 -0.0152 -0.9999
vn 0.0609 0.0872 -0.9943
vn 0.9985 0.0135 -0.0528
vn 0.9999 -0.0084 0.0131
vn 0.1437 0.0277 -0.9892
vn -0.4663 0.8826 -0.0607
vn -0.5482 0.7372 -0.3950
vn -0.5853 0.7508 0.3062
vn 0.9997 0.0023 0.0251
vn 1.0000 -0.0041 -0.0043
vn 0.0277 0.0112 0.9996
vn -0.0001 0.0965 -0.9953
vn -0.0192 0.0253 -0.9995
vn 0.0196 -0.0206 0.9996
vn 0.0076 -0.0051 1.0000
vn 0.0002 0.2618 0.9651
vn -0.0051 0.0910 -0.9958
vn -0.0014 -1.0000 0.0039
vn -0.0089 0.5375 0.8432
vn -0.9946 0.0076 -0.1031
vn 0.9999 -0.0079 -0.0103
vn 0.4468 -0.8946 0.0025
vn -0.0317 0.8050 -0.5924
vn 0.1979 0.9800 0.0223
vn -0.8863 0.4616 0.0379
vn 0.9896 0.1436 -0.0127
vn 0.9984 0.0568 0.0018
vn -0.9448 0.3274 -0.0075
vn -0.2465 0.9689 0.0221
vn -0.9841 0.1759 0.0248
vn 0.9637 0.2668 0.0050
vn -0.4340 0.7943 0.4251
vn -0.9968 0.0761 -0.0233
vn 0.0006 0.9886 0.1508
vn 0.8816 0.4713 -0.0251
vn 0.4613 -0.8873 0.0037
vn -0.9952 0.0731 0.0646
vn -0.0016 0.5138 -0.8579
vn -0.2527 0.9529 0.1679
vn 0.2948 0.9555 -0.0075
vn -0.0011 0.9911 -0.1330
vn -0.9976 0.0690 -0.0060
vn 0.9525 0.3030 0.0317
vn -0.9191 0.3939 -0.0003
vn 0.9999 0.0117 -0.0109
vn -0.0114 0.8724 -0.4886
vn 0.9449 0.3272 0.0123
vn -0.0293 0.6976 0.7159
vn 0.0065 -0.7993 0.6010
vn -0.9736 0.2278 0.0157
vn -0.6847 0.7285 -0.0221
usemtl Ruins1_1
s off
f 1/1/1 2/2/1 3/3/1
f 2/2/2 1/1/2 22/4/2
f 23/5/3 49/6/3 1/1/3
f 3/3/4 23/5/4 1/1/4
f 31/7/5 46/8/5 10/9/5
f 32/10/6 51/11/6 53/12/6
f 53/12/7 9/13/7 42/14/7
f 57/15/8 5/16/8 58/17/8
f 5/16/9 17/18/9 43/19/9
f 53/12/10 42/14/10 6/20/10
f 38/21/11 26/22/11 25/23/11
f 33/24/12 6/20/12 55/25/12
f 38/21/13 43/19/13 26/22/13
f 55/25/14 24/26/14 33/24/14
f 33/24/15 53/12/15 6/20/15
f 23/5/16 52/27/16 24/26/16
f 23/5/17 3/3/17 52/27/17
f 46/8/18 31/7/18 30/28/18
f 17/18/19 5/16/19 57/15/19
f 51/11/20 32/10/20 31/7/20
f 42/29/21 54/30/21 6/31/21
f 24/32/22 52/33/22 32/34/22
f 50/35/23 23/5/23 41/36/23
f 48/37/24 46/38/24 30/39/24
f 47/40/25 49/41/25 28/42/25
f 18/43/26 20/44/26 35/45/26
f 35/46/27 20/47/27 47/48/27
f 40/49/28 15/50/28 13/51/28
f 22/52/29 40/53/29 2/54/29
f 32/34/30 3/55/30 31/56/30
f 56/57/31 8/58/31 36/59/31
f 25/60/32 34/61/32 43/62/32
f 10/63/33 28/42/33 49/41/33
f 18/43/34 35/45/34 39/64/34
f 34/61/35 55/65/35 6/66/35
f 26/22/36 37/67/36 25/23/36
f 17/68/37 29/69/37 37/70/37
f 7/71/38 29/69/38 17/68/38
f 34/61/39 6/66/39 54/72/39
f 27/73/40 39/74/40 45/75/40
f 53/76/41 33/77/41 32/34/41
f 48/37/42 11/78/42 28/42/42
f 21/79/43 19/80/43 27/81/43
f 40/53/44 30/82/44 2/54/44
f 29/69/45 56/57/45 36/59/45
f 40/49/46 44/83/46 12/84/46
f 14/85/47 16/86/47 20/44/47
f 47/40/48 22/52/48 1/87/48
f 56/88/49 9/13/49 8/89/49
f 9/90/50 53/76/50 51/91/50
f 8/58/51 55/92/51 36/59/51
f 4/93/52 36/59/52 55/94/52
f 58/95/53 54/96/53 7/71/53
f 14/97/54 22/4/54 16/98/54
f 22/4/55 15/50/55 40/49/55
f 47/48/56 20/47/56 16/98/56
f 21/99/57 12/84/57 44/83/57
f 14/97/58 19/100/58 15/50/58
f 19/100/59 14/97/59 18/101/59
f 22/4/60 14/97/60 15/50/60
f 48/102/61 40/49/61 12/84/61
f 12/84/62 21/99/62 45/75/62
f 48/102/63 45/75/63 39/74/63
f 11/103/64 48/102/64 39/74/64
f 45/75/65 48/102/65 12/84/65
f 21/99/66 13/51/66 19/100/66
f 13/51/67 21/99/67 44/83/67
f 19/100/68 13/51/68 15/50/68
f 39/74/69 35/46/69 47/48/69
f 41/36/70 8/89/70 9/13/70
f 22/4/71 47/48/71 16/98/71
f 31/7/72 10/9/72 51/11/72
f 42/14/73 9/13/73 56/88/73
f 24/26/74 55/25/74 41/36/74
f 8/89/75 41/36/75 55/25/75
f 23/5/76 50/35/76 49/6/76
f 7/104/77 57/15/77 58/17/77
f 26/22/78 43/19/78 17/18/78
f 25/23/79 37/67/79 36/105/79
f 44/83/80 40/49/80 13/51/80
f 47/48/81 11/103/81 39/74/81
f 9/90/82 51/106/82 41/107/82
f 21/79/83 27/81/83 45/108/83
f 48/37/84 28/42/84 46/38/84
f 34/61/85 54/72/85 58/109/85
f 7/71/86 17/68/86 57/110/86
f 17/68/87 37/70/87 26/111/87
f 3/55/88 2/54/88 30/82/88
f 18/43/89 39/64/89 19/80/89
f 43/62/90 34/61/90 5/112/90
f 10/63/91 49/41/91 50/113/91
f 14/85/92 20/44/92 18/43/92
f 25/60/93 43/62/93 38/114/93
f 47/40/94 1/87/94 49/41/94
f 29/69/95 36/59/95 37/70/95
f 41/107/96 51/106/96 50/113/96
f 5/112/97 34/61/97 58/109/97
f 54/96/98 56/57/98 7/71/98
f 19/80/99 39/64/99 27/81/99
f 47/40/100 28/42/100 11/78/100
f 48/37/101 30/39/101 40/53/101
f 52/33/102 3/55/102 32/34/102
f 10/63/103 46/38/103 28/42/103
f 24/32/41 32/34/41 33/77/41
f 3/55/104 30/82/104 31/56/104
f 51/106/105 10/63/105 50/113/105
f 56/57/106 54/115/106 42/29/106
f 7/71/107 56/57/107 29/69/107
f 25/116/108 36/59/108 4/93/108
f 41/107/109 23/117/109 24/32/109
f 4/118/110 55/65/110 34/61/110
f 25/60/111 4/118/111 34/61/111
