# Blender v2.90.1 OBJ File: 'NaturePack_AllModels.blend'
# www.blender.org
mtllib rock17.mtl
o Rock2_Icosphere.014
v 16.057817 -0.112517 17.360022
v 16.129164 0.079040 17.842802
v 15.953609 0.053575 17.338223
v 16.259781 0.046381 17.296076
v 16.435266 0.046381 17.614943
v 16.074865 0.163035 17.537615
v 16.181299 -0.168832 17.614943
v 16.127001 -0.084837 17.842802
v 16.381227 -0.084837 17.659668
v 15.874115 -0.107921 17.576279
v 16.285616 -0.084837 17.361294
v 16.224436 0.005485 17.872822
v 15.862299 0.052905 17.731878
v 15.816278 -0.011282 17.576279
v 16.229311 0.146910 17.649826
vt 0.272727 0.000000
vt 0.194689 0.137153
vt 0.340601 0.117562
vt 0.318592 0.288606
vt 0.681202 0.157461
vt 0.658666 0.274305
vt 0.818181 0.236191
vt 0.863020 0.157461
vt 0.985060 0.289045
vt 0.476848 0.274305
vt 0.499383 0.157461
vt 0.864252 0.314921
vt 0.727272 0.393651
vt 0.932540 0.431766
vt 0.106898 0.289045
vt 0.181818 0.393651
vt 0.351338 0.412450
vt 0.590909 0.393651
vt 0.522419 0.432483
vt 0.863635 0.393651
vt 0.181818 0.236191
vt 0.136065 0.116845
vt 0.000000 0.157461
vt 0.477994 0.040616
vt 0.386671 0.117562
vt 0.067874 0.039899
vt 0.636363 0.078731
vt 0.805883 0.059932
vn -0.1771 -0.9756 -0.1297
vn -0.6684 -0.4925 -0.5573
vn 0.7780 -0.1095 0.6187
vn -0.3536 0.0715 0.9327
vn -0.1381 -0.2136 -0.9671
vn 0.8741 -0.0670 -0.4811
vn 0.4475 0.7452 0.4943
vn -0.2136 0.9315 0.2944
vn -0.5439 0.8298 -0.1248
vn -0.0426 0.8865 -0.4608
vn 0.3978 0.8910 -0.2189
vn 0.2725 0.9314 -0.2412
vn -0.1047 0.9539 0.2812
vn -0.6113 0.7788 -0.1405
vn -0.3727 -0.1065 0.9218
vn 0.4373 0.7616 0.4783
vn 0.0579 -0.4352 -0.8985
vn -0.7244 -0.4335 -0.5360
vn -0.7779 -0.4655 0.4221
vn -0.5540 -0.5995 0.5776
vn 0.4344 -0.6690 0.6030
vn 0.8531 -0.4445 -0.2734
vn 0.1177 -0.9561 -0.2682
vn -0.2212 -0.9310 0.2905
vn 0.4088 -0.9032 -0.1310
vn 0.2811 -0.8768 0.3902
usemtl Rock1_1
s off
f 7/1/1 10/2/1 1/3/1
f 1/3/2 10/2/2 3/4/2
f 9/5/3 5/6/3 12/7/3
f 8/8/4 12/7/4 13/9/4
f 1/3/5 3/4/5 4/10/5
f 11/11/6 4/10/6 5/6/6
f 2/12/7 5/6/7 15/13/7
f 13/9/8 2/12/8 6/14/8
f 3/4/9 13/15/9 6/16/9
f 4/10/10 3/4/10 6/17/10
f 5/6/11 4/10/11 15/18/11
f 15/18/12 4/10/12 6/19/12
f 6/14/13 2/12/13 15/20/13
f 14/21/14 13/15/14 3/4/14
f 13/9/15 12/7/15 2/12/15
f 12/7/16 5/6/16 2/12/16
f 11/11/17 1/3/17 4/10/17
f 3/4/18 10/2/18 14/21/18
f 14/21/19 10/22/19 13/15/19
f 10/22/20 8/23/20 13/15/20
f 8/8/21 9/5/21 12/7/21
f 9/5/22 11/11/22 5/6/22
f 7/24/23 1/25/23 11/11/23
f 7/26/24 8/23/24 10/22/24
f 9/5/25 7/27/25 11/11/25
f 7/28/26 9/5/26 8/8/26
