# Blender v2.90.1 OBJ File: 'NaturePack_AllModels.blend'
# www.blender.org
mtllib rock7.mtl
o Rock5.001_Cube.044
v -8.488485 0.098622 14.559446
v -7.672362 -0.372543 13.687435
v -7.624728 0.087607 13.612757
v -8.432017 -0.422350 13.682403
v -8.471756 0.147314 13.545963
v -7.544472 0.408047 14.283196
v -8.388661 -0.121953 14.668517
v -8.250400 0.414773 14.167440
v -7.529696 -0.104974 13.771152
v -7.635301 -0.331787 14.509802
v -7.683360 -0.200353 14.611182
v -8.429839 -0.375543 14.538132
v -7.904778 0.370560 13.834718
v -8.426800 0.317466 13.722660
v -7.695563 0.413844 14.641028
v -8.123889 0.425848 14.526286
vt 0.284713 0.998999
vt 0.002002 0.998999
vt 0.284713 0.859145
vt 0.002002 0.284713
vt 0.284713 0.284713
vt 0.284713 0.002002
vt 0.570428 0.573431
vt 0.570428 0.856142
vt 0.430573 0.856142
vt 0.283712 0.001001
vt 0.001001 0.283712
vt 0.001001 0.001001
vt 0.283712 0.858144
vt 0.001001 0.997998
vt 0.001001 0.858144
vt 0.570428 0.287716
vt 0.287716 0.570428
vt 0.570428 0.570428
vt 0.856142 0.570428
vt 0.856142 0.287716
vt 0.573431 0.570428
vt 0.002002 0.856142
vt 0.284713 0.573431
vt 0.284713 0.856142
vt 0.570428 0.284713
vt 0.287716 0.284713
vt 0.570428 0.002002
vt 0.573431 0.284713
vt 0.856142 0.002002
vt 0.856142 0.284713
vt 0.998999 0.427570
vt 0.998999 0.287716
vt 0.859145 0.427570
vt 0.284713 0.570428
vt 0.284713 0.287716
vt 0.002002 0.570428
vt 0.855141 0.286715
vt 0.572430 0.286715
vt 0.572430 0.569427
vt 0.001001 0.286715
vt 0.283712 0.286715
vt 0.001001 0.569427
vt 0.427570 0.856142
vt 0.287716 0.856142
vt 0.427570 0.573431
vt 0.856142 0.573431
vt 0.856142 0.713285
vt 0.573431 0.713285
vt 0.573431 0.856142
vt 0.856142 0.856142
vt 0.856142 0.716288
vt 0.569427 0.572430
vt 0.429572 0.572430
vt 0.429572 0.855141
vt 0.569427 0.286715
vt 0.286715 0.286715
vt 0.286715 0.569427
vt 0.855141 0.715287
vt 0.572430 0.715287
vt 0.572430 0.855141
vt 0.572430 0.283712
vt 0.572430 0.001001
vt 0.855141 0.001001
vt 0.858144 0.286715
vt 0.997998 0.286715
vt 0.858144 0.426569
vt 0.001001 0.855141
vt 0.001001 0.572430
vt 0.283712 0.572430
vt 0.998999 0.284713
vt 0.859145 0.284713
vt 0.998999 0.002002
vt 0.286715 0.572430
vt 0.286715 0.855141
vt 0.426569 0.572430
vt 0.286715 0.001001
vt 0.286715 0.283712
vt 0.569427 0.001001
vt 0.572430 0.712284
vt 0.572430 0.572430
vt 0.855141 0.572430
vt 0.997998 0.001001
vt 0.858144 0.283712
vt 0.858144 0.001001
vn 0.8844 -0.4663 -0.0167
vn 0.9896 -0.0863 0.1150
vn 0.9107 0.0146 0.4128
vn 0.0758 -0.0469 0.9960
vn 0.0571 -0.4638 0.8841
vn 0.0610 -0.9969 0.0503
vn 0.0647 -0.9968 0.0468
vn 0.0568 -0.9969 0.0544
vn 0.4515 0.7828 -0.4282
vn -0.9923 -0.1232 0.0093
vn -0.7085 0.6938 0.1292
vn 0.0216 -0.2314 -0.9726
vn 0.7293 -0.1825 -0.6594
vn 0.0607 0.9958 -0.0692
vn -0.2311 0.3459 0.9094
vn -0.2330 0.3515 0.9067
vn -0.2326 0.3502 0.9073
vn 0.1052 0.6761 -0.7292
vn 0.9343 0.2649 -0.2385
vn 0.9212 -0.0006 0.3890
vn -0.2309 0.3453 0.9096
vn -0.0037 -0.6116 0.7912
vn 0.0650 -0.9968 0.0465
vn -0.9659 0.2588 -0.0035
vn -0.9970 -0.0743 -0.0200
vn -0.8468 -0.1279 0.5163
vn 0.0658 -0.1665 -0.9838
vn -0.0586 0.9798 -0.1911
vn 0.0786 0.7080 -0.7018
vn -0.0549 0.9977 -0.0393
vn 0.0400 0.9982 -0.0449
vn -0.6435 0.7377 0.2041
usemtl Rock1_1.001
s 1
f 9/1/1 10/2/1 2/3/1
f 9/4/2 6/5/2 10/6/2
f 6/7/3 11/8/3 10/9/3
f 15/10/4 7/11/4 11/12/4
f 10/13/5 7/14/5 12/15/5
f 4/16/6 10/17/7 12/18/8
f 13/19/9 6/20/9 3/21/9
f 1/22/10 4/23/10 12/24/10
f 8/25/11 14/26/11 1/27/11
f 5/28/12 2/29/12 4/30/12
f 9/31/13 2/32/13 3/33/13
f 8/34/14 15/35/14 13/36/14
f 15/37/15 16/38/16 1/39/17
f 13/40/18 3/41/18 5/42/18
f 9/43/19 3/44/19 6/45/19
f 6/46/20 15/47/20 11/48/20
f 15/49/15 1/50/17 7/51/21
f 10/52/22 11/53/22 7/54/22
f 4/55/6 2/56/23 10/57/7
f 1/58/24 14/59/24 5/60/24
f 1/61/25 5/62/25 4/63/25
f 7/64/26 1/65/26 12/66/26
f 5/67/27 3/68/27 2/69/27
f 8/70/28 13/71/28 14/72/28
f 14/73/29 13/74/29 5/75/29
f 6/76/30 13/77/30 15/78/30
f 8/79/31 16/80/31 15/81/31
f 8/82/32 1/83/32 16/84/32
