# Blender v2.90.1 OBJ File: 'NaturePack_AllModels.blend'
# www.blender.org
mtllib rock4.mtl
o Rock8.001_Cylinder.047
v -16.248020 -0.189702 14.209419
v -16.248020 0.364256 14.209419
v -16.002842 -0.080104 13.687417
v -16.000601 0.275546 13.778811
v -15.481158 -0.189702 13.435913
v -15.441205 0.328660 13.526263
v -14.991255 -0.147018 13.677100
v -14.935583 0.364257 13.659146
v -14.707652 -0.189702 14.202776
v -14.802034 0.347014 14.274373
v -14.930885 -0.189702 14.748351
v -14.930885 0.364257 14.748351
v -15.474515 -0.189702 14.976282
v -15.474515 0.364257 14.976282
v -16.020090 -0.189702 14.753049
v -15.945280 0.364257 14.633844
v -15.477837 0.526241 14.206098
v -15.477837 -0.286172 14.206098
vt 0.248999 0.001001
vt 0.001001 0.001001
vt 0.001001 0.248999
vt 0.248999 0.248999
vt 0.248999 0.251001
vt 0.001001 0.251001
vt 0.001001 0.498999
vt 0.248999 0.498999
vt 0.498999 0.001001
vt 0.251001 0.001001
vt 0.251001 0.248999
vt 0.498999 0.248999
vt 0.498999 0.251001
vt 0.251001 0.251001
vt 0.251001 0.498999
vt 0.498999 0.498999
vt 0.248999 0.501001
vt 0.001001 0.501001
vt 0.001001 0.748999
vt 0.248999 0.748999
vt 0.748999 0.001001
vt 0.501001 0.001001
vt 0.501001 0.248999
vt 0.748999 0.248999
vt 0.252002 0.998999
vt 0.498999 0.752002
vt 0.498999 0.998999
vt 0.748999 0.251001
vt 0.501001 0.251001
vt 0.501001 0.498999
vt 0.748999 0.498999
vt 0.498999 0.501001
vt 0.251001 0.501001
vt 0.251001 0.748999
vt 0.498999 0.748999
vt 0.752002 0.748999
vt 0.998999 0.502002
vt 0.998999 0.748999
vt 0.998999 0.248999
vt 0.998999 0.002002
vt 0.752002 0.248999
vt 0.248999 0.752002
vt 0.002002 0.998999
vt 0.248999 0.998999
vt 0.998999 0.998999
vt 0.998999 0.752002
vt 0.752002 0.998999
vt 0.998999 0.498999
vt 0.998999 0.252002
vt 0.752002 0.498999
vt 0.748999 0.502002
vt 0.748999 0.748999
vt 0.502002 0.748999
vt 0.502002 0.998999
vt 0.748999 0.752002
vt 0.748999 0.998999
vt 0.751001 0.751001
vt 0.751001 0.997998
vt 0.997998 0.751001
vt 0.997998 0.501001
vt 0.751001 0.501001
vt 0.751001 0.747998
vt 0.501001 0.751001
vt 0.501001 0.997998
vt 0.747998 0.751001
vt 0.997998 0.251001
vt 0.751001 0.497998
vt 0.751001 0.251001
vt 0.497998 0.751001
vt 0.251001 0.997998
vt 0.251001 0.751001
vt 0.751001 0.247998
vt 0.751001 0.001001
vt 0.997998 0.001001
vt 0.001001 0.751001
vt 0.247998 0.751001
vt 0.001001 0.997998
vt 0.501001 0.501001
vt 0.501001 0.747998
vt 0.747998 0.501001
vn -0.8877 0.0482 -0.4580
vn -0.4048 0.2049 -0.8912
vn 0.3492 0.0334 -0.9364
vn 0.9388 0.0521 -0.3405
vn 0.9438 0.0603 0.3249
vn 0.3867 0.0000 0.9222
vn -0.2166 0.9343 -0.2832
vn -0.4825 0.1258 0.8668
vn -0.8715 0.1103 0.4778
vn -0.1239 -0.9909 0.0519
vn 0.0057 0.9603 -0.2788
vn -0.2030 0.9684 0.1448
vn 0.2530 0.9669 0.0336
vn 0.0519 -0.9909 0.1239
vn -0.1212 -0.9585 -0.2581
vn 0.1223 -0.9817 -0.1457
vn 0.1243 -0.9909 0.0509
vn -0.2587 -0.9586 -0.1190
vn 0.1463 -0.9815 -0.1236
vn -0.0509 -0.9909 0.1243
vn 0.2590 0.9654 -0.0292
vn -0.1973 0.9316 -0.3053
vn -0.1485 0.9676 0.2041
vn 0.0858 0.9751 0.2047
usemtl Rock1_1.001
s 1
f 1/1/1 2/2/1 4/3/1 3/4/1
f 3/5/2 4/6/2 6/7/2 5/8/2
f 5/9/3 6/10/3 8/11/3 7/12/3
f 7/13/4 8/14/4 10/15/4 9/16/4
f 9/17/5 10/18/5 12/19/5 11/20/5
f 11/21/6 12/22/6 14/23/6 13/24/6
f 4/25/7 17/26/7 6/27/7
f 13/28/8 14/29/8 16/30/8 15/31/8
f 15/32/9 16/33/9 2/34/9 1/35/9
f 1/36/10 18/37/10 15/38/10
f 6/39/11 17/40/11 8/41/11
f 17/42/12 2/43/12 16/44/12
f 10/45/13 17/46/13 12/47/13
f 13/48/14 18/49/14 11/50/14
f 18/51/15 1/52/15 3/53/15
f 9/54/16 18/55/16 7/56/16
f 11/57/17 18/58/17 9/59/17
f 3/60/18 5/61/18 18/62/18
f 7/63/19 18/64/19 5/65/19
f 15/66/20 18/67/20 13/68/20
f 8/69/21 17/70/21 10/71/21
f 17/72/22 4/73/22 2/74/22
f 16/75/23 14/76/23 17/77/23
f 12/78/24 17/79/24 14/80/24
