# Blender v2.90.1 OBJ File: 'NaturePack_AllModels.blend'
# www.blender.org
mtllib rock10.mtl
o Rock2.001_Icosphere.003
v -0.979884 -0.251234 13.343806
v -1.531462 -0.229992 14.142176
v -0.040308 -0.267131 13.658416
v -0.095896 -0.230652 14.602703
v -0.909903 0.204666 14.775184
v -0.331584 0.379941 14.561367
v 0.056805 0.160474 14.104993
v -0.721942 -0.376216 14.132357
v -0.979641 -0.264124 14.934423
v -1.315918 0.396338 13.987441
v -0.674085 0.378661 13.580916
v -1.201054 0.361977 14.604874
vt 0.335335 0.856142
vt 0.665666 0.573431
vt 0.665666 0.856142
vt 0.665666 0.284713
vt 0.665666 0.002002
vt 0.335335 0.284713
vt 0.998999 0.287716
vt 0.998999 0.570428
vt 0.668669 0.570428
vt 0.668669 0.856142
vt 0.998999 0.573431
vt 0.998999 0.856142
vt 0.665666 0.570428
vt 0.335335 0.570428
vt 0.665666 0.287716
vt 0.998999 0.002002
vt 0.668669 0.284713
vt 0.998999 0.284713
vt 0.667668 0.855141
vt 0.997998 0.572430
vt 0.667668 0.572430
vt 0.334334 0.569427
vt 0.664665 0.286715
vt 0.334334 0.286715
vt 0.664665 0.572430
vt 0.334334 0.572430
vt 0.334334 0.855141
vt 0.332332 0.002002
vt 0.002002 0.284713
vt 0.332332 0.284713
vt 0.997998 0.286715
vt 0.667668 0.286715
vt 0.667668 0.569427
vt 0.002002 0.570428
vt 0.332332 0.570428
vt 0.332332 0.287716
vt 0.667668 0.001001
vt 0.997998 0.001001
vt 0.667668 0.283712
vt 0.332332 0.998999
vt 0.002002 0.998999
vt 0.332332 0.859145
vt 0.002002 0.856142
vt 0.332332 0.573431
vt 0.332332 0.856142
vt 0.001001 0.855141
vt 0.331331 0.572430
vt 0.001001 0.572430
vt 0.001001 0.997998
vt 0.331331 0.858144
vt 0.001001 0.858144
vt 0.334334 0.283712
vt 0.334334 0.001001
vt 0.664665 0.001001
vt 0.331331 0.286715
vt 0.001001 0.569427
vt 0.001001 0.286715
vt 0.001001 0.283712
vt 0.331331 0.001001
vt 0.001001 0.001001
vn -0.4540 0.4984 -0.7385
vn -0.9130 0.3611 0.1899
vn 0.3384 0.1930 0.9210
vn -0.1781 -0.9792 -0.0970
vn -0.8129 0.1401 -0.5653
vn 0.9555 -0.2873 0.0673
vn -0.1762 -0.9811 0.0805
vn 0.3143 0.1970 -0.9287
vn -0.8203 0.0109 0.5718
vn 0.0400 -0.9848 -0.1692
vn 0.5964 0.5110 -0.6190
vn 0.3679 0.9208 -0.1297
vn 0.2586 0.2760 0.9257
vn 0.0176 0.7493 0.6620
vn 0.1007 -0.9804 0.1694
vn 0.1910 -0.9804 0.0491
vn -0.3266 0.3472 0.8791
vn 0.7906 0.3397 0.5095
vn 0.0560 0.9974 0.0451
vn -0.0204 0.9998 0.0058
usemtl Rock1_1.001
s 1
f 1/1/1 10/2/1 11/3/1
f 10/4/2 2/5/2 12/6/2
f 9/7/3 4/8/3 6/9/3
f 2/10/4 1/11/4 8/12/4
f 2/13/5 10/14/5 1/15/5
f 4/16/6 3/17/6 7/18/6
f 9/19/7 2/20/7 8/21/7
f 3/22/8 1/23/8 11/24/8
f 9/25/9 12/26/9 2/27/9
f 1/28/10 3/29/10 8/30/10
f 7/31/11 3/32/11 11/33/11
f 6/34/12 7/35/12 11/36/12
f 5/37/13 9/38/13 6/39/13
f 5/40/14 6/41/14 12/42/14
f 4/43/15 9/44/15 8/45/15
f 3/46/16 4/47/16 8/48/16
f 12/49/17 9/50/17 5/51/17
f 4/52/18 7/53/18 6/54/18
f 12/55/19 11/56/19 10/57/19
f 11/58/20 12/59/20 6/60/20
