# Blender v2.90.1 OBJ File: 'NaturePack_AllModels.blend'
# www.blender.org
mtllib rock11.mtl
o Rock1.001_Icosphere.000
v 2.075488 0.238740 13.349397
v 2.624326 0.222899 14.149777
v 1.144267 0.235999 14.135075
v 1.187149 0.209402 14.605054
v 1.819689 -0.180020 14.917065
v 1.709494 -0.417736 14.596590
v 1.067289 -0.179490 13.891194
v 1.080689 -0.159570 14.342136
v 1.359918 -0.176627 14.761932
v 1.813446 0.361144 14.136999
v 1.145126 0.236024 13.648192
v 2.069303 0.251563 14.940002
v 2.491194 -0.591066 13.650926
v 1.559863 -0.592348 13.348016
v 2.488682 -0.592346 14.624437
v 1.814521 -0.612400 14.136478
vt 0.398999 0.402002
vt 0.002002 0.598999
vt 0.198999 0.402002
vt 0.998999 0.602002
vt 0.998999 0.698999
vt 0.802002 0.698999
vt 0.401001 0.997121
vt 0.398999 0.998999
vt 0.202002 0.998999
vt 0.598999 0.602002
vt 0.598999 0.798999
vt 0.402002 0.798999
vt 0.802002 0.598999
vt 0.898999 0.598999
vt 0.898999 0.402002
vt 0.202002 0.798999
vt 0.398999 0.798999
vt 0.398999 0.602002
vt 0.201001 0.801001
vt 0.201001 0.997998
vt 0.198999 0.802002
vt 0.002002 0.998999
vt 0.198999 0.998999
vt 0.602002 0.398999
vt 0.798999 0.398999
vt 0.798999 0.202002
vt 0.802002 0.198999
vt 0.998999 0.198999
vt 0.998999 0.002002
vt 0.998999 0.398999
vt 0.802002 0.398999
vt 0.998999 0.202002
vt 0.598999 0.598999
vt 0.402002 0.598999
vt 0.598999 0.402002
vt 0.601001 0.601001
vt 0.797998 0.601001
vt 0.601001 0.797998
vt 0.801001 0.601001
vt 0.801001 0.697998
vt 0.997998 0.601001
vt 0.401001 0.601001
vt 0.401001 0.797998
vt 0.597998 0.601001
vt 0.002002 0.198999
vt 0.198999 0.198999
vt 0.198999 0.002002
vt 0.598999 0.394780
vt 0.797998 0.201001
vt 0.601001 0.397998
vt 0.598999 0.198999
vt 0.598999 0.002002
vt 0.402002 0.198999
vt 0.398999 0.398999
vt 0.202002 0.398999
vt 0.398999 0.202002
vt 0.601001 0.197998
vt 0.601001 0.001001
vt 0.797998 0.001001
vt 0.597998 0.401001
vt 0.401001 0.401001
vt 0.401001 0.597998
vt 0.202002 0.198999
vt 0.398999 0.198999
vt 0.398999 0.002002
vt 0.393779 0.201001
vt 0.597998 0.201001
vt 0.401001 0.397998
vt 0.401001 0.197998
vt 0.401001 0.001001
vt 0.597998 0.001001
vt 0.198999 0.398999
vt 0.198999 0.202002
vt 0.002002 0.398999
vt 0.201001 0.001001
vt 0.397998 0.001001
vt 0.201001 0.197998
vt 0.197998 0.201001
vt 0.001001 0.201001
vt 0.001001 0.397998
vt 0.197998 0.001001
vt 0.001001 0.197998
vt 0.001001 0.001001
vn 0.3041 -0.1871 -0.9341
vn -0.2176 -0.7466 0.6286
vn 0.9867 -0.1628 0.0023
vn -0.3558 0.2108 0.9105
vn -0.4543 -0.8528 0.2575
vn -0.4567 -0.8484 0.2678
vn -0.4571 -0.8476 0.2696
vn 0.1688 0.9809 -0.0963
vn 0.8091 0.2052 -0.5507
vn -0.9727 0.2090 0.1006
vn 0.1663 0.9827 0.0811
vn -0.3008 0.1882 -0.9349
vn 0.8064 0.1916 0.5595
vn -0.0582 0.9833 -0.1722
vn -0.7946 -0.1887 -0.5771
vn -0.4543 -0.8529 0.2572
vn -0.3160 0.1328 0.9394
vn -0.1917 -0.7556 0.6264
vn -0.1110 0.9793 0.1690
vn -0.9875 0.1578 -0.0017
vn -0.1835 0.9804 0.0722
vn 0.2794 -0.2114 0.9366
vn -0.1838 0.9830 -0.0003
vn -0.6064 -0.7934 0.0531
vn -0.8261 -0.1489 0.5435
vn -0.9805 0.1956 0.0205
vn 0.0108 -0.9995 -0.0289
vn -0.4921 -0.8597 0.1371
vn 0.0306 -0.9995 -0.0012
vn -0.2173 -0.9158 0.3378
usemtl Rock1_1.001
s 1
f 1/1/1 13/2/1 14/3/1
f 6/4/2 5/5/2 9/6/2
f 13/7/3 2/8/3 15/9/3
f 12/10/4 4/11/4 9/12/4
f 8/13/5 6/14/6 9/15/7
f 2/16/8 1/17/8 10/18/8
f 2/19/9 13/7/9 1/20/9
f 4/21/10 3/22/10 8/23/10
f 12/24/11 2/25/11 10/26/11
f 11/27/12 1/28/12 14/29/12
f 12/30/13 15/31/13 2/32/13
f 1/33/14 11/34/14 10/35/14
f 7/36/15 11/37/15 14/38/15
f 6/39/6 8/40/5 16/41/16
f 5/42/17 12/43/17 9/44/17
f 5/45/18 6/46/18 15/47/18
f 4/48/19 12/49/19 10/50/19
f 3/51/20 11/52/20 8/53/20
f 3/54/21 4/55/21 10/56/21
f 15/57/22 12/58/22 5/59/22
f 11/60/23 3/61/23 10/62/23
f 8/63/24 7/64/24 14/65/24
f 4/66/25 8/67/25 9/68/25
f 11/69/26 7/70/26 8/71/26
f 16/72/27 14/73/27 13/74/27
f 16/75/28 8/76/28 14/77/28
f 15/78/29 16/79/29 13/80/29
f 16/81/30 15/82/30 6/83/30
