# Blender v2.90.1 OBJ File: 'NaturePack_AllModels.blend'
# www.blender.org
mtllib rock20.mtl
o Rock4_Cylinder.006
v 24.198412 0.204665 16.676109
v 24.250845 0.627060 16.736351
v 25.063219 0.194342 17.256033
v 25.086788 0.626459 17.178810
v 24.827021 0.538155 18.092731
v 24.067894 -0.060190 18.173510
v 23.888802 0.612775 18.152956
v 23.474232 0.523271 17.425320
v 24.339058 0.994345 17.081188
v 24.696980 1.097978 17.686159
v 24.018694 1.175671 17.562891
v 24.254217 -0.089225 17.017345
v 24.853205 -0.135657 17.358030
v 24.675659 -0.098495 18.027647
v 23.898369 -0.101399 17.519680
vt 1.000000 0.500000
vt 0.800000 1.000000
vt 0.800000 0.500000
vt 0.600000 0.916682
vt 0.400000 1.000000
vt 0.400000 0.500000
vt 0.294704 1.000000
vt 0.200000 0.919415
vt 0.000000 1.000000
vt 0.000000 0.500000
vt 0.600000 0.500000
vt 0.800000 0.500000
vt 0.662265 1.000000
vt 0.000000 1.000000
vt 1.000000 1.000000
vt 0.891068 0.055836
vt 0.608932 0.055836
vt 0.521746 0.324164
vt 0.000000 0.500000
vt 0.200000 0.500000
vt 1.000000 0.500000
vt 1.000000 1.000000
vt 0.418211 0.139373
vt 0.250000 0.490000
vt 0.063030 0.197105
vt 0.750000 0.490000
vt 0.978254 0.324164
vn 0.5468 -0.1761 -0.8185
vn 0.0678 0.0485 0.9965
vn -0.7521 0.5516 0.3607
vn -0.8387 -0.2078 0.5034
vn -0.6659 0.1857 -0.7226
vn 0.8499 -0.4633 0.2511
vn 0.8667 0.4089 0.2858
vn -0.4907 0.6561 -0.5733
vn 0.4460 0.8002 -0.4010
vn -0.0411 0.7275 0.6849
vn -0.0449 -0.9962 0.0744
vn -0.6817 -0.5378 -0.4960
vn 0.4157 -0.6544 -0.6316
vn 0.2217 -0.1512 0.9633
vn 0.4668 0.0678 -0.8818
vn 0.9620 -0.0037 0.2731
vn 0.8999 -0.2505 0.3570
vn 0.1557 0.9542 -0.2556
vn -0.5752 0.5978 -0.5583
vn 0.3805 0.5828 -0.7181
vn 0.0987 0.5997 0.7941
vn -0.0453 -0.9974 -0.0563
vn -0.0277 -0.9985 0.0481
vn -0.6863 -0.6028 -0.4070
vn 0.4007 -0.4936 -0.7719
vn -0.8189 -0.5190 0.2450
usemtl Rock1_1
s off
f 1/1/1 4/2/1 3/3/1
f 5/4/2 7/5/2 6/6/2
f 7/5/3 11/7/3 8/8/3
f 7/5/4 8/8/4 6/6/4
f 8/8/5 2/9/5 1/10/5
f 3/3/6 14/11/6 13/12/6
f 4/2/7 10/13/7 5/4/7
f 2/9/8 11/7/8 9/14/8
f 4/2/9 9/15/9 10/13/9
f 7/5/10 10/13/10 11/7/10
f 14/16/11 6/17/11 15/18/11
f 8/8/12 12/19/12 15/20/12
f 3/3/13 12/21/13 1/1/13
f 6/6/14 14/11/14 5/4/14
f 1/1/15 2/22/15 4/2/15
f 3/3/16 4/2/16 5/4/16
f 3/3/17 5/4/17 14/11/17
f 10/23/18 9/24/18 11/25/18
f 2/9/19 8/8/19 11/7/19
f 4/2/20 2/22/20 9/15/20
f 7/5/21 5/4/21 10/13/21
f 15/18/22 12/26/22 13/27/22
f 13/27/23 14/16/23 15/18/23
f 8/8/24 1/10/24 12/19/24
f 3/3/25 13/12/25 12/21/25
f 6/6/26 8/8/26 15/20/26
