# Blender v2.90.1 OBJ File: 'NaturePack_AllModels.blend'
# www.blender.org
mtllib rock6.mtl
o Rock6.001_Cube.046
v -10.896033 0.122240 13.777753
v -10.576830 0.251868 14.140793
v -10.297571 0.346390 14.304866
v -10.945934 0.130747 14.668508
v -10.994649 -0.149003 14.603205
v -9.943922 -0.150202 14.601358
v -9.831077 0.298919 13.707664
v -9.950856 -0.136236 13.788136
v -10.305084 0.458260 13.846251
v -9.856956 0.438791 14.041292
v -10.943615 -0.112391 13.722486
v -9.851621 0.045339 14.652322
vt 0.332332 0.335335
vt 0.332332 0.665666
vt 0.002002 0.665666
vt 0.332332 0.668669
vt 0.002002 0.998999
vt 0.332332 0.998999
vt 0.001001 0.997998
vt 0.331331 0.667668
vt 0.001001 0.667668
vt 0.665666 0.332332
vt 0.665666 0.002002
vt 0.335335 0.332332
vt 0.835335 0.332332
vt 0.998999 0.332332
vt 0.998999 0.168669
vt 0.331331 0.334334
vt 0.001001 0.334334
vt 0.001001 0.664665
vt 0.832332 0.502002
vt 0.668669 0.832332
vt 0.832332 0.832332
vt 0.665666 0.665666
vt 0.665666 0.335335
vt 0.335335 0.665666
vt 0.832332 0.168669
vt 0.668669 0.498999
vt 0.832332 0.498999
vt 0.665666 0.832332
vt 0.665666 0.668669
vt 0.335335 0.832332
vt 0.998999 0.165666
vt 0.668669 0.165666
vt 0.998999 0.002002
vt 0.667668 0.164665
vt 0.667668 0.001001
vt 0.997998 0.001001
vt 0.002002 0.332332
vt 0.332332 0.332332
vt 0.332332 0.002002
vt 0.334334 0.001001
vt 0.334334 0.331331
vt 0.664665 0.001001
vt 0.664665 0.334334
vt 0.334334 0.664665
vt 0.334334 0.334334
vt 0.997998 0.167668
vt 0.834334 0.331331
vt 0.834334 0.167668
vt 0.831331 0.501001
vt 0.667668 0.501001
vt 0.667668 0.831331
vt 0.334334 0.831331
vt 0.334334 0.667668
vt 0.664665 0.667668
vt 0.831331 0.167668
vt 0.667668 0.167668
vt 0.667668 0.497998
vt 0.001001 0.331331
vt 0.331331 0.001001
vt 0.001001 0.001001
vn 0.9603 -0.2741 -0.0527
vn -0.0212 -0.9989 -0.0427
vn -0.1045 0.2481 -0.9631
vn -0.5016 0.8544 0.1359
vn -0.4266 0.8770 0.2209
vn 0.9958 0.0808 0.0434
vn -0.9767 0.2093 -0.0479
vn 0.0711 0.7972 0.5995
vn -0.0052 -0.2499 0.9683
vn -0.3482 0.9370 -0.0285
vn 0.1453 0.8324 0.5347
vn 0.9057 -0.4236 -0.0150
vn 0.0600 -0.1975 -0.9785
vn -0.0612 0.9695 0.2375
vn -0.1272 0.4080 -0.9041
vn 0.1987 0.9092 -0.3658
vn -0.9813 0.1841 -0.0567
vn -0.3180 0.9481 -0.0049
vn 0.0015 -0.2276 0.9738
vn -0.0012 -0.9999 -0.0172
usemtl Rock1_1.001
s 1
f 12/1/1 8/2/1 7/3/1
f 8/4/2 5/5/2 11/6/2
f 7/7/3 11/8/3 1/9/3
f 2/10/4 9/11/4 1/12/4
f 2/13/5 3/14/5 9/15/5
f 7/16/6 10/17/6 12/18/6
f 5/19/7 1/20/7 11/21/7
f 3/22/8 4/23/8 12/24/8
f 4/25/9 6/26/9 12/27/9
f 2/28/10 1/29/10 4/30/10
f 3/31/11 12/32/11 10/33/11
f 12/34/12 6/35/12 8/36/12
f 7/37/13 8/38/13 11/39/13
f 9/40/14 3/41/14 10/42/14
f 7/43/15 1/44/15 9/45/15
f 7/46/16 9/47/16 10/48/16
f 5/49/17 4/50/17 1/51/17
f 3/52/18 2/53/18 4/54/18
f 4/55/19 5/56/19 6/57/19
f 5/58/20 8/59/20 6/60/20
