# Blender v2.90.1 OBJ File: 'NaturePack_AllModels.blend'
# www.blender.org
mtllib rock5.mtl
o Rock7.001_Cube.047
v -12.082209 -0.187615 14.736392
v -12.073595 0.380777 14.690498
v -11.980100 0.463563 14.211041
v -13.226727 0.353493 13.542349
v -13.165247 -0.243164 14.584542
v -13.214839 0.343224 14.631204
v -13.455417 0.071899 14.004399
v -12.722582 0.452670 13.426487
v -12.126882 0.078315 13.583938
v -12.515591 0.074568 14.921768
v -11.864090 0.081131 14.245522
v -11.961016 -0.289208 14.194457
v -13.184271 -0.225106 13.523376
v -12.760146 0.068456 13.323063
v -12.735452 -0.298136 13.425797
vt 0.332332 0.335335
vt 0.332332 0.665666
vt 0.002002 0.665666
vt 0.665666 0.498999
vt 0.335335 0.498999
vt 0.665666 0.335335
vt 0.665666 0.332332
vt 0.335335 0.332332
vt 0.665666 0.002002
vt 0.998999 0.332332
vt 0.998999 0.002002
vt 0.835335 0.332332
vt 0.002002 0.832332
vt 0.332332 0.832332
vt 0.332332 0.668669
vt 0.665666 0.668669
vt 0.665666 0.832332
vt 0.502002 0.832332
vt 0.668669 0.832332
vt 0.832332 0.668669
vt 0.832332 0.832332
vt 0.665666 0.502002
vt 0.665666 0.665666
vt 0.335335 0.665666
vt 0.831331 0.667668
vt 0.667668 0.667668
vt 0.667668 0.831331
vt 0.668669 0.665666
vt 0.832332 0.665666
vt 0.832332 0.335335
vt 0.832332 0.332332
vt 0.668669 0.332332
vt 0.832332 0.002002
vt 0.001001 0.664665
vt 0.331331 0.334334
vt 0.001001 0.334334
vt 0.334334 0.334334
vt 0.334334 0.497998
vt 0.664665 0.334334
vt 0.667668 0.331331
vt 0.831331 0.001001
vt 0.667668 0.001001
vt 0.001001 0.667668
vt 0.001001 0.831331
vt 0.331331 0.667668
vt 0.834334 0.331331
vt 0.997998 0.001001
vt 0.834334 0.001001
vt 0.334334 0.001001
vt 0.334334 0.331331
vt 0.664665 0.001001
vt 0.498999 0.832332
vt 0.498999 0.668669
vt 0.335335 0.832332
vt 0.002002 0.332332
vt 0.332332 0.002002
vt 0.332332 0.332332
vt 0.334334 0.664665
vt 0.664665 0.501001
vt 0.334334 0.501001
vt 0.002002 0.998999
vt 0.165666 0.998999
vt 0.165666 0.835335
vt 0.001001 0.834334
vt 0.001001 0.997998
vt 0.164665 0.834334
vt 0.334334 0.831331
vt 0.334334 0.667668
vt 0.497998 0.667668
vt 0.501001 0.831331
vt 0.501001 0.667668
vt 0.664665 0.667668
vt 0.331331 0.001001
vt 0.001001 0.331331
vt 0.001001 0.001001
vt 0.831331 0.334334
vt 0.667668 0.664665
vt 0.667668 0.334334
vn -0.7371 -0.6757 0.0017
vn -0.0723 -0.6527 0.7542
vn -0.0260 -0.9989 0.0378
vn -0.1905 0.9816 0.0113
vn -0.0409 0.9859 0.1623
vn 0.9096 0.0197 0.4150
vn 0.9251 -0.2778 0.2590
vn 0.9016 0.2411 -0.3592
vn -0.2469 -0.2769 -0.9286
vn 0.3740 -0.2268 -0.8993
vn -0.9114 -0.1087 0.3969
vn -0.7645 0.6445 0.0144
vn -0.0607 0.6559 0.7524
vn -0.4163 -0.1071 0.9029
vn -0.1635 -0.9864 -0.0139
vn 0.0238 -0.9816 0.1893
vn -0.0769 0.9953 0.0590
vn 0.9247 0.3015 0.2324
vn 0.5476 0.6497 -0.5273
vn 0.9129 -0.1890 -0.3618
vn 0.4261 0.0664 0.9022
vn -0.4262 -0.0016 -0.9047
vn -0.2664 0.2747 -0.9239
vn -0.8828 -0.0495 -0.4671
vn 0.5403 -0.6480 -0.5369
vn 0.3698 0.2076 -0.9056
usemtl Rock1_1.001
s 1
f 5/1/1 7/2/1 13/3/1
f 10/4/2 5/5/2 1/6/2
f 15/7/3 12/8/3 5/9/3
f 4/10/4 6/11/4 8/12/4
f 6/13/5 2/14/5 3/15/5
f 11/16/6 2/17/6 1/18/6
f 11/19/7 1/20/7 12/21/7
f 3/22/8 11/23/8 9/24/8
f 14/25/9 15/26/9 13/27/9
f 15/28/10 14/29/10 9/30/10
f 5/31/11 6/32/11 7/33/11
f 6/34/12 4/35/12 7/36/12
f 10/37/13 2/38/13 6/39/13
f 10/40/14 6/41/14 5/42/14
f 13/43/15 15/44/15 5/45/15
f 5/46/16 12/47/16 1/48/16
f 8/49/17 6/50/17 3/51/17
f 3/52/18 2/53/18 11/54/18
f 8/55/19 3/56/19 9/57/19
f 12/58/20 9/59/20 11/60/20
f 10/61/21 1/62/21 2/63/21
f 13/64/22 4/65/22 14/66/22
f 4/67/23 8/68/23 14/69/23
f 7/70/24 4/71/24 13/72/24
f 12/73/25 15/74/25 9/75/25
f 8/76/26 9/77/26 14/78/26
