# Blender v2.90.1 OBJ File: 'NaturePack_AllModels.blend'
# www.blender.org
mtllib stump3.mtl
o Stump3_Cylinder.041
v -3.234245 -0.050472 4.636219
v -3.420780 1.023797 4.909111
v -2.872857 -0.050682 5.154487
v -3.182575 1.056945 5.167222
v -2.962124 -0.050472 5.644711
v -3.883487 -0.050472 5.897955
v -3.775416 0.974786 5.681669
v -4.190354 -0.050472 5.544326
v -3.988507 1.073787 5.436106
v -3.757811 -0.050472 4.626098
v -3.719983 0.974786 4.898698
v -3.088617 1.055003 5.136029
v -3.821708 0.971977 5.778765
v -4.088061 1.076893 5.463095
v -3.759994 0.973472 4.797287
v -3.395665 0.919950 4.921659
v -3.776214 0.906603 5.639840
v -3.988507 0.919950 5.436106
v -3.719983 0.919950 4.898698
v -3.246046 0.281603 4.659837
v -3.871686 0.281603 5.874337
v -4.165308 0.281603 5.535970
v -3.749455 0.281603 4.651144
v -4.033552 0.117186 6.134917
v -4.032910 -0.048208 6.148051
v -4.252456 -0.048208 6.069432
v -4.243623 0.117186 6.059691
v -3.613581 0.123379 4.281424
v -3.617856 -0.046478 4.268612
v -3.378963 -0.046478 4.285526
v -3.385000 0.123379 4.297607
v -2.509963 0.125797 5.331317
v -2.497614 -0.037926 5.327198
v -2.513917 -0.037926 5.557464
v -2.525562 0.125797 5.551645
v -3.366719 1.023840 4.823193
v -3.137515 1.023797 5.086928
v -3.232918 1.023797 5.125600
v -3.187239 0.920799 5.158967
v -2.900597 0.285197 5.157313
v -3.094509 0.942336 5.113419
v -4.061727 1.011126 5.098691
v -3.967528 1.012492 5.139785
v -3.965794 0.921077 5.112149
v -4.083443 0.347994 5.070185
v -4.107760 -0.012117 5.062067
v -4.028030 0.974786 5.037049
v -3.940048 0.974786 5.089663
v -4.060131 0.926111 5.064301
v -3.377217 -0.048894 5.868552
v -3.395546 1.028845 5.656424
v -3.524257 1.010288 5.699451
v -3.456256 0.948800 5.688994
v -3.495328 1.014589 5.796864
v -3.444705 0.908181 5.655612
v -3.419002 0.946882 5.791041
v -3.488396 -0.048758 5.889231
v -3.362370 1.027554 5.753244
v -3.202723 1.056945 5.451812
v -3.235455 1.052520 5.517502
v -3.149192 1.051469 5.563874
v -3.108415 1.056945 5.498952
v -3.212603 0.921430 5.487552
v -2.989681 0.281063 5.627940
v -3.113007 0.944468 5.535260
vt 0.385962 0.385962
vt 0.409191 0.424061
vt 0.384015 0.386769
vt 0.750000 0.500000
vt 0.750000 0.500000
vt 0.750000 0.661947
vt 1.000000 0.661947
vt 0.875075 0.500000
vt 1.000000 0.500000
vt 0.369865 0.392630
vt 0.250000 0.442280
vt 0.435418 0.233435
vt 0.382899 0.123308
vt 0.398703 0.144796
vt 0.250000 0.057720
vt 0.250000 0.057720
vt 0.875000 0.999724
vt 0.762262 1.000000
vt 0.751301 0.993808
vt 0.080294 0.080294
vt 0.250000 0.010000
vt 0.057723 0.249995
vt 0.016068 0.235350
vt 0.062582 0.238263
vt 0.114038 0.385962
vt 0.017299 0.267621
vt 0.063568 0.264117
vt 0.250000 0.442280
vt 0.080294 0.419706
vt 0.114038 0.385962
vt 0.114038 0.114038
vt 0.435381 0.266655
vt 0.419706 0.419706
vt 0.114038 0.114038
vt 0.355293 0.101334
vt 0.388955 0.067557
vt 0.580294 0.419706
vt 0.750000 0.490000
vt 0.750000 0.490000
vt 0.250051 0.500000
vt 0.125000 0.661947
vt 0.125000 0.500000
vt 0.580294 0.080294
vt 0.750000 0.010000
vt 0.580294 0.080294
vt 0.483127 0.233406
vt 0.606356 0.500938
vt 0.500000 0.661947
vt 0.500000 0.500000
vt 0.875000 0.661947
vt 0.875000 0.500000
vt 0.500000 0.500000
vt 0.375000 0.661947
vt 0.375000 0.500000
vt 0.500000 0.661947
vt 0.375000 0.661947
vt 0.375000 0.500000
vt 0.125000 0.500000
vt 0.000000 0.661947
vt 0.000000 0.500000
vt 0.125000 0.661947
vt 1.000000 0.661947
vt 0.737779 0.999718
vt 0.625069 0.998561
vt 0.752460 0.661339
vt 0.919603 0.419748
vt 0.990000 0.250000
vt 0.990000 0.250000
vt 0.702689 0.395783
vt 0.000000 0.999556
vt 0.000000 0.661947
vt 0.249307 0.661947
vt 0.125000 0.999265
vt 0.500000 0.998504
vt 0.882946 0.997809
vt 0.876308 0.661947
vt 1.000000 0.999556
vt 0.889021 1.000000
vt 0.400670 0.427590
vt 0.250000 0.490000
vt 0.375000 1.000695
vt 0.010000 0.250000
vt 0.385962 0.114038
vt 0.432466 0.111101
vt 0.602342 1.000796
vt 0.773747 0.297981
vt 0.894399 0.069812
vt 0.510059 0.249930
vt 0.438431 0.249982
vt 0.483104 0.266648
vt 0.250010 0.996053
vt 0.237021 1.000000
vt 0.580294 0.419706
vt 0.750000 0.010000
vt 1.000000 0.500000
vt 0.647693 1.000145
vt 0.919706 0.419706
vt 0.260790 0.999556
vt 0.414425 0.085575
vt 0.485967 0.250000
vn -0.4528 0.0694 -0.8889
vn 0.1895 0.0483 0.9807
vn 0.8183 0.0697 -0.5706
vn -0.7459 -0.1184 0.6555
vn -0.6534 0.2710 -0.7068
vn 0.0381 0.5222 -0.8520
vn 0.9982 -0.0231 0.0546
vn 0.2219 0.9658 0.1337
vn 0.3812 0.2741 -0.8829
vn 0.0000 1.0000 -0.0000
vn -0.1632 0.9852 0.0516
vn -0.0702 0.1029 0.9922
vn 0.9975 -0.0022 0.0699
vn 0.0212 0.9998 0.0015
vn 0.6924 0.0000 -0.7215
vn -0.1292 0.9916 -0.0054
vn 0.0002 -0.9999 -0.0115
vn -0.7752 0.0669 -0.6281
vn -0.0015 -1.0000 0.0041
vn -0.0487 0.9924 0.1130
vn 0.0217 0.0702 0.9973
vn 0.4160 0.0542 -0.9078
vn -0.3362 0.0733 0.9389
vn 0.8578 0.0440 0.5121
vn -0.3696 0.8721 0.3207
vn -0.9895 0.0715 -0.1255
vn 0.0704 0.0733 -0.9948
vn 0.0272 0.9226 -0.3848
vn 0.9230 0.0598 -0.3802
vn -0.9302 0.0508 -0.3636
vn 0.9948 0.0733 0.0704
vn 0.5892 0.1873 0.7860
vn 0.0291 -0.9996 0.0057
vn 0.4702 0.0881 0.8781
vn 0.0169 0.2175 -0.9759
vn -0.7667 0.1215 -0.6304
vn -0.7474 0.1439 0.6486
vn 0.0749 0.1314 0.9885
vn 0.3205 0.9470 0.0227
vn 0.8041 0.1999 -0.5598
vn 0.7422 0.1821 -0.6450
vn 0.9615 0.2044 0.1838
vn -0.0002 1.0000 0.0004
vn 0.3404 0.4230 0.8398
vn -0.9836 0.0807 -0.1614
vn -0.9841 0.0701 -0.1630
vn -0.0178 0.9837 -0.1788
vn 0.6554 0.0000 0.7553
vn -0.3294 0.6173 0.7145
vn 0.6351 0.7400 -0.2213
vn -0.7178 0.6480 0.2546
vn -0.7272 0.3004 -0.6172
vn 0.4804 0.6344 -0.6056
vn 0.1519 0.0865 0.9846
vn -0.0083 -0.9992 -0.0380
vn 0.4581 0.2731 -0.8459
vn -0.4318 0.2593 0.8639
vn 0.9142 0.2177 0.3419
vn -0.9957 0.0523 -0.0770
vn -0.3048 0.2027 -0.9306
vn 0.1829 0.0648 0.9810
vn -0.6665 0.0223 -0.7452
vn 0.8190 0.0724 -0.5692
vn -0.7513 -0.1029 0.6519
vn -0.5876 0.0815 -0.8051
vn 0.0083 0.4000 -0.9165
vn 0.1082 0.9510 0.2896
vn 0.4393 0.3440 -0.8299
vn -0.0049 0.9999 -0.0110
vn -0.1217 0.9896 -0.0761
vn 0.6052 0.1261 -0.7860
vn -0.0348 0.0000 0.9994
vn 0.9975 0.0000 0.0706
vn 0.0026 1.0000 -0.0052
vn 0.7753 0.3236 -0.5423
vn -0.1373 0.9898 -0.0368
vn 0.0008 -0.9999 -0.0109
vn -0.7751 0.0665 -0.6283
vn -0.0062 -1.0000 0.0054
vn -0.0766 0.9963 0.0395
vn 0.4209 0.0424 -0.9061
vn 0.8473 0.0077 0.5311
vn -0.1017 0.9534 0.2841
vn -0.9920 0.0461 -0.1175
vn 0.0070 0.9154 -0.4025
vn 0.6667 -0.1237 0.7349
vn 0.0329 -0.9995 0.0023
vn 0.4732 0.0837 0.8770
vn 0.0379 0.2071 -0.9776
vn -0.6662 0.0193 -0.7455
vn -0.9893 0.0385 -0.1410
vn -0.7354 0.1323 0.6645
vn -0.0663 0.0859 0.9941
vn 0.3483 0.9345 0.0741
vn 0.7398 0.2571 -0.6217
vn 0.9630 0.2387 0.1249
vn 0.3120 0.4388 0.8427
vn -0.9963 0.0360 -0.0785
vn 0.0718 0.9777 -0.1972
vn 0.6557 0.0018 0.7551
vn -0.4391 0.5179 0.7342
vn 0.6381 0.7381 -0.2191
vn -0.7214 0.6354 0.2753
vn 0.1823 0.0839 0.9797
vn -0.0017 -0.9963 0.0863
vn -0.0329 -0.9992 0.0225
vn -0.0298 -0.9994 -0.0186
vn -0.0040 -1.0000 -0.0003
vn 0.0043 -1.0000 -0.0037
vn 0.0382 -0.9966 -0.0727
vn 0.3383 0.3482 -0.8743
vn -0.4671 0.2888 0.8357
vn -0.9968 0.0384 -0.0706
vn -0.0207 0.9997 0.0146
vn -0.0011 0.9999 0.0160
vn -0.0618 0.9981 -0.0067
vn -0.0062 0.9995 0.0296
vn 0.0137 0.9998 0.0105
vn 0.0557 0.9984 0.0074
usemtl Stump1_1
s off
f 4/1/1 41/2/1 39/3/1
f 5/4/2 34/5/2 35/6/2
f 20/7/3 3/8/3 1/9/3
f 38/10/4 16/11/4 39/3/4
f 60/12/5 55/13/5 51/14/5
f 7/15/6 55/13/6 17/16/6
f 12/17/7 62/18/7 65/19/7
f 7/15/8 14/20/8 13/21/8
f 44/22/9 42/23/9 43/24/9
f 11/25/10 47/26/10 48/27/10
f 2/28/11 15/29/11 11/25/11
f 2/28/12 19/30/12 16/11/12
f 43/24/13 18/31/13 44/22/13
f 59/32/14 12/33/14 4/1/14
f 9/34/15 17/16/15 18/31/15
f 52/35/16 13/21/16 54/36/16
f 10/37/17 30/38/17 1/39/17
f 46/40/18 23/41/18 10/42/18
f 8/43/19 25/44/19 26/45/19
f 51/14/20 61/46/20 60/12/20
f 57/47/21 21/48/21 6/49/21
f 3/8/22 32/50/22 33/51/22
f 25/52/23 27/53/23 26/54/23
f 6/49/24 24/55/24 25/52/24
f 22/56/25 24/55/25 21/48/25
f 8/57/26 27/53/26 22/56/26
f 29/58/27 31/59/27 30/60/27
f 23/41/28 31/59/28 28/61/28
f 1/9/29 31/62/29 20/7/29
f 10/42/30 28/61/30 29/58/30
f 32/50/31 34/5/31 33/51/31
f 61/63/32 56/64/32 64/65/32
f 3/66/33 34/67/33 5/68/33
f 64/65/34 56/64/34 50/69/34
f 23/41/35 36/70/35 20/71/35
f 45/72/36 15/73/36 23/41/36
f 13/74/37 22/56/37 21/48/37
f 57/47/38 13/74/38 21/48/38
f 64/65/39 35/6/39 32/50/39
f 20/7/40 41/75/40 40/76/40
f 36/77/41 37/78/41 41/75/41
f 40/76/42 65/19/42 64/65/42
f 2/28/43 37/79/43 36/80/43
f 39/3/44 37/79/44 38/10/44
f 14/81/45 45/72/45 22/56/45
f 22/56/46 46/40/46 8/57/46
f 9/34/47 42/23/47 14/20/47
f 48/27/48 19/30/48 11/25/48
f 44/22/49 47/26/49 49/82/49
f 54/36/50 53/83/50 52/35/50
f 53/83/51 58/84/51 51/14/51
f 55/13/52 53/83/52 51/14/52
f 53/83/53 55/13/53 52/35/53
f 57/47/54 56/64/54 54/85/54
f 50/86/55 57/87/55 46/88/55
f 61/46/56 63/89/56 60/12/56
f 63/89/57 62/90/57 59/32/57
f 64/65/58 65/19/58 61/63/58
f 59/32/59 39/3/59 63/89/59
f 4/1/60 12/33/60 41/2/60
f 35/6/61 64/65/61 5/4/61
f 49/91/62 47/92/62 15/73/62
f 20/7/63 40/76/63 3/8/63
f 38/10/64 2/28/64 16/11/64
f 60/12/65 63/89/65 55/13/65
f 7/15/66 52/35/66 55/13/66
f 7/15/67 9/34/67 14/20/67
f 44/22/68 49/82/68 42/23/68
f 11/25/69 15/29/69 47/26/69
f 2/28/70 36/80/70 15/29/70
f 40/76/71 41/75/71 12/17/71
f 2/28/72 11/25/72 19/30/72
f 43/24/73 9/34/73 18/31/73
f 59/32/74 62/90/74 12/33/74
f 9/34/75 7/15/75 17/16/75
f 52/35/76 7/15/76 13/21/76
f 10/37/77 29/93/77 30/38/77
f 46/40/78 45/72/78 23/41/78
f 8/43/79 6/94/79 25/44/79
f 51/14/80 58/84/80 61/46/80
f 3/8/81 40/76/81 32/50/81
f 25/52/23 24/55/23 27/53/23
f 6/49/82 21/48/82 24/55/82
f 22/56/83 27/53/83 24/55/83
f 8/57/84 26/54/84 27/53/84
f 29/58/27 28/61/27 31/59/27
f 23/41/85 20/71/85 31/59/85
f 1/9/29 30/95/29 31/62/29
f 10/42/30 23/41/30 28/61/30
f 32/50/31 35/6/31 34/5/31
f 61/63/86 58/96/86 56/64/86
f 3/66/87 33/97/87 34/67/87
f 50/69/88 5/4/88 64/65/88
f 23/41/89 15/73/89 36/70/89
f 45/72/90 49/91/90 15/73/90
f 42/98/91 49/91/91 45/72/91
f 13/74/92 14/81/92 22/56/92
f 57/47/93 54/85/93 13/74/93
f 32/50/94 40/76/94 64/65/94
f 20/7/95 36/77/95 41/75/95
f 40/76/96 12/17/96 65/19/96
f 2/28/10 38/10/10 37/79/10
f 39/3/97 41/2/97 37/79/97
f 14/81/98 42/98/98 45/72/98
f 22/56/46 45/72/46 46/40/46
f 9/34/99 43/24/99 42/23/99
f 48/27/100 44/22/100 19/30/100
f 44/22/101 48/27/101 47/26/101
f 54/36/102 56/99/102 53/83/102
f 53/83/103 56/99/103 58/84/103
f 57/47/104 50/69/104 56/64/104
f 10/37/105 1/39/105 46/88/105
f 1/39/106 3/66/106 46/88/106
f 46/88/107 3/66/107 50/86/107
f 50/86/108 3/66/108 5/68/108
f 57/87/109 6/94/109 8/43/109
f 8/43/110 46/88/110 57/87/110
f 61/46/111 65/100/111 63/89/111
f 63/89/112 65/100/112 62/90/112
f 59/32/113 4/1/113 39/3/113
usemtl Stump1_2
f 39/3/114 16/11/114 55/13/114
f 16/11/115 19/30/115 55/13/115
f 39/3/116 55/13/116 63/89/116
f 17/16/117 55/13/117 44/22/117
f 44/22/118 55/13/118 19/30/118
f 44/22/119 18/31/119 17/16/119
