# Blender v2.90.1 OBJ File: 'NaturePack_AllModels.blend'
# www.blender.org
mtllib tomb4.mtl
o Gravestone3_Icosphere.023
v 15.540970 -0.452256 14.022607
v 15.634145 -0.321345 14.607010
v 15.585644 0.063115 14.187653
v 17.145590 -0.513527 14.540477
v 19.089989 -0.134800 14.441359
v 16.627243 0.280141 12.945771
v 15.435896 0.099625 13.777412
v 16.136744 -0.026203 12.878475
v 18.763327 0.377336 13.124949
v 17.078646 -0.458385 13.050879
v 18.773922 0.388775 13.677947
v 18.629519 -0.388232 13.186442
v 19.225534 -0.059419 13.408006
v 15.384262 -0.330584 13.197417
v 18.162701 -0.040120 12.904826
v 18.090687 -0.572842 13.996002
v 18.662483 -0.344260 14.653327
v 18.814041 0.221079 14.680757
v 18.988609 -0.397374 14.054512
v 19.032444 0.054321 14.022127
v 18.088902 -0.114169 14.843787
v 16.893709 0.326479 13.416739
v 17.437723 0.474529 14.188405
v 17.010906 -0.337902 14.818649
v 16.208561 0.305126 13.777296
v 16.018503 0.238151 14.228611
v 17.963739 0.433508 13.393839
v 15.476386 0.254897 13.203046
v 17.651012 0.209220 12.991280
v 16.452040 0.259634 14.636669
v 17.158829 -0.040689 14.845078
v 15.618320 0.056444 14.690543
v 16.452534 -0.612956 13.716743
v 15.432565 -0.149281 14.064494
v 19.248205 -0.145948 13.909249
vt 0.000000 0.000000
vt 0.000000 0.000000
vt 0.000000 0.000000
vt 0.000000 0.000000
vt 0.000000 0.000000
vt 0.000000 0.000000
vt 0.000000 0.000000
vt 0.000000 0.000000
vt 0.000000 0.000000
vt 0.000000 0.000000
vt 0.000000 0.000000
vt 0.000000 0.000000
vt 0.000000 0.000000
vt 0.000000 0.000000
vt 0.000000 0.000000
vt 0.000000 0.000000
vt 0.000000 0.000000
vt 0.000000 0.000000
vt 0.000000 0.000000
vt 0.000000 0.000000
vt 0.000000 0.000000
vt 0.000000 0.000000
vt 0.000000 0.000000
vt 0.000000 0.000000
vt 0.000000 0.000000
vt 0.000000 0.000000
vt 0.000000 0.000000
vt 0.000000 0.000000
vt 0.000000 0.000000
vt 0.000000 0.000000
vt 0.000000 0.000000
vt 0.000000 0.000000
vt 0.000000 0.000000
vt 0.000000 0.000000
vt 0.000000 0.000000
vn -0.3776 0.9252 0.0368
vn -0.9426 -0.1093 0.3156
vn -0.3835 0.8970 0.2198
vn -0.8262 0.5600 0.0611
vn -0.8449 0.4090 0.3448
vn 0.1967 -0.9762 -0.0917
vn -0.0874 -0.8609 0.5012
vn -0.1031 -0.9735 0.2042
vn -0.1125 -0.9656 0.2342
vn -0.2065 -0.9729 -0.1042
vn -0.9073 -0.3556 0.2243
vn -0.2569 0.9658 0.0352
vn 0.7407 -0.6299 0.2334
vn 0.0098 -0.3521 -0.9359
vn -0.9874 0.1556 -0.0275
vn -0.1134 -0.5714 -0.8128
vn -0.1990 0.5034 -0.8408
vn -0.4144 0.0739 -0.9071
vn -0.9971 0.0624 0.0425
vn 0.0709 0.4536 -0.8884
vn 0.0141 0.1930 -0.9811
vn -0.0982 -0.9451 -0.3118
vn -0.9286 -0.3495 0.1248
vn 0.4201 -0.1594 -0.8934
vn 0.4220 -0.1344 -0.8966
vn 0.0628 0.9978 -0.0218
vn 0.7315 0.6737 0.1052
vn 0.6956 0.7179 -0.0282
vn 0.6396 -0.7521 -0.1588
vn 0.5342 -0.8136 -0.2295
vn 0.0882 -0.9621 0.2579
vn 0.7208 0.6636 0.2004
vn 0.0975 -0.5437 -0.8336
vn 0.7025 0.7060 0.0901
vn 0.0604 -0.9812 -0.1835
vn 0.5053 -0.1764 0.8447
vn 0.0519 -0.8329 0.5510
vn 0.0543 -0.9827 -0.1771
vn 0.0045 -0.9932 0.1161
vn 0.5494 -0.7512 0.3659
vn 0.8249 0.5491 0.1345
vn 0.7468 0.6601 0.0805
vn 0.0842 -0.5024 0.8605
vn -0.0833 0.8966 -0.4349
vn 0.0594 0.9982 -0.0122
vn 0.0746 0.9874 -0.1394
vn -0.0991 0.9000 -0.4245
vn 0.0314 0.3813 0.9239
vn 0.0471 0.4121 -0.9099
vn 0.1236 0.9795 0.1589
vn 0.2697 -0.1187 0.9556
vn -0.0054 -0.0859 0.9963
vn -0.0389 0.9963 -0.0760
vn 0.1771 -0.9672 0.1823
vn -0.1013 0.9878 -0.1181
vn -0.0461 0.9985 -0.0285
vn -0.0063 0.5600 0.8285
vn -0.1508 -0.2194 0.9639
vn -0.1021 -0.0376 0.9941
vn -0.2214 0.9575 0.1848
vn -0.1599 0.9800 0.1183
vn -0.0584 0.4727 0.8793
vn 0.0063 0.8962 0.4436
vn -0.2497 0.9391 0.2363
vn -0.1616 0.9838 0.0779
vn -0.0952 0.9879 -0.1224
usemtl Gravwstone1_2
s off
f 32/1/1 26/2/1 3/3/1
f 32/1/2 34/4/2 2/5/2
f 7/6/3 3/3/3 26/2/3
f 34/4/4 32/1/4 3/3/4
f 7/6/5 34/4/5 3/3/5
f 19/7/6 16/8/6 12/9/6
f 24/10/7 2/5/7 4/11/7
f 1/12/8 33/13/8 4/11/8
f 4/11/9 2/5/9 1/12/9
f 1/12/10 14/14/10 33/13/10
f 34/4/11 1/12/11 2/5/11
f 25/15/12 7/6/12 26/2/12
f 5/16/13 19/7/13 35/17/13
f 8/18/14 15/19/14 10/20/14
f 14/14/15 7/6/15 28/21/15
f 10/20/16 14/14/16 8/18/16
f 28/21/17 6/22/17 8/18/17
f 28/21/18 8/18/18 14/14/18
f 7/6/19 14/14/19 34/4/19
f 6/22/20 29/23/20 15/19/20
f 15/19/21 8/18/21 6/22/21
f 14/14/22 10/20/22 33/13/22
f 14/14/23 1/12/23 34/4/23
f 13/24/24 12/9/24 15/19/24
f 13/24/25 15/19/25 9/25/25
f 9/25/26 27/26/26 11/27/26
f 11/27/27 20/28/27 13/24/27
f 11/27/28 13/24/28 9/25/28
f 13/24/29 35/17/29 19/7/29
f 13/24/30 19/7/30 12/9/30
f 4/11/31 16/8/31 17/29/31
f 20/28/32 5/16/32 35/17/32
f 10/20/33 15/19/33 12/9/33
f 20/28/34 35/17/34 13/24/34
f 12/9/35 16/8/35 10/20/35
f 17/29/36 5/16/36 18/30/36
f 17/29/37 24/10/37 4/11/37
f 16/8/38 33/13/38 10/20/38
f 4/11/39 33/13/39 16/8/39
f 5/16/40 17/29/40 19/7/40
f 5/16/41 20/28/41 18/30/41
f 20/28/42 11/27/42 18/30/42
f 24/10/43 17/29/43 21/31/43
f 27/26/44 9/25/44 29/23/44
f 11/27/45 27/26/45 23/32/45
f 29/23/46 6/22/46 22/33/46
f 27/26/47 29/23/47 22/33/47
f 31/34/48 21/31/48 18/30/48
f 15/19/49 29/23/49 9/25/49
f 18/30/50 11/27/50 23/32/50
f 17/29/51 18/30/51 21/31/51
f 24/10/52 21/31/52 31/34/52
f 6/22/53 28/21/53 22/33/53
f 16/8/54 19/7/54 17/29/54
f 23/32/55 27/26/55 22/33/55
f 22/33/56 28/21/56 25/15/56
f 31/34/57 18/30/57 30/35/57
f 24/10/58 32/1/58 2/5/58
f 31/34/59 32/1/59 24/10/59
f 32/1/60 30/35/60 26/2/60
f 23/32/61 26/2/61 30/35/61
f 31/34/62 30/35/62 32/1/62
f 30/35/63 18/30/63 23/32/63
f 25/15/64 28/21/64 7/6/64
f 25/15/65 26/2/65 23/32/65
f 22/33/66 25/15/66 23/32/66
