# Blender v2.90.1 OBJ File: 'NaturePack_AllModels.blend'
# www.blender.org
mtllib tomb1.mtl
o Gravestone1_Cube.002
v 18.264559 -0.051375 11.694462
v 17.699905 -0.078982 11.724359
v 18.177261 2.008283 11.514290
v 18.640812 2.020041 11.507211
v 18.949312 1.775576 12.001575
v 19.473135 0.131017 11.473404
v 19.100918 0.149523 11.301688
v 17.899807 0.610549 11.511480
v 17.376492 0.143854 11.307117
v 17.378746 0.137012 11.790631
v 18.339470 0.704954 11.539871
v 18.035702 0.647883 11.982582
v 17.770561 0.134126 11.465871
v 17.720854 0.131780 12.199750
v 17.571484 0.139133 12.003295
v 17.379801 -0.054017 11.324171
v 18.091305 -0.047085 12.213991
v 17.363411 0.155061 12.210935
v 18.451748 0.136051 11.323100
v 17.369265 -0.036652 12.205205
v 18.282654 0.142047 11.507989
v 18.030437 0.155944 12.034503
v 17.390036 -0.065092 11.747766
v 17.906296 -0.067263 11.303909
v 17.727461 -0.057626 12.185515
v 17.908636 0.128013 11.307066
v 18.767357 0.123826 11.972686
v 19.477514 -0.046463 11.321656
v 18.726770 0.118838 12.175601
v 19.280457 0.137912 11.499417
v 18.679163 -0.068329 12.171764
v 19.466263 -0.051249 12.206065
v 19.080383 -0.039126 11.310189
v 17.960476 0.112727 12.212659
v 18.848442 0.605553 11.526562
v 19.152840 0.138967 12.209828
v 18.897560 0.142773 11.416549
v 19.460150 -0.062592 11.807080
v 18.927410 0.103536 11.309527
v 19.466013 0.132883 12.195005
v 18.462795 -0.053576 11.329025
v 19.275150 1.271915 11.517911
v 18.897266 0.978565 11.505518
v 19.282921 0.950925 12.002247
v 18.758081 0.674025 11.982144
v 19.341742 0.141319 11.321118
v 18.566662 0.483986 11.984272
v 18.545439 1.096630 11.535284
v 19.283077 1.261854 12.006662
v 19.270018 1.634578 11.525741
v 19.268356 1.019601 11.545750
v 19.292170 1.020994 11.686859
v 18.822998 2.010367 11.991946
v 19.081062 1.946564 11.853866
v 19.208796 1.839097 11.844412
v 19.193398 0.428526 12.017717
v 19.284014 0.139740 12.029096
v 19.272011 0.486303 11.538357
v 18.949879 0.152499 11.495947
v 19.183611 1.679502 11.996707
v 18.475920 1.617669 11.532921
v 19.279879 0.612003 11.970949
v 17.558336 0.145712 11.472437
v 17.945597 2.008031 11.513732
v 18.666370 2.022753 11.972465
v 17.939253 2.009376 11.996876
v 17.755703 1.958888 11.997975
v 17.761570 1.957660 11.513418
v 19.227736 1.823508 11.516763
v 17.567356 1.620156 12.010124
v 18.602125 1.973290 11.990478
v 17.721647 0.136790 11.998352
v 18.835005 2.025952 11.509572
v 17.574577 1.626857 11.543900
v 18.448917 2.018969 11.939379
v 18.922222 2.008826 11.873146
v 19.108246 1.959424 11.514233
v 17.630930 1.820241 11.524790
v 17.580250 0.395636 11.975060
v 17.585728 1.191455 11.527017
v 17.570032 1.156594 11.841837
v 17.585857 0.869602 12.010180
v 17.630295 1.209668 11.991672
v 17.581024 0.744708 11.523208
v 17.926798 1.485637 11.528701
v 17.652672 1.058133 11.509368
v 17.931381 1.128769 11.503358
v 19.008997 1.466848 11.515157
v 19.192627 0.829677 11.519011
v 18.034256 1.450543 11.982038
v 18.083475 0.147526 12.227368
v 19.105404 1.802255 11.966060
v 19.270164 1.610567 11.990231
v 17.623087 1.819242 11.996767
v 19.419106 0.111588 11.372864
vt 0.000000 0.000000
vt 0.000000 0.000000
vt 0.000000 0.000000
vt 0.000000 0.000000
vt 0.000000 0.000000
vt 0.000000 0.000000
vt 0.000000 0.000000
vt 0.000000 0.000000
vt 0.000000 0.000000
vt 0.000000 0.000000
vt 0.000000 0.000000
vt 0.000000 0.000000
vt 0.000000 0.000000
vt 0.000000 0.000000
vt 0.000000 0.000000
vt 0.000000 0.000000
vt 0.000000 0.000000
vt 0.000000 0.000000
vt 0.000000 0.000000
vt 0.000000 0.000000
vt 0.000000 0.000000
vt 0.000000 0.000000
vt 0.000000 0.000000
vt 0.000000 0.000000
vt 0.000000 0.000000
vt 0.000000 0.000000
vt 0.000000 0.000000
vt 0.000000 0.000000
vt 0.000000 0.000000
vt 0.000000 0.000000
vt 0.000000 0.000000
vt 0.000000 0.000000
vt 0.000000 0.000000
vt 0.000000 0.000000
vt 0.000000 0.000000
vt 0.000000 0.000000
vt 0.000000 0.000000
vt 0.000000 0.000000
vt 0.000000 0.000000
vt 0.000000 0.000000
vt 0.000000 0.000000
vt 0.000000 0.000000
vt 0.000000 0.000000
vt 0.000000 0.000000
vt 0.000000 0.000000
vt 0.000000 0.000000
vt 0.000000 0.000000
vt 0.000000 0.000000
vt 0.000000 0.000000
vt 0.000000 0.000000
vt 0.000000 0.000000
vt 0.000000 0.000000
vt 0.000000 0.000000
vt 0.000000 0.000000
vt 0.000000 0.000000
vt 0.000000 0.000000
vt 0.000000 0.000000
vt 0.000000 0.000000
vt 0.000000 0.000000
vt 0.000000 0.000000
vt 0.000000 0.000000
vt 0.000000 0.000000
vt 0.000000 0.000000
vt 0.000000 0.000000
vt 0.000000 0.000000
vt 0.000000 0.000000
vt 0.000000 0.000000
vt 0.000000 0.000000
vt 0.000000 0.000000
vt 0.000000 0.000000
vt 0.000000 0.000000
vt 0.000000 0.000000
vt 0.000000 0.000000
vt 0.000000 0.000000
vt 0.000000 0.000000
vt 0.000000 0.000000
vt 0.000000 0.000000
vt 0.000000 0.000000
vt 0.000000 0.000000
vt 0.000000 0.000000
vt 0.000000 0.000000
vt 0.000000 0.000000
vt 0.000000 0.000000
vt 0.000000 0.000000
vt 0.000000 0.000000
vt 0.000000 0.000000
vt 0.000000 0.000000
vt 0.000000 0.000000
vt 0.000000 0.000000
vt 0.000000 0.000000
vt 0.000000 0.000000
vt 0.000000 0.000000
vt 0.000000 0.000000
vt 0.000000 0.000000
vt 0.000000 0.000000
vn 0.0511 -0.9978 0.0432
vn -0.0555 0.0700 -0.9960
vn -0.0460 -0.0449 -0.9979
vn -0.0359 -0.0093 -0.9993
vn -0.0018 -0.0550 0.9985
vn 0.0246 -0.0742 0.9969
vn -0.0722 0.0362 -0.9967
vn 0.0085 -0.0034 -1.0000
vn -0.0986 -0.0432 -0.9942
vn -0.0012 -0.9994 -0.0344
vn 0.0031 0.0945 -0.9955
vn -0.2520 0.8837 -0.3943
vn -0.0342 -0.0413 -0.9986
vn -0.0277 0.9829 -0.1818
vn -0.0296 -0.0364 -0.9989
vn 0.0550 0.9423 -0.3302
vn 0.0728 0.9962 0.0479
vn 0.0349 0.9985 -0.0416
vn -0.0402 -0.9974 0.0602
vn 0.1628 0.0720 -0.9840
vn -0.0486 0.1071 -0.9931
vn -0.0179 -0.0146 -0.9997
vn -0.9996 -0.0067 -0.0258
vn -0.9986 -0.0292 -0.0435
vn -0.9998 -0.0159 -0.0140
vn 0.0344 0.1082 0.9935
vn 0.0291 0.1046 0.9941
vn 0.0608 0.0020 0.9981
vn -0.0093 0.0556 0.9984
vn -0.9348 0.1399 0.3264
vn 0.0616 0.0008 0.9981
vn -0.0504 -0.0326 -0.9982
vn -0.9982 -0.0485 -0.0343
vn 0.0785 -0.0534 -0.9955
vn 0.0025 -0.0130 -0.9999
vn 0.0292 0.0182 -0.9994
vn 0.0702 -0.0383 0.9968
vn 0.0484 0.0600 0.9970
vn -0.0578 0.0100 0.9983
vn 0.0136 0.0704 -0.9974
vn -0.0484 0.9987 0.0149
vn 0.9851 -0.0448 -0.1658
vn -0.0801 -0.0001 0.9968
vn -0.2348 0.0108 -0.9720
vn 0.0523 0.9963 -0.0687
vn 0.0002 0.0110 0.9999
vn -0.0115 0.9988 -0.0484
vn 0.1148 0.0510 0.9921
vn 0.0164 0.9996 0.0249
vn -0.9979 -0.0605 0.0225
vn -0.9999 -0.0163 0.0044
vn -0.0691 0.9957 0.0625
vn -0.0176 0.9938 -0.1102
vn -0.0308 -0.0142 0.9994
vn -0.6419 0.0133 -0.7666
vn -0.0135 0.9989 -0.0447
vn -0.0452 0.9987 0.0247
vn 0.0293 0.0158 -0.9994
vn -0.0591 0.0397 0.9975
vn -0.1087 0.0051 0.9941
vn -0.0919 -0.0187 0.9956
vn 0.0212 0.0149 -0.9997
vn 0.2628 0.1202 0.9573
vn 0.5565 -0.1059 -0.8240
vn 0.0162 -0.0584 -0.9982
vn 0.0004 0.0162 -0.9999
vn 0.7542 0.4374 -0.4898
vn -0.0290 0.9994 -0.0167
vn 0.0332 0.9994 0.0105
vn -0.0148 0.0580 -0.9982
vn -0.0748 0.1055 0.9916
vn 0.0205 -0.9994 0.0281
vn -0.0172 -0.9990 -0.0419
vn -0.0742 0.9946 -0.0729
vn -0.0756 -0.0773 0.9941
vn -0.0670 -0.1780 0.9817
vn 0.0294 -0.0290 0.9991
vn -0.0364 -0.9993 -0.0039
vn 0.0646 0.9978 -0.0118
vn 0.0277 -0.0167 0.9995
vn 0.0470 0.9984 0.0307
vn 0.0458 -0.0285 -0.9985
vn 0.0406 -0.0101 -0.9991
vn 0.5624 0.7015 -0.4378
vn 0.0128 -0.0533 -0.9985
vn -0.0258 0.0018 -0.9997
vn 0.0842 0.0149 0.9963
vn -0.0083 -0.9994 -0.0335
vn -0.0983 -0.0722 0.9925
vn 0.6099 0.4391 -0.6597
vn -0.0415 -0.0880 0.9953
vn 0.0772 -0.0653 0.9949
vn -0.0262 0.0854 -0.9960
vn 0.9999 0.0004 -0.0153
vn 0.9998 0.0063 -0.0200
vn 0.0402 0.9987 0.0329
vn 0.0437 0.9985 0.0341
vn 0.0355 0.9994 -0.0022
vn 0.9998 0.0163 0.0098
vn 0.9950 -0.0943 0.0325
vn 0.0463 0.9984 0.0338
vn -0.0190 0.0632 -0.9978
vn 0.0592 0.1123 -0.9919
vn 0.0237 -0.9995 0.0189
vn -0.0568 -0.0382 0.9977
vn 0.0486 -0.9988 -0.0040
vn 0.0240 -0.9995 0.0190
vn 0.0276 -0.9995 0.0175
vn -0.0308 -0.0330 -0.9990
vn -0.0466 -0.9986 -0.0250
vn -0.0069 0.9992 -0.0388
vn -0.0557 -0.9972 0.0495
vn 0.0505 -0.0731 0.9960
vn 0.0687 -0.0198 -0.9974
vn -0.0267 -0.9988 -0.0409
vn -0.9949 0.0043 0.1009
vn 0.0534 0.0511 -0.9973
vn 0.0298 0.9995 -0.0126
vn -0.0405 -0.0865 -0.9954
vn -0.1178 0.0250 0.9927
vn 0.0806 0.0733 -0.9940
vn 0.5986 -0.0790 0.7971
vn -0.1392 0.4935 0.8585
vn 0.0663 0.9973 0.0311
vn 0.9984 0.0505 -0.0256
vn 0.9993 0.0370 0.0005
vn -0.0269 0.9996 -0.0079
vn 0.1959 0.1451 0.9698
vn -0.0011 1.0000 -0.0028
vn -0.0279 0.0380 -0.9989
vn -0.0737 -0.0768 -0.9943
vn 0.0620 -0.0335 -0.9975
vn 0.9997 0.0250 -0.0068
vn 0.9757 0.2189 0.0110
vn 0.0264 0.0220 -0.9994
vn 0.7710 0.1433 -0.6205
vn 0.9252 -0.3474 -0.1527
vn 0.9999 0.0141 0.0004
vn 0.0155 -0.0050 -0.9999
vn 0.9996 -0.0114 0.0268
vn -0.0124 0.0343 0.9993
vn -0.0108 -0.0099 0.9999
vn 0.9579 0.2840 0.0419
vn 0.6452 0.7598 0.0804
vn 0.5470 0.5497 0.6314
vn -0.9999 -0.0001 -0.0155
vn 0.2367 0.9715 -0.0110
vn 0.0162 -0.0353 -0.9992
vn 0.3794 0.8733 0.3056
vn -0.0175 0.9998 0.0005
vn 0.0410 0.9992 -0.0037
vn 0.1552 0.3312 0.9307
vn 0.7509 0.6603 0.0120
vn 0.5296 0.5745 0.6241
vn 0.4295 0.4667 0.7731
vn 0.0006 0.0007 1.0000
vn 0.0203 0.9996 0.0190
vn 0.0127 -0.0179 -0.9998
vn 0.9993 -0.0355 -0.0079
vn 0.9996 -0.0009 0.0291
vn 0.3710 0.9264 0.0648
vn -0.7252 0.6885 -0.0105
vn -0.9631 0.2688 -0.0111
vn -0.2640 0.9645 -0.0062
vn -0.7250 0.6886 -0.0106
vn -0.0202 0.9997 -0.0122
vn -0.0254 0.9996 0.0130
vn -0.0387 -0.0459 -0.9982
vn -0.0254 0.0115 0.9996
vn 0.0144 -0.0048 -0.9999
vn 0.0127 -0.0244 0.9996
vn 0.0024 -0.0026 -1.0000
vn 0.0083 -0.0251 0.9996
vn -0.9990 0.0356 0.0258
vn -0.0232 0.9996 0.0143
vn -0.9990 0.0369 0.0252
vn 0.0463 -0.0378 0.9982
vn 0.0058 -0.0303 -0.9995
vn -0.8960 -0.1561 0.4157
vn -0.9604 0.2784 -0.0154
vn -0.0780 0.4290 0.8999
vn -0.2652 0.9642 -0.0057
vn 0.0499 0.8143 0.5783
vn -0.0138 -0.0581 -0.9982
vn 0.4903 0.5850 0.6461
vn -0.1119 0.0977 0.9889
usemtl Gravestone1
s off
f 1/1/1 25/2/1 2/3/1
f 87/4/2 80/5/2 85/6/2
f 88/7/3 61/8/3 4/9/3
f 61/8/4 88/7/4 48/10/4
f 5/11/5 90/12/5 60/13/5
f 12/14/6 82/15/6 79/16/6
f 48/10/7 88/7/7 43/17/7
f 85/6/8 61/8/8 48/10/8
f 48/10/9 43/17/9 35/18/9
f 33/19/10 31/20/10 1/1/10
f 84/21/11 8/22/11 13/23/11
f 7/24/12 39/25/12 37/26/12
f 33/19/13 39/25/13 7/24/13
f 4/9/14 3/27/14 73/28/14
f 41/29/15 39/25/15 33/19/15
f 39/25/16 19/30/16 37/26/16
f 53/31/17 76/32/17 65/33/17
f 10/34/18 18/35/18 15/36/18
f 20/37/19 23/38/19 2/3/19
f 85/6/20 11/39/20 87/4/20
f 86/40/21 80/5/21 87/4/21
f 8/22/22 86/40/22 87/4/22
f 81/41/23 74/42/23 84/21/23
f 23/38/24 20/37/24 18/35/24
f 79/16/25 81/41/25 84/21/25
f 79/16/26 15/36/26 72/43/26
f 47/44/27 12/14/27 22/45/27
f 70/46/28 90/12/28 67/47/28
f 83/48/29 82/15/29 90/12/29
f 82/15/30 83/48/30 81/41/30
f 12/14/31 90/12/31 82/15/31
f 84/21/32 86/40/32 8/22/32
f 18/35/33 10/34/33 23/38/33
f 33/19/34 7/24/34 46/49/34
f 11/39/35 85/6/35 48/10/35
f 28/50/36 33/19/36 46/49/36
f 17/51/37 31/20/37 29/52/37
f 40/53/38 36/54/38 32/55/38
f 60/13/39 45/56/39 49/57/39
f 35/18/40 30/58/40 59/59/40
f 29/52/41 36/54/41 27/60/41
f 51/61/42 42/62/42 52/63/42
f 36/54/43 29/52/43 31/20/43
f 84/21/44 80/5/44 86/40/44
f 13/23/45 9/64/45 63/65/45
f 45/56/46 12/14/46 47/44/46
f 13/23/47 21/66/47 26/67/47
f 49/57/48 93/68/48 60/13/48
f 72/43/49 15/36/49 14/69/49
f 10/34/50 16/70/50 23/38/50
f 16/70/51 10/34/51 9/64/51
f 22/45/52 72/43/52 91/71/52
f 37/26/53 21/66/53 59/59/53
f 49/57/54 45/56/54 44/72/54
f 84/21/55 74/42/55 80/5/55
f 19/30/56 26/67/56 21/66/56
f 91/71/57 72/43/57 14/69/57
f 26/67/58 19/30/58 24/73/58
f 44/72/59 45/56/59 56/74/59
f 56/74/60 27/60/60 57/75/60
f 56/74/61 45/56/61 27/60/61
f 42/62/62 43/17/62 88/7/62
f 56/74/63 57/75/63 62/76/63
f 42/62/64 51/61/64 89/77/64
f 89/77/65 35/18/65 43/17/65
f 24/73/66 9/64/66 26/67/66
f 95/78/67 6/79/67 28/50/67
f 27/60/68 36/54/68 57/75/68
f 59/59/69 46/49/69 7/24/69
f 21/66/70 11/39/70 35/18/70
f 12/14/71 79/16/71 22/45/71
f 38/80/72 32/55/72 31/20/72
f 28/50/73 31/20/73 33/19/73
f 7/24/74 37/26/74 59/59/74
f 17/51/75 14/69/75 25/2/75
f 91/71/76 14/69/76 34/81/76
f 14/69/77 18/35/77 20/37/77
f 31/20/78 17/51/78 1/1/78
f 18/35/79 14/69/79 15/36/79
f 47/44/80 27/60/80 45/56/80
f 29/52/81 22/45/81 91/71/81
f 24/73/82 19/30/82 41/29/82
f 43/17/83 42/62/83 89/77/83
f 6/79/84 95/78/84 46/49/84
f 35/18/85 89/77/85 58/82/85
f 35/18/86 11/39/86 48/10/86
f 22/45/87 27/60/87 47/44/87
f 38/80/88 31/20/88 28/50/88
f 91/71/89 34/81/89 17/51/89
f 46/49/90 95/78/90 28/50/90
f 32/55/91 36/54/91 31/20/91
f 29/52/92 91/71/92 17/51/92
f 63/65/93 84/21/93 13/23/93
f 40/53/94 32/55/94 38/80/94
f 57/75/95 58/82/95 62/76/95
f 6/79/96 46/49/96 30/58/96
f 59/59/97 30/58/97 46/49/97
f 40/53/98 6/79/98 30/58/98
f 6/79/99 40/53/99 28/50/99
f 28/50/100 40/53/100 38/80/100
f 27/60/101 22/45/101 29/52/101
f 21/66/102 35/18/102 59/59/102
f 30/58/103 35/18/103 58/82/103
f 24/73/104 41/29/104 1/1/104
f 34/81/105 14/69/105 17/51/105
f 24/73/106 1/1/106 2/3/106
f 33/19/107 1/1/107 41/29/107
f 17/51/108 25/2/108 1/1/108
f 41/29/109 19/30/109 39/25/109
f 16/70/110 2/3/110 23/38/110
f 21/66/111 37/26/111 19/30/111
f 2/3/112 25/2/112 20/37/112
f 14/69/113 20/37/113 25/2/113
f 8/22/114 87/4/114 11/39/114
f 2/3/115 16/70/115 24/73/115
f 79/16/116 82/15/116 81/41/116
f 21/66/117 8/22/117 11/39/117
f 9/64/118 13/23/118 26/67/118
f 16/70/119 9/64/119 24/73/119
f 22/45/120 79/16/120 72/43/120
f 21/66/121 13/23/121 8/22/121
f 44/72/122 56/74/122 62/76/122
f 65/33/123 75/83/123 71/84/123
f 76/32/124 73/28/124 65/33/124
f 42/62/125 93/68/125 52/63/125
f 52/63/126 93/68/126 49/57/126
f 75/83/127 73/28/127 3/27/127
f 5/11/128 92/85/128 53/31/128
f 64/86/129 66/87/129 3/27/129
f 80/5/130 74/42/130 85/6/130
f 74/42/131 78/88/131 85/6/131
f 50/89/132 88/7/132 69/90/132
f 58/82/133 57/75/133 30/58/133
f 69/90/134 93/68/134 50/89/134
f 88/7/135 50/89/135 42/62/135
f 58/82/136 89/77/136 52/63/136
f 89/77/137 51/61/137 52/63/137
f 93/68/138 42/62/138 50/89/138
f 69/90/139 88/7/139 77/91/139
f 52/63/140 44/72/140 62/76/140
f 53/31/141 71/84/141 5/11/141
f 60/13/142 90/12/142 45/56/142
f 69/90/143 55/92/143 93/68/143
f 54/93/144 55/92/144 77/91/144
f 55/92/145 92/85/145 93/68/145
f 81/41/146 70/46/146 74/42/146
f 76/32/147 77/91/147 73/28/147
f 85/6/148 3/27/148 61/8/148
f 76/32/149 53/31/149 54/93/149
f 65/33/150 73/28/150 75/83/150
f 30/58/151 57/75/151 40/53/151
f 60/13/152 92/85/152 5/11/152
f 55/92/153 69/90/153 77/91/153
f 55/92/154 54/93/154 92/85/154
f 92/85/155 60/13/155 93/68/155
f 12/14/156 45/56/156 90/12/156
f 40/53/157 57/75/157 36/54/157
f 77/91/158 4/9/158 73/28/158
f 58/82/159 52/63/159 62/76/159
f 44/72/160 52/63/160 49/57/160
f 76/32/161 54/93/161 77/91/161
f 67/47/162 68/94/162 78/88/162
f 94/95/163 74/42/163 70/46/163
f 68/94/164 66/87/164 64/86/164
f 94/95/165 67/47/165 78/88/165
f 75/83/166 3/27/166 66/87/166
f 15/36/167 63/65/167 10/34/167
f 85/6/168 78/88/168 68/94/168
f 5/11/169 71/84/169 90/12/169
f 77/91/170 88/7/170 4/9/170
f 67/47/171 90/12/171 66/87/171
f 3/27/172 68/94/172 64/86/172
f 71/84/173 66/87/173 90/12/173
f 63/65/174 79/16/174 84/21/174
f 63/65/175 9/64/175 10/34/175
f 79/16/176 63/65/176 15/36/176
f 70/46/177 83/48/177 90/12/177
f 3/27/178 85/6/178 68/94/178
f 83/48/179 70/46/179 81/41/179
f 74/42/180 94/95/180 78/88/180
f 71/84/181 53/31/181 65/33/181
f 66/87/182 68/94/182 67/47/182
f 66/87/183 71/84/183 75/83/183
f 61/8/184 3/27/184 4/9/184
f 53/31/185 92/85/185 54/93/185
f 70/46/186 67/47/186 94/95/186
