# Blender v2.90.1 OBJ File: 'NaturePack_AllModels.blend'
# www.blender.org
mtllib tomb2.mtl
o Gravestone2_Cube.003
v 16.720789 -0.056634 11.371572
v 16.093513 1.090350 12.037482
v 15.446573 -0.073810 11.610852
v 15.697869 1.247749 12.068366
v 15.168568 1.344290 11.939289
v 16.624807 1.226375 11.495053
v 15.701992 0.163185 11.558008
v 15.704041 1.055040 11.496179
v 16.556757 0.565767 11.528943
v 16.127964 1.056144 11.507308
v 16.207563 0.122955 11.598808
v 16.269016 0.124628 11.403838
v 15.632318 0.182376 11.351478
v 16.056091 -0.103707 11.407386
v 15.818358 0.741737 11.464301
v 16.198652 0.509476 11.531803
v 16.718864 0.218896 12.191290
v 16.712149 -0.026662 12.189626
v 16.700163 -0.031485 11.871494
v 16.734161 0.187254 11.356527
v 16.703083 0.168706 11.728237
v 16.726118 0.057336 11.819736
v 15.434241 -0.053432 12.214621
v 16.294422 -0.128183 11.702642
v 15.092957 -0.046943 12.202389
v 15.109943 0.189028 11.353273
v 16.394239 -0.040713 12.197936
v 15.107354 -0.045743 11.356806
v 16.286615 0.202435 12.209106
v 15.549377 0.190988 12.216092
v 16.002214 -0.089197 11.951935
v 16.434351 -0.107734 11.868412
v 15.244998 0.801978 12.023759
v 15.885788 0.559854 12.005194
v 16.105114 0.176002 12.037218
v 16.534933 0.354355 12.002076
v 15.251855 0.762485 11.522713
v 15.191525 1.041766 11.524687
v 15.267451 0.650187 11.617115
v 15.293663 0.173248 11.561480
v 15.221281 1.096580 12.034518
v 15.315073 0.610514 11.537314
v 15.315796 1.917583 11.471751
v 15.950591 1.906123 11.457458
v 15.311673 1.777210 11.449668
v 15.184272 1.603446 12.051616
v 15.153690 1.766273 11.464494
v 15.109807 1.927441 12.081350
v 15.168370 1.529091 11.987043
v 15.134863 1.903529 11.653854
v 15.247521 1.300666 12.038738
v 16.614956 1.767150 12.055550
v 16.682840 1.784390 12.015930
v 16.407425 1.901814 12.056001
v 16.657011 1.530236 12.043575
v 16.651848 1.590623 11.497963
v 16.624008 0.916249 12.054329
v 16.417585 1.902189 11.474293
v 16.647957 1.897839 11.690388
v 15.545058 1.901984 12.062283
v 16.431425 1.405078 11.474727
v 15.907839 1.915618 12.081783
v 16.642218 1.890023 11.963297
v 16.682688 1.797627 11.506073
v 15.236969 1.912848 11.556183
v 15.095672 0.181062 12.197521
v 16.543844 0.198625 11.570781
v 16.532095 0.203508 11.989797
v 15.295276 0.169597 12.019916
vt 0.000000 0.000000
vt 0.000000 0.000000
vt 0.000000 0.000000
vt 0.000000 0.000000
vt 0.000000 0.000000
vt 0.000000 0.000000
vt 0.000000 0.000000
vt 0.000000 0.000000
vt 0.000000 0.000000
vt 0.000000 0.000000
vt 0.000000 0.000000
vt 0.000000 0.000000
vt 0.000000 0.000000
vt 0.000000 0.000000
vt 0.000000 0.000000
vt 0.000000 0.000000
vt 0.000000 0.000000
vt 0.000000 0.000000
vt 0.000000 0.000000
vt 0.000000 0.000000
vt 0.000000 0.000000
vt 0.000000 0.000000
vt 0.000000 0.000000
vt 0.000000 0.000000
vt 0.000000 0.000000
vt 0.000000 0.000000
vt 0.000000 0.000000
vt 0.000000 0.000000
vt 0.000000 0.000000
vt 0.000000 0.000000
vt 0.000000 0.000000
vt 0.000000 0.000000
vt 0.000000 0.000000
vt 0.000000 0.000000
vt 0.000000 0.000000
vt 0.000000 0.000000
vt 0.000000 0.000000
vt 0.000000 0.000000
vt 0.000000 0.000000
vt 0.000000 0.000000
vt 0.000000 0.000000
vt 0.000000 0.000000
vt 0.000000 0.000000
vt 0.000000 0.000000
vt 0.000000 0.000000
vt 0.000000 0.000000
vt 0.000000 0.000000
vt 0.000000 0.000000
vt 0.000000 0.000000
vt 0.000000 0.000000
vt 0.000000 0.000000
vt 0.000000 0.000000
vt 0.000000 0.000000
vt 0.000000 0.000000
vt 0.000000 0.000000
vt 0.000000 0.000000
vt 0.000000 0.000000
vt 0.000000 0.000000
vt 0.000000 0.000000
vt 0.000000 0.000000
vt 0.000000 0.000000
vt 0.000000 0.000000
vt 0.000000 0.000000
vt 0.000000 0.000000
vt 0.000000 0.000000
vt 0.000000 0.000000
vt 0.000000 0.000000
vt 0.000000 0.000000
vt 0.000000 0.000000
vn -0.0059 -0.2002 -0.9797
vn 0.9569 0.2749 0.0937
vn -0.0458 -0.0428 0.9980
vn -0.0255 0.0189 0.9995
vn 0.2664 -0.9377 0.2231
vn 0.0253 0.9961 0.0840
vn -0.9503 -0.0874 0.2987
vn -0.9984 -0.0535 -0.0163
vn -0.9997 -0.0075 0.0247
vn -0.0048 -0.2041 0.9789
vn 0.0741 -0.0845 -0.9937
vn -0.0670 -0.0120 0.9977
vn 0.0104 -0.1019 -0.9947
vn 0.0263 -0.0530 -0.9982
vn 0.1268 0.0200 -0.9917
vn 0.0258 0.1105 -0.9935
vn -0.0123 -0.1575 -0.9874
vn -0.0723 -0.0574 0.9957
vn -0.0321 -0.0652 -0.9974
vn 0.0360 0.0001 -0.9994
vn 0.1608 -0.0234 -0.9867
vn 0.9947 -0.1025 0.0001
vn 0.9856 -0.1487 -0.0810
vn -0.0009 -0.0449 -0.9990
vn -0.0073 -0.0505 -0.9987
vn -0.0603 -0.9976 -0.0340
vn 0.0659 -0.1690 -0.9834
vn -0.0564 0.0371 -0.9977
vn -0.0423 0.9932 -0.1081
vn -0.1066 -0.1389 -0.9845
vn 0.0629 -0.9891 -0.1328
vn -0.0434 -0.1716 -0.9842
vn 0.0688 -0.1730 -0.9825
vn 0.0849 0.9943 0.0637
vn -0.1311 -0.0483 -0.9902
vn -0.0554 -0.0049 -0.9985
vn 0.0767 0.9965 0.0327
vn 0.1572 -0.9875 -0.0109
vn 0.2746 -0.9597 0.0596
vn -0.1000 0.0645 -0.9929
vn 0.0099 -0.1136 -0.9935
vn -0.2325 0.9382 -0.2563
vn -0.0935 -0.0562 -0.9940
vn 0.9985 -0.0546 0.0020
vn 0.1905 0.9817 -0.0061
vn 0.9994 -0.0211 0.0283
vn 0.9990 -0.0315 0.0320
vn -0.1368 0.9900 -0.0346
vn 0.9664 -0.2517 0.0525
vn 0.1153 -0.0827 0.9899
vn 0.1267 0.9901 0.0600
vn 0.9543 -0.2972 -0.0314
vn 0.9855 0.1618 -0.0511
vn -0.0234 -0.0889 0.9958
vn 0.0096 -0.0106 0.9999
vn 0.0201 -0.9839 0.1774
vn -0.9902 -0.1330 0.0422
vn -0.0674 -0.9972 0.0323
vn -0.0036 -0.9800 0.1989
vn -0.0162 -0.9906 0.1359
vn 0.0445 -0.9989 0.0135
vn -0.0593 -0.9978 -0.0310
vn -0.0531 -0.0854 -0.9949
vn 0.0156 -0.0352 0.9993
vn -0.0183 0.9962 -0.0849
vn -0.0057 0.9949 -0.1011
vn 0.0179 -0.0380 0.9991
vn 0.0523 -0.0156 -0.9985
vn 0.0129 0.9979 0.0642
vn 0.0265 -0.0075 0.9996
vn -0.0659 0.9977 -0.0151
vn 0.9991 -0.0275 0.0315
vn -0.1057 -0.9939 0.0314
vn -0.9998 0.0116 -0.0168
vn -0.9998 0.0108 -0.0170
vn 0.0422 -0.0272 0.9987
vn -0.0189 -0.9998 -0.0017
vn 0.0160 -0.9855 0.1688
vn -0.0414 0.0218 0.9989
vn -0.0167 0.9907 -0.1348
vn -0.0356 0.0108 0.9993
vn -0.9965 -0.0791 -0.0255
vn 0.0736 0.9972 0.0107
vn -0.0038 -0.0593 0.9982
vn -0.8557 0.0133 -0.5173
vn -0.9823 -0.1868 0.0155
vn -0.8630 -0.3899 -0.3212
vn -0.7619 0.0847 0.6421
vn -0.0219 0.0707 0.9973
vn 0.0379 0.1045 0.9938
vn -0.0853 -0.1101 -0.9903
vn -0.9737 -0.2097 -0.0886
vn -0.9985 -0.0552 0.0031
vn 0.0642 0.9979 0.0077
vn -0.0194 0.1559 -0.9876
vn -0.1158 0.5732 -0.8112
vn 0.0275 -0.0039 0.9996
vn -0.8053 -0.1492 0.5739
vn -0.8433 -0.2380 0.4818
vn -0.5586 0.6442 -0.5225
vn -0.0224 0.9991 0.0351
vn -0.0446 0.9978 0.0486
vn -0.9899 -0.1374 -0.0345
vn -0.9966 -0.0608 -0.0550
vn -0.0366 0.9992 -0.0177
vn -0.8720 -0.2011 0.4463
vn -0.7286 0.1273 -0.6730
vn 0.0560 0.9970 -0.0525
vn 0.0185 0.9996 0.0192
vn 0.0227 -0.0520 -0.9984
vn 0.0621 -0.0396 0.9973
vn 0.1032 0.0020 -0.9947
vn 0.0269 0.9995 -0.0134
vn 0.3285 0.5194 0.7889
vn -0.0382 -0.0081 0.9992
vn -0.0548 0.0306 0.9980
vn 0.0503 -0.0422 0.9978
vn 0.0388 -0.0825 0.9958
vn 0.9948 -0.1014 -0.0029
vn 0.9278 0.3718 0.0302
vn 0.9492 0.3145 0.0079
vn 0.4952 0.0440 0.8677
vn 0.3850 -0.0212 -0.9227
vn 0.9981 -0.0542 -0.0286
vn 0.1047 0.0002 -0.9945
vn 0.0084 1.0000 0.0008
vn 0.0100 -0.0267 0.9996
vn 0.0180 0.9998 0.0010
vn 0.9949 -0.1008 -0.0026
vn 0.3781 0.8413 -0.3862
vn 0.0356 0.9934 -0.1089
vn 0.3368 0.5164 0.7873
vn 0.0619 0.9976 0.0299
vn -0.0345 -0.0566 0.9978
usemtl Gravestone1
s off
f 13/1/1 14/2/1 26/3/1
f 22/4/2 20/5/2 21/6/2
f 34/7/3 57/8/3 2/9/3
f 57/8/4 55/10/4 2/9/4
f 27/11/5 32/12/5 19/13/5
f 40/14/6 7/15/6 13/1/6
f 5/16/7 33/17/7 41/18/7
f 38/19/8 5/16/8 47/20/8
f 5/16/9 49/21/9 47/20/9
f 4/22/10 41/18/10 2/9/10
f 13/1/11 12/23/11 14/2/11
f 4/22/12 51/24/12 41/18/12
f 10/25/13 61/26/13 6/27/13
f 44/28/14 10/25/14 8/29/14
f 58/30/15 64/31/15 56/32/15
f 15/33/16 8/29/16 10/25/16
f 40/14/17 15/33/17 7/15/17
f 46/34/18 51/24/18 4/22/18
f 44/28/19 61/26/19 10/25/19
f 61/26/20 44/28/20 58/30/20
f 10/25/21 16/35/21 15/33/21
f 9/36/22 6/27/22 36/37/22
f 36/37/23 6/27/23 57/8/23
f 10/25/24 9/36/24 16/35/24
f 6/27/25 9/36/25 10/25/25
f 3/38/26 14/2/26 24/39/26
f 7/15/27 16/35/27 11/40/27
f 1/41/28 14/2/28 12/23/28
f 35/42/29 29/43/29 17/44/29
f 37/45/30 15/33/30 42/46/30
f 24/39/31 14/2/31 1/41/31
f 11/40/32 16/35/32 67/47/32
f 15/33/33 16/35/33 7/15/33
f 12/23/34 13/1/34 7/15/34
f 15/33/35 40/14/35 42/46/35
f 37/45/36 38/19/36 8/29/36
f 12/23/37 7/15/37 11/40/37
f 1/41/38 32/12/38 24/39/38
f 1/41/39 19/13/39 32/12/39
f 37/45/40 8/29/40 15/33/40
f 67/47/41 16/35/41 9/36/41
f 20/5/42 11/40/42 67/47/42
f 12/23/43 20/5/43 1/41/43
f 22/4/44 1/41/44 20/5/44
f 67/47/45 68/48/45 21/6/45
f 67/47/46 36/37/46 68/48/46
f 67/47/47 9/36/47 36/37/47
f 11/40/48 20/5/48 12/23/48
f 19/13/49 1/41/49 22/4/49
f 68/48/50 36/37/50 35/42/50
f 21/6/51 20/5/51 67/47/51
f 18/49/52 19/13/52 22/4/52
f 21/6/53 17/44/53 22/4/53
f 36/37/54 57/8/54 34/7/54
f 29/43/55 30/50/55 23/51/55
f 24/39/56 31/52/56 23/51/56
f 33/17/57 5/16/57 38/19/57
f 3/38/58 24/39/58 23/51/58
f 31/52/59 32/12/59 27/11/59
f 32/12/60 31/52/60 24/39/60
f 19/13/61 18/49/61 27/11/61
f 14/2/62 3/38/62 28/53/62
f 38/19/63 47/20/63 8/29/63
f 34/7/64 41/18/64 33/17/64
f 66/54/65 30/50/65 69/55/65
f 69/55/66 30/50/66 35/42/66
f 23/51/67 27/11/67 29/43/67
f 14/2/68 28/53/68 26/3/68
f 13/1/69 26/3/69 40/14/69
f 18/49/70 17/44/70 27/11/70
f 35/42/71 17/44/71 68/48/71
f 18/49/72 22/4/72 17/44/72
f 23/51/73 28/53/73 3/38/73
f 66/54/74 26/3/74 25/56/74
f 25/56/75 26/3/75 28/53/75
f 17/44/76 29/43/76 27/11/76
f 25/56/77 28/53/77 23/51/77
f 23/51/78 31/52/78 27/11/78
f 30/50/79 66/54/79 25/56/79
f 30/50/80 29/43/80 35/42/80
f 30/50/81 25/56/81 23/51/81
f 33/17/82 39/57/82 69/55/82
f 66/54/83 40/14/83 26/3/83
f 34/7/84 2/9/84 41/18/84
f 40/14/85 39/57/85 42/46/85
f 39/57/86 33/17/86 38/19/86
f 37/45/87 42/46/87 39/57/87
f 5/16/88 41/18/88 51/24/88
f 69/55/89 35/42/89 34/7/89
f 34/7/90 35/42/90 36/37/90
f 8/29/91 47/20/91 45/58/91
f 37/45/92 39/57/92 38/19/92
f 39/57/93 40/14/93 69/55/93
f 69/55/94 40/14/94 66/54/94
f 45/58/95 43/59/95 44/28/95
f 47/20/96 65/60/96 45/58/96
f 33/17/97 69/55/97 34/7/97
f 51/24/98 49/21/98 5/16/98
f 48/61/99 49/21/99 46/34/99
f 50/62/100 65/60/100 47/20/100
f 60/63/101 43/59/101 65/60/101
f 50/62/102 60/63/102 65/60/102
f 49/21/103 48/61/103 47/20/103
f 50/62/104 47/20/104 48/61/104
f 60/63/105 62/64/105 44/28/105
f 49/21/106 51/24/106 46/34/106
f 45/58/107 65/60/107 43/59/107
f 60/63/108 50/62/108 48/61/108
f 43/59/109 60/63/109 44/28/109
f 8/29/110 45/58/110 44/28/110
f 62/64/111 4/22/111 2/9/111
f 56/32/112 61/26/112 58/30/112
f 62/64/113 54/65/113 44/28/113
f 53/66/114 63/67/114 52/68/114
f 46/34/115 4/22/115 62/64/115
f 62/64/116 60/63/116 46/34/116
f 2/9/117 54/65/117 62/64/117
f 46/34/118 60/63/118 48/61/118
f 53/66/119 55/10/119 64/31/119
f 53/66/120 59/69/120 63/67/120
f 59/69/121 53/66/121 64/31/121
f 55/10/122 53/66/122 52/68/122
f 6/27/123 56/32/123 64/31/123
f 6/27/124 55/10/124 57/8/124
f 56/32/125 6/27/125 61/26/125
f 54/65/126 58/30/126 44/28/126
f 54/65/127 2/9/127 55/10/127
f 58/30/128 54/65/128 59/69/128
f 55/10/129 6/27/129 64/31/129
f 59/69/130 64/31/130 58/30/130
f 17/44/131 21/6/131 68/48/131
f 52/68/132 63/67/132 54/65/132
f 54/65/133 63/67/133 59/69/133
f 55/10/134 52/68/134 54/65/134
