# Blender v2.90.1 OBJ File: 'NaturePack_AllModels.blend'
# www.blender.org
mtllib wooden_stick1.mtl
o Fence5_Cylinder.018
v 23.562866 -0.132118 12.617518
v 23.580105 0.122264 13.307609
v 23.362511 0.142554 13.202953
v 23.595499 0.038925 13.565304
v 23.295927 0.049077 12.489273
v 23.618164 0.031750 12.445911
v 23.398970 0.133923 12.458337
v 23.551502 -0.134445 12.013218
v 23.351730 -0.060278 13.567628
v 23.475355 0.173968 13.211580
v 23.289326 0.143151 11.645797
v 23.629154 0.107963 11.425194
v 23.622044 -0.126424 10.968071
v 23.340803 -0.180187 11.112331
v 23.303642 -0.117758 10.966284
v 23.234221 -0.055537 11.142182
v 23.245941 0.054153 10.978065
v 23.322039 0.167385 10.990518
v 23.696075 0.070227 10.943516
v 23.614998 -0.055138 12.056894
v 23.532736 0.124847 12.445924
v 23.237989 0.031653 11.738304
v 23.286793 -0.061103 12.440329
v 23.419970 -0.166239 12.114878
v 23.415375 -0.101153 13.582328
v 23.498707 -0.105847 13.567530
v 23.321522 0.052870 13.574181
v 23.415722 0.145641 13.580793
v 23.522606 0.135492 13.583407
v 23.578619 -0.035180 13.580185
v 23.505348 -0.197496 10.973223
v 23.457258 0.205783 10.962847
v 23.599186 0.189273 10.934296
v 23.683243 -0.017704 10.929563
v 23.438002 -0.162219 12.705167
v 23.342424 -0.126294 12.518132
v 23.378193 0.205267 11.710053
v 23.531502 0.192154 11.707261
vt 0.000000 0.000000
vt 0.000000 0.000000
vt 0.000000 0.000000
vt 0.000000 0.000000
vt 0.000000 0.000000
vt 0.000000 0.000000
vt 0.000000 0.000000
vt 0.000000 0.000000
vt 0.000000 0.000000
vt 0.000000 0.000000
vt 0.000000 0.000000
vt 0.000000 0.000000
vt 0.000000 0.000000
vt 0.000000 0.000000
vt 0.000000 0.000000
vt 0.000000 0.000000
vt 0.000000 0.000000
vt 0.000000 0.000000
vt 0.000000 0.000000
vt 0.000000 0.000000
vt 0.000000 0.000000
vt 0.000000 0.000000
vt 0.000000 0.000000
vt 0.000000 0.000000
vt 0.000000 0.000000
vt 0.828047 0.996056
vt 0.868507 0.998483
vt 0.732869 0.997560
vt 0.220230 0.979662
vt 0.346188 0.978127
vt 0.272115 0.997779
vt 0.024333 0.994567
vt 0.115547 0.994927
vt 0.006554 1.000000
vt 0.850864 0.502647
vt 0.755152 0.501172
vt 0.866561 0.500000
vt 0.273779 0.502298
vt 0.257985 0.500000
vt 0.369933 0.501288
vt 0.093813 0.502657
vt 0.005418 0.503315
vt 0.116561 0.500000
vt 0.791134 0.915002
vt 0.365456 0.410712
vt 0.051033 0.244935
vt 0.461868 0.242842
vt 0.218994 0.049758
vt 0.097592 0.401703
vt 0.717632 0.856565
vt 0.628670 0.998210
vt 0.591829 0.856564
vt 0.505026 0.869711
vt 0.434638 0.996004
vt 0.396033 0.856564
vt 0.528817 0.997037
vt 0.250000 0.856564
vt 0.156478 0.856564
vt 0.783632 0.548616
vt 0.655736 0.565161
vt 0.723698 0.501994
vt 0.000176 0.566402
vt 0.040849 0.856565
vt 0.587094 0.501744
vt 0.531753 0.565175
vt 0.937500 0.856565
vt 0.908774 0.995753
vt 0.996699 0.994421
vt 0.808388 0.433701
vt 0.949821 0.249444
vt 0.566374 0.308611
vt 0.602585 0.103467
vt 0.837950 0.078537
vt 0.246034 0.998263
vt 0.133743 0.994507
vt 0.371154 0.998243
vt 0.621305 0.998150
vt 0.508534 1.000000
vt 0.401910 0.098090
vt 0.312500 0.856564
vt 0.448999 0.503065
vt 1.000000 0.856565
vn 0.9084 -0.4173 0.0272
vn -0.8772 0.4797 0.0190
vn -0.9971 0.0723 0.0233
vn -0.7862 -0.6163 0.0457
vn -0.4519 -0.8900 0.0600
vn 0.7362 0.6756 -0.0384
vn 0.2635 -0.9636 0.0444
vn 0.4591 0.8881 -0.0226
vn 0.0621 0.9963 -0.0593
vn -0.0440 -0.9967 0.0683
vn -0.5470 -0.8359 0.0441
vn -0.6423 0.7654 -0.0403
vn -0.9639 -0.2605 0.0557
vn 0.9913 -0.1297 0.0209
vn 0.2340 -0.9722 -0.0005
vn -0.3824 -0.9238 0.0180
vn 0.9717 0.2356 0.0182
vn 0.9758 -0.2170 0.0261
vn -0.2664 0.9636 -0.0242
vn -0.6163 0.7821 0.0921
vn 0.2345 -0.9721 -0.0007
vn 0.7446 0.6648 0.0593
vn 0.7839 -0.6208 -0.0124
vn -0.9959 0.0490 0.0757
vn 0.0865 0.9922 0.0903
vn 0.0760 0.9928 0.0925
vn -0.8877 0.4567 0.0579
vn 0.2372 0.1184 -0.9642
vn -0.7668 -0.6372 -0.0773
vn 0.2273 -0.4363 -0.8706
vn 0.3656 0.1025 0.9251
vn -0.3051 -0.1360 0.9425
vn 0.1467 -0.3327 0.9316
vn 0.7355 0.6750 0.0583
vn -0.6142 0.7838 0.0918
vn 0.7721 0.6329 0.0577
vn 0.9980 -0.0633 0.0060
vn -0.0924 -0.0148 -0.9956
vn -0.1318 0.0237 -0.9910
vn -0.0434 -0.1950 -0.9798
vn 0.5786 0.8145 -0.0428
vn -0.5440 0.8372 -0.0570
vn -0.9954 0.0950 -0.0076
vn -0.8287 0.5592 -0.0207
vn -0.7567 -0.6532 0.0259
vn -0.0872 -0.9960 0.0207
vn 0.4110 0.9107 0.0420
vn 0.6552 -0.7526 0.0651
vn 0.5209 -0.8532 0.0286
vn -0.2702 0.9623 0.0302
vn 0.9868 -0.1527 0.0547
vn 0.8764 -0.4802 0.0371
vn 0.0183 -0.0129 0.9997
vn -0.0540 0.0199 0.9983
vn -0.0284 -0.0423 0.9987
vn 0.8027 0.5798 0.1395
vn -0.3426 -0.8922 -0.2942
vn -0.9206 -0.2911 -0.2603
vn -0.2685 0.2818 -0.9212
vn -0.1781 0.1506 -0.9724
vn 0.0854 0.9963 0.0097
vn 0.1445 0.9776 0.1531
vn -0.2689 0.9629 0.0222
vn -0.9074 0.4202 0.0029
vn -0.7770 -0.6288 0.0288
vn -0.9745 -0.2212 0.0385
vn -0.2993 -0.9535 0.0369
vn 0.0919 0.9916 0.0909
vn 0.2685 -0.9622 0.0464
vn -0.7019 0.7061 0.0931
vn 0.9397 0.3254 0.1051
vn 0.7670 -0.6399 0.0469
usemtl Fence1_1
s off
f 20/1/1 30/2/1 1/3/1
f 27/4/2 3/5/2 5/6/2
f 23/7/3 27/4/3 5/6/3
f 36/8/4 9/9/4 23/7/4
f 35/10/5 9/9/5 36/8/5
f 2/11/6 6/12/6 21/13/6
f 1/3/7 26/14/7 35/10/7
f 10/15/8 2/11/8 21/13/8
f 10/15/9 21/13/9 7/16/9
f 26/14/10 25/17/10 35/10/10
f 9/9/11 35/10/11 25/17/11
f 3/5/12 7/16/12 5/6/12
f 27/4/13 23/7/13 9/9/13
f 4/18/14 20/1/14 6/12/14
f 35/10/15 24/19/15 1/3/15
f 24/19/16 35/10/16 36/8/16
f 6/12/17 2/11/17 4/18/17
f 20/1/18 4/18/18 30/2/18
f 7/16/19 3/5/19 10/15/19
f 11/20/20 5/6/20 7/16/20
f 8/21/21 1/3/21 24/19/21
f 38/22/22 21/13/22 12/23/22
f 20/1/23 1/3/23 8/21/23
f 22/24/24 23/7/24 5/6/24
f 21/13/25 38/22/25 37/25/25
f 37/25/26 7/16/26 21/13/26
f 22/24/27 5/6/27 11/20/27
f 19/26/28 34/27/28 33/28/28
f 14/29/29 16/30/29 15/31/29
f 13/32/30 31/33/30 34/34/30
f 4/35/31 29/36/31 30/37/31
f 9/38/32 25/39/32 27/40/32
f 26/41/33 30/42/33 25/43/33
f 12/23/34 21/13/34 6/12/34
f 7/16/35 37/25/35 11/20/35
f 12/44/36 19/26/36 33/28/36
f 12/23/37 6/12/37 20/1/37
f 34/45/38 15/46/38 33/47/38
f 33/47/39 15/46/39 17/48/39
f 31/49/40 15/46/40 34/45/40
f 38/50/41 12/44/41 32/51/41
f 37/52/42 32/51/42 11/53/42
f 17/54/43 16/30/43 22/55/43
f 11/53/44 18/56/44 17/54/44
f 16/30/45 14/29/45 36/57/45
f 14/29/46 31/33/46 24/58/46
f 2/59/47 10/60/47 29/61/47
f 26/41/48 1/62/48 30/42/48
f 31/33/49 13/32/49 8/63/49
f 28/64/50 10/60/50 3/65/50
f 20/66/51 34/67/51 19/26/51
f 13/68/52 34/67/52 20/66/52
f 30/69/53 29/70/53 25/71/53
f 25/71/54 29/70/54 27/72/54
f 27/72/55 29/70/55 28/73/55
f 2/59/56 29/36/56 4/35/56
f 14/29/57 15/74/57 31/75/57
f 16/30/58 17/76/58 15/31/58
f 18/56/59 32/77/59 17/78/59
f 33/47/60 17/48/60 32/79/60
f 38/50/61 32/51/61 37/52/61
f 12/44/62 33/28/62 32/51/62
f 32/51/63 18/56/63 11/53/63
f 11/53/64 17/54/64 22/55/64
f 16/30/65 36/57/65 23/80/65
f 16/30/66 23/80/66 22/55/66
f 14/29/67 24/58/67 36/57/67
f 29/61/68 10/60/68 28/64/68
f 31/33/69 8/63/69 24/58/69
f 28/64/70 3/65/70 27/81/70
f 20/66/71 19/26/71 12/44/71
f 13/68/72 20/66/72 8/82/72
