# 3ds Max Wavefront OBJ Exporter v0.97b - (c)2007 guruware
# File Created: 08.11.2017 16:27:13

mtllib paper airplane.mtl

#
# object paper_airplane
#

v  -0.0005 3.8783 154.5845
v  -0.7875 3.9013 154.5835
v  -41.1715 3.8783 -149.0275
v  -40.3835 3.8783 -149.0015
v  41.1715 3.8783 -149.0275
v  0.7875 3.9013 154.5835
v  40.3835 3.8783 -149.0015
v  -105.6995 36.4203 -154.5845
v  -0.0005 70.4853 -137.9455
v  -64.2855 29.6273 -32.8705
v  -25.5755 11.0913 -19.3265
v  -30.2665 38.0803 -19.0945
v  -115.3535 -0.3197 -50.7385
v  105.6995 36.6323 -154.5835
v  64.2855 29.6273 -32.8705
v  25.5755 11.0913 -19.3265
v  30.2665 38.0803 -19.0945
v  115.3535 -0.1077 -50.7385
# 18 vertices

vn -0.0146 -0.9999 0.0020
vn 0.0146 -0.9999 0.0020
vn -0.4536 -0.8892 0.0604
vn 0.8578 -0.5011 -0.1141
vn 0.4390 0.8981 -0.0254
vn -0.9764 -0.1708 0.1321
vn 0.4824 -0.8389 -0.2519
vn -0.5581 0.7754 0.2955
vn 0.4559 -0.8879 0.0607
vn -0.8578 -0.5011 -0.1141
vn -0.4390 0.8981 -0.0254
vn 0.9764 -0.1708 0.1321
vn -0.4814 -0.8394 -0.2522
vn 0.5558 0.7773 0.2949

vn 0.0146 0.9999 -0.0020
vn -0.0146 0.9999 -0.0020
vn 0.4536 0.8892 -0.0604
vn -0.8578 0.5011 0.1141
vn -0.4390 -0.8981 0.0254
vn 0.9764 0.1708 -0.1321
vn -0.4824 0.8389 0.2519
vn 0.5581 -0.7754 -0.2955
vn -0.4559 0.8879 -0.0607
vn 0.8578 0.5011 0.1141
vn 0.4390 -0.8981 0.0254
vn -0.9764 0.1708 -0.1321
vn 0.4814 0.8394 0.2522
vn -0.5558 -0.7773 -0.2949
# 14 vertex normals (doubled).

vt 0.4885 0.9324 0.0000
vt 0.4902 0.9324 0.0000
vt 0.8112 0.4501 0.0000
vt 0.8096 0.4501 0.0000
vt 0.1626 0.4500 0.0000
vt 0.4869 0.9324 0.0000
vt 0.1643 0.4501 0.0000
vt 1.0180 0.4501 0.0000
vt 0.4889 0.4500 0.0000
vt 1.0181 0.7352 0.0000
vt 1.0181 0.8309 0.0000
vt 1.0180 0.9324 0.0000
vt 1.0181 0.6161 0.0000
vt -0.0417 0.4498 0.0000
vt -0.0417 0.7356 0.0000
vt -0.0418 0.8344 0.0000
vt -0.0416 0.9326 0.0000
vt -0.0417 0.6158 0.0000
# 18 texture coords

g paper_airplane
usemtl wire_135110008
s off
# back faces added manually.
f 4/4/15   3/3/15   2/2/15 1/1/15
f 7/7/16   1/1/16   6/6/16 5/5/16
f 8/8/17   2/2/17   3/3/17
f 9/9/18   4/4/18   1/1/18
f 2/2/19   10/10/19 11/11/19 
f 11/11/20 12/12/20 2/2/20 
f 8/8/21   13/13/21 2/2/21 
f 13/13/22 10/10/22 2/2/22 
f 14/14/23 5/5/23   6/6/23 
f 7/7/24   9/9/24   1/1/24 
f 15/15/25 6/6/25   16/16/25 
f 17/17/26 16/16/26 6/6/26 
f 18/18/27 14/14/27 6/6/27 
f 15/15/28 18/18/28 6/6/28 

f 1/1/1 2/2/1 3/3/1 4/4/1 
f 5/5/2 6/6/2 1/1/2 7/7/2 
f 8/8/3 3/3/3 2/2/3 
f 4/4/4 9/9/4 1/1/4 
f 10/10/5 2/2/5 11/11/5 
f 12/12/6 11/11/6 2/2/6 
f 13/13/7 8/8/7 2/2/7 
f 10/10/8 13/13/8 2/2/8 
f 5/5/9 14/14/9 6/6/9 
f 9/9/10 7/7/10 1/1/10 
f 6/6/11 15/15/11 16/16/11 
f 16/16/12 17/17/12 6/6/12 
f 14/14/13 18/18/13 6/6/13 
f 18/18/14 15/15/14 6/6/14 

# 2 polygons - 12 triangles

